<?xml version="1.0" encoding="UTF-8" standalone="no"?>
<svg width="41px" height="28px" viewBox="0 0 41 28" version="1.1" xmlns="http://www.w3.org/2000/svg" xmlns:xlink="http://www.w3.org/1999/xlink" xmlns:sketch="http://www.bohemiancoding.com/sketch/ns">
    <!-- Generator: Sketch 3.3.3 (12081) - http://www.bohemiancoding.com/sketch -->
    <title>upload-cloud-green</title>
    <desc>Created with Sketch.</desc>
    <defs></defs>
    <g id="Icons" stroke="none" stroke-width="1" fill="none" fill-rule="evenodd" sketch:type="MSPage">
        <g id="upload-cloud-green" sketch:type="MSArtboardGroup" fill="#47AD66">
            <path d="M33.001,10.318 C35.218,10.432 37.094,11.299 38.63,12.919 C40.164,14.539 40.932,16.487 40.932,18.76 C40.932,21.092 40.092,23.096 38.417,24.772 C36.739,26.45 34.735,27.287 32.404,27.287 L10.233,27.287 C7.39,27.287 4.974,26.293 2.986,24.303 C0.994,22.313 0,19.898 0,17.055 C0,14.44 0.881,12.166 2.644,10.233 C4.405,8.301 6.566,7.192 9.125,6.907 C10.204,4.805 11.754,3.127 13.773,1.876 C15.789,0.626 18.021,0 20.466,0 C23.537,0 26.235,0.98 28.568,2.942 C30.897,4.903 32.375,7.363 33.001,10.318 Z M26.4397778,9.55711111 C26.4845556,9.64811111 26.5076667,9.71455556 26.5076667,9.75933333 C26.5076667,9.80555556 26.4845556,9.87344444 26.4397778,9.963 L18.01,20.7963333 C17.8756667,20.9321111 17.7731111,21 17.7052222,21 C17.5925556,21 17.4798889,20.9436667 17.3672222,20.8295556 L12.5933333,16.2261111 L12.4922222,16.125 C12.4474444,16.034 12.4243333,15.9661111 12.4243333,15.9213333 C12.4243333,15.8982222 12.4474444,15.8433333 12.4922222,15.7523333 L12.5601111,15.6844444 C13.1913333,15.007 13.6882222,14.4884444 14.0493333,14.1273333 C14.1851111,13.9915556 14.2746667,13.9236667 14.3208889,13.9236667 C14.4104444,13.9236667 14.5231111,13.9915556 14.6588889,14.1273333 L17.3672222,16.7677778 L24.1373333,8.06644444 C24.1835556,8.02166667 24.2514444,8 24.341,8 C24.4088889,8 24.4883333,8.02166667 24.5778889,8.06644444 L26.4397778,9.55711111 Z" id="Imported-Layers" sketch:type="MSShapeGroup"></path>
        </g>
    </g>
</svg>