<?xml version="1.0" encoding="UTF-8" standalone="no"?>
<svg width="41px" height="28px" viewBox="0 0 41 28" version="1.1" xmlns="http://www.w3.org/2000/svg" xmlns:xlink="http://www.w3.org/1999/xlink" xmlns:sketch="http://www.bohemiancoding.com/sketch/ns">
    <!-- Generator: Sketch 3.3.3 (12081) - http://www.bohemiancoding.com/sketch -->
    <title>upload-cloud</title>
    <desc>Created with Sketch.</desc>
    <defs></defs>
    <g id="Icons" stroke="none" stroke-width="1" fill="none" fill-rule="evenodd" sketch:type="MSPage">
        <g id="upload-cloud" sketch:type="MSArtboardGroup" fill="#BCBCBC">
            <path d="M33.001,10.318 C35.218,10.432 37.094,11.299 38.63,12.919 C40.164,14.539 40.932,16.487 40.932,18.76 C40.932,21.092 40.092,23.096 38.417,24.772 C36.739,26.45 34.735,27.287 32.404,27.287 L10.233,27.287 C7.39,27.287 4.974,26.293 2.986,24.303 C0.994,22.313 0,19.898 0,17.055 C0,14.44 0.881,12.166 2.644,10.233 C4.405,8.301 6.566,7.192 9.125,6.907 C10.204,4.805 11.754,3.127 13.773,1.876 C15.789,0.626 18.021,0 20.466,0 C23.537,0 26.235,0.98 28.568,2.942 C30.897,4.903 32.375,7.363 33.001,10.318 L33.001,10.318 Z M23.195,15.349 L28.994,15.349 L20.466,6.822 L11.938,15.349 L17.737,15.349 L17.737,21.83 L23.195,21.83 L23.195,15.349 L23.195,15.349 Z" id="Imported-Layers" sketch:type="MSShapeGroup"></path>
        </g>
    </g>
</svg>