<?xml version="1.0" standalone="no"?>
<!DOCTYPE svg PUBLIC "-//W3C//DTD SVG 1.1//EN" "http://www.w3.org/Graphics/SVG/1.1/DTD/svg11.dtd" >
<svg xmlns="http://www.w3.org/2000/svg">
<metadata>
This is a custom SVG webfont generated by Font Squirrel.
Copyright   : Created by Raph Levien using his own tools and FontForge Copyright 2006 Raph Levien Released under the Apache 2 license
</metadata>
<defs>
<font id="InconsolataMedium" horiz-adv-x="500" >
<font-face units-per-em="1000" ascent="820" descent="-180" />
<missing-glyph horiz-adv-x="500" />
<glyph unicode=" " />
<glyph unicode="!" d="M281 89q18 -18 18 -42q0 -23 -18 -40.5t-42 -17.5t-41.5 17t-17.5 41t17.5 42t41.5 18t42 -18zM241 668q23 0 37 -19.5t14 -64.5q0 -11 -1 -26.5t-3 -35.5l-5 -52l-18 -276h-50l-15 276q-1 16 -2.5 33.5t-3 34t-3 31.5t-1.5 25q0 35 13.5 54.5t37.5 19.5z" />
<glyph unicode="&#x22;" d="M315 548l-6 63q0 28 13 41.5t30 13.5t31 -15t14 -48q0 -31 -34 -125l-24 -66l-55 13l22 68q9 30 9 55zM143 548l-7 63q0 28 13 41.5t30 13.5t31 -15t14 -48q0 -34 -33 -125l-24 -66l-56 13l22 68q5 15 7.5 28.5t2.5 26.5z" />
<glyph unicode="#" d="M173 624l61 2l-21 -171h110l20 167l62 1l-20 -166h91l-6 -47h-91l-21 -169h99l-5 -45h-99l-22 -182l-61 -4l22 183h-111l-21 -179l-59 -1l21 178h-97l4 45h99l20 171h-109l3 46h111zM207 408l-20 -170h110l21 170h-111z" />
<glyph unicode="$" d="M235 651h64q1 -1 1 -3t-3 -6.5t-4 -11.5v-38q94 -11 149 -77l-43 -54q-5 2 -5.5 9t-5.5 12q-35 41 -95 51v-193q43 -14 74.5 -29t52 -33.5t30.5 -42t10 -54.5q0 -29 -11.5 -56t-33 -49.5t-52.5 -38.5t-70 -21v-63h-58v61q-108 8 -175 80l43 60q4 -3 4 -10t3 -11 q50 -54 125 -61v220q-78 26 -117 62.5t-39 91.5q0 27 11.5 51.5t32 43.5t49 32t63.5 18v60zM293 273v-199q48 9 75 38.5t27 64.5q0 36 -24 57.5t-78 38.5zM235 361v173q-45 -5 -67.5 -28t-22.5 -52q0 -57 90 -93z" />
<glyph unicode="%" d="M391 623h67l-348 -623h-64zM28 504q0 27 9 51t24 41.5t35.5 27.5t43.5 10t43.5 -10t35.5 -28t24 -42t9 -51q0 -57 -32 -93.5t-80 -36.5q-23 0 -43.5 10t-35.5 27.5t-24 41.5t-9 52zM189 504q0 43 -16 60.5t-35 17.5q-18 0 -33.5 -17.5t-15.5 -60.5q0 -42 16 -60t35 -18 t34 17.5t15 60.5zM371 249q23 0 43.5 -10t35.5 -28t23.5 -41.5t8.5 -50.5t-9 -51t-24 -41t-35 -27t-43 -10t-43.5 10t-35.5 27t-24 41t-9 51t9 51t24 41.5t35.5 27.5t43.5 10zM406 179q-17 19 -36 19q-20 0 -36 -18t-16 -60q0 -43 17 -61.5t37 -18.5t35.5 19t15.5 59 q0 41 -17 61z" />
<glyph unicode="&#x26;" d="M413 262l-1 12q0 6 4 10l65 -45q-34 -60 -76 -116l70 -91l-59 -44l-55 88q-31 -39 -75.5 -62.5t-93.5 -23.5q-34 0 -62.5 12t-49.5 32.5t-32.5 48t-11.5 58.5q0 63 34.5 116.5t91.5 85.5q-71 86 -71 155q0 28 11 52t29.5 41.5t43.5 27.5t53 10q30 0 55 -11t43 -29.5 t27.5 -42t9.5 -48.5t-8 -50t-22.5 -47.5t-34 -41t-43.5 -29.5l112 -157q14 17 28.5 42t17.5 47zM160 497q0 -48 61 -124q36 17 56 51.5t20 67.5t-20.5 55.5t-47.5 22.5q-28 0 -48.5 -20t-20.5 -53zM197 296q-40 -25 -62.5 -65t-22.5 -79q0 -21 7 -38.5t19 -31t27.5 -21 t33.5 -7.5q16 0 33 5t31.5 12.5t26.5 17t19 17.5l15 17z" />
<glyph unicode="'" d="M238 548l-7 63q0 28 13 41.5t30 13.5t31 -15t14 -48q-1 -17 -8.5 -48t-24.5 -77l-25 -66l-55 13l22 68q5 15 7.5 28.5t2.5 26.5z" />
<glyph unicode="(" d="M414 603l-11 1q-3 0 -9 -3q-88 -52 -137 -141.5t-49 -203.5q0 -56 15 -110.5t43 -104t68.5 -91t90.5 -70.5l-32 -53q-60 31 -107 76.5t-79.5 101.5t-50 120.5t-17.5 132.5t17.5 130.5t50.5 116t79.5 94.5t105.5 67l30 -61q-6 -2 -8 -2z" />
<glyph unicode=")" d="M78 603l19 62q60 -28 110 -71.5t84.5 -98t53.5 -117t19 -128.5q0 -67 -19.5 -130.5t-55 -119t-86 -100.5t-112.5 -74l-19 60q51 27 91.5 65.5t69.5 86t44.5 100.5t15.5 109t-15.5 109t-43.5 99t-68 84t-88 64z" />
<glyph unicode="*" d="M213 519h81q-1 -6 -3 -13.5t-3 -13.5l-15 -150l159 72l26 -61l-171 -52l126 -151l-55 -43l-108 166l-112 -167l-54 44l130 150l-173 53l26 65l162 -76z" />
<glyph unicode="+" d="M222 523h63v-171h171v-61h-171v-187h-63v187h-177v61h177v171z" />
<glyph unicode="," d="M306 20q0 -79 -107 -188l-34 30q28 26 46.5 56t18.5 49q0 10 -8 18.5t-17.5 16.5t-17.5 18.5t-8 23.5q0 25 16.5 42t42.5 17t47 -23t21 -60z" />
<glyph unicode="-" d="M71 348h360v-67h-360v67z" />
<glyph unicode="." d="M280 87q18 -18 18 -41t-17.5 -40t-42.5 -17t-42 16.5t-17 40.5t18 41t41 17t42 -17z" />
<glyph unicode="/" d="M64 -13l313 678l60 -31l-314 -676z" />
<glyph unicode="0" d="M386 544q29 -39 46.5 -102t17.5 -141q0 -79 -17.5 -137.5t-46 -97.5t-64.5 -58t-73 -19q-38 0 -74 23t-64 64.5t-44.5 100t-16.5 129.5t16.5 130t44.5 101.5t64 66t74 23.5q78 0 137 -83zM349 485q-20 40 -46 60.5t-53 20.5q-25 0 -49.5 -18t-43.5 -50t-30.5 -78 t-11.5 -101q0 -62 14 -118zM372 418l-220 -280q24 -45 50.5 -65t52.5 -20q27 0 50.5 16.5t41 47.5t28 75.5t10.5 100.5q0 35 -3 66t-10 59z" />
<glyph unicode="1" d="M299 624v-624h-69v537l-126 -37l-16 39l163 85h48z" />
<glyph unicode="2" d="M78 526q27 48 73.5 74.5t100.5 26.5q37 0 70 -13.5t58 -37.5t39 -56t14 -68q0 -29 -8.5 -55t-22.5 -49.5t-32.5 -45t-38.5 -39.5l-60 -56q-13 -12 -29 -28.5t-31.5 -35.5t-30.5 -40t-26 -42h261q5 0 10.5 4.5t10.5 4.5h3v-70h-366v44q37 73 80 126t83 89l48 44 q25 23 40.5 42.5t24.5 37.5t12 34.5t3 33.5q0 22 -9 42.5t-25.5 37t-37 26t-42.5 9.5q-26 0 -46.5 -7.5t-36 -18t-24.5 -22t-10 -20.5q-2 -9 -4 -12z" />
<glyph unicode="3" d="M411 467q0 -45 -25.5 -82t-67.5 -53q48 -17 77.5 -61t29.5 -100q0 -37 -13.5 -70t-39 -58t-62.5 -39.5t-84 -14.5q-92 0 -157 71l53 63q4 -4 6 -13.5t7 -15.5l14 -13q8 -8 32.5 -18t50.5 -10q27 0 50 10t40 27.5t26.5 41t9.5 49.5q0 54 -40.5 85.5t-106.5 31.5 q-8 0 -15.5 -0.5t-15.5 -1.5v56q46 0 77 9.5t50.5 25.5t28 37.5t8.5 46.5q0 18 -8 34.5t-22 29t-34 20.5t-44 8q-64 0 -107 -48l-39 43q61 67 149 67q36 0 67.5 -12.5t54.5 -34.5t36.5 -50.5t13.5 -60.5z" />
<glyph unicode="4" d="M313 624h59v-390h80v-62h-80v-172h-73v173h-251v51zM300 513l-183 -279h183v279z" />
<glyph unicode="5" d="M106 623h316v-63h-257l-10 -179q49 24 102 24q40 0 74.5 -14.5t60 -42t39.5 -66t14 -86.5t-15 -86.5t-41.5 -65.5t-62 -41t-77.5 -14q-57 0 -105.5 25t-79.5 71l62 46q5 -3 5.5 -12t1.5 -11q4 -7 14 -17t25.5 -19t36 -15.5t44.5 -6.5t46 10.5t38.5 29.5t26.5 46.5 t10 62.5t-10 62.5t-27.5 46.5t-40.5 29t-50 10q-32 0 -63 -15.5t-54 -43.5l-44 18z" />
<glyph unicode="6" d="M287 630q78 0 137 -57l-49 -53q-9 8 -12 17.5t-14 13.5q-15 10 -30.5 13.5t-29.5 3.5q-20 0 -46.5 -9.5t-49.5 -35.5t-39.5 -73.5t-17.5 -122.5q21 35 56.5 55t75.5 20q35 0 66 -14.5t54.5 -41.5t37 -64.5t13.5 -83.5t-14 -84.5t-38 -66t-56.5 -42.5t-69.5 -15 q-47 0 -83 20.5t-60.5 58.5t-37.5 92.5t-13 122.5q0 84 15.5 148.5t44.5 108.5t69.5 66.5t90.5 22.5zM140 257q-1 -6 -1 -12v-12q0 -39 9.5 -72t26.5 -57t40 -38t49 -14q43 0 75 37t32 108q0 38 -10 65t-25.5 44.5t-35 26t-38.5 8.5q-36 0 -69 -24.5t-53 -59.5z" />
<glyph unicode="7" d="M432 584q-63 -144 -117.5 -289t-100.5 -295h-79q48 143 100 281t110 276h-266v66h353v-39z" />
<glyph unicode="8" d="M420 483q0 -45 -27 -85.5t-72 -64.5q54 -25 87 -71.5t33 -100.5q0 -36 -15 -67.5t-40.5 -54.5t-60.5 -36t-75 -13t-75 13t-60.5 35.5t-40 53t-14.5 65.5q0 54 34 101t91 73q-43 22 -69 61.5t-26 84.5q0 32 13 60t36 49t53 33t65 12t65 -11.5t51.5 -32t34 -47.5t12.5 -57z M237 303q-45 -19 -75 -56.5t-30 -82.5q0 -23 9.5 -43t26 -35t38 -24t46.5 -9t46.5 8.5t37.5 23t25 34t9 42.5q0 46 -36 84.5t-97 57.5zM174 429q12 -20 31.5 -34.5t44.5 -27.5l17 -9q37 20 61 54t24 69q0 18 -7.5 34t-21 29t-31.5 20.5t-39 7.5t-38.5 -7.5t-30.5 -19.5 t-20 -28t-7 -33q0 -30 17 -55z" />
<glyph unicode="9" d="M217 -10q-80 0 -138 57l49 53q5 -3 8.5 -12t7.5 -12q29 -23 71 -23q75 0 112 56.5t41 183.5q-22 -31 -56 -49t-73 -18q-35 0 -66 14.5t-54.5 40.5t-37 62.5t-13.5 80.5t14 81.5t38.5 65t57 43t69.5 15.5q91 0 140.5 -78.5t49.5 -251.5q0 -79 -17.5 -137t-47.5 -95.5 t-70 -56.5t-85 -20zM364 363q1 8 1 15.5v15.5q0 39 -9.5 71t-25.5 54.5t-37 35t-43 12.5q-51 0 -82.5 -38t-31.5 -104q0 -32 9 -57.5t23.5 -43.5t33 -27.5t38.5 -9.5q40 0 71.5 20.5t52.5 55.5z" />
<glyph unicode=":" d="M280 406q18 -18 18 -41t-18 -40t-42 -17q-23 0 -41 17t-18 40q0 24 18 41t41 17t42 -17zM280 87q18 -18 18 -41t-17.5 -40t-42.5 -17t-42 16.5t-17 40.5t18 41t41 17t42 -17z" />
<glyph unicode=";" d="M306 20q0 -79 -107 -188l-34 30q28 26 46.5 56t18.5 49q0 10 -8 18.5t-17.5 16.5t-17.5 18.5t-8 23.5q0 25 16.5 42t42.5 17t47 -23t21 -60zM280 406q18 -18 18 -41t-18 -40t-42 -17q-23 0 -41 17t-18 40q0 24 18 41t41 17t42 -17z" />
<glyph unicode="&#x3c;" d="M458 496l-347 -177l350 -196v-76l-426 249v48l423 223v-71z" />
<glyph unicode="=" d="M45 438h411v-61h-411v61zM45 231h411v-61h-411v61z" />
<glyph unicode="&#x3e;" d="M42 496v71l424 -223v-48l-426 -249v76l349 196z" />
<glyph unicode="?" d="M303 85q17 -19 17 -41q0 -23 -17.5 -40t-41.5 -17t-41.5 17t-17.5 40t17.5 40.5t41.5 17.5q23 0 42 -17zM64 561q32 49 84 76.5t109 27.5q40 0 72.5 -14t55.5 -38t36 -56t13 -68q0 -28 -7 -49.5t-17.5 -38.5t-24.5 -30t-28 -25l-22 -18q-29 -23 -36 -46.5t-7 -55.5v-41 h-66v41q0 21 1.5 38t8 33.5t20 35t37.5 42.5q35 35 48.5 63t13.5 56q0 22 -8 41.5t-22 34t-32.5 22.5t-39.5 8q-42 0 -78.5 -23.5t-59.5 -63.5z" />
<glyph unicode="@" d="M435 30q-65 -41 -140 -41q-50 0 -97 19.5t-84.5 59t-60 100.5t-22.5 145q0 83 21.5 143.5t56 99.5t77 58t85.5 19q42 0 77.5 -14.5t61.5 -45.5t40.5 -79.5t14.5 -115.5v-203h-60v38q-39 -46 -97 -46q-29 0 -53 10.5t-42 28t-28 39.5t-10 46q0 73 50.5 113t161.5 40h15 q0 28 -10.5 52.5t-29 43t-43 29t-51.5 10.5q-32 0 -64 -15.5t-57.5 -47.5t-41.5 -82t-16 -120q0 -68 18.5 -118.5t48.5 -83.5t68 -49.5t77 -16.5q57 0 107 33zM405 394h-17q-78 0 -114.5 -25t-36.5 -64q0 -38 23 -60.5t51 -22.5q57 0 75.5 37.5t18.5 115.5v19z" />
<glyph unicode="A" d="M15 0l220 634h8l240 -634h-72l-69 182h-198l-60 -182h-69zM326 236l-88 238l-80 -238h168z" />
<glyph unicode="B" d="M48 623h177q54 0 93.5 -10.5t63.5 -31.5t37 -48.5t13 -60.5q0 -44 -24 -83t-68 -55q26 -9 47.5 -25.5t37.5 -37.5t24 -45.5t8 -50.5q0 -79 -56 -127t-177 -48h-176v623zM117 564v-199h98q42 0 69 7.5t43.5 20.5t24.5 31.5t10 39.5q-2 21 -9.5 39t-23.5 31.5t-41 21.5 t-62 8h-109zM117 306v-245h119q80 0 111.5 33.5t35.5 84.5q-2 28 -11 51t-27.5 40.5t-50 26.5t-75.5 9h-102z" />
<glyph unicode="C" d="M398 482q0 12 -3 18q-20 33 -52 52.5t-68 19.5q-34 0 -64 -17.5t-53 -51t-36 -81.5t-13 -109q0 -59 13 -107.5t36.5 -83t55 -53.5t67.5 -19q37 0 71.5 20.5t55.5 55.5l52 -34q-15 -25 -36 -44t-44.5 -32t-47 -19.5t-47.5 -6.5q-54 0 -95.5 18.5t-76 57.5t-53.5 99 t-19 143q0 92 22 153.5t58 98.5t76.5 52.5t78.5 15.5q31 0 60.5 -9t55 -25t45.5 -38.5t32 -50.5l-67 -33q-4 3 -4 10z" />
<glyph unicode="D" d="M54 623h145q80 0 124.5 -22t75.5 -63t46 -99t15 -131q0 -72 -18 -129t-49.5 -97.5t-81.5 -61.5t-124 -21h-133v624zM120 564v-510h64q107 0 156.5 64.5t49.5 185.5q-1 122 -45.5 191t-149.5 69h-75z" />
<glyph unicode="E" d="M59 624h382v-62h-316v-205h261v-64h-261v-231h313v-62h-379v624z" />
<glyph unicode="F" d="M78 624h359v-61h-289v-196h233v-61h-233v-306h-70v624z" />
<glyph unicode="G" d="M458 525l-49 -50q-6 4 -13 19q-15 33 -46.5 53.5t-73.5 20.5q-29 0 -59.5 -12t-55.5 -41t-40.5 -76.5t-15.5 -119.5q0 -65 13 -115t36 -83.5t54.5 -51t68.5 -17.5q65 0 118 38v148h-113v61h178v-244q-89 -65 -183 -65q-56 0 -100.5 22.5t-76 63.5t-48 99t-16.5 129 q0 98 24.5 164t63.5 100.5t79.5 47.5t73.5 13q57 0 106 -28.5t75 -75.5z" />
<glyph unicode="H" d="M54 623h78q1 -1 1 -3q0 -3 -2.5 -8t-3.5 -13v-243h244v267h76q1 -1 1 -3q0 -4 -3 -8.5t-4 -10.5v-602h-71v298h-243v-297h-73v623z" />
<glyph unicode="I" d="M88 623h309v-59h-123v-507h129v-58h-322v59h123v506h-116v59z" />
<glyph unicode="J" d="M172 623h285v-59h-96v-355q0 -61 -11.5 -102t-36.5 -68t-54 -38.5t-63 -11.5q-89 0 -147 69l47 57q3 -3 3.5 -9.5t3.5 -10.5l12 -12q4 -5 13 -10.5t20.5 -10t23.5 -8t24 -3.5q50 0 73 35t23 122v356h-120v59z" />
<glyph unicode="K" d="M42 624h84q0 -6 -4.5 -12.5t-4.5 -13.5v-262l260 292q22 -5 52 -5h26l-236 -269l252 -354l-90 -4l-215 316l-49 -54v-258h-75v624z" />
<glyph unicode="L" d="M66 623h82q0 -7 -4.5 -16t-4.5 -18v-528h300v-61h-373v623z" />
<glyph unicode="M" d="M41 623h55l154 -305l157 306h53v-624h-66v470l-135 -251h-27l-126 248v-467h-65v623z" />
<glyph unicode="N" d="M50 0v623h68l262 -462v463h74q0 -6 -3.5 -13t-3.5 -14v-597h-55l-275 490v-490h-67z" />
<glyph unicode="O" d="M254 -10q-51 0 -92.5 23.5t-71 66t-45.5 102t-16 131.5t16.5 131t46.5 100t72 63.5t92 22.5q44 0 82 -19t69.5 -57.5t47.5 -98.5t16 -143q0 -90 -19 -151.5t-50 -99.5t-69.5 -54.5t-78.5 -16.5zM150 115q47 -56 104 -56q27 0 53 11.5t47.5 40.5t34 78t12.5 125 q0 74 -14 121.5t-35.5 75.5t-45 40.5t-50.5 12.5q-31 1 -57 -11t-49 -39t-37.5 -74t-14.5 -121q0 -69 14.5 -122t37.5 -82z" />
<glyph unicode="P" d="M59 623h200q52 0 88.5 -13.5t60 -38t35 -56.5t13.5 -68q-2 -36 -13.5 -67.5t-34 -54.5t-58 -36.5t-86.5 -13.5h-133v-275h-72v623zM131 557v-220h125q68 0 96.5 29.5t31.5 78.5q-2 23 -9.5 43.5t-22.5 35.5t-38.5 24t-56.5 9h-126z" />
<glyph unicode="Q" d="M149 514q-52 -59 -52 -191q0 -60 10.5 -109t31 -84t51 -55t66.5 -20q25 0 51.5 12.5t48.5 41t35 74t13 111.5q0 84 -14 137t-38.5 83t-50.5 41.5t-50 11.5q-30 0 -56 -15t-46 -38zM471 311q0 -138 -46.5 -218t-137.5 -100q2 -33 17 -54t57 -21q5 0 16 1t24 1.5t24.5 1.5 t16.5 1l-2 -68h-39q-49 0 -82.5 5t-54 23t-29.5 44.5t-9 65.5q-38 5 -73 26.5t-63 60.5t-44.5 95.5t-16.5 132.5q0 94 21.5 156t54.5 98t72 52t74 16q43 0 82.5 -18t72 -57.5t49 -98.5t16.5 -145z" />
<glyph unicode="R" d="M56 623h184q110 0 158.5 -49t48.5 -129q0 -27 -9 -53.5t-25.5 -49.5t-40 -40t-52.5 -24l144 -278h-78l-138 275h-121v-275h-71v623zM127 557v-220h121q67 0 97 29.5t30 78.5q0 24 -8 44t-22.5 35t-38.5 24t-58 9h-121z" />
<glyph unicode="S" d="M435 549l-44 -60q-5 2 -5.5 8.5t-2.5 9.5q-19 28 -51.5 45t-80.5 17q-46 0 -76.5 -27t-30.5 -64q0 -22 7.5 -38t23 -31t45.5 -30.5t78 -34.5q46 -19 76 -37.5t48 -39.5t25.5 -44.5t7.5 -52.5q0 -32 -12 -64.5t-37.5 -58t-64.5 -41.5t-94 -16q-121 0 -195 80l41 72 q5 -3 5 -10t3 -11q23 -29 62 -48.5t94 -19.5q28 0 51.5 9.5t40.5 25t27 37t10 45.5q0 19 -6.5 34.5t-21.5 29t-42.5 27t-72.5 31.5q-49 19 -81.5 38.5t-52.5 39.5t-28.5 43t-8.5 50q0 34 14.5 64t40 52.5t60.5 35t75 12.5q51 0 96 -20.5t77 -57.5z" />
<glyph unicode="T" d="M31 624h432v-63h-184v-561h-71v561h-177v63z" />
<glyph unicode="U" d="M50 623h79q1 0 1 -2q0 -4 -4.5 -11.5t-6.5 -18.5v-377q0 -52 10 -80.5t28 -47t42.5 -27.5t52.5 -11q28 2 52.5 10t43 27.5t29 48.5t10.5 83v406h67v-405q0 -61 -13.5 -103t-41.5 -70t-65 -42t-83 -14q-45 0 -82 14t-63.5 41t-41 66t-14.5 105v408z" />
<glyph unicode="V" d="M25 624h73l160 -479l151 478h69l-209 -627h-32z" />
<glyph unicode="W" d="M17 623h65l67 -421l100 375h22l101 -377l57 423h59l-99 -627h-27l-107 411l-109 -411h-29z" />
<glyph unicode="X" d="M379 624h70l-158 -305l177 -319h-79l-138 247l-134 -247h-76l170 318l-167 306h75l131 -237z" />
<glyph unicode="Y" d="M28 623h80l153 -302l138 302h74l-177 -377v-246h-76v246z" />
<glyph unicode="Z" d="M62 623h385v-49l-309 -512h294q7 0 15.5 3t15.5 3v-68h-413v49l314 511h-302v63z" />
<glyph unicode="[" d="M131 670h286v-60h-222v-642h223v-57h-287v759z" />
<glyph unicode="\" d="M437 -13l-59 -29l-314 676l59 31z" />
<glyph unicode="]" d="M369 670v-759h-286v57h223v642h-222v60h285z" />
<glyph unicode="^" d="M93 367l153 256h22l135 -255l-53 -25l-97 175l-110 -175z" />
<glyph unicode="_" d="M35 -19h431v-61h-431v61z" />
<glyph unicode="`" d="M164 579l-25 67l52 25l26 -66q12 -31 28.5 -48.5t29.5 -30t22.5 -26t9.5 -29.5q-1 -20 -14 -28.5t-24 -8.5t-20 3.5t-22.5 16t-28.5 42t-34 83.5z" />
<glyph unicode="a" d="M91 403q61 64 163 64q84 0 132.5 -42.5t48.5 -141.5v-283h-68v50q-73 -61 -164 -61q-36 0 -64.5 11t-48.5 29t-30.5 41t-10.5 46q0 69 59.5 109t171.5 44h86v17q0 68 -28.5 95t-88.5 27q-74 0 -123 -51zM369 214h-17q-14 0 -26.5 0.5t-24.5 0.5q-55 0 -90 -7.5t-55 -20.5 t-27.5 -29.5t-7.5 -35.5q0 -32 28 -55t69 -23q30 0 54 9.5t42 23t29 28t16 25.5q10 20 10 54v30z" />
<glyph unicode="b" d="M60 665h84v-2q0 -5 -5.5 -9.5t-5.5 -10.5v-256q22 37 59.5 59t76.5 22q38 0 72 -14.5t60 -44t41 -73.5t15 -103q0 -62 -16.5 -107.5t-43.5 -76t-61 -45.5t-70 -15q-42 0 -77 19t-58 52l-25 -60h-46v665zM185 70q19 -10 34 -13.5t28 -3.5q20 0 44 7.5t44.5 26.5t34 51 t13.5 81q0 91 -37 139t-107 48q-25 0 -53 -18t-41 -48q-12 -30 -12 -98q0 -42 2 -71t8 -48.5t16 -31.5t26 -21z" />
<glyph unicode="c" d="M457 381l-51 -59q-5 3 -4.5 6.5t-1 9.5t-7.5 15t-24 24q-34 28 -93 28q-29 0 -55.5 -12t-46.5 -34.5t-32 -54t-12 -70.5t12 -72t33 -57t50 -37.5t64 -13.5q69 0 119 56l42 -49q-68 -72 -167 -72q-49 0 -90.5 18t-72 50t-47.5 75.5t-17 95.5q0 51 17 95t47.5 75.5t73 49.5 t92.5 18q54 0 98.5 -22.5t72.5 -62.5z" />
<glyph unicode="d" d="M371 390v275h77q0 -6 -5 -13.5t-5 -14.5l1 -595q0 -24 5 -42h-72q-4 12 -4 34v39q-22 -38 -60 -60.5t-77 -22.5q-38 0 -71.5 15t-59 45t-40.5 75.5t-15 107.5q0 63 17 107.5t44.5 73t61.5 42t69 13.5q48 0 82.5 -21.5t51.5 -57.5zM158 376q-43 -39 -43 -132 q0 -86 33 -138.5t97 -52.5q15 0 32 5.5t32 16.5t27 26t18 34q11 36 11 96q0 38 -3 63.5t-9.5 43.5t-16.5 29.5t-25 20.5q-18 11 -33.5 16.5t-29.5 5.5q-29 0 -49.5 -8t-40.5 -26z" />
<glyph unicode="e" d="M259 468q36 0 70 -13t59.5 -39.5t41 -67.5t15.5 -97q0 -8 -0.5 -16.5t-1.5 -16.5h-325q2 -48 16.5 -80.5t36.5 -52.5t49 -28.5t54 -8.5q71 0 118 51l40 -39q-58 -70 -160 -70q-50 0 -91.5 15.5t-70.5 45.5t-45 74.5t-16 101.5q0 58 16.5 103t45 75.5t66.5 46.5t82 16z M121 274h251q0 4 0.5 7.5t0.5 8.5q0 25 -9.5 47.5t-25.5 39t-37.5 26.5t-46.5 10q-47 0 -85 -33.5t-48 -105.5z" />
<glyph unicode="f" d="M343 671q87 0 140 -63l-33 -66q-8 0 -8 8t-2 12q-16 23 -42.5 37.5t-57.5 14.5q-26 0 -45 -7.5t-34 -24.5t-22.5 -46t-7.5 -71v-35h150v-57h-150v-373h-69v373h-99v57h99v45q0 53 13.5 90.5t39 60.5t58 34t70.5 11z" />
<glyph unicode="g" d="M155 385q-15 -15 -22 -33t-7 -38t8 -38.5t21.5 -32t32 -21.5t38.5 -8q21 0 39 8t32 22t22 32t8 38t-8 38.5t-22 32.5t-32.5 22t-38.5 8q-41 0 -71 -30zM339 428q48 41 114 41h13l9 -59q-7 1 -13.5 1.5t-13.5 0.5q-44 0 -79 -22q23 -35 23 -77q0 -32 -13 -60.5t-35.5 -50 t-52.5 -34t-64 -12.5q-28 0 -58 11q-32 -31 -32 -52q0 -17 19.5 -26.5t53.5 -9.5q19 0 38.5 1.5t36.5 1.5q45 0 77.5 -8.5t52.5 -24t30 -36.5t10 -45q0 -27 -13 -52.5t-39 -45t-65.5 -31t-92.5 -11.5q-55 0 -94.5 8.5t-63.5 23.5t-36.5 34.5t-12.5 41.5q0 54 75 101 q-37 19 -37 63q0 43 52 86q-32 21 -50 54t-18 70q0 34 14 63.5t37.5 51.5t54 34.5t62.5 12.5q67 0 111 -44zM161 24q-57 -32 -57 -70q0 -20 11.5 -33.5t31 -22t46 -12.5t55.5 -4q61 0 101 22t40 59q-2 27 -22.5 42t-64.5 15q-5 0 -10 -0.5t-10 -0.5q-38 0 -68 1.5t-53 3.5z " />
<glyph unicode="h" d="M70 0v665h83q0 -1 0.5 -1t0.5 -1q0 -3 -4.5 -8.5t-6.5 -13.5v-265q27 42 67.5 67t82.5 25q31 0 56.5 -10.5t44.5 -33.5t29 -59t10 -88v-277h-71v275q0 72 -24.5 101t-59.5 29q-23 0 -46 -10t-44.5 -28t-33 -44t-11.5 -60v-263h-73z" />
<glyph unicode="i" d="M106 457h183v-399h107v-58h-296v58h117v341h-111v58zM218 641q15 15 36 15t36.5 -15.5t15.5 -36.5t-15.5 -36t-36.5 -15t-36 15t-15 36q0 22 15 37z" />
<glyph unicode="j" d="M126 457h243v-435q0 -52 -14 -88.5t-38.5 -59.5t-57.5 -34.5t-71 -13.5q-88 0 -140 64l47 62q5 -5 5.5 -10t3.5 -11t12 -13.5t30 -18.5q22 -11 47 -11q45 0 74 30.5t29 99.5v380h-170v59zM296 641q15 15 37 15q21 0 36.5 -15t15.5 -37q0 -21 -15.5 -36t-36.5 -15 t-36.5 15t-15.5 36q0 22 15 37z" />
<glyph unicode="k" d="M66 665h82q0 -6 -4.5 -13t-4.5 -13v-392l229 212q23 -5 53 -5h26l-192 -181l224 -273l-93 -4l-187 233l-60 -56v-173h-73v665z" />
<glyph unicode="l" d="M85 665h202v-607h134v-58h-342v58h135v549h-129v58z" />
<glyph unicode="m" d="M38 0v457h66v-45q16 25 41 40.5t53 15.5q29 0 51.5 -19t28.5 -48q13 30 41 48.5t61 18.5q47 0 69 -33.5t20 -83.5v-351h-66v324q0 31 -3 49t-10 27.5t-14 12t-18 2.5q-13 0 -26 -10.5t-23 -26.5t-16 -36.5t-6 -39.5v-302h-67v318q0 57 -10.5 76t-36.5 19 q-24 0 -46.5 -28.5t-22.5 -79.5v-305h-66z" />
<glyph unicode="n" d="M68 0v457h74v-81q26 42 66.5 67t82.5 25q30 0 56 -10.5t45 -33.5t29.5 -59t10.5 -88v-277h-71v275q0 72 -24.5 101t-59.5 29q-23 0 -47 -10t-43.5 -28.5t-32 -44.5t-12.5 -59v-263h-74z" />
<glyph unicode="o" d="M254 467q42 0 79.5 -16.5t65.5 -47.5t44.5 -75.5t16.5 -99.5q0 -56 -16 -100t-44 -75.5t-66 -48t-81 -16.5q-44 0 -82.5 18t-67.5 49.5t-46 75.5t-17 95t17.5 96t47 76.5t68.5 50t81 18.5zM388 226q0 43 -11.5 76.5t-30.5 56.5t-43.5 35t-51.5 12t-51.5 -12t-43 -35 t-29.5 -55.5t-11 -73.5q0 -40 11 -73t29.5 -57t43.5 -37t53 -13t52.5 11.5t43 34t29 55.5t10.5 75z" />
<glyph unicode="p" d="M60 457h73v-70q23 37 61.5 58.5t77.5 21.5q38 0 72.5 -14.5t61 -43.5t42 -73t15.5 -104t-16.5 -106t-43.5 -76.5t-61.5 -46t-70.5 -15.5q-42 0 -78 19t-59 53v-227h-74v624zM133 190q2 -74 34 -106t79 -32q25 0 50 8t46 27.5t33.5 51.5t12.5 80q0 88 -36.5 136.5 t-102.5 50.5q-20 0 -41 -7t-37.5 -24t-27 -45.5t-10.5 -70.5v-69z" />
<glyph unicode="q" d="M374 390v67h68v-624h-72v240q-21 -38 -59 -60.5t-81 -22.5q-39 0 -73.5 17.5t-60 49.5t-40 77t-14.5 100t16 98.5t43.5 74t64 46.5t77.5 16q84 0 124 -67q7 -10 7 -12zM243 410q-26 0 -49 -10.5t-40.5 -31.5t-28 -53.5t-10.5 -75.5q0 -44 10.5 -78.5t28.5 -58.5 t41.5 -36.5t50.5 -12.5q57 0 89.5 43t32.5 139q0 98 -34 136.5t-91 38.5z" />
<glyph unicode="r" d="M99 457h75l-2 -88q21 48 66.5 73.5t97.5 25.5q74 0 122 -50l-33 -69q-11 15 -20 25t-19.5 17t-23 11t-30.5 4q-33 0 -62 -15.5t-50.5 -41t-34.5 -58.5t-13 -69v-223h-73v458z" />
<glyph unicode="s" d="M432 396l-42 -63q-5 1 -5 8t-2 10q-18 23 -51 42.5t-75 19.5q-19 0 -36.5 -4.5t-31 -12.5t-21.5 -20.5t-8 -28.5q0 -12 6 -21.5t19 -18.5t36.5 -18t61.5 -20q86 -23 121.5 -54.5t35.5 -77.5q0 -30 -13 -57t-38 -47t-60 -31.5t-79 -11.5q-115 0 -193 72l41 72q3 -3 4 -9.5 t7 -15.5t22 -20.5t49 -25.5q15 -7 34 -10t38 -3q20 0 40.5 5t37 14.5t26.5 23t10 30.5q0 26 -24 44t-88 37q-44 13 -58 18q-36 14 -52 24.5t-29 25t-21 33t-8 40.5q0 24 13 46t36.5 39t56 27.5t70.5 10.5q105 0 170 -72z" />
<glyph unicode="t" d="M188 579l79 13q0 -9 -2.5 -16t-3.5 -11l-12 -108h150v-59h-150q-9 -89 -9 -167q0 -48 2 -81t10.5 -52t24.5 -29.5t43 -10.5q46 0 102 41l22 -57q-69 -51 -142 -51q-72 0 -105 43.5t-30 141.5q0 36 2 92t8 130h-107v59h110z" />
<glyph unicode="u" d="M63 457h72v-255q0 -44 8 -73.5t22.5 -47.5t33 -26t40.5 -8q24 2 46 12t39.5 28.5t27.5 47.5t10 70v252h73v-416q0 -23 5 -41h-76q-1 7 -2 15.5t0 19.5l1 35q-22 -38 -59.5 -59.5t-82.5 -21.5q-35 0 -63 12.5t-50.5 38.5t-34 66t-11.5 96z" />
<glyph unicode="v" d="M50 432l-10 25h86q0 -7 -1.5 -12.5t-1.5 -9.5q0 -2 1 -3l132 -334l74 170q24 55 39 102t23 87h65q-20 -84 -69 -200l-111 -260h-56z" />
<glyph unicode="w" d="M16 457h73v-4q0 -6 -2 -13.5t-2 -14.5q0 -4 1 -6l67 -329l78 324h44l97 -323q13 88 21.5 145t13 94.5t6 62t1.5 49.5v15h67q-15 -116 -34 -230t-42 -228h-68l-84 296l-80 -296h-65z" />
<glyph unicode="x" d="M362 457h74l-148 -222l168 -235h-82l-126 178l-119 -178h-82l161 232l-158 225h79l119 -169z" />
<glyph unicode="y" d="M59 425l-13 32h89q0 -8 -2 -13.5t-2 -10.5q0 -4 2 -6l134 -336l87 245q13 35 21 65.5t13 55.5h75q-9 -26 -19.5 -59t-25.5 -73l-124 -327l-19 -50q-24 -67 -61.5 -94.5t-86.5 -27.5q-65 0 -105 39l38 64q3 -3 5 -9.5t3 -8.5l4 -4.5t10.5 -9t16.5 -8.5t22 -4q29 0 51.5 18 t44.5 65l14 34z" />
<glyph unicode="z" d="M71 457h355v-49l-278 -346h271q7 0 15.5 3t15.5 3v-68h-400v49l283 345h-262v63z" />
<glyph unicode="{" d="M159 16l4 100q0 66 -23.5 89t-66.5 23h-20v56h19q46 0 69.5 25t23.5 82l-2 72q0 174 182 174h63v-57h-82q-93 0 -93 -106l2 -70q0 -111 -87 -148q85 -28 85 -155l-3 -84q0 -68 29.5 -94t96.5 -26h51v-56h-36q-48 0 -86.5 3.5t-69.5 26.5q-56 44 -56 145z" />
<glyph unicode="|" d="M217 652h67v-803h-67v803z" />
<glyph unicode="}" d="M338 463l-3 -72q0 -57 24 -82t69 -25h20v-56h-21q-43 0 -66 -23t-23 -89l3 -100q0 -89 -40 -132t-126 -43h-82v56h55q22 0 35.5 1t22 3.5t14 5.5t10.5 7q41 29 41 103l-3 84q0 126 84 155q-87 37 -87 148l3 70q0 57 -25 81.5t-76 24.5h-75v57h31q34 0 72 -2.5t70 -21.5 t52.5 -54t20.5 -96z" />
<glyph unicode="~" d="M91 342l-50 33q24 39 60.5 64t70.5 25q35 0 59.5 -11.5t39.5 -25.5q41 -38 68 -38q28 0 47 16t44 49l46 -38q-12 -18 -28 -35t-33 -29.5t-35 -20t-36 -7.5q-34 0 -58 12.5t-38 27.5q-37 40 -74 40q-45 0 -83 -62z" />
<glyph d="M62 623h385v-49l-309 -512h294q7 0 15.5 3t15.5 3v-68h-413v49l314 511h-302v63zM396 755l-131 -100h-22l-123 98l33 38l103 -71l112 68z" />
<glyph unicode="&#x17d;" d="M62 623h385v-49l-309 -512h294q7 0 15.5 3t15.5 3v-68h-413v49l314 511h-302v63zM396 755l-131 -100h-22l-123 98l33 38l103 -71l112 68z" />
<glyph d="M71 457h355v-49l-278 -346h271q7 0 15.5 3t15.5 3v-68h-400v49l283 345h-262v63zM377 658l-111 -140h-22l-110 141l46 35l78 -103l81 102z" />
<glyph unicode="&#x17e;" d="M71 457h355v-49l-278 -346h271q7 0 15.5 3t15.5 3v-68h-400v49l283 345h-262v63zM377 658l-111 -140h-22l-110 141l46 35l78 -103l81 102z" />
<glyph unicode="&#xa0;" />
<glyph unicode="&#xa1;" d="M197 567q-17 16 -17 41q0 24 18 42t41 18t41.5 -18t18.5 -42q0 -23 -18 -40.5t-42 -17.5q-25 0 -42 17zM238 -11q-23 0 -37 20t-14 63q0 11 1 26.5t3 35.5l5 52l18 277h50l15 -277q1 -15 2.5 -32t3 -34.5t3 -33t1.5 -25.5q0 -35 -14 -53.5t-37 -18.5z" />
<glyph unicode="&#xa2;" d="M285 624l67 -7q0 -6 -4 -13.5t-5 -14.5l-10 -82q77 -15 118 -77l-44 -57q-4 3 -4 12.5t-4 13.5q-29 35 -74 48l-46 -350q75 0 131 56l36 -49q-65 -71 -168 -71h-8l-15 -112l-57 7l14 113q-75 21 -119.5 83t-44.5 156q0 47 16.5 88t45.5 72.5t70 50.5t91 21zM220 108 l43 346q-32 -2 -58 -15t-45.5 -35t-30 -51.5t-10.5 -64.5q0 -70 27.5 -116t73.5 -64z" />
<glyph unicode="&#xa3;" d="M418 572l-44 -55q-8 8 -10.5 16t-14.5 14q-24 19 -59 19q-21 0 -40.5 -7t-35.5 -22t-25.5 -38.5t-9.5 -55.5q0 -25 8 -65h100v-57h-86q13 -56 13 -97q0 -76 -36 -134q7 1 16 1.5t21 0.5q10 0 30 -6.5t43 -14t46 -14t39 -6.5q37 0 71 28l26 -52q-53 -42 -104 -42 q-14 0 -37 7t-49.5 15.5t-52.5 15.5t-47 7q-44 0 -115 -38l-26 57q23 11 36 17.5t20 12t10.5 10t7.5 11.5q35 55 35 122q0 37 -15 99h-66v57h52q-7 34 -7 64q0 41 14 74.5t38 57t56 36.5t68 13q74 0 130 -51z" />
<glyph unicode="&#xa4;" d="M68 492l36 35l56 -56q41 29 91 29q47 0 89 -28l56 55l36 -35l-56 -55q30 -42 30 -92t-29 -91l55 -55l-36 -35l-55 55q-20 -15 -43 -22t-47 -7q-50 0 -92 30l-55 -56l-36 35l56 57q-14 20 -21 43t-7 46q0 24 7 47t22 43zM321 416q-30 30 -71 30q-20 0 -38 -8t-32 -22 t-22 -32t-8 -39q0 -20 8 -38.5t21.5 -32t32 -21.5t38.5 -8q21 0 39 8t32 22t22 32t8 38q0 41 -30 71z" />
<glyph unicode="&#xa5;" d="M36 624h78l145 -261l133 260h74l-174 -328v-21h134v-57h-134v-63h134v-56h-134v-98h-68v98h-140v56h140v63h-140v57h140v21z" />
<glyph unicode="&#xa6;" d="M217 652h67v-357h-67v357zM284 -151h-67v347h67v-347z" />
<glyph unicode="&#xa7;" d="M413 583l-57 -50q-5 5 -6 11q-2 13 -9.5 25.5t-20.5 22t-29.5 15.5t-34.5 6t-34.5 -6t-28.5 -16.5t-19 -24.5t-7 -30q0 -24 9 -38t28.5 -27.5t49.5 -23.5t72 -28q92 -44 92 -114q0 -30 -20.5 -56.5t-53.5 -39.5q64 -43 64 -111q0 -33 -13 -61t-35.5 -48t-54 -31.5 t-67.5 -11.5q-51 0 -96.5 21.5t-76.5 63.5l52 61q6 -2 7 -5t2.5 -8.5t7 -14.5t20.5 -23q31 -29 80 -29t76 23t27 56q0 17 -5.5 30.5t-18.5 25t-36 21.5t-57 20q-77 25 -109 54t-32 74q0 33 22.5 60.5t59.5 40.5q-67 40 -67 113q0 29 12.5 54.5t34.5 45t52 31t64 11.5 q49 0 90.5 -23.5t65.5 -65.5zM197 399q-20 -7 -32.5 -24t-12.5 -39q0 -33 24.5 -54.5t79.5 -37.5q17 -5 30 -8.5t21 -7.5q36 19 36 64q0 33 -24.5 53t-78.5 39z" />
<glyph unicode="&#xa8;" d="M198 650q15 -15 15 -36q0 -20 -15 -35t-35 -15q-21 0 -36 15t-15 35t15 35.5t36 15.5q20 0 35 -15zM376 650q15 -15 15 -36q0 -20 -15 -35t-35 -15q-21 0 -35.5 14.5t-14.5 35.5t14.5 36t35.5 15q20 0 35 -15z" />
<glyph unicode="&#xa9;" d="M387 331l-52 -19q-4 7 -3.5 12t-1 10.5t-7 12t-21.5 17.5q-17 10 -40 10q-14 0 -30 -5t-29.5 -16.5t-22.5 -29t-9 -42.5q0 -22 7.5 -41.5t20 -34t29.5 -23t37 -8.5q24 0 44 12t31 33l44 -29q-21 -32 -54 -50t-69 -18q-31 0 -57.5 12.5t-46 33.5t-31 49t-11.5 59t12 58.5 t32 47t44.5 31t50.5 11.5q54 0 88.5 -25.5t44.5 -67.5zM426 93q-71 -74 -171 -74q-50 0 -94 20t-76.5 55t-51.5 81t-19 99t19 99.5t52 81.5t77 55t94 20q49 0 93 -20t77 -55t52.5 -81.5t19.5 -99.5q0 -106 -72 -181zM257 488q-41 0 -77 -16.5t-63 -45.5t-42.5 -68t-15.5 -84 q0 -44 15.5 -83t42.5 -67.5t63 -45t77 -16.5q40 0 76 17t63 46t43 67.5t16 82.5t-15.5 82.5t-42.5 67.5t-63 46t-77 17z" />
<glyph unicode="&#xaa;" d="M325 488q0 81 -74 81q-62 0 -94 -44l-34 41q50 56 134 56q63 -2 97.5 -33t34.5 -94v-10v-218h-63v33q-46 -43 -102 -43q-55 0 -88.5 31t-33.5 74q0 42 31.5 72t85.5 38q32 3 54 3.5t38 0.5h14v12zM328 424h-16q-42 0 -70 -2t-45 -9.5t-24 -19t-7 -30.5t16.5 -35.5 t48.5 -16.5q13 0 30 5t32 16t25 29t10 45v18zM76 206h349v-54h-349v54z" />
<glyph unicode="&#xab;" d="M249 253l151 147l39 -41l-121 -118l128 -140l-40 -40l-157 169v23zM67 253l152 147l39 -41l-121 -118l128 -140l-40 -40l-158 169v23z" />
<glyph unicode="&#xac;" d="M91 347h323v-190h-64v127h-259v63z" />
<glyph unicode="&#xad;" d="M71 348h360v-67h-360v67z" />
<glyph unicode="&#xae;" d="M426 93q-71 -74 -171 -74q-50 0 -94 20t-76.5 55t-51.5 81t-19 99t19 99.5t52 81.5t77 55t94 20q49 0 93 -20t77 -55t52.5 -81.5t19.5 -99.5q0 -106 -72 -181zM257 488q-41 0 -77 -16.5t-63 -45.5t-42.5 -68t-15.5 -84q0 -44 15.5 -83t42.5 -67.5t63 -45t77 -16.5 q40 0 76 17t63 46t43 67.5t16 82.5t-15.5 82.5t-42.5 67.5t-63 46t-77 17zM155 133v292h94q65 0 92.5 -24t27.5 -61q0 -25 -14.5 -47t-42.5 -30l64 -125l-47 -7l-62 125h-66v-123h-46zM253 296q71 0 71 44t-74 44h-49v-88h52z" />
<glyph unicode="&#xaf;" d="M123 621h254v-56h-254v56z" />
<glyph unicode="&#xb0;" d="M351 599q40 -39 40 -95q0 -27 -10.5 -51.5t-29 -42.5t-43 -29t-52.5 -11t-52.5 10.5t-43 28.5t-29 42.5t-10.5 52.5t11 53t29.5 43t43 28.5t51.5 10.5q56 0 95 -40zM309 562q-21 24 -52 24q-15 0 -29 -6.5t-24 -18t-16 -26t-6 -30.5q0 -32 21.5 -56t52.5 -24 q32 0 53.5 24t21.5 56t-22 57z" />
<glyph unicode="&#xb1;" d="M46 80h411v-63h-411v63zM222 575h63v-171h171v-61h-171v-188h-63v188h-177v61h177v171z" />
<glyph unicode="&#xb2;" d="M111 554q23 39 62 61t91 22q25 0 48 -8.5t41 -23.5t28.5 -36t10.5 -46q0 -20 -5 -35t-17 -30t-34 -32.5t-56 -42.5q-26 -20 -47.5 -38.5t-38.5 -37.5h182q5 0 10.5 4.5t10.5 4.5h3v-63h-279v44q27 36 56.5 65t74.5 63l28 22q26 20 38.5 40.5t12.5 37.5q0 25 -20 43 t-51 18q-59 0 -92 -42q-3 -4 -5.5 -10.5t-4.5 -10.5z" />
<glyph unicode="&#xb3;" d="M258 638q27 0 51 -8.5t42 -23.5t28 -34.5t10 -41.5q0 -27 -16 -48.5t-41 -29.5q32 -5 53 -29.5t21 -56.5q0 -24 -12.5 -44.5t-33 -36.5t-48 -25t-57.5 -9q-86 0 -143 65l47 52q4 -5 6.5 -14.5t7.5 -13.5q33 -33 76 -33t69 19t26 46q0 26 -23.5 40.5t-64.5 14.5 q-8 0 -15 -0.5t-15 -1.5v51q5 -1 10 -1h10q45 0 64 15t19 37t-21 40t-53 18q-57 0 -94 -46l-36 37q53 62 133 62z" />
<glyph unicode="&#xb4;" d="M292 699l63 -42l-101 -135l-50 30z" />
<glyph unicode="&#xb5;" d="M372 116q0 -69 40 -69q14 0 28.5 12t20.5 25l6 12l27 -51q-37 -55 -88 -55q-32 0 -55 22.5t-27 54.5q-17 -39 -51.5 -58t-71.5 -19t-68.5 17.5t-45.5 52.5v-113.5t-1 -113.5h-62q0 14 1.5 42t4 63t5 74t4.5 75t3.5 66.5t1.5 48.5v255h66v-271q0 -42 8 -68.5t21.5 -42.5 t31 -23t36.5 -9q19 2 37 10.5t32.5 25t23 42.5t8.5 62v9v265h64v-341z" />
<glyph unicode="&#xb6;" d="M436 665v-733h-58v676h-76v-676h-59v390q-38 2 -70.5 17t-56.5 38.5t-38 54t-14 64.5t12.5 65t42 54.5t76.5 36.5t116 13h125z" />
<glyph unicode="&#xb7;" d="M280 371q18 -17 18 -40t-17.5 -40t-42.5 -17t-42 16.5t-17 40.5t18 40.5t41 16.5t42 -17z" />
<glyph unicode="&#xb8;" d="M327 -109q0 24 -47 24h-30l11 85h44l-6 -47l17 -1q68 -5 68 -55q0 -28 -28.5 -51t-87.5 -23t-111 37l25 42q43 -36 99 -36q26 0 36 7.5t10 17.5z" />
<glyph unicode="&#xb9;" d="M299 633v-380h-64v300l-97 -25l-16 31l133 74h44z" />
<glyph unicode="&#xba;" d="M96 434q0 42 12.5 76.5t33.5 59t49 38.5t58 14q31 0 58 -12t47 -35t31.5 -56.5t11.5 -77.5q0 -43 -12.5 -77.5t-33.5 -58.5t-48.5 -36.5t-57.5 -12.5q-31 0 -58 13t-47.5 36.5t-32 56t-11.5 72.5zM247 566q-37 0 -64 -34t-27 -94t27 -92t63 -32q37 0 64 31.5t27 91.5 q0 61 -26.5 95t-63.5 34zM76 206h349v-54h-349v54z" />
<glyph unicode="&#xbb;" d="M265 253v-23l-158 -169l-40 40l128 140l-121 118l39 41zM446 253v-23l-158 -169l-39 40l127 140l-121 118l39 41z" />
<glyph unicode="&#xbc;" d="M76 -16l313 681l48 -27l-314 -680zM396 242h31v-197h50v-37h-50v-78h-46v78h-145v29zM382 164l-94 -119h94v119zM146 677v-303h-51v240l-77 -20l-13 25l107 58h34z" />
<glyph unicode="&#xbd;" d="M76 -16l313 681l48 -27l-314 -680zM263 168q19 32 50.5 49.5t75.5 17.5q21 0 38.5 -7.5t31 -20.5t21 -29.5t7.5 -34.5q0 -16 -3.5 -28t-13 -24t-27 -26t-45.5 -34q-44 -32 -69 -60h146q4 0 9 3.5t10 3.5v-51h-224v35q18 24 44 50.5t61 52.5l23 17q41 35 41 58 q0 25 -16.5 39.5t-43.5 14.5q-46 0 -71 -34q-3 -3 -4.5 -8.5t-3.5 -8.5zM146 677v-303h-51v240l-77 -20l-13 25l107 58h34z" />
<glyph unicode="&#xbe;" d="M81 -16l313 681l48 -27l-314 -680zM128 684q22 0 41 -7t33 -18.5t22 -27t8 -33.5q0 -22 -12.5 -39t-32.5 -24q26 -4 42.5 -23.5t16.5 -44.5q0 -20 -10 -36.5t-26.5 -29.5t-38.5 -20t-46 -7q-68 0 -114 52l38 42q3 -4 5 -11.5t6 -11.5q14 -14 30 -20t33 -6q29 0 51.5 14.5 t22.5 33.5q0 24 -16.5 36t-54.5 12h-12t-12 -1v40q5 -2 11 -1.5t11 0.5q32 0 46.5 12.5t14.5 28.5q0 17 -16 32.5t-44 15.5q-45 0 -74 -38l-29 30q42 50 106 50zM396 242h31v-197h50v-37h-50v-78h-46v78h-145v29zM382 164l-94 -119h94v119z" />
<glyph unicode="&#xbf;" d="M198 567q-17 16 -17 41q0 24 18 40.5t41 16.5t41.5 -17t18.5 -40t-17.5 -40t-42.5 -17t-42 16zM438 91q-32 -49 -84 -76.5t-109 -27.5q-42 0 -75 14t-56 38t-35 56t-12 68q0 52 23.5 85.5t53.5 58.5l22 18q28 23 36 46t8 55v42h65v-42q0 -23 -1.5 -39.5t-8 -32.5t-20 -34 t-36.5 -42q-36 -38 -49.5 -64.5t-13.5 -55.5q0 -22 8.5 -41.5t22.5 -33.5t32.5 -22.5t38.5 -8.5q42 0 78.5 23.5t60.5 63.5z" />
<glyph unicode="&#xc0;" d="M15 0l220 634h8l240 -634h-72l-69 182h-198l-60 -182h-69zM326 236l-88 238l-80 -238h168zM183 791l153 -89l-23 -42l-170 61z" />
<glyph unicode="&#xc1;" d="M15 0l220 634h8l240 -634h-72l-69 182h-198l-60 -182h-69zM326 236l-88 238l-80 -238h168zM309 791l40 -70l-169 -61l-23 42z" />
<glyph unicode="&#xc2;" d="M15 0l220 634h8l240 -634h-72l-69 182h-198l-60 -182h-69zM326 236l-88 238l-80 -238h168zM103 692l131 99h22l123 -98l-33 -38l-103 71l-112 -68z" />
<glyph unicode="&#xc3;" d="M15 0l220 634h8l240 -634h-72l-69 182h-198l-60 -182h-69zM326 236l-88 238l-80 -238h168zM131 683l-45 32q55 87 113 87q18 0 37.5 -11.5t37 -26t31 -26t20.5 -11.5q23 0 34.5 15.5t27.5 37.5l38 -40q-30 -36 -52 -53.5t-45 -17.5t-41 12t-33.5 26t-28.5 26t-25 12 q-22 0 -35 -13.5t-34 -48.5z" />
<glyph unicode="&#xc4;" d="M15 0l220 634h8l240 -634h-72l-69 182h-198l-60 -182h-69zM326 236l-88 238l-80 -238h168zM187 774q15 -15 15 -36q0 -20 -15 -35t-36 -15q-20 0 -35 15t-15 35t15 35.5t35 15.5q21 0 36 -15zM365 774q15 -15 15 -36q0 -20 -15 -35t-36 -15q-20 0 -34.5 14.5t-14.5 35.5 t14.5 36t34.5 15q21 0 36 -15z" />
<glyph unicode="&#xc5;" d="M241 753q-17 0 -29.5 -13t-12.5 -33q0 -19 12.5 -32t29.5 -13t29 13t12 32q0 20 -12 33t-29 13zM326 236l-88 238l-80 -238h168zM248 619l235 -619h-72l-69 182h-198l-60 -183h-69l215 620q-35 4 -58.5 29t-23.5 60q0 18 7 33.5t19.5 27.5t29.5 19t36 7t35.5 -7t29 -19 t19.5 -27.5t7 -33.5q0 -35 -23.5 -60.5t-59.5 -28.5z" />
<glyph unicode="&#xc6;" d="M200 624h284v-62h-171v-205h145v-64h-145v-231h169v-62h-230v169h-130l-54 -169h-64zM252 562h-11l-105 -335h116v335z" />
<glyph unicode="&#xc7;" d="M327 -109q0 24 -47 24h-30l10 75q-42 4 -81.5 24t-70.5 58t-49 95.5t-18 135.5q0 96 23 159t57.5 99.5t76 51.5t78.5 15q31 0 60.5 -9t55 -25t45.5 -38.5t32 -50.5l-67 -33q-4 3 -4 10q0 12 -3 18q-20 33 -52 52.5t-68 19.5q-34 0 -64 -17.5t-52.5 -51t-36 -81.5 t-13.5 -109q0 -59 13 -107.5t36.5 -83t55 -53.5t67.5 -19q37 0 71.5 20.5t55.5 55.5l52 -34q-26 -42 -67 -68.5t-89 -32.5l-5 -38l17 -1q68 -5 68 -55q0 -28 -28.5 -51t-87.5 -23t-111 37l25 42q43 -36 99 -36q26 0 36 7.5t10 17.5z" />
<glyph unicode="&#xc8;" d="M59 624h382v-62h-316v-205h261v-64h-261v-231h313v-62h-379v624zM183 791l153 -89l-23 -42l-170 61z" />
<glyph unicode="&#xc9;" d="M59 624h382v-62h-316v-205h261v-64h-261v-231h313v-62h-379v624zM325 791l40 -70l-169 -61l-23 42z" />
<glyph unicode="&#xca;" d="M59 624h382v-62h-316v-205h261v-64h-261v-231h313v-62h-379v624zM111 692l131 99h22l123 -98l-33 -38l-103 71l-112 -68z" />
<glyph unicode="&#xcb;" d="M59 624h382v-62h-316v-205h261v-64h-261v-231h313v-62h-379v624zM193 774q15 -15 15 -36q0 -20 -15 -35t-36 -15q-20 0 -35 15t-15 35t15 35.5t35 15.5q21 0 36 -15zM371 774q15 -15 15 -36q0 -20 -15 -35t-36 -15q-20 0 -34.5 14.5t-14.5 35.5t14.5 36t34.5 15 q21 0 36 -15z" />
<glyph unicode="&#xcc;" d="M88 623h309v-59h-123v-507h129v-58h-322v59h123v506h-116v59zM183 791l153 -89l-23 -42l-170 61z" />
<glyph unicode="&#xcd;" d="M88 623h309v-59h-123v-507h129v-58h-322v59h123v506h-116v59zM325 791l40 -70l-169 -61l-23 42z" />
<glyph unicode="&#xce;" d="M88 623h309v-59h-123v-507h129v-58h-322v59h123v506h-116v59zM102 692l131 99h22l123 -98l-33 -38l-103 71l-112 -68z" />
<glyph unicode="&#xcf;" d="M88 623h309v-59h-123v-507h129v-58h-322v59h123v506h-116v59zM190 774q15 -15 15 -36q0 -20 -15 -35t-36 -15q-20 0 -35 15t-15 35t15 35.5t35 15.5q21 0 36 -15zM368 774q15 -15 15 -36q0 -20 -15 -35t-36 -15q-20 0 -34.5 14.5t-14.5 35.5t14.5 36t34.5 15q21 0 36 -15 z" />
<glyph unicode="&#xd0;" d="M79 623h139q68 0 114.5 -23t76 -64.5t43.5 -100t14 -129.5q0 -45 -10 -89.5t-28.5 -83t-46 -69t-62.5 -46.5q-39 -19 -113 -19h-127v302h-49v58h49v264zM143 301v-244h60q96 0 146 65.5t50 183.5q0 120 -44.5 189t-140.5 69h-71v-205h105v-58h-105z" />
<glyph unicode="&#xd1;" d="M50 0v623h68l262 -462v463h74q0 -6 -3.5 -13t-3.5 -14v-597h-55l-275 490v-490h-67zM136 683l-45 32q55 87 113 87q18 0 37.5 -11.5t37 -26t31 -26t20.5 -11.5q23 0 34.5 15.5t27.5 37.5l38 -40q-30 -36 -52 -53.5t-45 -17.5t-41 12t-33.5 26t-28.5 26t-25 12 q-22 0 -35 -13.5t-34 -48.5z" />
<glyph unicode="&#xd2;" d="M254 -10q-51 0 -92.5 23.5t-71 66t-45.5 102t-16 131.5t16.5 131t46.5 100t72 63.5t92 22.5q44 0 82 -19t69.5 -57.5t47.5 -98.5t16 -143q0 -90 -19 -151.5t-50 -99.5t-69.5 -54.5t-78.5 -16.5zM150 115q47 -56 104 -56q27 0 53 11.5t47.5 40.5t34 78t12.5 125 q0 74 -14 121.5t-35.5 75.5t-45 40.5t-50.5 12.5q-31 1 -57 -11t-49 -39t-37.5 -74t-14.5 -121q0 -69 14.5 -122t37.5 -82zM183 791l153 -89l-23 -42l-170 61z" />
<glyph unicode="&#xd3;" d="M254 -10q-51 0 -92.5 23.5t-71 66t-45.5 102t-16 131.5t16.5 131t46.5 100t72 63.5t92 22.5q44 0 82 -19t69.5 -57.5t47.5 -98.5t16 -143q0 -90 -19 -151.5t-50 -99.5t-69.5 -54.5t-78.5 -16.5zM150 115q47 -56 104 -56q27 0 53 11.5t47.5 40.5t34 78t12.5 125 q0 74 -14 121.5t-35.5 75.5t-45 40.5t-50.5 12.5q-31 1 -57 -11t-49 -39t-37.5 -74t-14.5 -121q0 -69 14.5 -122t37.5 -82zM325 791l40 -70l-169 -61l-23 42z" />
<glyph unicode="&#xd4;" d="M254 -10q-51 0 -92.5 23.5t-71 66t-45.5 102t-16 131.5t16.5 131t46.5 100t72 63.5t92 22.5q44 0 82 -19t69.5 -57.5t47.5 -98.5t16 -143q0 -90 -19 -151.5t-50 -99.5t-69.5 -54.5t-78.5 -16.5zM150 115q47 -56 104 -56q27 0 53 11.5t47.5 40.5t34 78t12.5 125 q0 74 -14 121.5t-35.5 75.5t-45 40.5t-50.5 12.5q-31 1 -57 -11t-49 -39t-37.5 -74t-14.5 -121q0 -69 14.5 -122t37.5 -82zM114 692l131 99h22l123 -98l-33 -38l-103 71l-112 -68z" />
<glyph unicode="&#xd5;" d="M254 -10q-51 0 -92.5 23.5t-71 66t-45.5 102t-16 131.5t16.5 131t46.5 100t72 63.5t92 22.5q44 0 82 -19t69.5 -57.5t47.5 -98.5t16 -143q0 -90 -19 -151.5t-50 -99.5t-69.5 -54.5t-78.5 -16.5zM150 115q47 -56 104 -56q27 0 53 11.5t47.5 40.5t34 78t12.5 125 q0 74 -14 121.5t-35.5 75.5t-45 40.5t-50.5 12.5q-31 1 -57 -11t-49 -39t-37.5 -74t-14.5 -121q0 -69 14.5 -122t37.5 -82zM136 683l-45 32q55 87 113 87q18 0 37.5 -11.5t37 -26t31 -26t20.5 -11.5q23 0 34.5 15.5t27.5 37.5l38 -40q-30 -36 -52 -53.5t-45 -17.5t-41 12 t-33.5 26t-28.5 26t-25 12q-22 0 -35 -13.5t-34 -48.5z" />
<glyph unicode="&#xd6;" d="M254 -10q-51 0 -92.5 23.5t-71 66t-45.5 102t-16 131.5t16.5 131t46.5 100t72 63.5t92 22.5q44 0 82 -19t69.5 -57.5t47.5 -98.5t16 -143q0 -90 -19 -151.5t-50 -99.5t-69.5 -54.5t-78.5 -16.5zM150 115q47 -56 104 -56q27 0 53 11.5t47.5 40.5t34 78t12.5 125 q0 74 -14 121.5t-35.5 75.5t-45 40.5t-50.5 12.5q-31 1 -57 -11t-49 -39t-37.5 -74t-14.5 -121q0 -69 14.5 -122t37.5 -82zM193 774q15 -15 15 -36q0 -20 -15 -35t-36 -15q-20 0 -35 15t-15 35t15 35.5t35 15.5q21 0 36 -15zM371 774q15 -15 15 -36q0 -20 -15 -35t-36 -15 q-20 0 -34.5 14.5t-14.5 35.5t14.5 36t34.5 15q21 0 36 -15z" />
<glyph unicode="&#xd7;" d="M382 503l48 -44l-130 -134l127 -134l-46 -46l-127 133l-125 -129l-44 44l126 131l-126 133l47 46l124 -131z" />
<glyph unicode="&#xd8;" d="M150 513q-23 -26 -37.5 -75.5t-14.5 -115.5q0 -110 34 -177l204 383q-38 36 -84 36q-26 0 -52 -12.5t-50 -38.5zM413 545q58 -79 58 -235q0 -92 -19 -153t-50 -98.5t-70 -53t-78 -15.5q-29 0 -58.5 9.5t-57.5 30.5l-50 -93l-52 27l59 110q-66 85 -66 239q0 71 16 129.5 t45.5 100t71 64.5t92.5 23q30 0 59.5 -10t55.5 -30l46 87l54 -29zM374 472l-203 -380q37 -33 77 -33q75 0 114 62.5t39 192.5q0 99 -27 158z" />
<glyph unicode="&#xd9;" d="M50 623h79q1 0 1 -2q0 -4 -4.5 -11.5t-6.5 -18.5v-377q0 -52 10 -80.5t28 -47t42.5 -27.5t52.5 -11q28 2 52.5 10t43 27.5t29 48.5t10.5 83v406h67v-405q0 -61 -13.5 -103t-41.5 -70t-65 -42t-83 -14q-45 0 -82 14t-63.5 41t-41 66t-14.5 105v408zM182 791l153 -89 l-23 -42l-170 61z" />
<glyph unicode="&#xda;" d="M50 623h79q1 0 1 -2q0 -4 -4.5 -11.5t-6.5 -18.5v-377q0 -52 10 -80.5t28 -47t42.5 -27.5t52.5 -11q28 2 52.5 10t43 27.5t29 48.5t10.5 83v406h67v-405q0 -61 -13.5 -103t-41.5 -70t-65 -42t-83 -14q-45 0 -82 14t-63.5 41t-41 66t-14.5 105v408zM325 791l40 -70 l-169 -61l-23 42z" />
<glyph unicode="&#xdb;" d="M50 623h79q1 0 1 -2q0 -4 -4.5 -11.5t-6.5 -18.5v-377q0 -52 10 -80.5t28 -47t42.5 -27.5t52.5 -11q28 2 52.5 10t43 27.5t29 48.5t10.5 83v406h67v-405q0 -61 -13.5 -103t-41.5 -70t-65 -42t-83 -14q-45 0 -82 14t-63.5 41t-41 66t-14.5 105v408zM114 692l131 99h22 l123 -98l-33 -38l-103 71l-112 -68z" />
<glyph unicode="&#xdc;" d="M50 623h79q1 0 1 -2q0 -4 -4.5 -11.5t-6.5 -18.5v-377q0 -52 10 -80.5t28 -47t42.5 -27.5t52.5 -11q28 2 52.5 10t43 27.5t29 48.5t10.5 83v406h67v-405q0 -61 -13.5 -103t-41.5 -70t-65 -42t-83 -14q-45 0 -82 14t-63.5 41t-41 66t-14.5 105v408zM201 774q15 -15 15 -36 q0 -20 -15 -35t-36 -15q-20 0 -35 15t-15 35t15 35.5t35 15.5q21 0 36 -15zM379 774q15 -15 15 -36q0 -20 -15 -35t-36 -15q-20 0 -34.5 14.5t-14.5 35.5t14.5 36t34.5 15q21 0 36 -15z" />
<glyph unicode="&#xdd;" d="M28 623h80l153 -302l138 302h74l-177 -377v-246h-76v246zM325 791l40 -70l-169 -61l-23 42z" />
<glyph unicode="&#xde;" d="M59 623h78q2 -2 2 -3q0 -3 -4 -9.5t-6 -15.5v-89h130q52 0 88.5 -14t60 -38t35 -56t13.5 -68q-2 -36 -13.5 -67.5t-34 -54.5t-58 -36.5t-86.5 -13.5h-135v-158h-70v623zM129 440v-221h135q32 0 54 8.5t36.5 23t21 34.5t8.5 43q-2 23 -9.5 43.5t-22.5 35.5t-38.5 24 t-56.5 9h-128z" />
<glyph unicode="&#xdf;" d="M55 0v423q0 124 50 185t134 61q37 0 70 -14.5t57.5 -38.5t39 -56t14.5 -67q0 -43 -21 -79t-58 -55q28 -9 51 -26t39 -40.5t24.5 -52t8.5 -59.5q0 -41 -14 -75.5t-39 -60.5t-58 -40.5t-72 -14.5q-58 0 -104 31l35 56q30 -24 73 -24q21 0 41.5 10.5t36.5 27t25.5 38 t9.5 44.5q-2 34 -11.5 62t-27.5 47.5t-46.5 30t-68.5 10.5h-30v57h36q18 0 36.5 7t33 22t23.5 37.5t9 54.5q0 21 -8.5 41t-24 35.5t-36.5 24.5t-46 9q-27 0 -48 -13.5t-36 -38t-22.5 -58.5t-7.5 -76v-425h-68z" />
<glyph unicode="&#xe0;" d="M91 403q61 64 163 64q84 0 132.5 -42.5t48.5 -141.5v-283h-68v50q-73 -61 -164 -61q-36 0 -64.5 11t-48.5 29t-30.5 41t-10.5 46q0 69 59.5 109t171.5 44h86v17q0 68 -28.5 95t-88.5 27q-74 0 -123 -51zM369 214h-17q-14 0 -26.5 0.5t-24.5 0.5q-55 0 -90 -7.5t-55 -20.5 t-27.5 -29.5t-7.5 -35.5q0 -32 28 -55t69 -23q30 0 54 9.5t42 23t29 28t16 25.5q10 20 10 54v30zM243 699l88 -147l-50 -30l-101 135z" />
<glyph unicode="&#xe1;" d="M91 403q61 64 163 64q84 0 132.5 -42.5t48.5 -141.5v-283h-68v50q-73 -61 -164 -61q-36 0 -64.5 11t-48.5 29t-30.5 41t-10.5 46q0 69 59.5 109t171.5 44h86v17q0 68 -28.5 95t-88.5 27q-74 0 -123 -51zM369 214h-17q-14 0 -26.5 0.5t-24.5 0.5q-55 0 -90 -7.5t-55 -20.5 t-27.5 -29.5t-7.5 -35.5q0 -32 28 -55t69 -23q30 0 54 9.5t42 23t29 28t16 25.5q10 20 10 54v30zM292 699l63 -42l-101 -135l-50 30z" />
<glyph unicode="&#xe2;" d="M91 403q61 64 163 64q84 0 132.5 -42.5t48.5 -141.5v-283h-68v50q-73 -61 -164 -61q-36 0 -64.5 11t-48.5 29t-30.5 41t-10.5 46q0 69 59.5 109t171.5 44h86v17q0 68 -28.5 95t-88.5 27q-74 0 -123 -51zM369 214h-17q-14 0 -26.5 0.5t-24.5 0.5q-55 0 -90 -7.5t-55 -20.5 t-27.5 -29.5t-7.5 -35.5q0 -32 28 -55t69 -23q30 0 54 9.5t42 23t29 28t16 25.5q10 20 10 54v30zM141 545l111 140h22l110 -141l-46 -35l-78 103l-81 -102z" />
<glyph unicode="&#xe3;" d="M91 403q61 64 163 64q84 0 132.5 -42.5t48.5 -141.5v-283h-68v50q-73 -61 -164 -61q-36 0 -64.5 11t-48.5 29t-30.5 41t-10.5 46q0 69 59.5 109t171.5 44h86v17q0 68 -28.5 95t-88.5 27q-74 0 -123 -51zM369 214h-17q-14 0 -26.5 0.5t-24.5 0.5q-55 0 -90 -7.5t-55 -20.5 t-27.5 -29.5t-7.5 -35.5q0 -32 28 -55t69 -23q30 0 54 9.5t42 23t29 28t16 25.5q10 20 10 54v30zM144 557l-44 32q54 87 113 87q18 0 38.5 -11.5t36.5 -26t29.5 -26t20.5 -11.5q12 0 20.5 4t15 11.5t12.5 17t15 20.5l37 -40q-30 -36 -51.5 -53.5t-44.5 -17.5t-41.5 12 t-32.5 26t-28 26t-26 12q-22 0 -35 -13.5t-35 -48.5z" />
<glyph unicode="&#xe4;" d="M91 403q61 64 163 64q84 0 132.5 -42.5t48.5 -141.5v-283h-68v50q-73 -61 -164 -61q-36 0 -64.5 11t-48.5 29t-30.5 41t-10.5 46q0 69 59.5 109t171.5 44h86v17q0 68 -28.5 95t-88.5 27q-74 0 -123 -51zM369 214h-17q-14 0 -26.5 0.5t-24.5 0.5q-55 0 -90 -7.5t-55 -20.5 t-27.5 -29.5t-7.5 -35.5q0 -32 28 -55t69 -23q30 0 54 9.5t42 23t29 28t16 25.5q10 20 10 54v30zM210 650q15 -15 15 -36q0 -20 -15 -35t-35 -15q-21 0 -36 15t-15 35t15 35.5t36 15.5q20 0 35 -15zM388 650q15 -15 15 -36q0 -20 -15 -35t-35 -15q-21 0 -35.5 14.5 t-14.5 35.5t14.5 36t35.5 15q20 0 35 -15z" />
<glyph unicode="&#xe5;" d="M91 403q61 64 163 64q84 0 132.5 -42.5t48.5 -141.5v-283h-68v50q-73 -61 -164 -61q-36 0 -64.5 11t-48.5 29t-30.5 41t-10.5 46q0 69 59.5 109t171.5 44h86v17q0 68 -28.5 95t-88.5 27q-74 0 -123 -51zM369 214h-17q-14 0 -26.5 0.5t-24.5 0.5q-55 0 -90 -7.5t-55 -20.5 t-27.5 -29.5t-7.5 -35.5q0 -32 28 -55t69 -23q30 0 54 9.5t42 23t29 28t16 25.5q10 20 10 54v30zM321 667q27 -27 27 -62q0 -18 -7.5 -34t-20 -28t-29.5 -19t-35 -7t-34.5 7t-29 19t-20 28t-7.5 34t7.5 34t20 28t29 19t34.5 7q37 0 65 -26zM257 652q-17 0 -29 -13.5 t-12 -32.5t12 -32.5t29 -13.5t29.5 13.5t12.5 32.5t-12.5 32.5t-29.5 13.5z" />
<glyph unicode="&#xe6;" d="M31 412q43 55 116 55q36 0 65.5 -16.5t45.5 -45.5q17 29 45.5 45.5t58.5 16.5q68 0 98 -53t30 -146v-38l-208 -7v-48q0 -58 28 -93t76 -35q46 0 73 37l35 -42q-44 -53 -114 -53q-38 0 -71.5 18.5t-53.5 50.5q-17 -32 -47 -50.5t-66 -18.5q-29 0 -53.5 12t-42 31t-27 43 t-9.5 48q0 69 51 110.5t137 44.5l23 1v26q0 49 -22 77.5t-57 28.5q-45 0 -76 -43zM221 219l-22 -1q-37 -2 -61 -9.5t-38.5 -20t-20 -29.5t-5.5 -37q0 -14 6 -26.5t16 -23t22.5 -16.5t25.5 -6q43 0 60.5 26.5t17.5 81.5q0 6 -0.5 11.5t-0.5 11.5v38zM282 279l150 5v21 q0 49 -18.5 77.5t-51.5 28.5q-36 0 -58 -33t-22 -82v-17z" />
<glyph unicode="&#xe7;" d="M327 -109q0 24 -47 24h-30l10 75q-44 4 -81.5 23.5t-64.5 51t-42.5 74t-15.5 92.5q0 49 17 92t47.5 75t73 50t92.5 18q54 0 98.5 -22.5t72.5 -62.5l-51 -59q-5 3 -5.5 6.5t0 9.5t-6.5 15t-25 24q-34 28 -93 28q-29 0 -55.5 -12t-46.5 -34.5t-32 -54t-12 -70.5t12 -72 t33 -57t50 -37.5t64 -13.5q69 0 119 56l42 -49q-59 -63 -146 -71l-5 -37l17 -1q68 -5 68 -55q0 -28 -28.5 -51t-87.5 -23t-111 37l25 42q43 -36 99 -36q26 0 36 7.5t10 17.5z" />
<glyph unicode="&#xe8;" d="M259 468q36 0 70 -13t59.5 -39.5t41 -67.5t15.5 -97q0 -8 -0.5 -16.5t-1.5 -16.5h-325q2 -48 16.5 -80.5t36.5 -52.5t49 -28.5t54 -8.5q71 0 118 51l40 -39q-58 -70 -160 -70q-50 0 -91.5 15.5t-70.5 45.5t-45 74.5t-16 101.5q0 58 16.5 103t45 75.5t66.5 46.5t82 16z M121 274h251q0 4 0.5 7.5t0.5 8.5q0 25 -9.5 47.5t-25.5 39t-37.5 26.5t-46.5 10q-47 0 -85 -33.5t-48 -105.5zM243 699l88 -147l-50 -30l-101 135z" />
<glyph unicode="&#xe9;" d="M259 468q36 0 70 -13t59.5 -39.5t41 -67.5t15.5 -97q0 -8 -0.5 -16.5t-1.5 -16.5h-325q2 -48 16.5 -80.5t36.5 -52.5t49 -28.5t54 -8.5q71 0 118 51l40 -39q-58 -70 -160 -70q-50 0 -91.5 15.5t-70.5 45.5t-45 74.5t-16 101.5q0 58 16.5 103t45 75.5t66.5 46.5t82 16z M121 274h251q0 4 0.5 7.5t0.5 8.5q0 25 -9.5 47.5t-25.5 39t-37.5 26.5t-46.5 10q-47 0 -85 -33.5t-48 -105.5zM292 699l63 -42l-101 -135l-50 30z" />
<glyph unicode="&#xea;" d="M259 468q36 0 70 -13t59.5 -39.5t41 -67.5t15.5 -97q0 -8 -0.5 -16.5t-1.5 -16.5h-325q2 -48 16.5 -80.5t36.5 -52.5t49 -28.5t54 -8.5q71 0 118 51l40 -39q-58 -70 -160 -70q-50 0 -91.5 15.5t-70.5 45.5t-45 74.5t-16 101.5q0 58 16.5 103t45 75.5t66.5 46.5t82 16z M121 274h251q0 4 0.5 7.5t0.5 8.5q0 25 -9.5 47.5t-25.5 39t-37.5 26.5t-46.5 10q-47 0 -85 -33.5t-48 -105.5zM134 545l111 140h22l110 -141l-46 -35l-78 103l-81 -102z" />
<glyph unicode="&#xeb;" d="M259 468q36 0 70 -13t59.5 -39.5t41 -67.5t15.5 -97q0 -8 -0.5 -16.5t-1.5 -16.5h-325q2 -48 16.5 -80.5t36.5 -52.5t49 -28.5t54 -8.5q71 0 118 51l40 -39q-58 -70 -160 -70q-50 0 -91.5 15.5t-70.5 45.5t-45 74.5t-16 101.5q0 58 16.5 103t45 75.5t66.5 46.5t82 16z M121 274h251q0 4 0.5 7.5t0.5 8.5q0 25 -9.5 47.5t-25.5 39t-37.5 26.5t-46.5 10q-47 0 -85 -33.5t-48 -105.5zM199 650q15 -15 15 -36q0 -20 -15 -35t-35 -15q-21 0 -36 15t-15 35t15 35.5t36 15.5q20 0 35 -15zM377 650q15 -15 15 -36q0 -20 -15 -35t-35 -15 q-21 0 -35.5 14.5t-14.5 35.5t14.5 36t35.5 15q20 0 35 -15z" />
<glyph unicode="&#xec;" d="M106 457h183v-399h107v-58h-296v58h117v341h-111v58zM193 699l88 -147l-50 -30l-101 135z" />
<glyph unicode="&#xed;" d="M106 457h183v-399h107v-58h-296v58h117v341h-111v58zM284 699l63 -42l-101 -135l-50 30z" />
<glyph unicode="&#xee;" d="M106 457h183v-399h107v-58h-296v58h117v341h-111v58zM114 545l111 140h22l110 -141l-46 -35l-78 103l-81 -102z" />
<glyph unicode="&#xef;" d="M106 457h183v-399h107v-58h-296v58h117v341h-111v58zM190 650q15 -15 15 -36q0 -20 -15 -35t-35 -15q-21 0 -36 15t-15 35t15 35.5t36 15.5q20 0 35 -15zM368 650q15 -15 15 -36q0 -20 -15 -35t-35 -15q-21 0 -35.5 14.5t-14.5 35.5t14.5 36t35.5 15q20 0 35 -15z" />
<glyph unicode="&#xf0;" d="M256 50q25 0 48.5 10.5t42 33t29.5 56.5t11 82t-12 81.5t-31.5 54t-43 29.5t-47.5 9t-48.5 -11t-44 -33t-31.5 -54.5t-12 -75.5q0 -41 11 -74.5t29.5 -57.5t44 -37t54.5 -13zM347 570q113 -128 113 -317q0 -60 -13.5 -109t-39 -83.5t-64 -53.5t-87.5 -19q-44 0 -83 17.5 t-68.5 49t-47 74.5t-17.5 94q0 50 17 94.5t45.5 77.5t65 52.5t74.5 19.5q78 0 127 -52q-16 38 -37 72.5t-49 64.5l-128 -36l-18 48l104 28q-45 38 -102 64l81 16q45 -25 87 -62l108 29l17 -44z" />
<glyph unicode="&#xf1;" d="M68 0v457h74v-81q26 42 66.5 67t82.5 25q30 0 56 -10.5t45 -33.5t29.5 -59t10.5 -88v-277h-71v275q0 72 -24.5 101t-59.5 29q-23 0 -47 -10t-43.5 -28.5t-32 -44.5t-12.5 -59v-263h-74zM131 557l-44 32q54 87 113 87q18 0 38.5 -11.5t36.5 -26t29.5 -26t20.5 -11.5 q12 0 20.5 4t15 11.5t12.5 17t15 20.5l37 -40q-30 -36 -51.5 -53.5t-44.5 -17.5t-41.5 12t-32.5 26t-28 26t-26 12q-22 0 -35 -13.5t-35 -48.5z" />
<glyph unicode="&#xf2;" d="M254 467q42 0 79.5 -16.5t65.5 -47.5t44.5 -75.5t16.5 -99.5q0 -56 -16 -100t-44 -75.5t-66 -48t-81 -16.5q-44 0 -82.5 18t-67.5 49.5t-46 75.5t-17 95t17.5 96t47 76.5t68.5 50t81 18.5zM388 226q0 43 -11.5 76.5t-30.5 56.5t-43.5 35t-51.5 12t-51.5 -12t-43 -35 t-29.5 -55.5t-11 -73.5q0 -40 11 -73t29.5 -57t43.5 -37t53 -13t52.5 11.5t43 34t29 55.5t10.5 75zM243 699l88 -147l-50 -30l-101 135z" />
<glyph unicode="&#xf3;" d="M254 467q42 0 79.5 -16.5t65.5 -47.5t44.5 -75.5t16.5 -99.5q0 -56 -16 -100t-44 -75.5t-66 -48t-81 -16.5q-44 0 -82.5 18t-67.5 49.5t-46 75.5t-17 95t17.5 96t47 76.5t68.5 50t81 18.5zM388 226q0 43 -11.5 76.5t-30.5 56.5t-43.5 35t-51.5 12t-51.5 -12t-43 -35 t-29.5 -55.5t-11 -73.5q0 -40 11 -73t29.5 -57t43.5 -37t53 -13t52.5 11.5t43 34t29 55.5t10.5 75zM292 699l63 -42l-101 -135l-50 30z" />
<glyph unicode="&#xf4;" d="M254 467q42 0 79.5 -16.5t65.5 -47.5t44.5 -75.5t16.5 -99.5q0 -56 -16 -100t-44 -75.5t-66 -48t-81 -16.5q-44 0 -82.5 18t-67.5 49.5t-46 75.5t-17 95t17.5 96t47 76.5t68.5 50t81 18.5zM388 226q0 43 -11.5 76.5t-30.5 56.5t-43.5 35t-51.5 12t-51.5 -12t-43 -35 t-29.5 -55.5t-11 -73.5q0 -40 11 -73t29.5 -57t43.5 -37t53 -13t52.5 11.5t43 34t29 55.5t10.5 75zM134 545l111 140h22l110 -141l-46 -35l-78 103l-81 -102z" />
<glyph unicode="&#xf5;" d="M254 467q42 0 79.5 -16.5t65.5 -47.5t44.5 -75.5t16.5 -99.5q0 -56 -16 -100t-44 -75.5t-66 -48t-81 -16.5q-44 0 -82.5 18t-67.5 49.5t-46 75.5t-17 95t17.5 96t47 76.5t68.5 50t81 18.5zM388 226q0 43 -11.5 76.5t-30.5 56.5t-43.5 35t-51.5 12t-51.5 -12t-43 -35 t-29.5 -55.5t-11 -73.5q0 -40 11 -73t29.5 -57t43.5 -37t53 -13t52.5 11.5t43 34t29 55.5t10.5 75zM135 557l-44 32q54 87 113 87q18 0 38.5 -11.5t36.5 -26t29.5 -26t20.5 -11.5q12 0 20.5 4t15 11.5t12.5 17t15 20.5l37 -40q-30 -36 -51.5 -53.5t-44.5 -17.5t-41.5 12 t-32.5 26t-28 26t-26 12q-22 0 -35 -13.5t-35 -48.5z" />
<glyph unicode="&#xf6;" d="M254 467q42 0 79.5 -16.5t65.5 -47.5t44.5 -75.5t16.5 -99.5q0 -56 -16 -100t-44 -75.5t-66 -48t-81 -16.5q-44 0 -82.5 18t-67.5 49.5t-46 75.5t-17 95t17.5 96t47 76.5t68.5 50t81 18.5zM388 226q0 43 -11.5 76.5t-30.5 56.5t-43.5 35t-51.5 12t-51.5 -12t-43 -35 t-29.5 -55.5t-11 -73.5q0 -40 11 -73t29.5 -57t43.5 -37t53 -13t52.5 11.5t43 34t29 55.5t10.5 75zM198 650q15 -15 15 -36q0 -20 -15 -35t-35 -15q-21 0 -36 15t-15 35t15 35.5t36 15.5q20 0 35 -15zM376 650q15 -15 15 -36q0 -20 -15 -35t-35 -15q-21 0 -35.5 14.5 t-14.5 35.5t14.5 36t35.5 15q20 0 35 -15z" />
<glyph unicode="&#xf7;" d="M71 348h360v-67h-360v67zM287 498q13 -15 13 -32q0 -18 -13 -31t-32 -13q-18 0 -31 13t-13 31q0 19 13.5 32.5t30.5 13.5q18 0 32 -14zM287 190q13 -15 13 -32q0 -18 -13 -31t-31 -13t-32 12.5t-14 31.5q0 20 14.5 33t31.5 13t31 -14z" />
<glyph unicode="&#xf8;" d="M252 406q-27 0 -51.5 -12.5t-43.5 -35t-30 -54t-11 -69.5q0 -76 34 -125l154 283q-25 13 -52 13zM386 417q74 -68 74 -184q0 -58 -16 -103.5t-44 -77t-65.5 -48t-79.5 -16.5q-50 0 -93 22l-40 -74l-52 27l44 81q-74 71 -74 177q0 54 17.5 99t47 77.5t69 51t83.5 18.5 q39 0 78 -17l37 69l53 -29zM351 354l-157 -287q29 -17 61 -17q27 0 51 12t42.5 34.5t29 54.5t10.5 72q0 82 -37 131z" />
<glyph unicode="&#xf9;" d="M63 457h72v-255q0 -44 8 -73.5t22.5 -47.5t33 -26t40.5 -8q24 2 46 12t39.5 28.5t27.5 47.5t10 70v252h73v-416q0 -23 5 -41h-76q-1 7 -2 15.5t0 19.5l1 35q-22 -38 -59.5 -59.5t-82.5 -21.5q-35 0 -63 12.5t-50.5 38.5t-34 66t-11.5 96zM243 699l88 -147l-50 -30 l-101 135z" />
<glyph unicode="&#xfa;" d="M63 457h72v-255q0 -44 8 -73.5t22.5 -47.5t33 -26t40.5 -8q24 2 46 12t39.5 28.5t27.5 47.5t10 70v252h73v-416q0 -23 5 -41h-76q-1 7 -2 15.5t0 19.5l1 35q-22 -38 -59.5 -59.5t-82.5 -21.5q-35 0 -63 12.5t-50.5 38.5t-34 66t-11.5 96zM292 699l63 -42l-101 -135 l-50 30z" />
<glyph unicode="&#xfb;" d="M63 457h72v-255q0 -44 8 -73.5t22.5 -47.5t33 -26t40.5 -8q24 2 46 12t39.5 28.5t27.5 47.5t10 70v252h73v-416q0 -23 5 -41h-76q-1 7 -2 15.5t0 19.5l1 35q-22 -38 -59.5 -59.5t-82.5 -21.5q-35 0 -63 12.5t-50.5 38.5t-34 66t-11.5 96zM134 545l111 140h22l110 -141 l-46 -35l-78 103l-81 -102z" />
<glyph unicode="&#xfc;" d="M63 457h72v-255q0 -44 8 -73.5t22.5 -47.5t33 -26t40.5 -8q24 2 46 12t39.5 28.5t27.5 47.5t10 70v252h73v-416q0 -23 5 -41h-76q-1 7 -2 15.5t0 19.5l1 35q-22 -38 -59.5 -59.5t-82.5 -21.5q-35 0 -63 12.5t-50.5 38.5t-34 66t-11.5 96zM198 650q15 -15 15 -36 q0 -20 -15 -35t-35 -15q-21 0 -36 15t-15 35t15 35.5t36 15.5q20 0 35 -15zM376 650q15 -15 15 -36q0 -20 -15 -35t-35 -15q-21 0 -35.5 14.5t-14.5 35.5t14.5 36t35.5 15q20 0 35 -15z" />
<glyph unicode="&#xfd;" d="M59 425l-13 32h89q0 -8 -2 -13.5t-2 -10.5q0 -4 2 -6l134 -336l87 245q13 35 21 65.5t13 55.5h75q-9 -26 -19.5 -59t-25.5 -73l-124 -327l-19 -50q-24 -67 -61.5 -94.5t-86.5 -27.5q-65 0 -105 39l38 64q3 -3 5 -9.5t3 -8.5l4 -4.5t10.5 -9t16.5 -8.5t22 -4q29 0 51.5 18 t44.5 65l14 34zM292 699l63 -42l-101 -135l-50 30z" />
<glyph unicode="&#xfe;" d="M60 665h80q0 -7 -3.5 -16t-3.5 -17v-245q23 37 61.5 58.5t77.5 21.5q38 0 72.5 -14.5t61 -43.5t42 -73t15.5 -104t-16.5 -106t-43.5 -76.5t-61.5 -46t-70.5 -15.5q-42 0 -78 19t-59 53v-227h-74v832zM133 190q2 -74 34 -106t79 -32q25 0 50 8t45.5 27.5t33.5 51.5t13 80 q0 88 -36.5 137.5t-102.5 49.5q-20 0 -41 -7t-37.5 -24t-27 -45.5t-10.5 -70.5v-69z" />
<glyph unicode="&#xff;" d="M59 425l-13 32h89q0 -8 -2 -13.5t-2 -10.5q0 -4 2 -6l134 -336l87 245q13 35 21 65.5t13 55.5h75q-9 -26 -19.5 -59t-25.5 -73l-124 -327l-19 -50q-24 -67 -61.5 -94.5t-86.5 -27.5q-65 0 -105 39l38 64q3 -3 5 -9.5t3 -8.5l4 -4.5t10.5 -9t16.5 -8.5t22 -4q29 0 51.5 18 t44.5 65l14 34zM198 650q15 -15 15 -36q0 -20 -15 -35t-35 -15q-21 0 -36 15t-15 35t15 35.5t36 15.5q20 0 35 -15zM376 650q15 -15 15 -36q0 -20 -15 -35t-35 -15q-21 0 -35.5 14.5t-14.5 35.5t14.5 36t35.5 15q20 0 35 -15z" />
<glyph unicode="&#x102;" d="M15 0l220 634h8l240 -634h-72l-69 182h-198l-60 -182h-69zM326 236l-88 238l-80 -238h168zM128 784q19 -30 48.5 -50t63.5 -20q65 0 119 70l28 -42q-26 -36 -64.5 -58t-80.5 -22q-86 0 -151 77z" />
<glyph unicode="&#x103;" d="M91 403q61 64 163 64q84 0 132.5 -42.5t48.5 -141.5v-283h-68v50q-73 -61 -164 -61q-36 0 -64.5 11t-48.5 29t-30.5 41t-10.5 46q0 69 59.5 109t171.5 44h86v17q0 68 -28.5 95t-88.5 27q-74 0 -123 -51zM369 214h-17q-14 0 -26.5 0.5t-24.5 0.5q-55 0 -90 -7.5t-55 -20.5 t-27.5 -29.5t-7.5 -35.5q0 -32 28 -55t69 -23q30 0 54 9.5t42 23t29 28t16 25.5q10 20 10 54v30zM146 646q19 -30 48.5 -50t64.5 -20q64 0 119 70l28 -42q-27 -36 -65.5 -58t-80.5 -22q-85 0 -150 77z" />
<glyph unicode="&#x104;" d="M326 236l-88 238l-80 -238h168zM15 -1l220 635h8l241 -634q-84 -75 -84 -102q0 -12 8 -20t20 -8q29 0 58 23v-46q-28 -23 -67 -23q-40 0 -60.5 17.5t-20.5 43.5q0 50 80 115h-7l-69 182h-198l-60 -183h-69z" />
<glyph unicode="&#x105;" d="M369 214h-17q-14 0 -26.5 0.5t-24.5 0.5q-55 0 -90 -7.5t-55 -20.5t-27.5 -29.5t-7.5 -35.5q0 -32 28 -55t69 -23q30 0 54 9.5t42 23t29.5 28.5t15.5 25q10 25 10 54v30zM91 403q61 64 163 64q84 0 132.5 -42.5t48.5 -141.5l-1 -283q-84 -75 -84 -102q0 -12 8 -20t20 -8 q29 0 58 23v-46q-28 -23 -67 -23q-40 0 -60.5 17.5t-20.5 43.5q0 50 80 115l-1 50q-74 -61 -164 -61q-36 0 -64.5 11t-49 29t-30.5 41t-10 46q0 68 59.5 108.5t171.5 44.5h86v17q0 68 -28.5 95t-88.5 27q-74 0 -123 -51z" />
<glyph unicode="&#x106;" d="M398 482q0 12 -3 18q-20 33 -52 52.5t-68 19.5q-34 0 -64 -17.5t-53 -51t-36 -81.5t-13 -109q0 -59 13 -107.5t36.5 -83t55 -53.5t67.5 -19q37 0 71.5 20.5t55.5 55.5l52 -34q-15 -25 -36 -44t-44.5 -32t-47 -19.5t-47.5 -6.5q-54 0 -95.5 18.5t-76 57.5t-53.5 99 t-19 143q0 92 22 153.5t58 98.5t76.5 52.5t78.5 15.5q31 0 60.5 -9t55 -25t45.5 -38.5t32 -50.5l-67 -33q-4 3 -4 10zM308 791l40 -70l-169 -61l-23 42z" />
<glyph unicode="&#x107;" d="M457 381l-51 -59q-5 3 -4.5 6.5t-1 9.5t-7.5 15t-24 24q-34 28 -93 28q-29 0 -55.5 -12t-46.5 -34.5t-32 -54t-12 -70.5t12 -72t33 -57t50 -37.5t64 -13.5q69 0 119 56l42 -49q-68 -72 -167 -72q-49 0 -90.5 18t-72 50t-47.5 75.5t-17 95.5q0 51 17 95t47.5 75.5t73 49.5 t92.5 18q54 0 98.5 -22.5t72.5 -62.5zM292 699l63 -42l-101 -135l-50 30z" />
<glyph unicode="&#x10c;" d="M398 482q0 12 -3 18q-20 33 -52 52.5t-68 19.5q-34 0 -64 -17.5t-53 -51t-36 -81.5t-13 -109q0 -59 13 -107.5t36.5 -83t55 -53.5t67.5 -19q37 0 71.5 20.5t55.5 55.5l52 -34q-15 -25 -36 -44t-44.5 -32t-47 -19.5t-47.5 -6.5q-54 0 -95.5 18.5t-76 57.5t-53.5 99 t-19 143q0 92 22 153.5t58 98.5t76.5 52.5t78.5 15.5q31 0 60.5 -9t55 -25t45.5 -38.5t32 -50.5l-67 -33q-4 3 -4 10zM413 755l-131 -100h-22l-123 98l33 38l103 -71l112 68z" />
<glyph unicode="&#x10d;" d="M457 381l-51 -59q-5 3 -4.5 6.5t-1 9.5t-7.5 15t-24 24q-34 28 -93 28q-29 0 -55.5 -12t-46.5 -34.5t-32 -54t-12 -70.5t12 -72t33 -57t50 -37.5t64 -13.5q69 0 119 56l42 -49q-68 -72 -167 -72q-49 0 -90.5 18t-72 50t-47.5 75.5t-17 95.5q0 51 17 95t47.5 75.5t73 49.5 t92.5 18q54 0 98.5 -22.5t72.5 -62.5zM377 658l-111 -140h-22l-110 141l46 35l78 -103l81 102z" />
<glyph unicode="&#x10e;" d="M54 623h145q80 0 124.5 -22t75.5 -63t46 -99t15 -131q0 -72 -18 -129t-49.5 -97.5t-81.5 -61.5t-124 -21h-133v624zM120 564v-510h64q107 0 156.5 64.5t49.5 185.5q-1 122 -45.5 191t-149.5 69h-75zM372 755l-131 -100h-22l-123 98l33 38l103 -71l112 68z" />
<glyph unicode="&#x10f;" d="M309 390v275h68v-623q0 -27 4 -42h-71q-4 12 -4 34v39q-22 -37 -57 -60t-77 -23q-37 0 -68.5 18.5t-54.5 50.5t-36 76.5t-13 97.5t14.5 96.5t39.5 74.5t58 48t69 17q42 0 76 -21.5t52 -57.5zM185 410q-25 0 -46 -13t-36.5 -36t-24 -54t-8.5 -67t8 -69.5t23.5 -59.5 t37.5 -42t49 -16q17 0 37 8t37.5 26.5t29 48.5t11.5 74q0 31 -0.5 51.5t-2 34.5t-5 25.5t-9.5 25.5q-6 13 -17 24.5t-25 20t-29 13.5t-30 5zM509 605q0 -65 -85 -151l-28 24q23 21 37.5 45.5t14.5 39.5q0 7 -6.5 14t-14 13.5t-14 14.5t-6.5 19q0 20 13.5 33.5t34.5 13.5 t37.5 -18.5t16.5 -47.5z" />
<glyph unicode="&#x110;" d="M79 623h139q68 0 114.5 -23t76 -64.5t43.5 -100t14 -129.5q0 -45 -10 -89.5t-28.5 -83t-46 -69t-62.5 -46.5q-39 -19 -113 -19h-127v302h-49v58h49v264zM143 301v-244h60q96 0 146 65.5t50 183.5q0 120 -44.5 189t-140.5 69h-71v-205h105v-58h-105z" />
<glyph unicode="&#x111;" d="M151 376q-43 -39 -43 -132q0 -86 35 -138.5t95 -52.5q19 0 34 6t30 16.5t27 25.5t18 34q11 36 11 96q0 38 -3 63.5t-9.5 43.5t-16.5 29.5t-25 20.5q-18 11 -33.5 16.5t-29.5 5.5q-29 0 -49.5 -8t-40.5 -26zM432 544v-502q0 -24 5 -42h-72q-4 12 -4 34v39 q-22 -38 -60 -60.5t-77 -22.5q-38 0 -71.5 15t-59 45.5t-40.5 76t-15 106.5q0 63 17 107.5t44.5 73t61.5 42t69 13.5q48 0 82.5 -21.5t51.5 -57.5v154h-76v53h76v68h77q0 -6 -4.5 -13.5t-4.5 -14.5v-40h44v-53h-44z" />
<glyph unicode="&#x118;" d="M59 624h382v-62h-316v-205h261v-64h-261v-231h313l-1 -62q-84 -75 -84 -102q0 -12 8 -20t19 -8q30 0 58 23v-46q-26 -23 -66 -23t-60.5 17.5t-20.5 43.5q0 51 79 115h-311v624z" />
<glyph unicode="&#x119;" d="M259 468q36 0 70 -13t59.5 -39.5t41 -67.5t15.5 -97q0 -8 -0.5 -16.5t-1.5 -16.5h-325q2 -48 16.5 -80.5t36.5 -52.5t49 -28.5t54 -8.5q71 0 118 51l40 -39l-56 -68q-16 -19 -24.5 -32t-12.5 -22t-4.5 -16t-0.5 -14q0 -14 9.5 -24t28.5 -10q11 0 23.5 4t28.5 14l-1 -49 q-15 -10 -31 -14t-32 -4q-37 0 -61.5 20t-24.5 54q0 47 56 100q-35 -9 -69 -9q-46 0 -84.5 16t-67 47t-44.5 75t-16 101q0 56 16 100.5t45 75t67 47t82 16.5zM121 274h251q0 4 0.5 7.5t0.5 8.5q0 25 -9.5 47.5t-25.5 39t-37.5 26.5t-46.5 10q-47 0 -85 -33.5t-48 -105.5z " />
<glyph unicode="&#x11a;" d="M59 624h382v-62h-316v-205h261v-64h-261v-231h313v-62h-379v624zM397 755l-131 -100h-22l-123 98l33 38l103 -71l112 68z" />
<glyph unicode="&#x11b;" d="M259 468q36 0 70 -13t59.5 -39.5t41 -67.5t15.5 -97q0 -8 -0.5 -16.5t-1.5 -16.5h-325q2 -48 16.5 -80.5t36.5 -52.5t49 -28.5t54 -8.5q71 0 118 51l40 -39q-58 -70 -160 -70q-50 0 -91.5 15.5t-70.5 45.5t-45 74.5t-16 101.5q0 58 16.5 103t45 75.5t66.5 46.5t82 16z M121 274h251q0 4 0.5 7.5t0.5 8.5q0 25 -9.5 47.5t-25.5 39t-37.5 26.5t-46.5 10q-47 0 -85 -33.5t-48 -105.5zM377 658l-111 -140h-22l-110 141l46 35l78 -103l81 102z" />
<glyph unicode="&#x11e;" d="M458 525l-49 -50q-6 4 -13 19q-15 33 -46.5 53.5t-73.5 20.5q-29 0 -59.5 -12t-55.5 -41t-40.5 -76.5t-15.5 -119.5q0 -65 13 -115t36 -83.5t54.5 -51t68.5 -17.5q65 0 118 38v148h-113v61h178v-244q-89 -65 -183 -65q-56 0 -100.5 22.5t-76 63.5t-48 99t-16.5 129 q0 98 24.5 164t63.5 100.5t79.5 47.5t73.5 13q57 0 106 -28.5t75 -75.5zM147 790q19 -30 48.5 -50t63.5 -20q65 0 119 70l28 -42q-26 -36 -64.5 -58t-80.5 -22q-86 0 -151 77z" />
<glyph unicode="&#x11f;" d="M155 385q-15 -15 -22 -33t-7 -38t8 -38.5t21.5 -32t32 -21.5t38.5 -8q21 0 39 8t32 22t22 32t8 38t-8 38.5t-22 32.5t-32.5 22t-38.5 8q-41 0 -71 -30zM339 428q48 41 114 41h13l9 -59q-7 1 -13.5 1.5t-13.5 0.5q-44 0 -79 -22q23 -35 23 -77q0 -32 -13 -60.5t-35.5 -50 t-52.5 -34t-64 -12.5q-28 0 -58 11q-32 -31 -32 -52q0 -17 19.5 -26.5t53.5 -9.5q19 0 38.5 1.5t36.5 1.5q45 0 77.5 -8.5t52.5 -24t30 -36.5t10 -45q0 -27 -13 -52.5t-39 -45t-65.5 -31t-92.5 -11.5q-55 0 -94.5 8.5t-63.5 23.5t-36.5 34.5t-12.5 41.5q0 54 75 101 q-37 19 -37 63q0 43 52 86q-32 21 -50 54t-18 70q0 34 14 63.5t37.5 51.5t54 34.5t62.5 12.5q67 0 111 -44zM161 24q-57 -32 -57 -70q0 -20 11.5 -33.5t31 -22t46 -12.5t55.5 -4q61 0 101 22t40 59q-2 27 -22.5 42t-64.5 15q-5 0 -10 -0.5t-10 -0.5q-38 0 -68 1.5t-53 3.5z M146 646q19 -30 48.5 -50t64.5 -20q64 0 119 70l28 -42q-27 -36 -65.5 -58t-80.5 -22q-85 0 -150 77z" />
<glyph unicode="&#x130;" d="M88 623h309v-59h-123v-507h129v-58h-322v59h123v506h-116v59zM201 776q15 15 36 15t36.5 -15t15.5 -36t-15.5 -36t-36.5 -15q-20 0 -35.5 15t-15.5 36t15 36z" />
<glyph unicode="&#x131;" d="M106 457h183v-399h107v-58h-296v58h117v341h-111v58z" />
<glyph unicode="&#x138;" d="M66 457h82l2 -2q0 -3 -4.5 -9.5t-6.5 -14.5v-184l229 212q23 -5 53 -5h26l-192 -181l224 -274l-93 -3l-187 233l-60 -56v-174h-73v458z" />
<glyph unicode="&#x139;" d="M66 623h82q0 -7 -4.5 -16t-4.5 -18v-528h300v-61h-373v623zM308 791l40 -70l-169 -61l-23 42z" />
<glyph unicode="&#x13a;" d="M85 665h202v-607h134v-58h-342v58h135v549h-129v58zM308 834l40 -70l-169 -61l-23 42z" />
<glyph unicode="&#x13d;" d="M66 623h82q0 -7 -4.5 -16t-4.5 -18v-528h300v-61h-373v623zM424 562q0 -66 -85 -151l-28 24q23 21 37.5 45.5t14.5 38.5q0 8 -6.5 15t-14 14t-14 15t-6.5 18q0 20 13.5 33.5t34.5 13.5t37.5 -18.5t16.5 -47.5z" />
<glyph unicode="&#x13e;" d="M68 665h202v-607h134v-58h-342v58h135v549h-129v58zM473 605q0 -65 -85 -151l-28 24q23 21 37.5 45.5t14.5 39.5q0 7 -6.5 14t-14 13.5t-14 14.5t-6.5 19q0 20 13.5 33.5t34.5 13.5t37.5 -18.5t16.5 -47.5z" />
<glyph unicode="&#x141;" d="M73 623h81q2 0 2 -2q0 -4 -4 -12.5t-6 -19.5v-261l166 54q8 3 14.5 5.5t10.5 4.5v-64l-191 -61v-207h300v-61h-373v244l-53 -17v61l53 18v318z" />
<glyph unicode="&#x142;" d="M85 665h202v-295l64 23q6 2 12.5 5.5t14.5 8.5v-73l-91 -31v-245h134v-58h-342v58h135v221l-79 -27v66l79 27v262h-129v58z" />
<glyph unicode="&#x143;" d="M50 0v623h68l262 -462v463h74q0 -6 -3.5 -13t-3.5 -14v-597h-55l-275 490v-490h-67zM308 791l40 -70l-169 -61l-23 42z" />
<glyph unicode="&#x144;" d="M68 0v457h74v-81q26 42 66.5 67t82.5 25q30 0 56 -10.5t45 -33.5t29.5 -59t10.5 -88v-277h-71v275q0 72 -24.5 101t-59.5 29q-23 0 -47 -10t-43.5 -28.5t-32 -44.5t-12.5 -59v-263h-74zM292 699l63 -42l-101 -135l-50 30z" />
<glyph unicode="&#x147;" d="M50 0v623h68l262 -462v463h74q0 -6 -3.5 -13t-3.5 -14v-597h-55l-275 490v-490h-67zM397 755l-131 -100h-22l-123 98l33 38l103 -71l112 68z" />
<glyph unicode="&#x148;" d="M68 0v457h74v-81q26 42 66.5 67t82.5 25q30 0 56 -10.5t45 -33.5t29.5 -59t10.5 -88v-277h-71v275q0 72 -24.5 101t-59.5 29q-23 0 -47 -10t-43.5 -28.5t-32 -44.5t-12.5 -59v-263h-74zM377 658l-111 -140h-22l-110 141l46 35l78 -103l81 102z" />
<glyph unicode="&#x14a;" d="M300 52q78 0 78 118v252q0 83 -29 116t-75 33q-27 0 -54 -11.5t-48.5 -32.5t-34.5 -50t-13 -64v-413h-73v623h73v-81q27 42 70 67t91 25q37 0 67 -12.5t51.5 -38t33.5 -65t12 -94.5v-249q0 -94 -41 -140t-111 -46q-46 0 -87 25l35 62q3 -2 6 -6q12 -18 49 -18z" />
<glyph unicode="&#x14b;" d="M68 0v457h74v-81q26 42 66.5 67t82.5 25q30 0 56 -10.5t45 -33.5t29.5 -59t10.5 -88v-221q0 -122 -48.5 -177t-121.5 -55q-26 0 -50.5 8.5t-46.5 25.5l34 67q4 -1 6 -6.5t7.5 -11t19 -11t32.5 -5.5q97 0 97 154v230q0 72 -24.5 101t-59.5 29q-23 0 -47 -10t-44.5 -28.5 t-32 -44.5t-11.5 -59v-263h-74z" />
<glyph unicode="&#x14d;" d="M254 467q42 0 79.5 -16.5t65.5 -47.5t44.5 -75.5t16.5 -99.5q0 -56 -16 -100t-44 -75.5t-66 -48t-81 -16.5q-44 0 -82.5 18t-67.5 49.5t-46 75.5t-17 95t17.5 96t47 76.5t68.5 50t81 18.5zM388 226q0 43 -11.5 76.5t-30.5 56.5t-43.5 35t-51.5 12t-51.5 -12t-43 -35 t-29.5 -55.5t-11 -73.5q0 -40 11 -73t29.5 -57t43.5 -37t53 -13t52.5 11.5t43 34t29 55.5t10.5 75zM123 621h254v-56h-254v56z" />
<glyph unicode="&#x150;" d="M254 -10q-51 0 -92.5 23.5t-71 66t-45.5 102t-16 131.5t16.5 131t46.5 100t72 63.5t92 22.5q44 0 82 -19t69.5 -57.5t47.5 -98.5t16 -143q0 -90 -19 -151.5t-50 -99.5t-69.5 -54.5t-78.5 -16.5zM150 115q47 -56 104 -56q27 0 53 11.5t47.5 40.5t34 78t12.5 125 q0 74 -14 121.5t-35.5 75.5t-45 40.5t-50.5 12.5q-31 1 -57 -11t-49 -39t-37.5 -74t-14.5 -121q0 -69 14.5 -122t37.5 -82zM411 810l46 -64l-145 -101l-32 41zM233 810l47 -64l-146 -101l-32 41z" />
<glyph unicode="&#x151;" d="M254 467q42 0 79.5 -16.5t65.5 -47.5t44.5 -75.5t16.5 -99.5q0 -56 -16 -100t-44 -75.5t-66 -48t-81 -16.5q-44 0 -82.5 18t-67.5 49.5t-46 75.5t-17 95t17.5 96t47 76.5t68.5 50t81 18.5zM388 226q0 43 -11.5 76.5t-30.5 56.5t-43.5 35t-51.5 12t-51.5 -12t-43 -35 t-29.5 -55.5t-11 -73.5q0 -40 11 -73t29.5 -57t43.5 -37t53 -13t52.5 11.5t43 34t29 55.5t10.5 75zM214 699l63 -42l-101 -135l-50 30zM369 699l63 -42l-101 -135l-50 30z" />
<glyph unicode="&#x152;" d="M253 595v29h231v-62h-169v-205h143v-64h-143v-231h167v-62h-230v31q-17 -20 -37 -29t-43 -9q-75 0 -119 77.5t-44 241.5q0 159 43 239.5t121 80.5q21 0 41.5 -8.5t38.5 -28.5zM171 574q-20 0 -37 -12.5t-31.5 -42.5t-22 -80t-7.5 -126q0 -123 27.5 -191t78.5 -68 q26 0 46 21t27 54v356q-6 17 -13.5 33t-17.5 28.5t-22.5 20t-27.5 7.5z" />
<glyph unicode="&#x153;" d="M161 466q60 0 94 -46q39 46 101 46q63 0 98.5 -46t35.5 -137v-62h-228q1 -54 7.5 -88t20 -52t31 -26t42.5 -8q61 0 96 38l35 -43q-53 -54 -122 -54t-119 41q-44 -40 -99 -40q-25 0 -51 10.5t-47.5 37t-35.5 73t-14 118.5q0 66 12.5 111.5t35 73.5t49.5 40.5t58 12.5z M263 278h168v9q0 72 -23 98t-65 26q-37 0 -58.5 -32t-21.5 -92v-9zM161 406q-18 0 -34.5 -9t-30.5 -29t-22 -51.5t-8 -77.5q0 -96 26 -142.5t71 -46.5q20 0 35 10.5t15 28.5q0 3 -3 23q-6 35 -8 67t-2 59q0 58 4.5 87.5t4.5 36.5q0 19 -14 31.5t-34 12.5z" />
<glyph unicode="&#x154;" d="M56 623h184q110 0 158.5 -49t48.5 -129q0 -27 -9 -53.5t-25.5 -49.5t-40 -40t-52.5 -24l144 -278h-78l-138 275h-121v-275h-71v623zM127 557v-220h121q67 0 97 29.5t30 78.5q0 24 -8 44t-22.5 35t-38.5 24t-58 9h-121zM308 791l40 -70l-169 -61l-23 42z" />
<glyph unicode="&#x155;" d="M99 457h75l-2 -88q21 48 66.5 73.5t97.5 25.5q74 0 122 -50l-33 -69q-11 15 -20 25t-19.5 17t-23 11t-30.5 4q-33 0 -62 -15.5t-50.5 -41t-34.5 -58.5t-13 -69v-223h-73v458zM292 699l63 -42l-101 -135l-50 30z" />
<glyph unicode="&#x158;" d="M56 623h184q110 0 158.5 -49t48.5 -129q0 -27 -9 -53.5t-25.5 -49.5t-40 -40t-52.5 -24l144 -278h-78l-138 275h-121v-275h-71v623zM127 557v-220h121q67 0 97 29.5t30 78.5q0 24 -8 44t-22.5 35t-38.5 24t-58 9h-121zM397 755l-131 -100h-22l-123 98l33 38l103 -71 l112 68z" />
<glyph unicode="&#x159;" d="M99 457h75l-2 -88q21 48 66.5 73.5t97.5 25.5q74 0 122 -50l-33 -69q-11 15 -20 25t-19.5 17t-23 11t-30.5 4q-33 0 -62 -15.5t-50.5 -41t-34.5 -58.5t-13 -69v-223h-73v458zM377 658l-111 -140h-22l-110 141l46 35l78 -103l81 102z" />
<glyph unicode="&#x15a;" d="M435 549l-44 -60q-5 2 -5.5 8.5t-2.5 9.5q-19 28 -51.5 45t-80.5 17q-46 0 -76.5 -27t-30.5 -64q0 -22 7.5 -38t23 -31t45.5 -30.5t78 -34.5q46 -19 76 -37.5t48 -39.5t25.5 -44.5t7.5 -52.5q0 -32 -12 -64.5t-37.5 -58t-64.5 -41.5t-94 -16q-121 0 -195 80l41 72 q5 -3 5 -10t3 -11q23 -29 62 -48.5t94 -19.5q28 0 51.5 9.5t40.5 25t27 37t10 45.5q0 19 -6.5 34.5t-21.5 29t-42.5 27t-72.5 31.5q-49 19 -81.5 38.5t-52.5 39.5t-28.5 43t-8.5 50q0 34 14.5 64t40 52.5t60.5 35t75 12.5q51 0 96 -20.5t77 -57.5zM308 791l40 -70l-169 -61 l-23 42z" />
<glyph unicode="&#x15b;" d="M432 396l-42 -63q-5 1 -5 8t-2 10q-18 23 -51 42.5t-75 19.5q-19 0 -36.5 -4.5t-31 -12.5t-21.5 -20.5t-8 -28.5q0 -12 6 -21.5t19 -18.5t36.5 -18t61.5 -20q86 -23 121.5 -54.5t35.5 -77.5q0 -30 -13 -57t-38 -47t-60 -31.5t-79 -11.5q-115 0 -193 72l41 72q3 -3 4 -9.5 t7 -15.5t22 -20.5t49 -25.5q15 -7 34 -10t38 -3q20 0 40.5 5t37 14.5t26.5 23t10 30.5q0 26 -24 44t-88 37q-44 13 -58 18q-36 14 -52 24.5t-29 25t-21 33t-8 40.5q0 24 13 46t36.5 39t56 27.5t70.5 10.5q105 0 170 -72zM292 699l63 -42l-101 -135l-50 30z" />
<glyph unicode="&#x15e;" d="M295 -109q0 24 -47 24h-30l10 75q-109 7 -176 80l41 72q5 -3 5 -10t3 -11q23 -29 62 -48.5t94 -19.5q28 0 51.5 9.5t40.5 25t27 37t10 45.5q0 21 -5.5 35.5t-21.5 27.5t-43.5 27t-72.5 32q-49 19 -81.5 38.5t-52.5 39.5t-28.5 43t-8.5 50q0 34 14.5 64t40 52.5t60.5 35 t75 12.5q51 0 96 -20.5t77 -57.5l-44 -60q-5 2 -5.5 8.5t-2.5 9.5q-19 28 -51.5 45t-80.5 17q-46 0 -76.5 -27t-30.5 -64q0 -22 7 -38.5t23 -31t46 -30t78 -34.5q46 -19 76 -37.5t48 -39.5t25.5 -44.5t7.5 -52.5q0 -31 -10.5 -61.5t-33 -55.5t-57 -42t-82.5 -21l-4 -37 l16 -1q68 -5 68 -55q0 -28 -28.5 -51t-87.5 -23t-111 37l25 42q43 -36 99 -36q26 0 36 7.5t10 17.5z" />
<glyph unicode="&#x15f;" d="M301 -109q0 24 -47 24h-30l10 75q-105 4 -177 72l41 72q3 -3 4 -9.5t7 -15.5t22 -20.5t49 -25.5q15 -7 34 -10t38 -3q20 0 40.5 5t37 14.5t26.5 23t10 30.5q0 26 -24 44t-88 37q-44 13 -58 18q-36 14 -52 24.5t-29 25t-21 33t-8 40.5q0 24 13 46t36.5 39t56 27.5 t70.5 10.5q105 0 170 -72l-42 -63q-5 1 -5 8t-2 10q-18 23 -51 42.5t-75 19.5q-19 0 -36.5 -4.5t-31 -12.5t-21.5 -20.5t-8 -28.5q0 -12 6 -21.5t19 -18.5t36.5 -18t61.5 -20q86 -23 121.5 -55t35.5 -82q0 -25 -11 -49t-32 -43t-51 -32t-68 -17l-4 -38l16 -1q68 -5 68 -55 q0 -28 -28.5 -51t-87.5 -23t-111 37l25 42q43 -36 100 -36q25 0 35 7.5t10 17.5z" />
<glyph unicode="&#x160;" d="M435 549l-44 -60q-5 2 -5.5 8.5t-2.5 9.5q-19 28 -51.5 45t-80.5 17q-46 0 -76.5 -27t-30.5 -64q0 -22 7.5 -38t23 -31t45.5 -30.5t78 -34.5q46 -19 76 -37.5t48 -39.5t25.5 -44.5t7.5 -52.5q0 -32 -12 -64.5t-37.5 -58t-64.5 -41.5t-94 -16q-121 0 -195 80l41 72 q5 -3 5 -10t3 -11q23 -29 62 -48.5t94 -19.5q28 0 51.5 9.5t40.5 25t27 37t10 45.5q0 19 -6.5 34.5t-21.5 29t-42.5 27t-72.5 31.5q-49 19 -81.5 38.5t-52.5 39.5t-28.5 43t-8.5 50q0 34 14.5 64t40 52.5t60.5 35t75 12.5q51 0 96 -20.5t77 -57.5zM402 756l-131 -100h-22 l-123 98l33 38l103 -71l112 68z" />
<glyph unicode="&#x161;" d="M432 396l-42 -63q-5 1 -5 8t-2 10q-18 23 -51 42.5t-75 19.5q-19 0 -36.5 -4.5t-31 -12.5t-21.5 -20.5t-8 -28.5q0 -12 6 -21.5t19 -18.5t36.5 -18t61.5 -20q86 -23 121.5 -54.5t35.5 -77.5q0 -30 -13 -57t-38 -47t-60 -31.5t-79 -11.5q-115 0 -193 72l41 72q3 -3 4 -9.5 t7 -15.5t22 -20.5t49 -25.5q15 -7 34 -10t38 -3q20 0 40.5 5t37 14.5t26.5 23t10 30.5q0 26 -24 44t-88 37q-44 13 -58 18q-36 14 -52 24.5t-29 25t-21 33t-8 40.5q0 24 13 46t36.5 39t56 27.5t70.5 10.5q105 0 170 -72zM377 658l-111 -140h-22l-110 141l46 35l78 -103 l81 102z" />
<glyph unicode="&#x162;" d="M289 -109q0 24 -47 24h-30l11 84h-15v562h-177v63h432v-63h-184v-562h-12l-6 -46l17 -1q68 -5 68 -55q0 -28 -28.5 -51t-87.5 -23t-111 37l25 42q43 -36 99 -36q26 0 36 7.5t10 17.5z" />
<glyph unicode="&#x163;" d="M344 -109q0 24 -47 24h-29l10 78q-32 4 -53 15.5t-34 35t-18.5 59.5t-5.5 90q0 42 2.5 93.5t7.5 111.5h-107v59h110l8 122l79 13q0 -9 -2.5 -16t-3.5 -11l-12 -108h150v-59h-150q-9 -89 -9 -167q0 -48 2 -81t10.5 -53.5t24.5 -29.5t43 -9q46 0 102 41l22 -57 q-58 -41 -123 -49l-4 -40l16 -1q68 -5 68 -55q0 -28 -28.5 -51t-87.5 -23t-111 37l25 42q43 -36 100 -36q25 0 35 7.5t10 17.5z" />
<glyph unicode="&#x164;" d="M31 624h432v-63h-184v-561h-71v561h-177v63zM397 755l-131 -100h-22l-123 98l33 38l103 -71l112 68z" />
<glyph unicode="&#x165;" d="M163 579l79 13q0 -9 -2.5 -16t-3.5 -11l-12 -108h150v-59h-150q-9 -89 -9 -167q0 -48 2 -81t10.5 -52t24.5 -29.5t43 -10.5q46 0 102 41l22 -57q-69 -51 -142 -51q-72 0 -105 43.5t-30 141.5q0 36 2 92t8 130h-107v59h110zM483 640q0 -65 -85 -151l-28 24 q23 21 37.5 45.5t14.5 39.5q0 7 -6.5 14t-14 13.5t-14 14.5t-6.5 19q0 20 13.5 33.5t34.5 13.5t37.5 -18.5t16.5 -47.5z" />
<glyph unicode="&#x16e;" d="M50 623h79q1 0 1 -2q0 -4 -4.5 -11.5t-6.5 -18.5v-377q0 -52 10 -80.5t28 -47t42.5 -27.5t52.5 -11q28 2 52.5 10t43 27.5t29 48.5t10.5 83v406h67v-405q0 -61 -13.5 -103t-41.5 -70t-65 -42t-83 -14q-45 0 -82 14t-63.5 41t-41 66t-14.5 105v408zM317 769q27 -27 27 -63 q0 -35 -26.5 -61t-64.5 -26q-19 0 -35.5 7t-29 19t-20 28t-7.5 34t7.5 34t20 28t29.5 19t35 7q36 0 64 -26zM254 753q-17 0 -29.5 -13t-12.5 -33q0 -19 12.5 -32t29.5 -13t29 13t12 32q0 20 -12 33t-29 13z" />
<glyph unicode="&#x16f;" d="M63 457h72v-255q0 -44 8 -73.5t22.5 -47.5t33 -26t40.5 -8q24 2 46 12t39.5 28.5t27.5 47.5t10 70v252h73v-416q0 -23 5 -41h-76q-1 7 -2 15.5t0 19.5l1 35q-22 -38 -59.5 -59.5t-82.5 -21.5q-35 0 -63 12.5t-50.5 38.5t-34 66t-11.5 96zM321 667q27 -27 27 -62 q0 -18 -7.5 -34t-20 -28t-29.5 -19t-35 -7t-34.5 7t-29 19t-20 28t-7.5 34t7.5 34t20 28t29 19t34.5 7q37 0 65 -26zM257 652q-17 0 -29 -13.5t-12 -32.5t12 -32.5t29 -13.5t29.5 13.5t12.5 32.5t-12.5 32.5t-29.5 13.5z" />
<glyph unicode="&#x170;" d="M50 623h79q1 0 1 -2q0 -4 -4.5 -11.5t-6.5 -18.5v-377q0 -52 10 -80.5t28 -47t42.5 -27.5t52.5 -11q28 2 52.5 10t43 27.5t29 48.5t10.5 83v406h67v-405q0 -61 -13.5 -103t-41.5 -70t-65 -42t-83 -14q-45 0 -82 14t-63.5 41t-41 66t-14.5 105v408zM411 810l46 -64 l-145 -101l-32 41zM233 810l47 -64l-146 -101l-32 41z" />
<glyph unicode="&#x171;" d="M63 457h72v-255q0 -44 8 -73.5t22.5 -47.5t33 -26t40.5 -8q24 2 46 12t39.5 28.5t27.5 47.5t10 70v252h73v-416q0 -23 5 -41h-76q-1 7 -2 15.5t0 19.5l1 35q-22 -38 -59.5 -59.5t-82.5 -21.5q-35 0 -63 12.5t-50.5 38.5t-34 66t-11.5 96zM214 699l63 -42l-101 -135 l-50 30zM369 699l63 -42l-101 -135l-50 30z" />
<glyph unicode="&#x178;" d="M28 623h80l153 -302l138 302h74l-177 -377v-246h-76v246zM194 774q15 -15 15 -36q0 -20 -15 -35t-36 -15q-20 0 -35 15t-15 35t15 35.5t35 15.5q21 0 36 -15zM372 774q15 -15 15 -36q0 -20 -15 -35t-36 -15q-20 0 -34.5 14.5t-14.5 35.5t14.5 36t34.5 15q21 0 36 -15z " />
<glyph unicode="&#x179;" d="M62 623h385v-49l-309 -512h294q7 0 15.5 3t15.5 3v-68h-413v49l314 511h-302v63zM308 791l40 -70l-169 -61l-23 42z" />
<glyph unicode="&#x17a;" d="M71 457h355v-49l-278 -346h271q7 0 15.5 3t15.5 3v-68h-400v49l283 345h-262v63zM292 699l63 -42l-101 -135l-50 30z" />
<glyph unicode="&#x17b;" d="M62 623h385v-49l-309 -512h294q7 0 15.5 3t15.5 3v-68h-413v49l314 511h-302v63zM216 769q15 15 36 15t36.5 -15t15.5 -36t-15.5 -36t-36.5 -15q-20 0 -35.5 15t-15.5 36t15 36z" />
<glyph unicode="&#x17c;" d="M71 457h355v-49l-278 -346h271q7 0 15.5 3t15.5 3v-68h-400v49l283 345h-262v63zM218 641q15 15 36 15t36.5 -15.5t15.5 -36.5t-15.5 -36t-36.5 -15t-36 15t-15 36q0 22 15 37z" />
<glyph unicode="&#x192;" d="M480 620l-33 -66q-8 0 -9 10q-4 23 -25 37.5t-44 14.5q-19 0 -33.5 -6.5t-25.5 -23t-18.5 -46t-10.5 -75.5l-6 -82h123v-57h-128l-24 -302q-5 -55 -18 -93t-32 -61.5t-43.5 -34t-52.5 -10.5q-49 0 -82 35l41 64q3 -1 6.5 -6t8 -11t13.5 -10.5t22 -4.5q28 0 46.5 34 t23.5 101l22 299h-121v57h125l7 92q8 103 49 150.5t107 47.5q68 0 112 -53z" />
<glyph unicode="&#x237;" d="M126 457h243v-435q0 -52 -14 -88.5t-38.5 -59.5t-57.5 -34.5t-71 -13.5q-88 0 -140 64l47 62q5 -5 5.5 -10t3.5 -11t12 -13.5t30 -18.5q22 -11 47 -11q45 0 74 30.5t29 99.5v380h-170v59z" />
<glyph unicode="&#x2bc;" d="M309 605q0 -65 -85 -151l-28 24q23 21 37.5 45.5t14.5 39.5q0 7 -6.5 14t-14 13.5t-14 14.5t-6.5 19q0 20 13.5 33.5t34.5 13.5t37.5 -18.5t16.5 -47.5z" />
<glyph unicode="&#x2c6;" d="M134 545l111 140h22l110 -141l-46 -35l-78 103l-81 -102z" />
<glyph unicode="&#x2c7;" d="M377 658l-111 -140h-22l-110 141l46 35l78 -103l81 102z" />
<glyph unicode="&#x2c9;" d="M123 621h254v-56h-254v56z" />
<glyph unicode="&#x2cb;" d="M243 699l88 -147l-50 -30l-101 135z" />
<glyph unicode="&#x2d8;" d="M137 646q19 -30 48.5 -50t64.5 -20q64 0 119 70l28 -42q-27 -36 -65.5 -58t-80.5 -22q-85 0 -150 77z" />
<glyph unicode="&#x2d9;" d="M218 641q15 15 36 15t36.5 -15.5t15.5 -36.5t-15.5 -36t-36.5 -15t-36 15t-15 36q0 22 15 37z" />
<glyph unicode="&#x2da;" d="M321 667q27 -27 27 -62q0 -18 -7.5 -34t-20 -28t-29.5 -19t-35 -7t-34.5 7t-29 19t-20 28t-7.5 34t7.5 34t20 28t29 19t34.5 7q37 0 65 -26zM257 652q-17 0 -29 -13.5t-12 -32.5t12 -32.5t29 -13.5t29.5 13.5t12.5 32.5t-12.5 32.5t-29.5 13.5z" />
<glyph unicode="&#x2db;" d="M356 0h66q-84 -75 -84 -102q0 -12 8 -20t20 -8q29 0 58 23v-46q-28 -23 -67 -23q-40 0 -60.5 17.5t-20.5 43.5q0 50 80 115z" />
<glyph unicode="&#x2dc;" d="M135 557l-44 32q54 87 113 87q18 0 38.5 -11.5t36.5 -26t29.5 -26t20.5 -11.5q12 0 20.5 4t15 11.5t12.5 17t15 20.5l37 -40q-30 -36 -51.5 -53.5t-44.5 -17.5t-41.5 12t-32.5 26t-28 26t-26 12q-22 0 -35 -13.5t-35 -48.5z" />
<glyph unicode="&#x2dd;" d="M214 699l63 -42l-101 -135l-50 30zM369 699l63 -42l-101 -135l-50 30z" />
<glyph unicode="&#x2018;" d="M182 450q0 81 106 188l35 -31q-28 -25 -46.5 -55.5t-18.5 -49.5q0 -10 8 -18.5t17.5 -16.5t17.5 -18.5t8 -23.5q0 -24 -16.5 -41t-42.5 -17t-47 23t-21 60z" />
<glyph unicode="&#x2019;" d="M306 555q0 -79 -107 -188l-34 30q28 26 46.5 56t18.5 49q0 10 -8 19t-18 17t-17.5 18t-7.5 23q0 25 16.5 42t42.5 17t47 -23t21 -60z" />
<glyph unicode="&#x201a;" d="M306 20q0 -79 -107 -188l-34 30q28 26 46.5 56t18.5 49q0 10 -8 18.5t-17.5 16.5t-17.5 18.5t-8 23.5q0 25 16.5 42t42.5 17t47 -23t21 -60z" />
<glyph unicode="&#x201c;" d="M286 450q0 81 106 188l34 -31q-28 -25 -46.5 -55.5t-18.5 -49.5q0 -10 8 -18t18.5 -16.5t18 -19t7.5 -23.5q0 -24 -17 -41t-43 -17t-46.5 23t-20.5 60zM79 450q0 81 106 188l34 -31q-28 -25 -46.5 -55.5t-18.5 -49.5q0 -10 8 -18t18.5 -16.5t18 -19t7.5 -23.5 q0 -24 -17 -41t-43 -17t-46.5 23t-20.5 60z" />
<glyph unicode="&#x201d;" d="M202 555q0 -81 -106 -188l-35 30q29 26 47 56t18 49q0 10 -8.5 19t-17.5 17.5t-17 18t-8 22.5q0 25 16.5 42t42.5 17q27 0 47.5 -23t20.5 -60zM409 555q0 -81 -106 -188l-35 30q29 26 47 56t18 49q0 10 -7.5 19t-17.5 17.5t-18 18t-8 22.5q0 25 16.5 42t42.5 17 q27 0 47.5 -23t20.5 -60z" />
<glyph unicode="&#x201e;" d="M409 20q0 -81 -106 -188l-35 30q29 26 47 56t18 49q0 10 -8 18.5t-17.5 16.5t-17.5 18.5t-8 23.5q0 25 16.5 42t42.5 17q27 0 47.5 -23t20.5 -60zM202 20q0 -81 -106 -188l-35 30q29 26 47 56t18 49q0 10 -8 18.5t-17.5 17.5t-17.5 18.5t-8 22.5q0 25 16.5 42t42.5 17 q27 0 47.5 -23t20.5 -60z" />
<glyph unicode="&#x2020;" d="M217 652h67v-195h166v-60h-166v-548h-67v548h-168v60h168v195z" />
<glyph unicode="&#x2021;" d="M217 652h67v-195h166v-60h-166v-276h166v-60h-166v-212h-67v212h-168v60h168v276h-168v60h168v195z" />
<glyph unicode="&#x2022;" d="M316 355q25 -25 25 -59t-25 -58.5t-60 -24.5t-60 24.5t-25 58.5q0 35 25.5 59.5t59.5 24.5q33 0 60 -25z" />
<glyph unicode="&#x2026;" d="M453 87q17 -19 17 -41q0 -23 -17 -40t-42 -17t-42 16.5t-17 40.5t18 41t41 17t42 -17zM108 87q17 -19 17 -41q0 -23 -17 -40t-42 -17q-26 0 -42.5 17t-16.5 40t17.5 40.5t41.5 17.5q23 0 42 -17zM280 87q18 -18 18 -41t-17.5 -40t-42.5 -17t-42 16.5t-17 40.5t18 41 t41 17t42 -17z" />
<glyph unicode="&#x2039;" d="M145 253l152 147l39 -41l-121 -118l128 -140l-40 -40l-158 169v23z" />
<glyph unicode="&#x203a;" d="M343 253v-23l-158 -169l-40 40l128 140l-121 118l39 41z" />
<glyph unicode="&#x2044;" d="M76 -16l313 681l48 -27l-314 -680z" />
<glyph unicode="&#x2074;" d="M302 641h39v-245h63v-47h-63v-97h-57v98h-182v35zM285 544l-118 -148h118v148z" />
<glyph unicode="&#x20ac;" d="M464 574l-25 -68q-3 2 -6.5 12.5t-16.5 21.5t-34.5 21t-56.5 10q-56 0 -102.5 -38t-63.5 -119h247l-22 -58h-234q-2 -17 -2 -31v-25v-24h206l-23 -58h-177q14 -83 61 -126t112 -43q61 0 107 41l29 -50q-59 -51 -140 -51q-44 0 -83 14.5t-69.5 43.5t-51.5 71.5t-28 99.5 h-58l13 58h40q0 5 -0.5 10.5t-0.5 11.5q0 29 3 58h-55l13 58h51q12 58 36.5 99t55.5 66.5t67.5 37t72.5 11.5q82 0 135 -54z" />
<glyph unicode="&#x2122;" d="M239 635v-40h-90v-275h-45v275h-86v40h221zM303 635l72 -145l75 145h33v-315h-42v215l-60 -108l-16 1l-55 107v-215h-42v315h35z" />
<glyph unicode="&#x2191;" d="M59 404l187 236h22l173 -238l-50 -33l-106 143v-546h-67v547l-116 -144z" />
<glyph unicode="&#x2193;" d="M441 203l-187 -237h-22l-173 239l50 33l106 -144v546h66v-546l117 144z" />
<glyph unicode="&#x2212;" d="M45 343h411v-61h-411v61z" />
<glyph unicode="&#x2423;" d="M48 70h47v-91h309v91h48v-136h-404v136z" />
<glyph unicode="&#xe000;" horiz-adv-x="455" d="M0 455h455v-455h-455v455z" />
<glyph unicode="&#xf40a;" d="M309 562q0 -66 -85 -151l-28 24q23 21 37.5 45.5t14.5 38.5q0 8 -6.5 15t-14 14t-14 15t-6.5 18q0 20 13.5 33.5t34.5 13.5t37.5 -18.5t16.5 -47.5z" />
<glyph horiz-adv-x="0" />
<glyph d="M201 776q15 15 36 15t36.5 -15t15.5 -36t-15.5 -36t-36.5 -15q-20 0 -35.5 15t-15.5 36t15 36z" />
<glyph d="M128 784q19 -30 48.5 -50t63.5 -20q65 0 119 70l28 -42q-26 -36 -64.5 -58t-80.5 -22q-86 0 -151 77z" />
<glyph d="M131 683l-45 32q55 87 113 87q18 0 37.5 -11.5t37 -26t31 -26t20.5 -11.5q23 0 34.5 15.5t27.5 37.5l38 -40q-30 -36 -52 -53.5t-45 -17.5t-41 12t-33.5 26t-28.5 26t-25 12q-22 0 -35 -13.5t-34 -48.5z" />
<glyph d="M187 774q15 -15 15 -36q0 -20 -15 -35t-36 -15q-20 0 -35 15t-15 35t15 35.5t35 15.5q21 0 36 -15zM365 774q15 -15 15 -36q0 -20 -15 -35t-36 -15q-20 0 -34.5 14.5t-14.5 35.5t14.5 36t34.5 15q21 0 36 -15z" />
<glyph d="M114 692l131 99h22l123 -98l-33 -38l-103 71l-112 -68z" />
<glyph d="M378 755l-131 -100h-22l-123 98l33 38l103 -71l112 68z" />
<glyph d="M207 791l153 -89l-23 -42l-170 61z" />
<glyph d="M325 791l40 -70l-169 -61l-23 42z" />
<glyph d="M317 769q27 -27 27 -63q0 -35 -26.5 -61t-64.5 -26q-19 0 -35.5 7t-29 19t-20 28t-7.5 34t7.5 34t20 28t29.5 19t35 7q36 0 64 -26zM254 753q-17 0 -29.5 -13t-12.5 -33q0 -19 12.5 -32t29.5 -13t29 13t12 32q0 20 -12 33t-29 13z" />
<glyph d="M65 457h137l-3 -88q22 45 62.5 71.5t89.5 26.5q69 0 118 -49l-34 -69l-10 12q-29 44 -79 44q-29 0 -55.5 -16.5t-47 -42t-32.5 -54t-12 -62.5v-176h96v-55h-232v55h65v345h-63v58z" />
<glyph d="M411 810l46 -64l-145 -101l-32 41zM233 810l47 -64l-146 -101l-32 41z" />
<glyph d="M248 627q41 0 76 -23t60.5 -65t39.5 -100.5t14 -128.5q0 -71 -14.5 -130t-40 -101.5t-59.5 -66t-74 -23.5t-74 21t-59 60.5t-39.5 97t-14.5 130.5q0 72 13.5 132t38.5 104t58.5 68.5t74.5 24.5zM363 401q-29 165 -112 165q-32 0 -55 -22t-38 -57.5t-22 -81t-7 -92.5 q0 -53 8 -100t23 -82.5t37 -56.5t51 -21q57 0 91 63t34 180q0 52 -10 105z" />
</font>
</defs>
</svg>
