<?xml version="1.0" encoding="utf-8"?>
<!-- Generator: Adobe Illustrator 16.1.0, SVG Export Plug-In . SVG Version: 6.00 Build 0)  -->
<!DOCTYPE svg PUBLIC "-//W3C//DTD SVG 1.1//EN" "http://www.w3.org/Graphics/SVG/1.1/DTD/svg11.dtd">
<svg version="1.1" id="Layer_1" xmlns="http://www.w3.org/2000/svg" xmlns:xlink="http://www.w3.org/1999/xlink" x="0px" y="0px"
	 width="276px" height="190px" viewBox="0 0 276 190" enable-background="new 0 0 276 190" xml:space="preserve">
<g>
	<rect x="80" fill="#FEFEFE" width="196" height="14"/>
	<rect fill="#464B4C" width="80" height="190"/>
	<rect x="80" y="14" fill="#F3F3F3" width="196" height="176"/>
	<rect x="80" y="64" fill="#EAEAEA" width="196" height="42"/>
	<rect x="80" y="64" fill="#E0E0E0" width="196" height="2"/>
	<rect x="80" y="14" fill="#EBEBEB" width="196" height="2"/>
	<rect x="80" y="104" fill="#E0E0E0" width="196" height="2"/>
	<rect x="208" y="64" fill="#DFE2E2" width="68" height="42"/>
	<rect x="208" y="64" fill="#D2D6D6" width="68" height="2"/>
	<rect x="208" y="104" fill="#D2D6D6" width="68" height="2"/>
	<rect x="118" y="72" fill="#B0BC74" width="16" height="2"/>
	<rect x="114" y="78" fill="#B0BC74" width="12" height="2"/>
	<rect x="112" y="84" fill="#B0BC74" width="6" height="2"/>
	<rect x="124" y="90" fill="#B0BC74" width="22" height="2"/>
	<rect x="118" y="96" fill="#B0BC74" width="16" height="2"/>
	<circle fill="#CECECE" cx="86" cy="20" r="2"/>
	<circle fill="#CECECE" cx="86" cy="26" r="2"/>
	<circle fill="#CECECE" cx="86" cy="32" r="2"/>
	<circle fill="#CECECE" cx="86" cy="38" r="2"/>
	<circle fill="#CECECE" cx="86" cy="44" r="2"/>
	<circle fill="#CECECE" cx="86" cy="50" r="2"/>
	<circle fill="#CECECE" cx="86" cy="56" r="2"/>
	<circle fill="#CECECE" cx="86" cy="62" r="2"/>
	<circle fill="#CECECE" cx="86" cy="68" r="2"/>
	<circle fill="#CECECE" cx="86" cy="74" r="2"/>
	<circle fill="#CECECE" cx="86" cy="80" r="2"/>
	<circle fill="#CECECE" cx="86" cy="86" r="2"/>
	<circle fill="#CECECE" cx="86" cy="92" r="2"/>
	<circle fill="#CECECE" cx="86" cy="98" r="2"/>
	<circle fill="#CECECE" cx="86" cy="104" r="2"/>
	<circle fill="#CECECE" cx="86" cy="110" r="2"/>
	<circle fill="#CECECE" cx="86" cy="116" r="2"/>
	<circle fill="#CECECE" cx="86" cy="122" r="2"/>
	<circle fill="#CECECE" cx="86" cy="128" r="2"/>
	<circle fill="#CECECE" cx="86" cy="134" r="2"/>
	<circle fill="#CECECE" cx="86" cy="140" r="2"/>
	<circle fill="#CECECE" cx="86" cy="146" r="2"/>
	<circle fill="#CECECE" cx="86" cy="152" r="2"/>
	<circle fill="#CECECE" cx="86" cy="158" r="2"/>
	<circle fill="#CECECE" cx="86" cy="164" r="2"/>
	<circle fill="#CECECE" cx="86" cy="170" r="2"/>
	<circle fill="#CECECE" cx="86" cy="176" r="2"/>
	<circle fill="#CECECE" cx="86" cy="182" r="2"/>
	<circle fill="#CECECE" cx="86" cy="188" r="2"/>
	<rect x="162" y="5" fill="#CECECE" width="32" height="4"/>
	<rect x="268" y="5" fill="#CECECE" width="4" height="4"/>
	<rect x="260" y="5" fill="#CECECE" width="4" height="4"/>
	<rect x="252" y="5" fill="#CECECE" width="4" height="4"/>
	<polygon fill="#363A3A" points="80,22 0,22 0,32 80,32 76,27 	"/>
	<polygon fill="#F3F3F3" points="80,22 80,32 76,27 	"/>
	<rect x="10" y="26" fill="#B3B3B3" width="32" height="2"/>
	<rect x="10" y="36" fill="#7A7A7A" width="26" height="2"/>
	<rect x="10" y="52" fill="#5B5B5B" width="26" height="2"/>
	<rect x="16" y="62" fill="#7A7A7A" width="10" height="2"/>
	<rect x="22" y="72" fill="#707070" width="18" height="2"/>
	<rect x="22" y="82" fill="#707070" width="24" height="2"/>
	<rect x="22" y="92" fill="#707070" width="16" height="2"/>
	<rect x="16" y="102" fill="#7A7A7A" width="20" height="2"/>
	<rect x="22" y="112" fill="#707070" width="26" height="2"/>
	<rect x="22" y="122" fill="#707070" width="18" height="2"/>
	<rect x="22" y="132" fill="#707070" width="22" height="2"/>
	<rect x="10" y="16" fill="#7A7A7A" width="22" height="2"/>
	<rect x="104" y="48" fill="#4C7FC0" width="8" height="2"/>
	<rect x="164" y="48" fill="#4C7FC0" width="2" height="2"/>
	<rect x="122" y="48" fill="#F8C286" width="16" height="2"/>
	<rect x="114" y="48" fill="#B0BC74" width="8" height="2"/>
	<rect x="148" y="48" fill="#F8C286" width="16" height="2"/>
	<rect x="140" y="48" fill="#B0BC74" width="8" height="2"/>
	<rect x="96" y="66" fill="#4C7FC0" width="6" height="2"/>
	<rect x="104" y="66" fill="#B7B7B7" width="2" height="2"/>
	<rect x="134" y="72" fill="#B7B7B7" width="2" height="2"/>
	<rect x="126" y="78" fill="#B7B7B7" width="2" height="2"/>
	<rect x="118" y="84" fill="#B7B7B7" width="2" height="2"/>
	<rect x="146" y="90" fill="#B7B7B7" width="2" height="2"/>
	<rect x="134" y="96" fill="#B7B7B7" width="2" height="2"/>
	<rect x="96" y="102" fill="#B7B7B7" width="2" height="2"/>
	<rect x="104" y="72" fill="#B7B7B7" width="12" height="2"/>
	<rect x="104" y="72" fill="#B7B7B7" width="12" height="2"/>
	<rect x="208" y="70" fill="#D0D5D5" width="68" height="6"/>
	<rect x="104" y="78" fill="#B7B7B7" width="8" height="2"/>
	<rect x="104" y="84" fill="#B7B7B7" width="6" height="2"/>
	<rect x="104" y="90" fill="#B7B7B7" width="18" height="2"/>
	<rect x="104" y="96" fill="#B7B7B7" width="12" height="2"/>
	<rect x="104" y="42" fill="#4C7FC0" width="8" height="2"/>
	<rect x="96" y="30" fill="#4C7FC0" width="8" height="2"/>
	<rect x="96" y="54" fill="#4C7FC0" width="8" height="2"/>
	<rect x="96" y="60" fill="#4C7FC0" width="8" height="2"/>
	<rect x="104" y="108" fill="#4C7FC0" width="6" height="2"/>
	<rect x="110" y="114" fill="#4C7FC0" width="6" height="2"/>
	<rect x="110" y="150" fill="#4C7FC0" width="6" height="2"/>
	<rect x="110" y="156" fill="#4C7FC0" width="10" height="2"/>
	<rect x="136" y="108" fill="#4C7FC0" width="2" height="2"/>
	<rect x="120" y="108" fill="#F8C286" width="16" height="2"/>
	<rect x="112" y="108" fill="#B0BC74" width="8" height="2"/>
	<rect x="116" y="120" fill="#4C7FC0" width="6" height="2"/>
	<rect x="148" y="120" fill="#4C7FC0" width="2" height="2"/>
	<rect x="132" y="120" fill="#F8C286" width="16" height="2"/>
	<rect x="124" y="120" fill="#B0BC74" width="8" height="2"/>
	<rect x="146" y="156" fill="#4C7FC0" width="2" height="2"/>
	<rect x="130" y="156" fill="#F8C286" width="16" height="2"/>
	<rect x="122" y="156" fill="#B0BC74" width="8" height="2"/>
	<rect x="116" y="126" fill="#4C7FC0" width="6" height="2"/>
	<rect x="144" y="126" fill="#4C7FC0" width="2" height="2"/>
	<rect x="132" y="126" fill="#F8C286" width="12" height="2"/>
	<rect x="124" y="126" fill="#B0BC74" width="8" height="2"/>
	<rect x="116" y="162" fill="#4C7FC0" width="4" height="2"/>
	<rect x="120" y="168" fill="#B7B7B7" width="64" height="2"/>
	<rect x="120" y="174" fill="#B7B7B7" width="56" height="2"/>
	<rect x="120" y="180" fill="#B7B7B7" width="60" height="2"/>
	<rect x="116" y="186" fill="#4C7FC0" width="4" height="2"/>
	<rect x="116" y="132" fill="#4C7FC0" width="6" height="2"/>
	<rect x="138" y="132" fill="#4C7FC0" width="2" height="2"/>
	<rect x="132" y="132" fill="#F8C286" width="6" height="2"/>
	<rect x="124" y="132" fill="#B0BC74" width="8" height="2"/>
	<rect x="116" y="138" fill="#4C7FC0" width="6" height="2"/>
	<rect x="154" y="138" fill="#4C7FC0" width="2" height="2"/>
	<rect x="132" y="138" fill="#F8C286" width="22" height="2"/>
	<rect x="124" y="138" fill="#B0BC74" width="8" height="2"/>
	<rect x="116" y="144" fill="#4C7FC0" width="6" height="2"/>
	<rect x="148" y="144" fill="#4C7FC0" width="2" height="2"/>
	<rect x="132" y="144" fill="#F8C286" width="16" height="2"/>
	<rect x="124" y="144" fill="#B0BC74" width="8" height="2"/>
	<rect x="96" y="18" fill="#B7B7B7" width="16" height="2"/>
	<rect x="138" y="42" fill="#4C7FC0" width="2" height="2"/>
	<rect x="122" y="42" fill="#F8C286" width="16" height="2"/>
	<rect x="114" y="42" fill="#B0BC74" width="8" height="2"/>
	<rect x="104" y="36" fill="#B7B7B7" width="36" height="2"/>
	<polygon fill="#EAEAEA" points="208,76 208,70 211,73 	"/>
</g>
</svg>
