<?xml version="1.0" encoding="utf-8"?>
<!-- Generator: Adobe Illustrator 16.1.0, SVG Export Plug-In . SVG Version: 6.00 Build 0)  -->
<!DOCTYPE svg PUBLIC "-//W3C//DTD SVG 1.1//EN" "http://www.w3.org/Graphics/SVG/1.1/DTD/svg11.dtd">
<svg version="1.1" id="Layer_1" xmlns="http://www.w3.org/2000/svg" xmlns:xlink="http://www.w3.org/1999/xlink" x="0px" y="0px"
	 width="30px" height="30px" viewBox="0 0 30 30" enable-background="new 0 0 30 30" xml:space="preserve">
<path fill="#4D4D4D" d="M29.789,5.499l-1-1l-3.452,3.452l1,1h0l0,0l-3.381-0.906l-0.907-3.382l3.452-3.452l-1-1l-0.803,0.803
	c-1.489,0.05-2.963,0.632-4.099,1.769c-1.609,1.608-2.129,3.892-1.562,5.939l-9.313,9.313c-2.047-0.566-4.331-0.046-5.939,1.562
	c-1.136,1.137-1.718,2.611-1.769,4.1l-0.803,0.803l1,1l3.452-3.451l3.382,0.906l0.906,3.381l0,0v0l-1-1l-3.452,3.452l1,1
	c2.037,0.55,4.304,0.027,5.902-1.572c1.68-1.679,2.172-4.094,1.482-6.207l9.127-9.126c2.113,0.69,4.528,0.197,6.206-1.482
	C29.815,9.803,30.338,7.536,29.789,5.499z"/>
<path fill="#808080" d="M25.337,7.951l-3.381-0.906l-0.907-3.382l3.452-3.452c-2.037-0.55-4.304-0.027-5.902,1.572
	c-1.609,1.608-2.129,3.892-1.562,5.939l-9.313,9.313c-2.047-0.566-4.331-0.046-5.939,1.562c-1.599,1.599-2.122,3.866-1.572,5.903
	l3.452-3.451l3.382,0.906l0.906,3.381l-3.452,3.452c2.037,0.55,4.304,0.027,5.902-1.572c1.68-1.679,2.172-4.094,1.482-6.207
	l9.127-9.126c2.113,0.69,4.528,0.197,6.206-1.482c1.599-1.599,2.122-3.866,1.572-5.903L25.337,7.951z"/>
</svg>
