<?xml version="1.0" encoding="utf-8"?>
<!-- Generator: Adobe Illustrator 16.1.0, SVG Export Plug-In . SVG Version: 6.00 Build 0)  -->
<!DOCTYPE svg PUBLIC "-//W3C//DTD SVG 1.1//EN" "http://www.w3.org/Graphics/SVG/1.1/DTD/svg11.dtd">
<svg version="1.1" id="Layer_1" xmlns="http://www.w3.org/2000/svg" xmlns:xlink="http://www.w3.org/1999/xlink" x="0px" y="0px"
	 width="30px" height="40px" viewBox="0 0 30 40" enable-background="new 0 0 30 40" xml:space="preserve">
<g>
	<g>
		<g>
			<path opacity="0.1" enable-background="new    " d="M3.5,30.5c-0.552,0-1-0.445-1-1v-16c0-0.553,0.448-1,1-1h1v-2
				c0-0.553,0.448-1,1-1h8c0.552,0,1,0.447,1,1v2h2v-2c0-0.553,0.447-1,1-1h8c0.553,0,1,0.447,1,1v2h1c0.553,0,1,0.447,1,1v16
				c0,0.555-0.447,1-1,1H3.5z"/>
			<path opacity="0.1" enable-background="new    " d="M3.5,30C3.225,30,3,29.775,3,29.5v-16C3,13.227,3.225,13,3.5,13H5v-2.5
				C5,10.227,5.225,10,5.5,10h8c0.275,0,0.5,0.227,0.5,0.5V13h3v-2.5c0-0.273,0.225-0.5,0.5-0.5h8c0.275,0,0.5,0.227,0.5,0.5V13h1.5
				c0.275,0,0.5,0.227,0.5,0.5v16c0,0.275-0.225,0.5-0.5,0.5H3.5z"/>
			<polygon opacity="0.1" enable-background="new    " points="25.5,13.5 25.5,10.5 17.5,10.5 17.5,13.5 13.5,13.5 13.5,10.5 
				5.5,10.5 5.5,13.5 3.5,13.5 3.5,29.5 27.5,29.5 27.5,13.5 			"/>
			<polygon fill="#C1272D" points="25.5,12.5 25.5,9.5 17.5,9.5 17.5,12.5 13.5,12.5 13.5,9.5 5.5,9.5 5.5,12.5 3.5,12.5 3.5,28.5 
				27.5,28.5 27.5,12.5 			"/>
			
				<linearGradient id="SVGID_1_" gradientUnits="userSpaceOnUse" x1="-658.8232" y1="406" x2="-650.8232" y2="406" gradientTransform="matrix(1 0 0 1 676.3232 -395)">
				<stop  offset="0" style="stop-color:#000000;stop-opacity:0.1"/>
				<stop  offset="0.5" style="stop-color:#000000;stop-opacity:0"/>
				<stop  offset="1" style="stop-color:#000000;stop-opacity:0.2"/>
			</linearGradient>
			<rect x="17.5" y="9.5" fill="url(#SVGID_1_)" width="8" height="3"/>
			<rect x="17.5" y="11.5" opacity="0.1" enable-background="new    " width="8" height="1"/>
			
				<linearGradient id="SVGID_2_" gradientUnits="userSpaceOnUse" x1="-1659.8223" y1="406" x2="-1651.8223" y2="406" gradientTransform="matrix(-1 0 0 1 -1646.3223 -395)">
				<stop  offset="0" style="stop-color:#000000;stop-opacity:0.1"/>
				<stop  offset="0.5" style="stop-color:#000000;stop-opacity:0"/>
				<stop  offset="1" style="stop-color:#000000;stop-opacity:0.2"/>
			</linearGradient>
			<rect x="5.5" y="9.5" fill="url(#SVGID_2_)" width="8" height="3"/>
			<rect x="5.5" y="11.5" opacity="0.1" enable-background="new    " width="8" height="1"/>
		</g>
	</g>
</g>
</svg>
