<?xml version="1.0" encoding="utf-8"?>
<!-- Generator: Adobe Illustrator 16.1.0, SVG Export Plug-In . SVG Version: 6.00 Build 0)  -->
<!DOCTYPE svg PUBLIC "-//W3C//DTD SVG 1.1//EN" "http://www.w3.org/Graphics/SVG/1.1/DTD/svg11.dtd">
<svg version="1.1" id="Layer_1" xmlns="http://www.w3.org/2000/svg" xmlns:xlink="http://www.w3.org/1999/xlink" x="0px" y="0px"
	 width="30px" height="40px" viewBox="0 0 30 40" enable-background="new 0 0 30 40" xml:space="preserve">
<g>
	<g>
		<path opacity="0.1" enable-background="new    " d="M14.986,32.5c-0.045,0-0.09-0.006-0.135-0.02l-8.576-2.398
			c-0.199-0.057-0.344-0.23-0.362-0.438L4.002,8.043C3.99,7.902,4.037,8.016,4.131,7.912C4.227,7.809,4.359,8,4.5,8h21
			c0.141,0,0.273-0.191,0.369-0.086c0.095,0.104,0.143,0.117,0.129,0.256l-1.913,21.535c-0.019,0.207-0.163,0.35-0.362,0.404
			l-8.601,2.389C15.078,32.51,15.033,32.5,14.986,32.5z"/>
		<path opacity="0.1" enable-background="new    " d="M14.986,33c-0.09,0-0.18-0.012-0.27-0.037l-8.576-2.398
			c-0.399-0.111-0.689-0.461-0.727-0.875L3.504,8.088C3.479,7.809,3.573,7.533,3.762,7.326C3.951,7.119,4.219,7,4.5,7h21
			c0.279,0,0.548,0.119,0.736,0.326s0.283,0.482,0.26,0.764l-1.913,21.598c-0.037,0.414-0.326,0.764-0.728,0.875l-8.601,2.402
			C15.168,32.988,15.078,33,14.986,33z"/>
		<polygon opacity="0.1" enable-background="new    " points="6.411,29.602 4.5,8 25.5,8 23.587,29.598 14.986,32 		"/>
		<g>
			<polygon fill="#E44D26" points="6.411,28.602 4.5,7 25.5,7 23.587,28.598 14.986,31 			"/>
			<polygon fill="#F16529" points="15.001,29.164 21.949,27.223 23.585,8.768 15.001,8.768 			"/>
			<polygon fill="#EBEBEB" points="15.001,16.777 11.521,16.777 11.281,14.064 15.001,14.064 15.001,11.416 14.991,11.416 
				8.408,11.416 8.473,12.127 9.117,19.428 15.001,19.428 			"/>
			<polygon fill="#EBEBEB" points="15.001,23.658 14.988,23.662 12.061,22.865 11.874,20.752 10.451,20.752 9.234,20.752 
				9.604,24.912 14.988,26.418 15.001,26.414 			"/>
			<polygon fill="#FFFFFF" points="14.991,16.777 14.991,19.428 18.229,19.428 17.924,22.861 14.991,23.66 14.991,26.416 
				20.381,24.912 20.42,24.465 21.038,17.49 21.104,16.777 20.395,16.777 			"/>
			<polygon fill="#FFFFFF" points="14.991,11.416 14.991,13.061 14.991,14.059 14.991,14.064 21.333,14.064 21.333,14.064 
				21.342,14.064 21.395,13.471 21.514,12.127 21.577,11.416 			"/>
		</g>
	</g>
</g>
</svg>
