<?xml version="1.0" encoding="utf-8"?>
<!-- Generator: Adobe Illustrator 16.1.0, SVG Export Plug-In . SVG Version: 6.00 Build 0)  -->
<!DOCTYPE svg PUBLIC "-//W3C//DTD SVG 1.1//EN" "http://www.w3.org/Graphics/SVG/1.1/DTD/svg11.dtd">
<svg version="1.1" id="Layer_1" xmlns="http://www.w3.org/2000/svg" xmlns:xlink="http://www.w3.org/1999/xlink" x="0px" y="0px"
	 width="30px" height="40px" viewBox="0 0 30 40" enable-background="new 0 0 30 40" xml:space="preserve">
<g>
	<g>
		<path opacity="0.08" enable-background="new    " d="M20.482,9.271c-0.916-0.917-2.057-1.594-3.295-1.959
			C16.479,7.104,15.743,6.999,15,6.999c-2.07,0-4.018,0.807-5.482,2.271c-1.463,1.463-2.27,3.409-2.269,5.525l0.03,0.661
			c0.097,1.059,0.408,2.072,0.926,3.013c0.035,0.062,0.074,0.123,0.118,0.189c1.483,2.259,2.301,4.301,2.301,5.752
			c0,0.035,0.002,0.07,0.005,0.105l0.086,0.809c0.006,0.045,0.014,0.09,0.023,0.133C11.079,26.85,12.126,27,12.561,27h-0.562
			c-0.552,0-1,0.447-1,1v2c0,0.553,0.448,1,1,1v1c0,0.553,0.448,1,1,1h4c0.553,0,1-0.447,1-1v-1c0.553,0,1-0.447,1-1v-2
			c0-0.553-0.447-1-1-1h-0.563c0.438,0,1.485-0.15,1.824-1.545c0.01-0.041,0.018-0.082,0.022-0.125l0.087-0.775
			c0.004-0.037,0.006-0.074,0.006-0.111c0-2.283,1.973-5.269,2.367-5.844c0.021-0.033,0.062-0.096,0.082-0.131
			c0.498-0.95,0.799-1.96,0.896-3.047l0.028-0.668C22.753,12.683,21.947,10.735,20.482,9.271z"/>
		<path opacity="0.08" enable-background="new    " d="M18.001,27.5h-6c-0.276,0-0.5,0.224-0.5,0.5v2c0,0.275,0.224,0.5,0.5,0.5h1
			c-0.276,0-0.5,0.224-0.5,0.5v1c0,0.275,0.224,0.5,0.5,0.5h4c0.276,0,0.5-0.225,0.5-0.5v-1c0-0.276-0.224-0.5-0.5-0.5h1
			c0.276,0,0.5-0.225,0.5-0.5v-2C18.501,27.724,18.277,27.5,18.001,27.5z"/>
		<path opacity="0.08" enable-background="new    " d="M20.13,9.625c-0.858-0.858-1.924-1.492-3.082-1.833
			c-0.663-0.194-1.353-0.293-2.047-0.293c-1.938,0-3.759,0.754-5.129,2.125c-1.369,1.369-2.123,3.189-2.123,5.148l0.03,0.639
			c0.089,0.989,0.38,1.937,0.865,2.817l0,0c0.022,0.043,0.055,0.091,0.098,0.156c1.537,2.339,2.383,4.48,2.386,6.082l0.097,0.875
			c0.235,0.959,0.857,1.16,1.338,1.16h4.875c0.479,0,1.104-0.201,1.35-1.225l0.09-0.832c0-2.431,2.045-5.53,2.506-6.208
			c0.469-0.891,0.75-1.839,0.84-2.838l0.03-0.645C22.253,12.815,21.499,10.995,20.13,9.625z"/>
		<rect x="12.001" y="28" opacity="0.08" enable-background="new    " width="6" height="2"/>
		<rect x="13.001" y="31" opacity="0.08" enable-background="new    " width="4" height="1"/>
		<path opacity="0.08" enable-background="new    " d="M19.775,9.979c-0.799-0.799-1.791-1.389-2.868-1.707
			c-0.616-0.181-1.259-0.273-1.906-0.273c-1.806,0-3.499,0.702-4.774,1.978c-1.275,1.275-1.978,2.969-1.978,4.772l0.028,0.617
			c0.084,0.929,0.354,1.805,0.805,2.621c0.005,0.045,2.543,3.581,2.543,6.424l0.086,0.809C11.85,25.781,12.137,26,12.562,26h4.875
			c0.432,0,0.717-0.219,0.854-0.781l0.087-0.775c0-2.844,2.537-6.395,2.562-6.44c0.43-0.816,0.699-1.701,0.783-2.629l0.028-0.621
			C21.753,12.949,21.051,11.253,19.775,9.979z"/>
		<g>
			<g>
				<g>
					<g>
						
							<radialGradient id="SVGID_1_" cx="-461.8105" cy="78.7017" r="7.6546" gradientTransform="matrix(-4.371139e-08 1 -0.7644 -3.341214e-08 75.3481 476.7275)" gradientUnits="userSpaceOnUse">
							<stop  offset="0" style="stop-color:#F8FB85"/>
							<stop  offset="0.1755" style="stop-color:#F8F781"/>
							<stop  offset="0.3678" style="stop-color:#F8E975"/>
							<stop  offset="0.568" style="stop-color:#F8D360"/>
							<stop  offset="0.7738" style="stop-color:#F7B544"/>
							<stop  offset="0.982" style="stop-color:#F78E1F"/>
							<stop  offset="1" style="stop-color:#F78A1C"/>
						</radialGradient>
						<path fill="url(#SVGID_1_)" d="M12.562,24.881c-0.192,0-0.465-0.067-0.609-0.655l-0.08-0.808
							c0.001-1.668-0.889-3.959-2.505-6.431l-0.066-0.103c-0.435-0.791-0.694-1.643-0.776-2.535l-0.027-0.61
							c0-1.726,0.676-3.358,1.904-4.586c1.229-1.229,2.861-1.906,4.599-1.906c0.625,0,1.242,0.088,1.836,0.262
							c1.038,0.306,1.993,0.874,2.763,1.644c1.229,1.229,1.903,2.861,1.903,4.597l-0.028,0.609
							c-0.078,0.869-0.334,1.722-0.756,2.525c-0.611,0.888-2.592,3.971-2.592,6.557l-0.086,0.816
							c-0.137,0.554-0.41,0.621-0.604,0.621h-4.875V24.881z"/>
						<path fill="#F8FB85" d="M15.001,7.5c0.601,0,1.194,0.085,1.765,0.252c0.998,0.294,1.918,0.84,2.657,1.581
							c1.181,1.181,1.83,2.751,1.831,4.397l-0.027,0.6c-0.076,0.846-0.322,1.668-0.719,2.421c-0.615,0.896-2.617,4.016-2.631,6.667
							l-0.081,0.781c-0.112,0.432-0.278,0.432-0.358,0.432h-4.875c-0.08,0-0.244,0-0.357-0.434l-0.08-0.779
							c-0.012-2.226-1.391-4.797-2.547-6.566l-0.057-0.086L9.52,16.762c-0.416-0.757-0.666-1.576-0.742-2.411l-0.028-0.598
							c0-1.67,0.649-3.24,1.83-4.42C11.762,8.15,13.331,7.5,15.001,7.5 M15.001,7c-1.806,0-3.499,0.703-4.774,1.979
							c-1.275,1.275-1.978,2.971-1.978,4.774l0.028,0.621c0.084,0.929,0.354,1.813,0.805,2.629c0.005,0.045,2.543,3.597,2.543,6.44
							l0.086,0.843c0.139,0.561,0.426,0.846,0.852,0.846h4.875c0.432,0,0.717-0.285,0.854-0.846l0.087-0.843
							c0-2.844,2.537-6.395,2.562-6.44c0.43-0.816,0.699-1.701,0.783-2.629l0.028-0.621c0-1.804-0.702-3.499-1.978-4.774
							c-0.799-0.799-1.791-1.389-2.868-1.707C16.291,7.091,15.648,7,15.001,7L15.001,7z"/>
					</g>
					<rect x="12.256" y="27.299" fill="#666666" width="5.49" height="1.72"/>
					<rect x="13.449" y="30.027" fill="#666666" width="3.104" height="0.973"/>
				</g>
			</g>
		</g>
	</g>
	<rect fill="none" width="30" height="40"/>
</g>
</svg>
