<?xml version="1.0" encoding="utf-8"?>
<!-- Generator: Adobe Illustrator 16.1.0, SVG Export Plug-In . SVG Version: 6.00 Build 0)  -->
<!DOCTYPE svg PUBLIC "-//W3C//DTD SVG 1.1//EN" "http://www.w3.org/Graphics/SVG/1.1/DTD/svg11.dtd">
<svg version="1.1" id="Layer_1" xmlns="http://www.w3.org/2000/svg" xmlns:xlink="http://www.w3.org/1999/xlink" x="0px" y="0px"
	 width="30px" height="30px" viewBox="0 0 30 30" enable-background="new 0 0 30 30" xml:space="preserve">
<g>
	<path fill="#008FE2" d="M30,25c0,2.75-2.25,5-5,5H5c-2.75,0-5-2.25-5-5V5c0-2.75,2.25-5,5-5h20c2.75,0,5,2.25,5,5V25z"/>
	<path fill="#FFFFFF" d="M26,23c0,1.65-1.35,3-3,3H7c-1.65,0-3-1.35-3-3V7c0-1.65,1.35-3,3-3h16c1.65,0,3,1.35,3,3V23z"/>
	<g>
		<g>
			<g>
				<g>
					<path fill="#333333" d="M14,8v3h-3v8h3v3H7V8H14z"/>
				</g>
				<g>
					<path fill="#333333" d="M23,8v14h-7v-3h3v-8h-3V8H23z"/>
				</g>
			</g>
		</g>
	</g>
</g>
</svg>
