<?xml version="1.0" encoding="utf-8"?>
<!-- Generator: Adobe Illustrator 16.1.0, SVG Export Plug-In . SVG Version: 6.00 Build 0)  -->
<!DOCTYPE svg PUBLIC "-//W3C//DTD SVG 1.1//EN" "http://www.w3.org/Graphics/SVG/1.1/DTD/svg11.dtd">
<svg version="1.1" id="Layer_1" xmlns="http://www.w3.org/2000/svg" xmlns:xlink="http://www.w3.org/1999/xlink" x="0px" y="0px"
	 width="30px" height="40px" viewBox="0 0 30 40" enable-background="new 0 0 30 40" xml:space="preserve">
<g>
	<g>
		<path opacity="0.1" enable-background="new    " d="M15,31.146c-7.168,0-13-4.648-13-10.359c0-2.02,0.729-3.955,2.111-5.627
			c-0.004-0.021-0.01-0.043-0.014-0.062c-1.183-5,0.207-5.697,0.664-5.926C5.107,9,5.501,8.912,5.934,8.912
			c1.674,0,3.748,1.375,4.652,2.039c1.412-0.406,2.895-0.613,4.414-0.613c1.505,0,2.977,0.203,4.38,0.605
			c0.999-0.748,3.019-2.086,4.661-2.086c0.427,0,0.814,0.086,1.154,0.256c1.535,0.766,1.25,3.525,0.666,5.896
			C27.264,16.707,28,18.68,28,20.742C28,26.479,22.168,31.146,15,31.146z"/>
		<path opacity="0.1" enable-background="new    " d="M15,30.646c-6.893,0-12.5-4.424-12.5-9.859c0-1.977,0.745-3.873,2.158-5.498
			c-0.023-0.09-0.047-0.191-0.074-0.307c-0.725-3.064-0.588-4.867,0.402-5.363C5.262,9.482,5.58,9.412,5.936,9.412
			c1.666,0,3.838,1.543,4.553,2.088c1.438-0.439,2.955-0.664,4.513-0.664c1.544,0,3.051,0.221,4.481,0.656
			c0.775-0.598,2.935-2.137,4.56-2.137c0.349,0,0.662,0.066,0.933,0.203c1.354,0.676,0.832,3.674,0.34,5.578
			c1.433,1.65,2.188,3.582,2.188,5.604C27.5,26.203,21.893,30.646,15,30.646z"/>
		<path opacity="0.1" enable-background="new    " d="M24.762,15.27c0.125-0.459,1.223-4.646-0.012-5.264
			c-1.559-0.777-4.723,1.684-5.167,2.041c-1.413-0.457-2.96-0.711-4.583-0.711c-1.635,0-3.191,0.256-4.611,0.721
			c-0.408-0.328-3.609-2.775-5.18-1.99c-1.305,0.652,0,5.354,0,5.354H5.21C3.82,16.938,3,18.766,3,20.787
			c0,5.186,5.373,9.359,12,9.359s12-4.221,12-9.404C27,18.705,26.169,16.809,24.762,15.27z"/>
		<g>
			<path fill="#F0C3A8" d="M23.846,23.6c0,2.084-3.748,4.465-5.834,4.465h-6.063c-2.085,0-6.296-2.381-6.296-4.465v-1.896
				c0-2.084,1.938-3.494,4.021-3.494h10.613c2.084,0,3.561,1.41,3.561,3.494V23.6H23.846z"/>
			<path fill="#1A1A1A" d="M24.762,14.27c0.125-0.459,1.223-4.646-0.012-5.264c-1.559-0.777-4.723,1.684-5.167,2.041
				c-1.413-0.457-2.96-0.711-4.583-0.711c-1.635,0-3.191,0.256-4.611,0.721c-0.408-0.328-3.609-2.775-5.18-1.99
				c-1.305,0.652,0,5.354,0,5.354H5.21C3.82,15.938,3,17.766,3,19.787c0,5.186,5.373,9.359,12,9.359s12-4.221,12-9.404
				C27,17.705,26.169,15.809,24.762,14.27z M23.846,23.6c0,2.084-3.748,4.465-5.834,4.465h-6.063c-2.085,0-6.296-2.381-6.296-4.465
				v-1.896c0-2.084,1.938-3.494,4.021-3.494h10.613c2.084,0,3.561,1.41,3.561,3.494V23.6H23.846z"/>
			<path fill="#FCFAF9" d="M10.053,19.809c-1.046,0-1.896,1.188-1.896,2.652c0,1.467,0.849,2.654,1.896,2.654
				s1.896-1.188,1.896-2.654C11.948,20.996,11.1,19.809,10.053,19.809z M10.053,24.357c-0.627,0-1.138-0.764-1.138-1.707
				c0-0.941,0.51-1.705,1.138-1.705c0.629,0,1.137,0.764,1.137,1.705C11.189,23.594,10.68,24.357,10.053,24.357z"/>
			<path fill="#FCFAF9" d="M19.904,19.809c-1.045,0-1.893,1.188-1.893,2.652c0,1.467,0.848,2.654,1.893,2.654
				c1.049,0,1.897-1.188,1.897-2.654C21.803,20.996,20.953,19.809,19.904,19.809z M19.904,24.357c-0.625,0-1.135-0.764-1.135-1.707
				c0-0.941,0.51-1.705,1.135-1.705c0.63,0,1.14,0.764,1.14,1.705C21.044,23.594,20.534,24.357,19.904,24.357z"/>
			<ellipse fill="#A65F55" cx="14.979" cy="24.547" rx="0.758" ry="0.568"/>
			<rect x="13.991" y="26.549" fill="#A65F55" width="2.274" height="0.758"/>
			<ellipse fill="#A65F55" cx="10.053" cy="22.652" rx="1.139" ry="1.705"/>
			<ellipse fill="#A65F55" cx="19.906" cy="22.652" rx="1.137" ry="1.705"/>
		</g>
	</g>
</g>
</svg>
