<?xml version="1.0" encoding="UTF-8" standalone="no"?>
<!-- Generator: Adobe Illustrator 16.0.0, SVG Export Plug-In . SVG Version: 6.00 Build 0)  -->

<svg
   xmlns:dc="http://purl.org/dc/elements/1.1/"
   xmlns:cc="http://creativecommons.org/ns#"
   xmlns:rdf="http://www.w3.org/1999/02/22-rdf-syntax-ns#"
   xmlns:svg="http://www.w3.org/2000/svg"
   xmlns="http://www.w3.org/2000/svg"
   xmlns:sodipodi="http://sodipodi.sourceforge.net/DTD/sodipodi-0.dtd"
   xmlns:inkscape="http://www.inkscape.org/namespaces/inkscape"
   version="1.1"
   id="Layer_1"
   x="0px"
   y="0px"
   width="120px"
   height="120px"
   viewBox="0 0 120 120"
   enable-background="new 0 0 120 120"
   xml:space="preserve"
   inkscape:version="0.48.2 r9819"
   sodipodi:docname="brackets_icon.svg"><metadata
   id="metadata3409"><rdf:RDF><cc:Work
       rdf:about=""><dc:format>image/svg+xml</dc:format><dc:type
         rdf:resource="http://purl.org/dc/dcmitype/StillImage" /></cc:Work></rdf:RDF></metadata><defs
   id="defs3407"><filter
     id="filter3635"
     inkscape:label="Drop shadow"
     width="1.5"
     height="1.5"
     x="-.25"
     y="-.25"><feGaussianBlur
       id="feGaussianBlur3637"
       in="SourceAlpha"
       stdDeviation="2"
       result="blur" /><feColorMatrix
       id="feColorMatrix3639"
       result="bluralpha"
       type="matrix"
       values="1 0 0 0 0 0 1 0 0 0 0 0 1 0 0 0 0 0 0.25 0 " /><feOffset
       id="feOffset3641"
       in="bluralpha"
       dx="0"
       dy="3"
       result="offsetBlur" /><feMerge
       id="feMerge3643"><feMergeNode
         id="feMergeNode3645"
         in="offsetBlur" /><feMergeNode
         id="feMergeNode3647"
         in="SourceGraphic" /></feMerge></filter><filter
     id="filter3649"
     inkscape:label="Drop shadow"
     width="1.5"
     height="1.5"
     x="-.25"
     y="-.25"><feGaussianBlur
       id="feGaussianBlur3651"
       in="SourceAlpha"
       stdDeviation="2"
       result="blur" /><feColorMatrix
       id="feColorMatrix3653"
       result="bluralpha"
       type="matrix"
       values="1 0 0 0 0 0 1 0 0 0 0 0 1 0 0 0 0 0 0.25 0 " /><feOffset
       id="feOffset3655"
       in="bluralpha"
       dx="0"
       dy="3"
       result="offsetBlur" /><feMerge
       id="feMerge3657"><feMergeNode
         id="feMergeNode3659"
         in="offsetBlur" /><feMergeNode
         id="feMergeNode3661"
         in="SourceGraphic" /></feMerge></filter><filter
     id="filter3831"
     inkscape:label="Drop shadow"
     width="1.5"
     height="1.5"
     x="-.25"
     y="-.25"><feGaussianBlur
       id="feGaussianBlur3833"
       in="SourceAlpha"
       stdDeviation="3"
       result="blur" /><feColorMatrix
       id="feColorMatrix3835"
       result="bluralpha"
       type="matrix"
       values="1 0 0 0 0 0 1 0 0 0 0 0 1 0 0 0 0 0 0.4 0 " /><feOffset
       id="feOffset3837"
       in="bluralpha"
       dx="0"
       dy="2"
       result="offsetBlur" /><feMerge
       id="feMerge3839"><feMergeNode
         id="feMergeNode3841"
         in="offsetBlur" /><feMergeNode
         id="feMergeNode3843"
         in="SourceGraphic" /></feMerge></filter></defs><sodipodi:namedview
   pagecolor="#ffffff"
   bordercolor="#666666"
   borderopacity="1"
   objecttolerance="10"
   gridtolerance="10"
   guidetolerance="10"
   inkscape:pageopacity="0"
   inkscape:pageshadow="2"
   inkscape:window-width="640"
   inkscape:window-height="480"
   id="namedview3405"
   showgrid="false"
   inkscape:zoom="1.9666667"
   inkscape:cx="60"
   inkscape:cy="60"
   inkscape:window-x="0"
   inkscape:window-y="572"
   inkscape:window-maximized="0"
   inkscape:current-layer="Layer_1" />
<path
   fill="#115A91"
   d="M90,8H30c-11,0-20,9-20,20v8v44v8c0,11,9,20,20,20h60c11,0,20-9,20-20v-8V36v-8C110,17,101,8,90,8z"
   id="path3378"
   style="filter:url(#filter3831)" />
<linearGradient
   id="SVGID_1_"
   gradientUnits="userSpaceOnUse"
   x1="60"
   y1="8"
   x2="60"
   y2="100">
	<stop
   offset="0"
   style="stop-color:#29ABE2"
   id="stop3381" />
	<stop
   offset="0.4757"
   style="stop-color:#28A9E1"
   id="stop3383" />
	<stop
   offset="0.6639"
   style="stop-color:#23A2DC"
   id="stop3385" />
	<stop
   offset="0.8012"
   style="stop-color:#1A96D4"
   id="stop3387" />
	<stop
   offset="0.913"
   style="stop-color:#0E85C9"
   id="stop3389" />
	<stop
   offset="1"
   style="stop-color:#0071BC"
   id="stop3391" />
</linearGradient>
<path
   fill="url(#SVGID_1_)"
   d="M110,80c0,11-9,20-20,20H30c-11,0-20-9-20-20V28c0-11,9-20,20-20h60c11,0,20,9,20,20V80z"
   id="path3393" />
<path
   fill="#FFFFFF"
   d="M98,78c0,5.5-4.5,10-10,10H32c-5.5,0-10-4.5-10-10V30c0-5.5,4.5-10,10-10h56c5.5,0,10,4.5,10,10V78z"
   id="path3395" />
<g
   id="g3397"
   style="filter:url(#filter3635)">
	<path
   fill="#4D4D4D"
   d="M57,28v12H43v26h14v13H30V28H57z"
   id="path3399" />
</g>
<g
   id="g3401"
   style="filter:url(#filter3649)">
	<path
   fill="#4D4D4D"
   d="M90,28v51H63V66h15V40H63V28H90z"
   id="path3403" />
</g>
</svg>