<?xml version="1.0" encoding="utf-8"?>
<!-- Generator: Adobe Illustrator 16.0.0, SVG Export Plug-In . SVG Version: 6.00 Build 0)  -->
<!DOCTYPE svg PUBLIC "-//W3C//DTD SVG 1.1//EN" "http://www.w3.org/Graphics/SVG/1.1/DTD/svg11.dtd">
<svg version="1.1" id="Layer_1" xmlns="http://www.w3.org/2000/svg" xmlns:xlink="http://www.w3.org/1999/xlink" x="0px" y="0px"
	 width="90px" height="18px" viewBox="0 0 90 18" enable-background="new 0 0 90 18" xml:space="preserve">
<linearGradient id="SVGID_1_" gradientUnits="userSpaceOnUse" x1="8.5" y1="6" x2="8.5" y2="13">
	<stop  offset="0" style="stop-color:#666666"/>
	<stop  offset="1" style="stop-color:#3A3A3A"/>
</linearGradient>
<circle fill="url(#SVGID_1_)" cx="8.5" cy="9.5" r="3.5"/>
<linearGradient id="SVGID_2_" gradientUnits="userSpaceOnUse" x1="26.5" y1="3" x2="26.5" y2="16">
	<stop  offset="0" style="stop-color:#888888"/>
	<stop  offset="1" style="stop-color:#595959"/>
</linearGradient>
<circle fill="url(#SVGID_2_)" cx="26.5" cy="9.5" r="6.5"/>
<linearGradient id="SVGID_3_" gradientUnits="userSpaceOnUse" x1="44.5" y1="3" x2="44.5" y2="16">
	<stop  offset="0" style="stop-color:#666666"/>
	<stop  offset="1" style="stop-color:#373737"/>
</linearGradient>
<circle fill="url(#SVGID_3_)" cx="44.5" cy="9.5" r="6.5"/>
<g>
	<polygon fill="#FFFFFF" points="29.646,5.646 26.5,8.793 23.354,5.646 22.646,6.354 25.793,9.5 22.646,12.646 23.354,13.354 
		26.5,10.207 29.646,13.354 30.354,12.646 27.207,9.5 30.354,6.354 	"/>
	<polygon fill="#FFFFFF" points="48.354,6.354 47.646,5.646 44.5,8.793 41.354,5.646 40.646,6.354 43.793,9.5 40.646,12.646 
		41.354,13.354 44.5,10.207 47.646,13.354 48.354,12.646 45.207,9.5 	"/>
</g>
</svg>
