<svg version="1.1" xmlns="http://www.w3.org/2000/svg" xmlns:xlink="http://www.w3.org/1999/xlink" width="45px" height="16px">
	<g id="shadow">
		<polygon opacity="0.1" points="12.678,4.878 11.122,3.322 7.5,6.944 3.878,3.322 2.322,4.878 5.944,8.5 2.322,12.122 3.878,13.678 7.5,10.056 11.122,13.678 12.678,12.122 9.056,8.5"/>
		<polygon opacity="0.2333" points="12.521,4.654 11.012,3.146 7.5,6.658 3.987,3.146 2.479,4.654 5.991,8.167 2.479,11.679 3.987,13.188 7.5,9.675 11.012,13.188 12.521,11.679 9.008,8.167"/>
		<polygon opacity="0.3667" points="12.364,4.431 10.902,2.97 7.5,6.372 4.097,2.97 2.636,4.431 6.039,7.833 2.636,11.236 4.097,12.697 7.5,9.295 10.902,12.697 12.364,11.236 8.961,7.833"/>
	</g>
	<use xlink:href="#shadow" x="15"/>
	<circle opacity="0.1" cx="37" cy="8" r="3.3"/>
	<circle opacity="0.2333" cx="37" cy="7.667" r="3.2"/>
	<circle opacity="0.3667" cx="37" cy="7.333" r="3.1"/>

	<polygon fill="#868686" points="12.207,4.207 10.793,2.793 7.5,6.086 4.207,2.793 2.793,4.207 6.086,7.5 2.793,10.793 4.207,12.207 7.5,8.914 10.793,12.207 12.207,10.793 8.914,7.5"/>
	<polygon fill="#9F9F9F" points="27.207,4.207 25.793,2.793 22.5,6.086 19.207,2.793 17.793,4.207 21.086,7.5 17.793,10.793 19.207,12.207 22.5,8.914 25.793,12.207 27.207,10.793 23.914,7.5"/>
	<circle fill="#868686" cx="37" cy="7" r="3"/>
</svg>
