<svg id="S_Download_18_N" xmlns="http://www.w3.org/2000/svg" width="15" height="15" viewBox="0 0 18 18">
  <defs>
    <style>
      .cls-1, .cls-2 {
        fill: #707070;
      }

      .cls-2 {
        fill-rule: evenodd;
      }

      
    </style>
  </defs>
  <title>S_Download_18_N</title>
  <path class="cls-1" d="M8.25,1h1.5a0.25,0.25,0,0,1,.25.25V10a0,0,0,0,1,0,0H8a0,0,0,0,1,0,0V1.25A0.25,0.25,0,0,1,8.25,1Z"/>
  <path class="cls-2" d="M9,14L5.427,10.427A0.25,0.25,0,0,1,5.6,10H12.4a0.25,0.25,0,0,1,.177.427Z" transform="translate(0 0)"/>
  <path class="cls-2" d="M15,13.25V15H3V13.25A0.25,0.25,0,0,0,2.75,13H1.25a0.25,0.25,0,0,0-.25.25V16.5a0.5,0.5,0,0,0,.5.5h15a0.5,0.5,0,0,0,.5-0.5V13.25A0.25,0.25,0,0,0,16.75,13h-1.5A0.25,0.25,0,0,0,15,13.25Z" transform="translate(0 0)"/>
  </svg>