<svg width="24px" height="120px" viewBox="0 0 24 120" version="1.1" xmlns="http://www.w3.org/2000/svg" xmlns:xlink="http://www.w3.org/1999/xlink">
    <g transform="translate(3.000000, 6.000000)" fill="#BBBBBB">
        <path d="M7,2.25 C7,0.75 6.532,0 4.971,0 C3.471,0 3,0.812 3,2.25 L3,3 L2,3 C0.44,3 0,3.75 0,5.25 L0,11.25 C0,12.779 0.44,13.042 2,13.042 L16,13.042 C17.563,13.042 18.004,12.779 18.004,11.25 L18.004,5.25 C18.004,3.75 17.563,3 16,3 L15,3 L15,2.25 C15,0.812 14.471,0 12.971,0 C11.409,0 11,0.75 11,2.25 L11,3 L7,3 L7,2.25 L7,2.25 Z"></path>
    </g>
    <g transform="translate(3.000000, 28.000000)" fill="#91CC41">
        <path d="M4.971,2 C3.471,2 3,2.812 3,4.25 L3,5 L2,5 C0.44,5 0,5.75 0,7.25 L0,13.25 C0,14.779 0.44,15.042 2,15.042 L16,15.042 C17.563,15.042 18.004,14.779 18.004,13.25 L18.004,7.25 C18.004,5.75 17.563,5 16,5 L15,5 L15,4.25 C15,2.812 14.471,2 12.971,2 C11.409,2 11,2.75 11,4.25 L11,5 L7,5 L7,4.25 C7,2.75 6.532,2 4.971,2 Z"></path>
        <path d="M18,4 C19.1045696,4 20,3.10456955 20,2 C20,0.895430446 19.1045696,0 18,0 C16.8954304,0 16,0.895430446 16,2 C16,3.10456955 16.8954304,4 18,4 Z"></path>
    </g>
</svg>
