<svg width="23" height="20" xmlns="http://www.w3.org/2000/svg">
    <path fill="#7f8181" d="M21 3L19 3L19 2C19 .57 18.48-0 17-0L16-0C14.5-0 14 .54 14 2L14 3L9 3L9 2C9 .54 8.5-0 7-0L6-0C4.52-0 4 .57 4 2L4 3L2 3C.5 3 0 3.62 0 4.99L0 17.98C0 19.36 .61 20 2 19.98L21 19.98C22.39 20 23 19.36 23 17.98L23 4.99C23 3.62 22.5 3 21 3L21 3M14.97 13L12.97 13L12.97 15C12.97 15.59 12.13 16 11.47 16C10.85 16 9.97 15.59 9.97 15L9.97 13L8 13C7.44 13 7 12.09 7 11.5C7 10.91 7.44 10 8 10L9.97 10L9.97 7.94C9.97 7.47 10.85 6.94 11.47 6.94C12.06 6.94 12.97 7.44 12.97 7.94L12.97 10L14.97 10C15.53 10 15.97 10.91 15.97 11.5C15.97 12.12 15.5 13 14.97 13L14.97 13M14.97 13"/>
</svg>
