<svg width="23px" height="20px" version="1.1" xmlns="http://www.w3.org/2000/svg" xmlns:xlink="http://www.w3.org/1999/xlink">
        <path d="M21,2.996L19,2.996L19,1.997C19,0.568,18.48-0.001,17-0.001L16-0.001C14.5-0.001,14,0.538,14,1.997L14,2.996L9,2.996L9,1.997C9,0.538,8.5-0.001,7-0.001L6-0.001C4.52-0.001,4,0.569,4,1.997L4,2.996L2,2.996C0.5,2.996,0,3.616,0,4.994L0,17.982C0,19.361,0.61,20,2,19.98L21,19.98C22.39,20,23,19.361,23,17.982L23,4.994C23,3.615,22.5,2.996,21,2.996L21,2.996ZM14.969,13L12.969,13L12.969,15C12.969,15.59,12.129,16,11.469,16C10.849,16,9.969,15.59,9.969,15L9.969,13L8,13C7.44,13,7,12.09,7,11.5C7,10.91,7.44,10,8,10L9.969,10L9.969,7.938C9.969,7.468,10.849,6.938,11.469,6.938C12.059,6.938,12.969,7.438,12.969,7.938L12.969,10L14.969,10C15.529,10,15.969,10.91,15.969,11.5C15.969,12.12,15.499,13,14.969,13L14.969,13ZM14.969,13" fill="#7F8181"/>
</svg>
