<svg width="24px" height="120px" version="1.1" xmlns="http://www.w3.org/2000/svg" xmlns:xlink="http://www.w3.org/1999/xlink">
    <path transform="translate(3, 6)" fill="#bbb" d="M7,2.25C7,0.75,6.532,0,4.971,0C3.471,0,3,0.812,3,2.25L3,3L2,3C0.44,3,0,3.75,0,5.25L0,11.25C0,12.779,0.44,13.042,2,13.042L16,13.042C17.563,13.042,18.004,12.779,18.004,11.25L18.004,5.25C18.004,3.75,17.563,3,16,3L15,3L15,2.25C15,0.812,14.471,0,12.971,0C11.409,0,11,0.75,11,2.25L11,3L7,3L7,2.25L7,2.25Z"/>
    <path transform="translate(3, 28)" fill="#91CC41" d="M4.971,2C3.471,2,3,2.812,3,4.25L3,5L2,5C0.44,5,0,5.75,0,7.25L0,13.25C0,14.779,0.44,15.042,2,15.042L16,15.042C17.563,15.042,18.004,14.779,18.004,13.25L18.004,7.25C18.004,5.75,17.563,5,16,5L15,5L15,4.25C15,2.812,14.471,2,12.971,2C11.409,2,11,2.75,11,4.25L11,5L7,5L7,4.25C7,2.75,6.532,2,4.971,2ZM18,4C19.1045696,4,20,3.10456955,20,2C20,0.895430446,19.1045696,0,18,0C16.8954304,0,16,0.895430446,16,2C16,3.10456955,16.8954304,4,18,4Z"/>
</svg>
