<svg
xmlns="http://www.w3.org/2000/svg"
xmlns:xlink="http://www.w3.org/1999/xlink"
width="24px" height="144px">
    <g id="Regular-Expression" transform="translate(5.000000, 6.000000)">
        <path d="M0,9.5 C0,9.0643543 0.14141273,8.705447 0.42424242,8.4232673 C0.70707212,8.1410877 1.06565439,8 1.5,8 C1.93434561,8 2.29292788,8.1410877 2.57575758,8.4232673 C2.85858727,8.705447 3,9.0643543 3,9.5 C3,9.9356457 2.85858727,10.294553 2.57575758,10.5767327 C2.29292788,10.8589123 1.93434561,11 1.5,11 C1.06565439,11 0.70707212,10.8589123 0.42424242,10.5767327 C0.14141273,10.294553 0,9.9356457 0,9.5 L0,9.5 Z M8.8665049,6.3759036 L10.2936893,4.0144578 L8,3.00240964 L8.3228155,2.00722892 L10.7524272,2.61445783 L10.9563107,0 L12.0436893,0 L12.2475728,2.59759036 L14.6771845,2.00722892 L15,3.00240964 L12.7063107,4.0144578 L14.1334951,6.3759036 L13.2330097,7 L11.5,4.8578313 L9.7669903,7 L8.8665049,6.3759036 L8.8665049,6.3759036 Z" id=".*" fill="#454545"></path>
        <path d="M0,33.5 C0,33.0643543 0.14141273,32.705447 0.42424242,32.4232673 C0.70707212,32.1410877 1.06565439,32 1.5,32 C1.93434561,32 2.29292788,32.1410877 2.57575758,32.4232673 C2.85858727,32.705447 3,33.0643543 3,33.5 C3,33.9356457 2.85858727,34.294553 2.57575758,34.5767327 C2.29292788,34.8589123 1.93434561,35 1.5,35 C1.06565439,35 0.70707212,34.8589123 0.42424242,34.5767327 C0.14141273,34.294553 0,33.9356457 0,33.5 L0,33.5 Z M8.8665049,30.3759036 L10.2936893,28.0144578 L8,27.0024096 L8.3228155,26.0072289 L10.7524272,26.6144578 L10.9563107,24 L12.0436893,24 L12.2475728,26.5975904 L14.6771845,26.0072289 L15,27.0024096 L12.7063107,28.0144578 L14.1334951,30.3759036 L13.2330097,31 L11.5,28.8578313 L9.7669903,31 L8.8665049,30.3759036 L8.8665049,30.3759036 Z" id=".*" fill="#0083E8"></path>
    </g>
    <g id="Match-Case" transform="translate(3.000000, 55.000000)">
        <path d="M6.512,7.168 L3.024,7.168 L2.208,10 L0.32,10 L3.712,-0.464 L5.888,-0.464 L9.28,10 L7.312,10 L6.512,7.168 L6.512,7.168 Z M6.096,5.712 L5.728,4.432 C5.57866592,3.8773306 5.4240008,3.3066696 5.264,2.72 C5.1039992,2.1333304 4.94933408,1.5520029 4.8,0.976 L4.736,0.976 C4.58666592,1.5626696 4.43466744,2.1466638 4.28,2.728 C4.12533256,3.3093362 3.9680008,3.8773306 3.808,4.432 L3.44,5.712 L6.096,5.712 L6.096,5.712 Z M10.736,7.888 C10.736,7.4506645 10.8373323,7.0640017 11.04,6.728 C11.2426677,6.3919983 11.5626645,6.1066678 12,5.872 C12.4373355,5.6373322 12.9973299,5.4453341 13.68,5.296 C14.3626701,5.1466659 15.1893285,5.0400003 16.16,4.976 C16.1279998,4.5279978 15.9680014,4.1600014 15.68,3.872 C15.3919986,3.5839986 14.9280032,3.44 14.288,3.44 C13.8399978,3.44 13.4000022,3.5226658 12.968,3.688 C12.5359978,3.8533342 12.1173354,4.0479989 11.712,4.272 L11.04,3.04 C11.5200024,2.7626653 12.0693302,2.5120011 12.688,2.288 C13.3066698,2.0639989 13.9519966,1.952 14.624,1.952 C15.7226722,1.952 16.5599971,2.2426638 17.136,2.824 C17.7120029,3.4053362 18,4.2453278 18,5.344 L18,10 L16.496,10 L16.352,9.024 L16.304,9.024 C15.8879979,9.3440016 15.4266692,9.6186655 14.92,9.848 C14.4133308,10.0773345 13.893336,10.192 13.36,10.192 C12.9759981,10.192 12.6240016,10.1360006 12.304,10.024 C11.9839984,9.9119994 11.7066678,9.7546677 11.472,9.552 C11.2373322,9.3493323 11.0560006,9.1066681 10.928,8.824 C10.7999994,8.5413319 10.736,8.229335 10.736,7.888 L10.736,7.888 Z M12.512,7.744 C12.512,8.0960018 12.6479986,8.3519992 12.92,8.512 C13.1920014,8.6720008 13.5253314,8.752 13.92,8.752 C14.3146686,8.752 14.6959982,8.6640009 15.064,8.488 C15.4320018,8.3119991 15.7973315,8.0800014 16.16,7.792 L16.16,6.128 C15.4559965,6.1813336 14.8693357,6.2533329 14.4,6.344 C13.9306643,6.4346671 13.5573347,6.5493326 13.28,6.688 C13.0026653,6.8266674 12.8053339,6.9839991 12.688,7.16 C12.5706661,7.3360009 12.512,7.5306656 12.512,7.744 L12.512,7.744 Z" id="Aa" fill="#454545"></path>
        <path d="M6.512,31.168 L3.024,31.168 L2.208,34 L0.32,34 L3.712,23.536 L5.888,23.536 L9.28,34 L7.312,34 L6.512,31.168 L6.512,31.168 Z M6.096,29.712 L5.728,28.432 C5.57866592,27.8773306 5.4240008,27.3066696 5.264,26.72 C5.1039992,26.1333304 4.94933408,25.5520029 4.8,24.976 L4.736,24.976 C4.58666592,25.5626696 4.43466744,26.1466638 4.28,26.728 C4.12533256,27.3093362 3.9680008,27.8773306 3.808,28.432 L3.44,29.712 L6.096,29.712 L6.096,29.712 Z M10.736,31.888 C10.736,31.4506645 10.8373323,31.0640017 11.04,30.728 C11.2426677,30.3919983 11.5626645,30.1066678 12,29.872 C12.4373355,29.6373322 12.9973299,29.4453341 13.68,29.296 C14.3626701,29.1466659 15.1893285,29.0400003 16.16,28.976 C16.1279998,28.5279978 15.9680014,28.1600014 15.68,27.872 C15.3919986,27.5839986 14.9280032,27.44 14.288,27.44 C13.8399978,27.44 13.4000022,27.5226658 12.968,27.688 C12.5359978,27.8533342 12.1173354,28.0479989 11.712,28.272 L11.04,27.04 C11.5200024,26.7626653 12.0693302,26.5120011 12.688,26.288 C13.3066698,26.0639989 13.9519966,25.952 14.624,25.952 C15.7226722,25.952 16.5599971,26.2426638 17.136,26.824 C17.7120029,27.4053362 18,28.2453278 18,29.344 L18,34 L16.496,34 L16.352,33.024 L16.304,33.024 C15.8879979,33.3440016 15.4266692,33.6186655 14.92,33.848 C14.4133308,34.0773345 13.893336,34.192 13.36,34.192 C12.9759981,34.192 12.6240016,34.1360006 12.304,34.024 C11.9839984,33.9119994 11.7066678,33.7546677 11.472,33.552 C11.2373322,33.3493323 11.0560006,33.1066681 10.928,32.824 C10.7999994,32.5413319 10.736,32.229335 10.736,31.888 L10.736,31.888 Z M12.512,31.744 C12.512,32.0960018 12.6479986,32.3519992 12.92,32.512 C13.1920014,32.6720008 13.5253314,32.752 13.92,32.752 C14.3146686,32.752 14.6959982,32.6640009 15.064,32.488 C15.4320018,32.3119991 15.7973315,32.0800014 16.16,31.792 L16.16,30.128 C15.4559965,30.1813336 14.8693357,30.2533329 14.4,30.344 C13.9306643,30.4346671 13.5573347,30.5493326 13.28,30.688 C13.0026653,30.8266674 12.8053339,30.9839991 12.688,31.16 C12.5706661,31.3360009 12.512,31.5306656 12.512,31.744 L12.512,31.744 Z" id="Aa" fill="#0083E8"></path>
    </g>
    <g id="Whole-Word" transform="translate(3.000000, 102.000000)">
        <path d="M3,1.34152334 C2.50234493,1.61670899 2.12441444,1.94922 1.86619718,2.33906634 C1.60797993,2.72891268 1.46009408,3.19901445 1.42253521,3.74938575 C1.51643239,3.71498754 1.61502296,3.6977887 1.71830986,3.6977887 C2.09389859,3.6977887 2.40140725,3.83824593 2.64084507,4.11916462 C2.88028289,4.4000833 3,4.78132437 3,5.26289926 C3,5.79033843 2.8732407,6.21171014 2.61971831,6.52702703 C2.36619592,6.84234392 2.04225549,7 1.64788732,7 C1.1220631,7 0.715963873,6.75921617 0.429577465,6.27764128 C0.143191056,5.79606639 0,5.11957848 0,4.24815725 C0,3.30793961 0.20422331,2.47952856 0.612676056,1.76289926 C1.0211288,1.04626996 1.63849352,0.458642752 2.46478873,0 L3,1.34152334 Z M7,1.34152334 C6.50234493,1.61670899 6.12441444,1.94922 5.86619718,2.33906634 C5.60797993,2.72891268 5.46009408,3.19901445 5.42253521,3.74938575 C5.51643239,3.71498754 5.61502296,3.6977887 5.71830986,3.6977887 C6.09389859,3.6977887 6.40140725,3.83824593 6.64084507,4.11916462 C6.88028289,4.4000833 7,4.78132437 7,5.26289926 C7,5.79033843 6.8732407,6.21171014 6.61971831,6.52702703 C6.36619592,6.84234392 6.04225549,7 5.64788732,7 C5.1220631,7 4.71596387,6.75921617 4.42957746,6.27764128 C4.14319106,5.79606639 4,5.11957848 4,4.24815725 C4,3.30793961 4.20422331,2.47952856 4.61267606,1.76289926 C5.0211288,1.04626996 5.63849352,0.458642752 6.46478873,0 L7,1.34152334 Z M11,5.65847666 C11.9859204,5.11957143 12.5117368,4.3226916 12.5774648,3.26781327 C12.4741779,3.30221147 12.3802821,3.31941032 12.2957746,3.31941032 C11.9107962,3.31941032 11.5985927,3.17608661 11.3591549,2.88943489 C11.1197171,2.60278317 11,2.21867563 11,1.73710074 C11,1.20966157 11.1267593,0.788289865 11.3802817,0.472972973 C11.6338041,0.157656081 11.9577445,0 12.3521127,0 C12.8873266,0 13.2957732,0.243650307 13.5774648,0.730958231 C13.8591563,1.21826615 14,1.89188759 14,2.75184275 C14,3.69206039 13.7981241,4.52047144 13.3943662,5.23710074 C12.9906083,5.95373004 12.375591,6.54135725 11.5492958,7 L11,5.65847666 Z M15,5.65847666 C15.9859204,5.11957143 16.5117368,4.3226916 16.5774648,3.26781327 C16.4741779,3.30221147 16.3802821,3.31941032 16.2957746,3.31941032 C15.9107962,3.31941032 15.5985927,3.17608661 15.3591549,2.88943489 C15.1197171,2.60278317 15,2.21867563 15,1.73710074 C15,1.20966157 15.1267593,0.788289865 15.3802817,0.472972973 C15.6338041,0.157656081 15.9577445,0 16.3521127,0 C16.8873266,0 17.2957732,0.243650307 17.5774648,0.730958231 C17.8591563,1.21826615 18,1.89188759 18,2.75184275 C18,3.69206039 17.7981241,4.52047144 17.3943662,5.23710074 C16.9906083,5.95373004 16.375591,6.54135725 15.5492958,7 L15,5.65847666 Z" id="Path" fill="#454545"></path>
        <path d="M3,25.3415233 C2.50234493,25.616709 2.12441444,25.94922 1.86619718,26.3390663 C1.60797993,26.7289127 1.46009408,27.1990144 1.42253521,27.7493857 C1.51643239,27.7149875 1.61502296,27.6977887 1.71830986,27.6977887 C2.09389859,27.6977887 2.40140725,27.8382459 2.64084507,28.1191646 C2.88028289,28.4000833 3,28.7813244 3,29.2628993 C3,29.7903384 2.8732407,30.2117101 2.61971831,30.527027 C2.36619592,30.8423439 2.04225549,31 1.64788732,31 C1.1220631,31 0.715963873,30.7592162 0.429577465,30.2776413 C0.143191056,29.7960664 0,29.1195785 0,28.2481572 C0,27.3079396 0.20422331,26.4795286 0.612676056,25.7628993 C1.0211288,25.04627 1.63849352,24.4586428 2.46478873,24 L3,25.3415233 Z M7,25.3415233 C6.50234493,25.616709 6.12441444,25.94922 5.86619718,26.3390663 C5.60797993,26.7289127 5.46009408,27.1990144 5.42253521,27.7493857 C5.51643239,27.7149875 5.61502296,27.6977887 5.71830986,27.6977887 C6.09389859,27.6977887 6.40140725,27.8382459 6.64084507,28.1191646 C6.88028289,28.4000833 7,28.7813244 7,29.2628993 C7,29.7903384 6.8732407,30.2117101 6.61971831,30.527027 C6.36619592,30.8423439 6.04225549,31 5.64788732,31 C5.1220631,31 4.71596387,30.7592162 4.42957746,30.2776413 C4.14319106,29.7960664 4,29.1195785 4,28.2481572 C4,27.3079396 4.20422331,26.4795286 4.61267606,25.7628993 C5.0211288,25.04627 5.63849352,24.4586428 6.46478873,24 L7,25.3415233 Z M11,29.6584767 C11.9859204,29.1195714 12.5117368,28.3226916 12.5774648,27.2678133 C12.4741779,27.3022115 12.3802821,27.3194103 12.2957746,27.3194103 C11.9107962,27.3194103 11.5985927,27.1760866 11.3591549,26.8894349 C11.1197171,26.6027832 11,26.2186756 11,25.7371007 C11,25.2096616 11.1267593,24.7882899 11.3802817,24.472973 C11.6338041,24.1576561 11.9577445,24 12.3521127,24 C12.8873266,24 13.2957732,24.2436503 13.5774648,24.7309582 C13.8591563,25.2182662 14,25.8918876 14,26.7518428 C14,27.6920604 13.7981241,28.5204714 13.3943662,29.2371007 C12.9906083,29.95373 12.375591,30.5413572 11.5492958,31 L11,29.6584767 Z M15,29.6584767 C15.9859204,29.1195714 16.5117368,28.3226916 16.5774648,27.2678133 C16.4741779,27.3022115 16.3802821,27.3194103 16.2957746,27.3194103 C15.9107962,27.3194103 15.5985927,27.1760866 15.3591549,26.8894349 C15.1197171,26.6027832 15,26.2186756 15,25.7371007 C15,25.2096616 15.1267593,24.7882899 15.3802817,24.472973 C15.6338041,24.1576561 15.9577445,24 16.3521127,24 C16.8873266,24 17.2957732,24.2436503 17.5774648,24.7309582 C17.8591563,25.2182662 18,25.8918876 18,26.7518428 C18,27.6920604 17.7981241,28.5204714 17.3943662,29.2371007 C16.9906083,29.95373 16.375591,30.5413572 15.5492958,31 L15,29.6584767 Z" id="Path" fill="#0083E8"></path>
    </g>
</svg>
