<svg xmlns="http://www.w3.org/2000/svg" xmlns:xlink="http://www.w3.org/1999/xlink" width="24" height="144">
    <defs>
        <path id=".*" d="M5 15.5C5 15.06 5.14 14.71 5.42 14.42C5.71 14.14 6.07 14 6.5 14C6.93 14 7.29 14.14 7.58 14.42C7.86 14.71 8 15.06 8 15.5C8 15.94 7.86 16.29 7.58 16.58C7.29 16.86 6.93 17 6.5 17C6.07 17 5.71 16.86 5.42 16.58C5.14 16.29 5 15.94 5 15.5M13.87 12.38L15.29 10.01L13 9L13.32 8.01L15.75 8.61L15.96 6L17.04 6L17.25 8.6L19.68 8.01L20 9L17.71 10.01L19.13 12.38L18.23 13L16.5 10.86L14.77 13L13.87 12.38"/>
        <path id="Aa" d="M9.51 62.17L6.02 62.17L5.21 65L3.32 65L6.71 54.54L8.89 54.54L12.28 65L10.31 65L9.51 62.17M9.1 60.71L8.73 59.43C8.58 58.88 8.42 58.31 8.26 57.72C8.1 57.13 7.95 56.55 7.8 55.98L7.74 55.98C7.59 56.56 7.43 57.15 7.28 57.73C7.13 58.31 6.97 58.88 6.81 59.43L6.44 60.71L9.1 60.71M13.74 62.89C13.74 62.45 13.84 62.06 14.04 61.73C14.24 61.39 14.56 61.11 15 60.87C15.44 60.64 16 60.45 16.68 60.3C17.36 60.15 18.19 60.04 19.16 59.98C19.13 59.53 18.97 59.16 18.68 58.87C18.39 58.58 17.93 58.44 17.29 58.44C16.84 58.44 16.4 58.52 15.97 58.69C15.54 58.85 15.12 59.05 14.71 59.27L14.04 58.04C14.52 57.76 15.07 57.51 15.69 57.29C16.31 57.06 16.95 56.95 17.62 56.95C18.72 56.95 19.56 57.24 20.14 57.82C20.71 58.41 21 59.25 21 60.34L21 65L19.5 65L19.35 64.02L19.3 64.02C18.89 64.34 18.43 64.62 17.92 64.85C17.41 65.08 16.89 65.19 16.36 65.19C15.98 65.19 15.62 65.14 15.3 65.02C14.98 64.91 14.71 64.75 14.47 64.55C14.24 64.35 14.06 64.11 13.93 63.82C13.8 63.54 13.74 63.23 13.74 62.89M15.51 62.74C15.51 63.1 15.65 63.35 15.92 63.51C16.19 63.67 16.53 63.75 16.92 63.75C17.31 63.75 17.7 63.66 18.06 63.49C18.43 63.31 18.8 63.08 19.16 62.79L19.16 61.13C18.46 61.18 17.87 61.25 17.4 61.34C16.93 61.43 16.56 61.55 16.28 61.69C16 61.83 15.81 61.98 15.69 62.16C15.57 62.34 15.51 62.53 15.51 62.74"/>
        <path id="“”" transform="translate(3 102)" d="M3 1.34C2.50 1.62 2.12 1.95 1.87 2.34C1.61 2.73 1.46 3.2 1.42 3.75C1.52 3.71 1.62 3.7 1.72 3.7C2.09 3.7 2.40 3.84 2.64 4.12C2.88 4.40 3 4.78 3 5.26C3 5.79 2.87 6.21 2.62 6.53C2.37 6.84 2.04 7 1.65 7C1.12 7 0.72 6.76 0.43 6.28C0.14 5.8 0 5.12 0 4.25C0 3.31 0.20 2.48 0.61 1.76C1.02 1.05 1.64 0.46 2.46 0L3 1.34ZM7 1.34C6.50 1.62 6.12 1.95 5.87 2.34C5.61 2.73 5.46 3.2 5.42 3.75C5.52 3.71 5.62 3.7 5.72 3.7C6.09 3.7 6.40 3.84 6.64 4.12C6.88 4.40 7 4.78 7 5.26C7 5.79 6.87 6.21 6.62 6.53C6.37 6.84 6.04 7 5.65 7C5.12 7 4.72 6.76 4.43 6.28C4.14 5.8 4 5.12 4 4.25C4 3.31 4.20 2.48 4.61 1.76C5.02 1.05 5.64 0.46 6.46 0L7 1.34ZM11 5.66C11.99 5.12 12.51 4.32 12.58 3.27C12.47 3.30 12.38 3.32 12.3 3.32C11.91 3.32 11.6 3.18 11.36 2.89C11.12 2.60 11 2.22 11 1.74C11 1.21 11.13 0.79 11.38 0.47C11.63 0.16 11.96 0 12.35 0C12.89 0 13.3 0.24 13.58 0.73C13.86 1.22 14 1.89 14 2.75C14 3.69 13.8 4.52 13.39 5.24C12.99 5.95 12.38 6.54 11.55 7L11 5.66ZM15 5.66C15.99 5.12 16.51 4.32 16.58 3.27C16.47 3.30 16.38 3.32 16.3 3.32C15.91 3.32 15.6 3.18 15.36 2.89C15.12 2.60 15 2.22 15 1.74C15 1.21 15.13 0.79 15.38 0.47C15.63 0.16 15.96 0 16.35 0C16.89 0 17.3 0.24 17.58 0.73C17.86 1.22 18 1.89 18 2.75C18 3.69 17.8 4.52 17.39 5.24C16.99 5.95 16.38 6.54 15.55 7L15 5.66Z"/>
    </defs>
    <use xlink:href="#.*" fill="#454545"/>
    <use xlink:href="#.*" fill="#0083e8" transform="translate(0 24)"/>
    <use xlink:href="#Aa" fill="#454545"/>
    <use xlink:href="#Aa" fill="#0083e8" transform="translate(0 24)"/>
    <use xlink:href="#“”" fill="#454545"/>
    <use xlink:href="#“”" fill="#0083e8" transform="translate(0 24)"/>
</svg>
