<svg
xmlns="http://www.w3.org/2000/svg"
xmlns:xlink="http://www.w3.org/1999/xlink"
width="24px" height="96px">
    <g stroke="none" stroke-width="1" fill="none" fill-rule="evenodd">
        <path d="M5,15.5 C5,15.0643543 5.14141273,14.705447 5.42424242,14.4232673 C5.70707212,14.1410877 6.06565439,14 6.5,14 C6.93434561,14 7.29292788,14.1410877 7.57575758,14.4232673 C7.85858727,14.705447 8,15.0643543 8,15.5 C8,15.9356457 7.85858727,16.294553 7.57575758,16.5767327 C7.29292788,16.8589123 6.93434561,17 6.5,17 C6.06565439,17 5.70707212,16.8589123 5.42424242,16.5767327 C5.14141273,16.294553 5,15.9356457 5,15.5 Z M13.8665049,12.3759036 L15.2936893,10.0144578 L13,9.00240964 L13.3228155,8.00722892 L15.7524272,8.61445783 L15.9563107,6 L17.0436893,6 L17.2475728,8.59759036 L19.6771845,8.00722892 L20,9.00240964 L17.7063107,10.0144578 L19.1334951,12.3759036 L18.2330097,13 L16.5,10.8578313 L14.7669903,13 L13.8665049,12.3759036 Z" id=".*" fill="#dddddd"></path>
        <path d="M5,39.5 C5,39.0643543 5.14141273,38.705447 5.42424242,38.4232673 C5.70707212,38.1410877 6.06565439,38 6.5,38 C6.93434561,38 7.29292788,38.1410877 7.57575758,38.4232673 C7.85858727,38.705447 8,39.0643543 8,39.5 C8,39.9356457 7.85858727,40.294553 7.57575758,40.5767327 C7.29292788,40.8589123 6.93434561,41 6.5,41 C6.06565439,41 5.70707212,40.8589123 5.42424242,40.5767327 C5.14141273,40.294553 5,39.9356457 5,39.5 Z M13.8665049,36.3759036 L15.2936893,34.0144578 L13,33.0024096 L13.3228155,32.0072289 L15.7524272,32.6144578 L15.9563107,30 L17.0436893,30 L17.2475728,32.5975904 L19.6771845,32.0072289 L20,33.0024096 L17.7063107,34.0144578 L19.1334951,36.3759036 L18.2330097,37 L16.5,34.8578313 L14.7669903,37 L13.8665049,36.3759036 Z" id=".*-copy" fill="#ffffff"></path>
        <path d="M9.512,62.168 L6.024,62.168 L5.208,65 L3.32,65 L6.712,54.536 L8.888,54.536 L12.28,65 L10.312,65 L9.512,62.168 Z M9.096,60.712 L8.728,59.432 C8.57866592,58.8773306 8.4240008,58.3066696 8.264,57.72 C8.1039992,57.1333304 7.94933408,56.5520029 7.8,55.976 L7.736,55.976 C7.58666592,56.5626696 7.43466744,57.1466638 7.28,57.728 C7.12533256,58.3093362 6.9680008,58.8773306 6.808,59.432 L6.44,60.712 L9.096,60.712 Z M13.736,62.888 C13.736,62.4506645 13.8373323,62.0640017 14.04,61.728 C14.2426677,61.3919983 14.5626645,61.1066678 15,60.872 C15.4373355,60.6373322 15.9973299,60.4453341 16.68,60.296 C17.3626701,60.1466659 18.1893285,60.0400003 19.16,59.976 C19.1279998,59.5279978 18.9680014,59.1600014 18.68,58.872 C18.3919986,58.5839986 17.9280032,58.44 17.288,58.44 C16.8399978,58.44 16.4000022,58.5226658 15.968,58.688 C15.5359978,58.8533342 15.1173354,59.0479989 14.712,59.272 L14.04,58.04 C14.5200024,57.7626653 15.0693302,57.5120011 15.688,57.288 C16.3066698,57.0639989 16.9519966,56.952 17.624,56.952 C18.7226722,56.952 19.5599971,57.2426638 20.136,57.824 C20.7120029,58.4053362 21,59.2453278 21,60.344 L21,65 L19.496,65 L19.352,64.024 L19.304,64.024 C18.8879979,64.3440016 18.4266692,64.6186655 17.92,64.848 C17.4133308,65.0773345 16.893336,65.192 16.36,65.192 C15.9759981,65.192 15.6240016,65.1360006 15.304,65.024 C14.9839984,64.9119994 14.7066678,64.7546677 14.472,64.552 C14.2373322,64.3493323 14.0560006,64.1066681 13.928,63.824 C13.7999994,63.5413319 13.736,63.229335 13.736,62.888 Z M15.512,62.744 C15.512,63.0960018 15.6479986,63.3519992 15.92,63.512 C16.1920014,63.6720008 16.5253314,63.752 16.92,63.752 C17.3146686,63.752 17.6959982,63.6640009 18.064,63.488 C18.4320018,63.3119991 18.7973315,63.0800014 19.16,62.792 L19.16,61.128 C18.4559965,61.1813336 17.8693357,61.2533329 17.4,61.344 C16.9306643,61.4346671 16.5573347,61.5493326 16.28,61.688 C16.0026653,61.8266674 15.8053339,61.9839991 15.688,62.16 C15.5706661,62.3360009 15.512,62.5306656 15.512,62.744 Z" id="Aa" fill="#dddddd"></path>
        <path d="M9.512,86.168 L6.024,86.168 L5.208,89 L3.32,89 L6.712,78.536 L8.888,78.536 L12.28,89 L10.312,89 L9.512,86.168 Z M9.096,84.712 L8.728,83.432 C8.57866592,82.8773306 8.4240008,82.3066696 8.264,81.72 C8.1039992,81.1333304 7.94933408,80.5520029 7.8,79.976 L7.736,79.976 C7.58666592,80.5626696 7.43466744,81.1466638 7.28,81.728 C7.12533256,82.3093362 6.9680008,82.8773306 6.808,83.432 L6.44,84.712 L9.096,84.712 Z M13.736,86.888 C13.736,86.4506645 13.8373323,86.0640017 14.04,85.728 C14.2426677,85.3919983 14.5626645,85.1066678 15,84.872 C15.4373355,84.6373322 15.9973299,84.4453341 16.68,84.296 C17.3626701,84.1466659 18.1893285,84.0400003 19.16,83.976 C19.1279998,83.5279978 18.9680014,83.1600014 18.68,82.872 C18.3919986,82.5839986 17.9280032,82.44 17.288,82.44 C16.8399978,82.44 16.4000022,82.5226658 15.968,82.688 C15.5359978,82.8533342 15.1173354,83.0479989 14.712,83.272 L14.04,82.04 C14.5200024,81.7626653 15.0693302,81.5120011 15.688,81.288 C16.3066698,81.0639989 16.9519966,80.952 17.624,80.952 C18.7226722,80.952 19.5599971,81.2426638 20.136,81.824 C20.7120029,82.4053362 21,83.2453278 21,84.344 L21,89 L19.496,89 L19.352,88.024 L19.304,88.024 C18.8879979,88.3440016 18.4266692,88.6186655 17.92,88.848 C17.4133308,89.0773345 16.893336,89.192 16.36,89.192 C15.9759981,89.192 15.6240016,89.1360006 15.304,89.024 C14.9839984,88.9119994 14.7066678,88.7546677 14.472,88.552 C14.2373322,88.3493323 14.0560006,88.1066681 13.928,87.824 C13.7999994,87.5413319 13.736,87.229335 13.736,86.888 Z M15.512,86.744 C15.512,87.0960018 15.6479986,87.3519992 15.92,87.512 C16.1920014,87.6720008 16.5253314,87.752 16.92,87.752 C17.3146686,87.752 17.6959982,87.6640009 18.064,87.488 C18.4320018,87.3119991 18.7973315,87.0800014 19.16,86.792 L19.16,85.128 C18.4559965,85.1813336 17.8693357,85.2533329 17.4,85.344 C16.9306643,85.4346671 16.5573347,85.5493326 16.28,85.688 C16.0026653,85.8266674 15.8053339,85.9839991 15.688,86.16 C15.5706661,86.3360009 15.512,86.5306656 15.512,86.744 Z" id="Aa-copy" fill="#ffffff"></path>
    </g>
</svg>
