<svg
xmlns="http://www.w3.org/2000/svg"
xmlns:xlink="http://www.w3.org/1999/xlink"
width="24px" height="144px">
    <g stroke="none" stroke-width="1" fill="none" fill-rule="evenodd">
        <path d="M5,15.5 C5,15.0643543 5.14141273,14.705447 5.42424242,14.4232673 C5.70707212,14.1410877 6.06565439,14 6.5,14 C6.93434561,14 7.29292788,14.1410877 7.57575758,14.4232673 C7.85858727,14.705447 8,15.0643543 8,15.5 C8,15.9356457 7.85858727,16.294553 7.57575758,16.5767327 C7.29292788,16.8589123 6.93434561,17 6.5,17 C6.06565439,17 5.70707212,16.8589123 5.42424242,16.5767327 C5.14141273,16.294553 5,15.9356457 5,15.5 Z M13.8665049,12.3759036 L15.2936893,10.0144578 L13,9.00240964 L13.3228155,8.00722892 L15.7524272,8.61445783 L15.9563107,6 L17.0436893,6 L17.2475728,8.59759036 L19.6771845,8.00722892 L20,9.00240964 L17.7063107,10.0144578 L19.1334951,12.3759036 L18.2330097,13 L16.5,10.8578313 L14.7669903,13 L13.8665049,12.3759036 Z" id=".*" fill="#dddddd"></path>
        <path d="M5,39.5 C5,39.0643543 5.14141273,38.705447 5.42424242,38.4232673 C5.70707212,38.1410877 6.06565439,38 6.5,38 C6.93434561,38 7.29292788,38.1410877 7.57575758,38.4232673 C7.85858727,38.705447 8,39.0643543 8,39.5 C8,39.9356457 7.85858727,40.294553 7.57575758,40.5767327 C7.29292788,40.8589123 6.93434561,41 6.5,41 C6.06565439,41 5.70707212,40.8589123 5.42424242,40.5767327 C5.14141273,40.294553 5,39.9356457 5,39.5 Z M13.8665049,36.3759036 L15.2936893,34.0144578 L13,33.0024096 L13.3228155,32.0072289 L15.7524272,32.6144578 L15.9563107,30 L17.0436893,30 L17.2475728,32.5975904 L19.6771845,32.0072289 L20,33.0024096 L17.7063107,34.0144578 L19.1334951,36.3759036 L18.2330097,37 L16.5,34.8578313 L14.7669903,37 L13.8665049,36.3759036 Z" id=".*-copy" fill="#ffffff"></path>
        <path d="M9.512,62.168 L6.024,62.168 L5.208,65 L3.32,65 L6.712,54.536 L8.888,54.536 L12.28,65 L10.312,65 L9.512,62.168 Z M9.096,60.712 L8.728,59.432 C8.57866592,58.8773306 8.4240008,58.3066696 8.264,57.72 C8.1039992,57.1333304 7.94933408,56.5520029 7.8,55.976 L7.736,55.976 C7.58666592,56.5626696 7.43466744,57.1466638 7.28,57.728 C7.12533256,58.3093362 6.9680008,58.8773306 6.808,59.432 L6.44,60.712 L9.096,60.712 Z M13.736,62.888 C13.736,62.4506645 13.8373323,62.0640017 14.04,61.728 C14.2426677,61.3919983 14.5626645,61.1066678 15,60.872 C15.4373355,60.6373322 15.9973299,60.4453341 16.68,60.296 C17.3626701,60.1466659 18.1893285,60.0400003 19.16,59.976 C19.1279998,59.5279978 18.9680014,59.1600014 18.68,58.872 C18.3919986,58.5839986 17.9280032,58.44 17.288,58.44 C16.8399978,58.44 16.4000022,58.5226658 15.968,58.688 C15.5359978,58.8533342 15.1173354,59.0479989 14.712,59.272 L14.04,58.04 C14.5200024,57.7626653 15.0693302,57.5120011 15.688,57.288 C16.3066698,57.0639989 16.9519966,56.952 17.624,56.952 C18.7226722,56.952 19.5599971,57.2426638 20.136,57.824 C20.7120029,58.4053362 21,59.2453278 21,60.344 L21,65 L19.496,65 L19.352,64.024 L19.304,64.024 C18.8879979,64.3440016 18.4266692,64.6186655 17.92,64.848 C17.4133308,65.0773345 16.893336,65.192 16.36,65.192 C15.9759981,65.192 15.6240016,65.1360006 15.304,65.024 C14.9839984,64.9119994 14.7066678,64.7546677 14.472,64.552 C14.2373322,64.3493323 14.0560006,64.1066681 13.928,63.824 C13.7999994,63.5413319 13.736,63.229335 13.736,62.888 Z M15.512,62.744 C15.512,63.0960018 15.6479986,63.3519992 15.92,63.512 C16.1920014,63.6720008 16.5253314,63.752 16.92,63.752 C17.3146686,63.752 17.6959982,63.6640009 18.064,63.488 C18.4320018,63.3119991 18.7973315,63.0800014 19.16,62.792 L19.16,61.128 C18.4559965,61.1813336 17.8693357,61.2533329 17.4,61.344 C16.9306643,61.4346671 16.5573347,61.5493326 16.28,61.688 C16.0026653,61.8266674 15.8053339,61.9839991 15.688,62.16 C15.5706661,62.3360009 15.512,62.5306656 15.512,62.744 Z" id="Aa" fill="#dddddd"></path>
        <path d="M9.512,86.168 L6.024,86.168 L5.208,89 L3.32,89 L6.712,78.536 L8.888,78.536 L12.28,89 L10.312,89 L9.512,86.168 Z M9.096,84.712 L8.728,83.432 C8.57866592,82.8773306 8.4240008,82.3066696 8.264,81.72 C8.1039992,81.1333304 7.94933408,80.5520029 7.8,79.976 L7.736,79.976 C7.58666592,80.5626696 7.43466744,81.1466638 7.28,81.728 C7.12533256,82.3093362 6.9680008,82.8773306 6.808,83.432 L6.44,84.712 L9.096,84.712 Z M13.736,86.888 C13.736,86.4506645 13.8373323,86.0640017 14.04,85.728 C14.2426677,85.3919983 14.5626645,85.1066678 15,84.872 C15.4373355,84.6373322 15.9973299,84.4453341 16.68,84.296 C17.3626701,84.1466659 18.1893285,84.0400003 19.16,83.976 C19.1279998,83.5279978 18.9680014,83.1600014 18.68,82.872 C18.3919986,82.5839986 17.9280032,82.44 17.288,82.44 C16.8399978,82.44 16.4000022,82.5226658 15.968,82.688 C15.5359978,82.8533342 15.1173354,83.0479989 14.712,83.272 L14.04,82.04 C14.5200024,81.7626653 15.0693302,81.5120011 15.688,81.288 C16.3066698,81.0639989 16.9519966,80.952 17.624,80.952 C18.7226722,80.952 19.5599971,81.2426638 20.136,81.824 C20.7120029,82.4053362 21,83.2453278 21,84.344 L21,89 L19.496,89 L19.352,88.024 L19.304,88.024 C18.8879979,88.3440016 18.4266692,88.6186655 17.92,88.848 C17.4133308,89.0773345 16.893336,89.192 16.36,89.192 C15.9759981,89.192 15.6240016,89.1360006 15.304,89.024 C14.9839984,88.9119994 14.7066678,88.7546677 14.472,88.552 C14.2373322,88.3493323 14.0560006,88.1066681 13.928,87.824 C13.7999994,87.5413319 13.736,87.229335 13.736,86.888 Z M15.512,86.744 C15.512,87.0960018 15.6479986,87.3519992 15.92,87.512 C16.1920014,87.6720008 16.5253314,87.752 16.92,87.752 C17.3146686,87.752 17.6959982,87.6640009 18.064,87.488 C18.4320018,87.3119991 18.7973315,87.0800014 19.16,86.792 L19.16,85.128 C18.4559965,85.1813336 17.8693357,85.2533329 17.4,85.344 C16.9306643,85.4346671 16.5573347,85.5493326 16.28,85.688 C16.0026653,85.8266674 15.8053339,85.9839991 15.688,86.16 C15.5706661,86.3360009 15.512,86.5306656 15.512,86.744 Z" id="Aa-copy" fill="#ffffff"></path>
    </g>
    <g id="Whole-Word" transform="translate(3.000000, 102.000000)">
        <path d="M3,1.34152334 C2.50234493,1.61670899 2.12441444,1.94922 1.86619718,2.33906634 C1.60797993,2.72891268 1.46009408,3.19901445 1.42253521,3.74938575 C1.51643239,3.71498754 1.61502296,3.6977887 1.71830986,3.6977887 C2.09389859,3.6977887 2.40140725,3.83824593 2.64084507,4.11916462 C2.88028289,4.4000833 3,4.78132437 3,5.26289926 C3,5.79033843 2.8732407,6.21171014 2.61971831,6.52702703 C2.36619592,6.84234392 2.04225549,7 1.64788732,7 C1.1220631,7 0.715963873,6.75921617 0.429577465,6.27764128 C0.143191056,5.79606639 0,5.11957848 0,4.24815725 C0,3.30793961 0.20422331,2.47952856 0.612676056,1.76289926 C1.0211288,1.04626996 1.63849352,0.458642752 2.46478873,0 L3,1.34152334 Z M7,1.34152334 C6.50234493,1.61670899 6.12441444,1.94922 5.86619718,2.33906634 C5.60797993,2.72891268 5.46009408,3.19901445 5.42253521,3.74938575 C5.51643239,3.71498754 5.61502296,3.6977887 5.71830986,3.6977887 C6.09389859,3.6977887 6.40140725,3.83824593 6.64084507,4.11916462 C6.88028289,4.4000833 7,4.78132437 7,5.26289926 C7,5.79033843 6.8732407,6.21171014 6.61971831,6.52702703 C6.36619592,6.84234392 6.04225549,7 5.64788732,7 C5.1220631,7 4.71596387,6.75921617 4.42957746,6.27764128 C4.14319106,5.79606639 4,5.11957848 4,4.24815725 C4,3.30793961 4.20422331,2.47952856 4.61267606,1.76289926 C5.0211288,1.04626996 5.63849352,0.458642752 6.46478873,0 L7,1.34152334 Z M11,5.65847666 C11.9859204,5.11957143 12.5117368,4.3226916 12.5774648,3.26781327 C12.4741779,3.30221147 12.3802821,3.31941032 12.2957746,3.31941032 C11.9107962,3.31941032 11.5985927,3.17608661 11.3591549,2.88943489 C11.1197171,2.60278317 11,2.21867563 11,1.73710074 C11,1.20966157 11.1267593,0.788289865 11.3802817,0.472972973 C11.6338041,0.157656081 11.9577445,0 12.3521127,0 C12.8873266,0 13.2957732,0.243650307 13.5774648,0.730958231 C13.8591563,1.21826615 14,1.89188759 14,2.75184275 C14,3.69206039 13.7981241,4.52047144 13.3943662,5.23710074 C12.9906083,5.95373004 12.375591,6.54135725 11.5492958,7 L11,5.65847666 Z M15,5.65847666 C15.9859204,5.11957143 16.5117368,4.3226916 16.5774648,3.26781327 C16.4741779,3.30221147 16.3802821,3.31941032 16.2957746,3.31941032 C15.9107962,3.31941032 15.5985927,3.17608661 15.3591549,2.88943489 C15.1197171,2.60278317 15,2.21867563 15,1.73710074 C15,1.20966157 15.1267593,0.788289865 15.3802817,0.472972973 C15.6338041,0.157656081 15.9577445,0 16.3521127,0 C16.8873266,0 17.2957732,0.243650307 17.5774648,0.730958231 C17.8591563,1.21826615 18,1.89188759 18,2.75184275 C18,3.69206039 17.7981241,4.52047144 17.3943662,5.23710074 C16.9906083,5.95373004 16.375591,6.54135725 15.5492958,7 L15,5.65847666 Z" id="Path" fill="#dddddd"></path>
        <path d="M3,25.3415233 C2.50234493,25.616709 2.12441444,25.94922 1.86619718,26.3390663 C1.60797993,26.7289127 1.46009408,27.1990144 1.42253521,27.7493857 C1.51643239,27.7149875 1.61502296,27.6977887 1.71830986,27.6977887 C2.09389859,27.6977887 2.40140725,27.8382459 2.64084507,28.1191646 C2.88028289,28.4000833 3,28.7813244 3,29.2628993 C3,29.7903384 2.8732407,30.2117101 2.61971831,30.527027 C2.36619592,30.8423439 2.04225549,31 1.64788732,31 C1.1220631,31 0.715963873,30.7592162 0.429577465,30.2776413 C0.143191056,29.7960664 0,29.1195785 0,28.2481572 C0,27.3079396 0.20422331,26.4795286 0.612676056,25.7628993 C1.0211288,25.04627 1.63849352,24.4586428 2.46478873,24 L3,25.3415233 Z M7,25.3415233 C6.50234493,25.616709 6.12441444,25.94922 5.86619718,26.3390663 C5.60797993,26.7289127 5.46009408,27.1990144 5.42253521,27.7493857 C5.51643239,27.7149875 5.61502296,27.6977887 5.71830986,27.6977887 C6.09389859,27.6977887 6.40140725,27.8382459 6.64084507,28.1191646 C6.88028289,28.4000833 7,28.7813244 7,29.2628993 C7,29.7903384 6.8732407,30.2117101 6.61971831,30.527027 C6.36619592,30.8423439 6.04225549,31 5.64788732,31 C5.1220631,31 4.71596387,30.7592162 4.42957746,30.2776413 C4.14319106,29.7960664 4,29.1195785 4,28.2481572 C4,27.3079396 4.20422331,26.4795286 4.61267606,25.7628993 C5.0211288,25.04627 5.63849352,24.4586428 6.46478873,24 L7,25.3415233 Z M11,29.6584767 C11.9859204,29.1195714 12.5117368,28.3226916 12.5774648,27.2678133 C12.4741779,27.3022115 12.3802821,27.3194103 12.2957746,27.3194103 C11.9107962,27.3194103 11.5985927,27.1760866 11.3591549,26.8894349 C11.1197171,26.6027832 11,26.2186756 11,25.7371007 C11,25.2096616 11.1267593,24.7882899 11.3802817,24.472973 C11.6338041,24.1576561 11.9577445,24 12.3521127,24 C12.8873266,24 13.2957732,24.2436503 13.5774648,24.7309582 C13.8591563,25.2182662 14,25.8918876 14,26.7518428 C14,27.6920604 13.7981241,28.5204714 13.3943662,29.2371007 C12.9906083,29.95373 12.375591,30.5413572 11.5492958,31 L11,29.6584767 Z M15,29.6584767 C15.9859204,29.1195714 16.5117368,28.3226916 16.5774648,27.2678133 C16.4741779,27.3022115 16.3802821,27.3194103 16.2957746,27.3194103 C15.9107962,27.3194103 15.5985927,27.1760866 15.3591549,26.8894349 C15.1197171,26.6027832 15,26.2186756 15,25.7371007 C15,25.2096616 15.1267593,24.7882899 15.3802817,24.472973 C15.6338041,24.1576561 15.9577445,24 16.3521127,24 C16.8873266,24 17.2957732,24.2436503 17.5774648,24.7309582 C17.8591563,25.2182662 18,25.8918876 18,26.7518428 C18,27.6920604 17.7981241,28.5204714 17.3943662,29.2371007 C16.9906083,29.95373 16.375591,30.5413572 15.5492958,31 L15,29.6584767 Z" id="Path" fill="#ffffff"></path>
    </g>
</svg>
