<svg xmlns="http://www.w3.org/2000/svg" xmlns:xlink="http://www.w3.org/1999/xlink" width="24" height="96">
    <defs>
        <path id=".*" d="M5 15.5C5 15.06 5.14 14.71 5.42 14.42C5.71 14.14 6.07 14 6.5 14C6.93 14 7.29 14.14 7.58 14.42C7.86 14.71 8 15.06 8 15.5C8 15.94 7.86 16.29 7.58 16.58C7.29 16.86 6.93 17 6.5 17C6.07 17 5.71 16.86 5.42 16.58C5.14 16.29 5 15.94 5 15.5M13.87 12.38L15.29 10.01L13 9L13.32 8.01L15.75 8.61L15.96 6L17.04 6L17.25 8.6L19.68 8.01L20 9L17.71 10.01L19.13 12.38L18.23 13L16.5 10.86L14.77 13L13.87 12.38"/>
        <path id="Aa" d="M9.51 62.17L6.02 62.17L5.21 65L3.32 65L6.71 54.54L8.89 54.54L12.28 65L10.31 65L9.51 62.17M9.1 60.71L8.73 59.43C8.58 58.88 8.42 58.31 8.26 57.72C8.1 57.13 7.95 56.55 7.8 55.98L7.74 55.98C7.59 56.56 7.43 57.15 7.28 57.73C7.13 58.31 6.97 58.88 6.81 59.43L6.44 60.71L9.1 60.71M13.74 62.89C13.74 62.45 13.84 62.06 14.04 61.73C14.24 61.39 14.56 61.11 15 60.87C15.44 60.64 16 60.45 16.68 60.3C17.36 60.15 18.19 60.04 19.16 59.98C19.13 59.53 18.97 59.16 18.68 58.87C18.39 58.58 17.93 58.44 17.29 58.44C16.84 58.44 16.4 58.52 15.97 58.69C15.54 58.85 15.12 59.05 14.71 59.27L14.04 58.04C14.52 57.76 15.07 57.51 15.69 57.29C16.31 57.06 16.95 56.95 17.62 56.95C18.72 56.95 19.56 57.24 20.14 57.82C20.71 58.41 21 59.25 21 60.34L21 65L19.5 65L19.35 64.02L19.3 64.02C18.89 64.34 18.43 64.62 17.92 64.85C17.41 65.08 16.89 65.19 16.36 65.19C15.98 65.19 15.62 65.14 15.3 65.02C14.98 64.91 14.71 64.75 14.47 64.55C14.24 64.35 14.06 64.11 13.93 63.82C13.8 63.54 13.74 63.23 13.74 62.89M15.51 62.74C15.51 63.1 15.65 63.35 15.92 63.51C16.19 63.67 16.53 63.75 16.92 63.75C17.31 63.75 17.7 63.66 18.06 63.49C18.43 63.31 18.8 63.08 19.16 62.79L19.16 61.13C18.46 61.18 17.87 61.25 17.4 61.34C16.93 61.43 16.56 61.55 16.28 61.69C16 61.83 15.81 61.98 15.69 62.16C15.57 62.34 15.51 62.53 15.51 62.74"/>
    </defs>
    <use xlink:href="#.*" fill="#ddd"/>
    <use xlink:href="#.*" fill="#fff" transform="translate(0 24)"/>
    <use xlink:href="#Aa" fill="#ddd"/>
    <use xlink:href="#Aa" fill="#fff" transform="translate(0 24)"/>
</svg>
