<svg
   xmlns:svg="http://www.w3.org/2000/svg"
   xmlns="http://www.w3.org/2000/svg"
   version="1.1"
   height="65"
   width="13">
  <g
     id="g3383">
    <path
       style="fill:#6c7478;fill-rule:evenodd;stroke:none;stroke-width:1"
       d="m 9.010922,4.6415518 -5,0 2.4921429,-3 2.5078571,3 z"
       id="Fill-3" />
    <path
       style="fill:#6c7478;fill-rule:evenodd;stroke:none;stroke-width:1"
       d="m 6.9916215,2.5793407 -1,0 0,6.4442021 1,0"
       id="Fill-5" />
    <path
       style="fill:#6c7478;fill-rule:evenodd;stroke:none;stroke-width:1"
       id="path12"
       d="m 0.01923122,0.02354276 0,11.00000024 12.99999978,0 0,-11.00000024 -12.99999978,0 z m 0.99999998,1.00000004 0,9.0000002 10.9999998,0 0,-9.0000002 -10.9999998,0 z" />
  </g>
  <g
     id="g3368">
    <path
       style="fill:#6c7478;fill-rule:evenodd;stroke:none;stroke-width:1"
       id="path3397"
       d="m 5.0238171,57.01534 0,5 -2.9999995,-2.492143 2.9999995,-2.507857 z" />
    <path
       style="fill:#6c7478;fill-rule:evenodd;stroke:none;stroke-width:1"
       id="path3399"
       d="m 4.0238171,59.01534 0,1 7.0000009,0 0,-1" />
    <path
       style="fill:#6c7478;fill-rule:evenodd;stroke:none;stroke-width:1"
       d="m 0.01923077,54.01534 0,11 13.00000123,0 0,-11 -13.00000123,0 z m 1.00000003,1 0,9 11.0000012,0 0,-9 -11.0000012,0 z"
       id="path3401" />
  </g>
  <g
     id="g3378">
    <path
       style="fill:#6c7478;fill-rule:evenodd;stroke:none;stroke-width:1"
       d="m 7.923872,21.270134 0,5 3,-2.492143 -3,-2.507857 z"
       id="Fill-3-5" />
    <path
       style="fill:#6c7478;fill-rule:evenodd;stroke:none;stroke-width:1"
       d="m 8.923872,23.270134 0,1 -7,0 0,-1"
       id="Fill-5-9" />
    <path
       id="path12-2"
       d="m 0.03962227,18.029462 0,10.999999 13.00000073,0 0,-10.999999 -13.00000073,0 z m 1.00000003,1 0,8.999999 11.0000007,0 0,-8.999999 -11.0000006,0 z"
       style="fill:#6c7478;fill-rule:evenodd;stroke:none;stroke-width:1" />
  </g>
  <g
     id="g3373">
    <path
       style="fill:#6c7478;fill-rule:evenodd;stroke:none;stroke-width:1"
       d="m 0.03962227,36.033962 0,11.000001 13.00000073,0 0,-11.000001 -13.00000073,0 z m 1.00000003,1 0,9.000001 11.0000007,0 0,-9.000001 -11.0000006,0 z"
       id="path3401-1" />
    <path
       style="fill:#6c7478;fill-rule:evenodd;stroke:none;stroke-width:1"
       d="m 9.0059934,42.385946 -5.0000066,0 2.492143,3 2.5078636,-3 z"
       id="Fill-3-0" />
    <path
       style="fill:#6c7478;fill-rule:evenodd;stroke:none;stroke-width:1"
       d="m 6.9457499,44.448157 -1,0 0,-6.444202 1,0"
       id="Fill-5-6" />
  </g>
</svg>
