<svg xmlns="http://www.w3.org/2000/svg" width="13" height="65" fill="#a0a0a0" fill-rule="evenodd">
    <path d="m9.01 4.64-5 0 2.49-3 2.51 3"/>
    <path d="m6.99 2.58-1 0 0 6.44 1 0"/>
    <path d="m.02 .02 0 11 13 0 0-11-13 0m1 1 0 9 11 0 0-9-11 0"/>

    <path d="m5.02 57.02 0 5-3-2.49 3-2.51"/>
    <path d="m4.02 59.02 0 1 7 0 0-1"/>
    <path d="m.02 54.02 0 11 13 0 0-11-13 0m1 1 0 9 11 0 0-9-11 0"/>

    <path d="m7.92 21.27 0 5 3-2.49-3-2.51"/>
    <path d="m8.92 23.27 0 1-7 0 0-1"/>
    <path d="m.04 18.03 0 11 13 0 0-11-13 0m1 1 0 9 11 0 0-9-11 0"/>

    <path d="m.04 36.03 0 11 13 0 0-11-13 0m1 1 0 9 11 0 0-9-11 0"/>
    <path d="m9.01 42.39-5 0 2.49 3 2.51-3"/>
    <path d="m6.95 44.45-1 0 0-6.44 1 0"/>
</svg>
