<svg xmlns="http://www.w3.org/2000/svg" viewBox="0 0 16 16">
  <defs>
    <style>
      .cls-1 {
        fill: #fff;
      }
    </style>
  </defs>
  <path id="icon-checkmark" class="cls-1" d="M8,16a8,8,0,1,1,8-8A8.009,8.009,0,0,1,8,16ZM3.823,7.833,2.72,9.044l3.071,3.017a1.852,1.852,0,0,0,.919.265,1.463,1.463,0,0,0,1.132-.547c.494-.568,1.131-1.285,1.643-1.861.408-.459.728-.819.77-.873.09-.113,2.462-2.862,2.732-3.175L11.671,4.661c0,.007-.086.1-.222.266C8.679,8.22,7.187,9.976,7.012,10.147c-.084.081-.142.143-.185.188-.115.121-.13.136-.254.151h-.02c-.169,0-.4-.235-.4-.237Z"/>
</svg>
