<?xml version="1.0" encoding="UTF-8" standalone="no"?>
<svg width="6px" height="105px" viewBox="0 0 6 105" version="1.1" xmlns="http://www.w3.org/2000/svg" xmlns:xlink="http://www.w3.org/1999/xlink" xmlns:sketch="http://www.bohemiancoding.com/sketch/ns">
    <title>jsTreeSprites</title>
    <description>Created with Sketch (http://www.bohemiancoding.com/sketch)</description>
    <defs></defs>
    <g id="Page 1" stroke="none" stroke-width="1" fill="none" fill-rule="evenodd">
        <g id="Slice 1">
            <g id="Page 1">
                <g id="Slice 1">
                    <g id="Page 1">
                        <path d="M5,3.5 L0,0 L0,7 L5,3.5 L5,3.5 Z M5,3.5" id="Shape" fill="#555555"></path>
                        <path d="M0,21 L5,17.5 L0,14 L0,21 L0,21 Z M0,21" id="Shape" fill="#6D787A"></path>
                    </g>
                </g>
            </g>
        </g>
        <g id="Slice 1" transform="translate(2.500000, 38.500000) scale(-1, 1) translate(-2.500000, -38.500000) translate(0.000000, 28.000000)">
            <g id="Page 1">
                <g id="Slice 1">
                    <g id="Page 1">
                        <path d="M5,3.5 L0,0 L0,7 L5,3.5 L5,3.5 Z M5,3.5" id="Shape" fill="#555555"></path>
                        <path d="M0,21 L5,17.5 L0,14 L0,21 L0,21 Z M0,21" id="Shape" fill="#6D787A"></path>
                    </g>
                </g>
            </g>
        </g>
        <g id="Slice 1" transform="translate(0.000000, 56.000000)">
            <g id="Page 1">
                <g id="Slice 1">
                    <g id="Page 1">
                        <path d="M5,3.5 L0,0 L0,7 L5,3.5 L5,3.5 Z M5,3.5" id="Shape" fill="#555555"></path>
                        <path d="M0,21 L5,17.5 L0,14 L0,21 L0,21 Z M0,21" id="Shape" fill="#6D787A"></path>
                    </g>
                </g>
            </g>
        </g>
        <g id="Slice 1" transform="translate(3.500000, 94.500000) scale(-1, 1) translate(-3.500000, -94.500000) translate(1.000000, 84.000000)">
            <g id="Page 1">
                <g id="Slice 1">
                    <g id="Page 1">
                        <path d="M5,3.5 L0,0 L0,7 L5,3.5 L5,3.5 Z M5,3.5" id="Shape" fill="#555555"></path>
                        <path d="M0,21 L5,17.5 L0,14 L0,21 L0,21 Z M0,21" id="Shape" fill="#6D787A"></path>
                    </g>
                </g>
            </g>
        </g>
        <path d="M5,56 L5,63 L6,63 L6,56 L5,56 Z M5,56" id="Rectangle 1" fill="#555555"></path>
        <path d="M0,84 L0,91 L1,91 L1,84 L0,84 Z M0,84" id="Rectangle 1 copy" fill="#555555"></path>
        <path d="M5,70 L5,77 L6,77 L6,70 L5,70 Z M5,70" id="Rectangle 1 copy" fill="#6D787A"></path>
        <path d="M0,98 L0,105 L1,105 L1,98 L0,98 Z M0,98" id="Rectangle 1 copy 2" fill="#6D787A"></path>
    </g>
</svg>