<?xml version="1.0" encoding="utf-8"?>
<!-- Generator: Adobe Illustrator 16.0.0, SVG Export Plug-In . SVG Version: 6.00 Build 0)  -->
<!DOCTYPE svg PUBLIC "-//W3C//DTD SVG 1.1//EN" "http://www.w3.org/Graphics/SVG/1.1/DTD/svg11.dtd">
<svg version="1.1"
	 id="Layer_1" sodipodi:docname="jsTreeSprites.svg" inkscape:version="0.48.2 r9819" xmlns:rdf="http://www.w3.org/1999/02/22-rdf-syntax-ns#" xmlns:dc="http://purl.org/dc/elements/1.1/" xmlns:cc="http://creativecommons.org/ns#" xmlns:svg="http://www.w3.org/2000/svg" xmlns:sodipodi="http://sodipodi.sourceforge.net/DTD/sodipodi-0.dtd" xmlns:inkscape="http://www.inkscape.org/namespaces/inkscape"
	 xmlns="http://www.w3.org/2000/svg" xmlns:xlink="http://www.w3.org/1999/xlink" x="0px" y="0px" width="108px" height="72px"
	 viewBox="0 0 108 72" enable-background="new 0 0 108 72" xml:space="preserve">
<sodipodi:namedview  inkscape:window-width="640" inkscape:pageopacity="0" inkscape:pageshadow="2" inkscape:window-x="0" inkscape:current-layer="Layer_1" inkscape:window-maximized="0" inkscape:window-y="572" inkscape:window-height="480" inkscape:cy="36" objecttolerance="10" pagecolor="#ffffff" inkscape:cx="54" gridtolerance="10" inkscape:zoom="2.9814815" guidetolerance="10" borderopacity="1" bordercolor="#666666" showgrid="false" id="namedview3274">
	</sodipodi:namedview>
<polyline id="polyline3272_6_" opacity="0.1" points="25.5,15.3 29.35,8.7 21.65,8.7 25.5,15.3 "/>
<polyline opacity="0.2333" points="25.5,14.533 29.233,8.133 21.767,8.133 25.5,14.533 "/>
<polyline opacity="0.3667" points="25.5,13.767 29.117,7.567 21.884,7.567 25.5,13.767 "/>
<polyline id="polyline3272_5_" opacity="0.5" points="25.5,13 29,7 22,7 25.5,13 "/>
<polyline id="polyline3270_6_" opacity="0.1" points="11.3,12.5 4.7,8.65 4.7,16.35 11.3,12.5 "/>
<polyline opacity="0.2333" points="11.199,11.833 4.8,8.1 4.8,15.566 11.199,11.833 "/>
<polyline opacity="0.3667" points="11.1,11.167 4.9,7.55 4.9,14.783 11.1,11.167 "/>
<polyline id="polyline3270_5_" opacity="0.5" points="11,10.5 5,7 5,14 11,10.5 "/>
<polyline id="polyline3270" fill="#878787" points="11,10.5 5,7 5,14 11,10.5 "/>
<polyline id="polyline3272" fill="#FFFFFF" points="25.5,13 29,7 22,7 25.5,13 "/>
</svg>
