<?xml version="1.0" encoding="utf-8"?>
<!-- Generator: Adobe Illustrator 15.1.0, SVG Export Plug-In . SVG Version: 6.00 Build 0)  -->
<!DOCTYPE svg PUBLIC "-//W3C//DTD SVG 1.1//EN" "http://www.w3.org/Graphics/SVG/1.1/DTD/svg11.dtd">
<svg version="1.1" id="Layer_1" xmlns="http://www.w3.org/2000/svg" xmlns:xlink="http://www.w3.org/1999/xlink" x="0px" y="0px"
	 width="22px" height="55px" viewBox="0 0 22 55" enable-background="new 0 0 22 55" xml:space="preserve">
<polygon fill="#FBB03B" points="14,27 8,23 0,33 8,28 14,32 22,22 "/>
<polygon fill="#E6861C" points="14,38 8,34 0,44 8,39 14,43 22,33 "/>
<polygon fill="#CCCCCC" points="14,5 8,1 0,11 8,6 14,10 22,0 "/>
<polygon fill="#B3B3B3" points="14,16 8,12 0,22 8,17 14,21 22,11 "/>
<g>
	<polygon fill="#CCCCCC" points="14,49 8,45 0,55 8,50 14,54 22,44 	"/>
	<polygon fill="#FBB03B" points="8,45 0,55 8,50 8,50 14,49 	"/>
</g>
</svg>
