<?xml version="1.0" encoding="utf-8"?>
<!-- Generator: Adobe Illustrator 15.1.0, SVG Export Plug-In . SVG Version: 6.00 Build 0)  -->
<!DOCTYPE svg PUBLIC "-//W3C//DTD SVG 1.1//EN" "http://www.w3.org/Graphics/SVG/1.1/DTD/svg11.dtd">
<svg version="1.1" id="Layer_1" xmlns="http://www.w3.org/2000/svg" xmlns:xlink="http://www.w3.org/1999/xlink" x="0px" y="0px"
	 width="22px" height="44px" viewBox="-0.5 0.5 22 44" enable-background="new -0.5 0.5 22 44" xml:space="preserve">
<polygon fill="#FBB03B" points="13.5,5.5 7.5,1.5 -0.5,11.5 7.5,6.5 13.5,10.5 21.5,0.5 "/>
<polygon fill="#CCCCCC" points="13.5,16.5 7.5,12.5 -0.5,22.5 7.5,17.5 13.5,21.5 21.5,11.5 "/>
<polygon fill="#B3B3B3" points="13.5,27.5 7.5,23.5 -0.5,33.5 7.5,28.5 13.5,32.5 21.5,22.5 "/>
<polygon fill="#CCCCCC" points="13.5,38.5 7.5,34.5 -0.5,44.5 7.5,39.5 13.5,43.5 21.5,33.5 "/>
<polygon fill="#FBB03B" points="7.5,34.5 -0.5,44.5 7.5,39.5 7.5,39.5 13.5,38.5 "/>
</svg>
