<svg version="1.1" xmlns="http://www.w3.org/2000/svg" xmlns:xlink="http://www.w3.org/1999/xlink" width="22px" height="112px">
<g transform="translate(0, 1)">
	<polygon id="bolt" fill="#CCCCCC" points="14,7 8,3 0,13 8,8 14,12 22,2 	"/>
</g>
<g transform="translate(0, 17)">
	<polygon id="bolt_1_" fill="#B3B3B3" points="14,7 8,3 0,13 8,8 14,12 22,2 	"/>
</g>
<g transform="translate(0, 33)">
	<polygon id="bolt_2_" fill="#FBB03B" points="14,7 8,3 0,13 8,8 14,12 22,2 	"/>
</g>
<g transform="translate(0, 49)">
	<polygon id="bolt_3_" fill="#E6861C" points="14,7 8,3 0,13 8,8 14,12 22,2 	"/>
</g>
<g transform="translate(0, 65)">
	<g>
		<polygon id="bolt_4_" fill="#CCCCCC" points="14,7 8,3 0,13 8,8 14,12 22,2 		"/>
	</g>
	<polygon fill="#FBB03B" points="8,3 0,13 8,8 8,8 14,7 	"/>
</g>
<g transform="translate(0, 81)">
	<g>
		<polygon id="bolt_5_" fill="#FBB03B" points="14,7 8,3 0,13 8,8 14,12 22,2 		"/>
	</g>
	<circle fill="#CCCCCC" cx="20" cy="10" r="2"/>
</g>
<g transform="translate(0, 97)">
	<g>
		<polygon id="bolt_6_" fill="#E6861C" points="14,7 8,3 0,13 8,8 14,12 22,2 		"/>
	</g>
	<circle fill="#B3B3B3" cx="20" cy="10" r="2"/>
</g>
</svg>
