<svg xmlns="http://www.w3.org/2000/svg" width="116" height="55">
    <path fill="#2b2b2b" d="M28.7 20.2h5.9v13.5h-5.9v5.9h11.8V14.3H28.7V20.2M45 0H9C4 0 0 4 0 9v36c0 5 4 9 9 9h36c4.9 0 9-4 9-9V9C54 4 49.9 0 45 0M47.2 42.8c0 2.5-2 4.5-4.5 4.5H11.2c-2.5 0-4.5-2-4.5-4.5V11.2c0-2.5 2-4.5 4.5-4.5h31.5c2.5 0 4.5 2 4.5 4.5V42.8M13.5 39.7h11.8v-5.9h-5.9V20.2h5.9v-5.9H13.5V39.7M71.9 17.1c1.5 0 3-.5 4.1-1.6L74.4 13c-.6 .5-1.3 1-2.2 1c-2.4 0-3.5-1.4-3.5-4.1c0-2.5 1.3-4 3.2-4c.9 0 1.7 .3 2.4 .8l1.5-2.5c-1.1-.9-2.4-1.4-3.9-1.4C68 2.7 65 5.4 65 9.9C65 14.7 67.9 17.1 71.9 17.1M83.2 17.1c3.8 0 6.5-2.7 6.5-7.2c0-4.5-2.7-7.1-6.5-7.1s-6.5 2.6-6.5 7.1C76.7 14.4 79.4 17.1 83.2 17.1M83.2 5.8c1.6 0 2.8 1.6 2.8 4c0 2.5-1.1 4.1-2.8 4.1c-1.6 0-2.8-1.6-2.8-4.1S81.6 5.8 83.2 5.8M68.2 34.8h3.6V24h3.7v-3H64.5v3h3.7V34.8M101.5 31.8H96v-2.6h4.6v-3H96V24h5.4v-3h-9v13.9h9.2V31.8M102.9 45.5L102.9 45.5c1.4-.6 2.1-1.8 2.1-3c0-2.7-2.3-3.6-5.2-3.6h-5v13.9h5.5c2.9 0 5.4-1.2 5.4-4C105.6 47.1 104.7 46 102.9 45.5M98.4 41.8h1.2c1.3 0 1.9 .5 1.9 1.3c0 .8-.5 1.4-1.9 1.4v0h-1.2V41.8M100 50.1L100 50.1l-1.6 0V47h1.6c1.4 0 2.1 .5 2.1 1.5S101.4 50.1 100 50.1M109.7 13.8v-2.6h4.6v-3h-4.6V6h5.4V3h-9v13.9h9.2v-3H109.7M76.8 45.2l-.5 4.3h-.1l-.8-4.3L74.2 39h-3l-1.3 6.2l-.8 4.3h-.1l-.5-4.3L67.9 39h-3.7l2.4 13.9h4.5l1.1-5.6l.4-3h.1l.4 3l1.1 5.6h4.6L81 39h-3.4L76.8 45.2M85.5 34.8h3.6V21h-3.6v5.2h-4.4V21h-3.6v13.9h3.6v-5.5h4.4V34.8M86.5 47.3h4.6v-3h-4.6V42h5.4v-3h-9v13.9h9.2v-3h-5.6V47.3M103.5 9.9c0-4.8-2.9-6.9-7-6.9h-4.2v13.9h4.5C100.7 16.8 103.5 14.7 103.5 9.9M95.9 13.9V5.9h.4c2 0 3.5 .8 3.5 4c0 3.2-1.6 4.1-3.5 4.1H95.9"/>
</svg>
