<svg version="1.1" xmlns="http://www.w3.org/2000/svg" xmlns:xlink="http://www.w3.org/1999/xlink" width="14px" height="42px">
	<defs>
		<filter id="blur" x="-10" y="-10" width="12" height="12">
			<feGaussianBlur in="SourceGraphic" stdDeviation=".25"/>
		</filter>
	</defs>

	<!-- default state -->
	<path d="M12,6.654V5.289l-0.193-0.063l-1.461-0.478L9.955,3.807l0.75-1.586L9.738,1.254l-0.18,0.092L8.188,2.042
	l-0.941-0.39L6.654,0H5.289L5.226,0.193L4.748,1.655l-0.941,0.39L2.22,1.295L1.254,2.261l0.092,0.181l0.696,1.372l-0.39,0.941
	L0,5.346v1.366l0.193,0.062l1.462,0.478l0.39,0.941L1.295,9.779l0.965,0.967l0.181-0.092l1.372-0.697l0.941,0.391L5.346,12h1.365
	l0.063-0.193l0.478-1.461l0.941-0.391l1.586,0.75l0.967-0.966l-0.092-0.182l-0.697-1.37l0.391-0.941L12,6.654z M6,8.5
	C4.62,8.5,3.5,7.381,3.5,6S4.62,3.5,6,3.5c1.381,0,2.5,1.119,2.5,2.5S7.381,8.5,6,8.5z" filter="url(#blur)" opacity=".5" transform="translate(1, 1)"/>

	<path fill="#929292" d="M12,6.654V5.289l-0.193-0.063l-1.461-0.478L9.955,3.807l0.75-1.586L9.738,1.254l-0.18,0.092L8.188,2.042
	l-0.941-0.39L6.654,0H5.289L5.226,0.193L4.748,1.655l-0.941,0.39L2.22,1.295L1.254,2.261l0.092,0.181l0.696,1.372l-0.39,0.941
	L0,5.346v1.366l0.193,0.062l1.462,0.478l0.39,0.941L1.295,9.779l0.965,0.967l0.181-0.092l1.372-0.697l0.941,0.391L5.346,12h1.365
	l0.063-0.193l0.478-1.461l0.941-0.391l1.586,0.75l0.967-0.966l-0.092-0.182l-0.697-1.37l0.391-0.941L12,6.654z M6,8.5
	C4.62,8.5,3.5,7.381,3.5,6S4.62,3.5,6,3.5c1.381,0,2.5,1.119,2.5,2.5S7.381,8.5,6,8.5z" transform="translate(1, 0)"/>


	<!-- hover -->
	<path d="M12,6.654V5.289l-0.193-0.063l-1.461-0.478L9.955,3.807l0.75-1.586L9.738,1.254l-0.18,0.092L8.188,2.042
	l-0.941-0.39L6.654,0H5.289L5.226,0.193L4.748,1.655l-0.941,0.39L2.22,1.295L1.254,2.261l0.092,0.181l0.696,1.372l-0.39,0.941
	L0,5.346v1.366l0.193,0.062l1.462,0.478l0.39,0.941L1.295,9.779l0.965,0.967l0.181-0.092l1.372-0.697l0.941,0.391L5.346,12h1.365
	l0.063-0.193l0.478-1.461l0.941-0.391l1.586,0.75l0.967-0.966l-0.092-0.182l-0.697-1.37l0.391-0.941L12,6.654z M6,8.5
	C4.62,8.5,3.5,7.381,3.5,6S4.62,3.5,6,3.5c1.381,0,2.5,1.119,2.5,2.5S7.381,8.5,6,8.5z" filter="url(#blur)" opacity=".5" transform="translate(1, 15)"/>

	<path fill="#A0A0A0" d="M12,6.654V5.289l-0.193-0.063l-1.461-0.478L9.955,3.807l0.75-1.586L9.738,1.254l-0.18,0.092L8.188,2.042
	l-0.941-0.39L6.654,0H5.289L5.226,0.193L4.748,1.655l-0.941,0.39L2.22,1.295L1.254,2.261l0.092,0.181l0.696,1.372l-0.39,0.941
	L0,5.346v1.366l0.193,0.062l1.462,0.478l0.39,0.941L1.295,9.779l0.965,0.967l0.181-0.092l1.372-0.697l0.941,0.391L5.346,12h1.365
	l0.063-0.193l0.478-1.461l0.941-0.391l1.586,0.75l0.967-0.966l-0.092-0.182l-0.697-1.37l0.391-0.941L12,6.654z M6,8.5
	C4.62,8.5,3.5,7.381,3.5,6S4.62,3.5,6,3.5c1.381,0,2.5,1.119,2.5,2.5S7.381,8.5,6,8.5z" transform="translate(1, 14)"/>

	<!-- active -->
	<path d="M12,6.654V5.289l-0.193-0.063l-1.461-0.478L9.955,3.807l0.75-1.586L9.738,1.254l-0.18,0.092L8.188,2.042
	l-0.941-0.39L6.654,0H5.289L5.226,0.193L4.748,1.655l-0.941,0.39L2.22,1.295L1.254,2.261l0.092,0.181l0.696,1.372l-0.39,0.941
	L0,5.346v1.366l0.193,0.062l1.462,0.478l0.39,0.941L1.295,9.779l0.965,0.967l0.181-0.092l1.372-0.697l0.941,0.391L5.346,12h1.365
	l0.063-0.193l0.478-1.461l0.941-0.391l1.586,0.75l0.967-0.966l-0.092-0.182l-0.697-1.37l0.391-0.941L12,6.654z M6,8.5
	C4.62,8.5,3.5,7.381,3.5,6S4.62,3.5,6,3.5c1.381,0,2.5,1.119,2.5,2.5S7.381,8.5,6,8.5z" filter="url(#blur)" opacity=".5" transform="translate(1, 29)"/>

	<path fill="#A6A6A6" d="M12,6.654V5.289l-0.193-0.063l-1.461-0.478L9.955,3.807l0.75-1.586L9.738,1.254l-0.18,0.092L8.188,2.042
	l-0.941-0.39L6.654,0H5.289L5.226,0.193L4.748,1.655l-0.941,0.39L2.22,1.295L1.254,2.261l0.092,0.181l0.696,1.372l-0.39,0.941
	L0,5.346v1.366l0.193,0.062l1.462,0.478l0.39,0.941L1.295,9.779l0.965,0.967l0.181-0.092l1.372-0.697l0.941,0.391L5.346,12h1.365
	l0.063-0.193l0.478-1.461l0.941-0.391l1.586,0.75l0.967-0.966l-0.092-0.182l-0.697-1.37l0.391-0.941L12,6.654z M6,8.5
	C4.62,8.5,3.5,7.381,3.5,6S4.62,3.5,6,3.5c1.381,0,2.5,1.119,2.5,2.5S7.381,8.5,6,8.5z" transform="translate(1, 28)"/>
</svg>
