<svg xmlns="http://www.w3.org/2000/svg" width="15" height="14" viewBox="9596.697 444.912 27.317 27.801">
  <defs>
    <style>
      .cls-1 {
        fill: #878787;
      }
    </style>
  </defs>
  <g id="sort-by-attributes" transform="translate(9592.241 444.912)">
    <g id="Group_1" data-name="Group 1" transform="translate(4.457)">
      <path id="Path_1" data-name="Path 1" class="cls-1" d="M255.83,438.536h-3.971a.478.478,0,0,0-.5.5v2.979a.478.478,0,0,0,.5.5h3.971a.477.477,0,0,0,.5-.5v-2.979a.478.478,0,0,0-.5-.5Z" transform="translate(-237.945 -414.706)"/>
      <path id="Path_2" data-name="Path 2" class="cls-1" d="M14.894,21.844H11.916V.5a.478.478,0,0,0-.5-.5H8.441a.478.478,0,0,0-.5.5V21.844H4.965a.461.461,0,0,0-.465.31.472.472,0,0,0,.109.543l4.964,4.965a.558.558,0,0,0,.357.139.519.519,0,0,0,.357-.139l4.949-4.949a.582.582,0,0,0,.155-.372.477.477,0,0,0-.5-.5Z" transform="translate(-4.457)"/>
      <path id="Path_3" data-name="Path 3" class="cls-1" d="M258.806,292.362h-6.95a.478.478,0,0,0-.5.5v2.979a.477.477,0,0,0,.5.5h6.95a.478.478,0,0,0,.5-.5v-2.979a.478.478,0,0,0-.5-.5Z" transform="translate(-237.943 -276.475)"/>
      <path id="Path_4" data-name="Path 4" class="cls-1" d="M265.123.14a.484.484,0,0,0-.357-.14H251.858a.478.478,0,0,0-.5.5V3.475a.478.478,0,0,0,.5.5h12.908a.478.478,0,0,0,.5-.5V.5A.483.483,0,0,0,265.123.14Z" transform="translate(-237.945)"/>
      <path id="Path_5" data-name="Path 5" class="cls-1" d="M261.785,146.181h-9.929a.478.478,0,0,0-.5.5v2.979a.478.478,0,0,0,.5.5h9.929a.477.477,0,0,0,.5-.5v-2.979a.477.477,0,0,0-.5-.5Z" transform="translate(-237.943 -138.238)"/>
    </g>
  </g>
</svg>
