<svg
xmlns="http://www.w3.org/2000/svg"
xmlns:xlink="http://www.w3.org/1999/xlink"
width="13px" height="53px">
    <g stroke="none" stroke-width="1" fill="none" fill-rule="evenodd">
        <path d="M0,21 L0,32 L13,32 L13,21 L0,21 Z M1,22 L1,31 L6,31 L6,22 L1,22 Z M7,22 L7,31 L12,31 L12,22 L7,22 Z" id="split-horizontally" fill="#6C7478"></path>
        <path d="M0,42 L0,53 L13,53 L13,42 L0,42 Z M1,43 L1,47 L12,47 L12,43 L1,43 Z M1,48 L1,52 L12,52 L12,48 L1,48 Z" id="split-vertically" fill="#6C7478"></path>
        <g id="arrows" transform="translate(1.000000, 3.000000)" fill="#6C7478">
            <path d="M3,0 L3,5 L0,2.50785714 L3,0 Z" id="Fill-3"></path>
            <path d="M11,0 L11,5 L8,2.50785714 L11,0 Z" id="Fill-3-copy" transform="translate(9.500000, 2.500000) rotate(-180.000000) translate(-9.500000, -2.500000) "></path>
            <path d="M2,2 L2,3 L9,3 L9,2" id="Fill-5"></path>
        </g>
        <path d="M0,0 L0,11 L13,11 L13,0 L0,0 Z M1,1 L1,10 L12,10 L12,1 L1,1 Z" fill="#6C7478"></path>
    </g>
</svg>
