<svg xmlns="http://www.w3.org/2000/svg" width="28" height="20">
    <path fill="#7f8181" transform="translate(0 2)" d="M.9 8.9C1.4 6.6 3.8 5.3 7.1 6C8.2 6.2 10.6 6.6 12.2 5.8C13.9 4.9 9.2 1.7 11.4 .6C15.9-1.7 27 2.4 27.3 9C27.4 11.4 24.5 18.3 11.4 17.5C3.7 17 .4 11.2 .9 8.9L.9 8.9M12.5 10.7C11.1 10.7 10 11.8 10 13.1C10 14.4 11.1 15.5 12.5 15.5C13.9 15.5 15 14.4 15 13.1C15.1 11.8 13.9 10.7 12.5 10.7L12.5 10.7M6.4 7.8C5 7.8 3.9 8.9 3.9 10.2C3.9 11.5 5 12.6 6.4 12.6C7.8 12.6 8.9 11.5 8.9 10.2C9 8.9 7.8 7.8 6.4 7.8L6.4 7.8M19.9 6.3C20.9 6.3 21.7 5.5 21.7 4.6C21.7 3.7 20.9 2.9 19.9 2.9C18.9 2.9 18.1 3.7 18.1 4.6C18.1 5.5 18.9 6.3 19.9 6.3L19.9 6.3M22.9 10.2C23.9 10.2 24.7 9.4 24.7 8.5C24.7 7.6 23.9 6.8 22.9 6.8C21.9 6.8 21.1 7.6 21.1 8.5C21.1 9.4 21.9 10.2 22.9 10.2L22.9 10.2M19.1 10.7C18 10.7 17.1 11.6 17.1 12.7C17.1 13.8 18 14.7 19.1 14.7C20.2 14.7 21.1 13.8 21.1 12.7C21.1 11.6 20.2 10.7 19.1 10.7L19.1 10.7"/>
</svg>
