<svg
xmlns="http://www.w3.org/2000/svg"
xmlns:xlink="http://www.w3.org/1999/xlink"
width="28px" height="20px">
    <g transform="translate(0,2)" stroke="none" stroke-width="1" fill="none" fill-rule="evenodd">
        <path d="M0.9,8.9 C1.4,6.6 3.8,5.3 7.1,6 C8.2,6.2 10.6,6.6 12.2,5.8 C13.9,4.9 9.2,1.7 11.4,0.6 C15.9,-1.7 27,2.4 27.3,9 C27.4,11.4 24.5,18.3 11.4,17.5 C3.7,17 0.4,11.2 0.9,8.9 L0.9,8.9 Z M12.5,10.7 C11.1,10.7 10,11.8 10,13.1 C10,14.4 11.1,15.5 12.5,15.5 C13.9,15.5 15,14.4 15,13.1 C15.1,11.8 13.9,10.7 12.5,10.7 L12.5,10.7 Z M6.4,7.8 C5,7.8 3.9,8.9 3.9,10.2 C3.9,11.5 5,12.6 6.4,12.6 C7.8,12.6 8.9,11.5 8.9,10.2 C9,8.9 7.8,7.8 6.4,7.8 L6.4,7.8 Z M19.9,6.3 C20.9,6.3 21.7,5.5 21.7,4.6 C21.7,3.7 20.9,2.9 19.9,2.9 C18.9,2.9 18.1,3.7 18.1,4.6 C18.1,5.5 18.9,6.3 19.9,6.3 L19.9,6.3 Z M22.9,10.2 C23.9,10.2 24.7,9.4 24.7,8.5 C24.7,7.6 23.9,6.8 22.9,6.8 C21.9,6.8 21.1,7.6 21.1,8.5 C21.1,9.4 21.9,10.2 22.9,10.2 L22.9,10.2 Z M19.1,10.7 C18,10.7 17.1,11.6 17.1,12.7 C17.1,13.8 18,14.7 19.1,14.7 C20.2,14.7 21.1,13.8 21.1,12.7 C21.1,11.6 20.2,10.7 19.1,10.7 L19.1,10.7 Z" fill="#7f8181"></path>
    </g>
</svg>
