<?xml version="1.0" encoding="utf-8"?>
<!-- Generator: Adobe Illustrator 16.2.1, SVG Export Plug-In . SVG Version: 6.00 Build 0)  -->
<!DOCTYPE svg PUBLIC "-//W3C//DTD SVG 1.1//EN" "http://www.w3.org/Graphics/SVG/1.1/DTD/svg11.dtd">
<svg version="1.1" id="Layer_1" xmlns="http://www.w3.org/2000/svg" xmlns:xlink="http://www.w3.org/1999/xlink" x="0px" y="0px"
	 width="15px" height="15px" viewBox="0 0 15 15" enable-background="new 0 0 15 15" xml:space="preserve">
<path fill-rule="evenodd" clip-rule="evenodd" d="M7.5,9.311l3.561,3.43c0.359,0.34,0.59,0.35,0.949,0l0.721-0.69
	c0.35-0.34,0.369-0.56,0-0.92L8.96,7.5l3.771-3.63c0.35-0.34,0.359-0.57,0-0.92L12.01,2.26c-0.369-0.36-0.6-0.34-0.949,0L7.5,5.69
	L3.94,2.26c-0.35-0.34-0.58-0.36-0.95,0L2.27,2.95c-0.36,0.35-0.35,0.58,0,0.92L6.04,7.5l-3.77,3.63c-0.37,0.36-0.35,0.58,0,0.92
	l0.72,0.69c0.36,0.35,0.59,0.34,0.95,0L7.5,9.311z"/>
<g>
</g>
<g>
</g>
<g>
</g>
<g>
</g>
<g>
</g>
<g>
</g>
<g>
</g>
<g>
</g>
<g>
</g>
<g>
</g>
<g>
</g>
<g>
</g>
<g>
</g>
<g>
</g>
<g>
</g>
</svg>
