<?xml version="1.0" encoding="utf-8"?>
<!-- Generator: Adobe Illustrator 16.2.1, SVG Export Plug-In . SVG Version: 6.00 Build 0)  -->
<!DOCTYPE svg PUBLIC "-//W3C//DTD SVG 1.1//EN" "http://www.w3.org/Graphics/SVG/1.1/DTD/svg11.dtd">
<svg version="1.1" id="Layer_1" xmlns="http://www.w3.org/2000/svg" xmlns:xlink="http://www.w3.org/1999/xlink" x="0px" y="0px"
	 width="20px" height="20px" viewBox="0.5 0.792 20 20" enable-background="new 0.5 0.792 20 20" xml:space="preserve">
<path fill="#FFFFFF" d="M9.529,6.75v-1c0-1.5-0.439-2.5-2-2.5c-1.5,0-2,1.061-2,2.5v1h-1c-1.56,0-2,0.5-2,2v6c0,1.529,0.44,2,2,2h13
	c1.561,0,2-0.471,2-2v-6c0-1.5-0.439-2-2-2h-1v-1c0-1.439-0.5-2.5-2-2.5c-1.561,0-2,1-2,2.5v1H9.529z"/>
</svg>
