<?xml version="1.0" encoding="utf-8"?>
<!-- Generator: Adobe Illustrator 16.2.1, SVG Export Plug-In . SVG Version: 6.00 Build 0)  -->
<!DOCTYPE svg PUBLIC "-//W3C//DTD SVG 1.1//EN" "http://www.w3.org/Graphics/SVG/1.1/DTD/svg11.dtd">
<svg version="1.1" id="Layer_1" xmlns="http://www.w3.org/2000/svg" xmlns:xlink="http://www.w3.org/1999/xlink" x="0px" y="0px"
	 width="20px" height="20px" viewBox="0 0 20 20" enable-background="new 0 0 20 20" xml:space="preserve">
<path opacity="0.7" fill-rule="evenodd" clip-rule="evenodd" d="M1,7.81c0,4.03,3.21,7.299,7.17,7.299s7.17-3.27,7.17-7.299
	c0-4.04-3.21-7.31-7.17-7.31S1,3.77,1,7.81z M3.27,7.81c0-2.76,2.2-5,4.9-5c2.71,0,4.9,2.24,4.9,5c0,2.76-2.19,4.99-4.9,4.99
	C5.47,12.8,3.27,10.57,3.27,7.81z M13.221,14.51l3.09,3.61c0.5,0.5,0.819,0.51,1.319,0l0.99-1.011c0.489-0.5,0.521-0.819,0-1.35
	l-3.55-3.13L13.221,14.51z"/>
<g>
</g>
<g>
</g>
<g>
</g>
<g>
</g>
<g>
</g>
<g>
</g>
<g>
</g>
<g>
</g>
<g>
</g>
<g>
</g>
<g>
</g>
<g>
</g>
<g>
</g>
<g>
</g>
<g>
</g>
</svg>
