<?xml version="1.0" encoding="UTF-8"?>
<!DOCTYPE svg PUBLIC "-//W3C//DTD SVG 1.1//EN" "http://www.w3.org/Graphics/SVG/1.1/DTD/svg11.dtd">
<svg version="1.1" xmlns="http://www.w3.org/2000/svg" xmlns:xlink="http://www.w3.org/1999/xlink" x="0px" y="0px" width="13" height="13" viewBox="0, 0, 13, 13">
  <g id="Layer 1">
    <path d="M2.049,7.583 C2.173,8.085 2.377,8.552 2.647,8.973 L1.895,9.728 C1.557,10.065 1.56,10.267 1.857,10.564 L2.59,11.298 C2.891,11.598 3.095,11.592 3.427,11.261 L4.215,10.468 C4.587,10.681 4.989,10.845 5.417,10.951 L5.417,11.917 C5.417,12.397 5.562,12.535 5.98,12.535 L7.02,12.535 C7.444,12.535 7.583,12.387 7.583,11.917 L7.583,10.951 C8.011,10.845 8.413,10.682 8.785,10.468 L9.592,11.279 C9.927,11.609 10.127,11.616 10.427,11.32 L11.164,10.582 C11.458,10.288 11.465,10.087 11.124,9.747 L10.35,8.973 C10.623,8.552 10.827,8.085 10.95,7.583 L11.972,7.583 C12.395,7.583 12.535,7.435 12.535,6.965 L12.535,6.035 C12.535,5.578 12.413,5.417 11.972,5.417 L10.95,5.417 C10.845,4.989 10.681,4.587 10.466,4.215 L11.204,3.482 C11.529,3.157 11.557,2.956 11.244,2.647 L10.507,1.91 C10.213,1.615 10.002,1.619 9.672,1.95 L8.972,2.647 C8.552,2.377 8.085,2.173 7.583,2.049 L7.583,1.083 C7.583,0.625 7.462,0.465 7.02,0.465 L5.98,0.465 C5.562,0.465 5.417,0.616 5.417,1.083 L5.417,2.049 C4.915,2.173 4.448,2.377 4.027,2.647 L3.327,1.95 C2.996,1.619 2.785,1.615 2.492,1.91 L1.755,2.647 C1.442,2.956 1.47,3.157 1.795,3.482 L2.529,4.215 C2.318,4.587 2.155,4.989 2.049,5.417 L1.028,5.417 C0.61,5.417 0.465,5.568 0.465,6.035 L0.465,6.965 C0.465,7.444 0.61,7.583 1.028,7.583 L2.049,7.583 z M4.729,6.5 C4.729,5.522 5.522,4.729 6.5,4.729 C7.478,4.729 8.271,5.522 8.271,6.5 C8.271,7.478 7.478,8.271 6.5,8.271 C5.522,8.271 4.729,7.478 4.729,6.5 z" fill="#798286"/>
  </g>
  <defs/>
</svg>
