<?xml version="1.0" encoding="UTF-8"?>
<!DOCTYPE svg PUBLIC "-//W3C//DTD SVG 1.1//EN" "http://www.w3.org/Graphics/SVG/1.1/DTD/svg11.dtd">
<svg version="1.1" xmlns="http://www.w3.org/2000/svg" xmlns:xlink="http://www.w3.org/1999/xlink" x="0px" y="0px" width="16" height="16" viewBox="0, 0, 16, 16">
  <g id="Layer 1">
    <path d="M2.522,9.333 C2.675,9.95 2.925,10.525 3.257,11.044 L2.332,11.973 C1.916,12.388 1.92,12.636 2.285,13.002 L3.188,13.905 C3.558,14.275 3.81,14.267 4.217,13.859 L5.188,12.884 C5.645,13.146 6.141,13.348 6.667,13.478 L6.667,14.667 C6.667,15.257 6.845,15.428 7.36,15.428 L8.64,15.428 C9.162,15.428 9.333,15.245 9.333,14.667 L9.333,13.478 C9.859,13.348 10.355,13.147 10.812,12.884 L11.805,13.881 C12.217,14.288 12.464,14.296 12.834,13.932 L13.741,13.024 C14.103,12.663 14.11,12.414 13.691,11.996 L12.739,11.044 C13.075,10.525 13.325,9.95 13.477,9.333 L14.735,9.333 C15.256,9.333 15.427,9.15 15.427,8.572 L15.427,7.428 C15.427,6.865 15.277,6.667 14.735,6.667 L13.477,6.667 C13.347,6.141 13.145,5.645 12.882,5.188 L13.789,4.285 C14.189,3.885 14.224,3.638 13.839,3.257 L12.932,2.35 C12.57,1.988 12.311,1.992 11.904,2.4 L11.043,3.257 C10.525,2.925 9.95,2.675 9.333,2.522 L9.333,1.333 C9.333,0.77 9.184,0.572 8.64,0.572 L7.36,0.572 C6.845,0.572 6.667,0.758 6.667,1.333 L6.667,2.522 C6.05,2.675 5.475,2.925 4.956,3.257 L4.095,2.4 C3.688,1.992 3.428,1.988 3.067,2.35 L2.16,3.257 C1.775,3.638 1.81,3.885 2.21,4.285 L3.112,5.188 C2.853,5.645 2.652,6.141 2.522,6.667 L1.265,6.667 C0.75,6.667 0.572,6.853 0.572,7.428 L0.572,8.572 C0.572,9.162 0.75,9.333 1.265,9.333 L2.522,9.333 z M5.821,8 C5.821,6.796 6.796,5.821 8,5.821 C9.204,5.821 10.179,6.796 10.179,8 C10.179,9.204 9.204,10.179 8,10.179 C6.796,10.179 5.821,9.204 5.821,8 z" fill="#8E9A9D"/>
  </g>
  <defs/>
</svg>
