<svg xmlns="http://www.w3.org/2000/svg" width="15" height="15" viewBox="-7 8 15 15">
    <path fill="#ffc600" d="M2.39 10.35c0 0-.55-1.5-1.32-1.5c-.73 0-1.38 1.46-1.38 1.46s-5.62 10.07-5.62 10.74s1.05 .88 1.71 .88c.36 0 10.15 .02 10.49 .02C6.93 21.93 8 21.65 8 20.98S2.39 10.35 2.39 10.35M-.01 13.23c0-.31 .66-.93 .66-.93h.76c0 0 .68 .61 .68 .92c0 .31-.01 3.87-.01 3.87l-1.03 .27l-1.05-.27C-.01 17.1-.01 13.54-.01 13.23M1.04 20.56c-.93 0-1.49-.07-1.49-1.04c0-.99 .55-1.09 1.49-1.09c.92 0 1.35 .15 1.35 1.1C2.4 20.47 2 20.56 1.04 20.56"/>
</svg>
