<?xml version="1.0" encoding="UTF-8" standalone="no"?>
<svg width="24px" height="24px" viewBox="0 0 24 24" version="1.1" xmlns="http://www.w3.org/2000/svg" xmlns:xlink="http://www.w3.org/1999/xlink" xmlns:sketch="http://www.bohemiancoding.com/sketch/ns">
    <title>Slice 1</title>
    <description>Created with Sketch (http://www.bohemiancoding.com/sketch)</description>
    <defs></defs>
    <g id="Page 1" stroke="none" stroke-width="1" fill="none" fill-rule="evenodd">
        <g id="Layer_1" transform="translate(3.000000, 5.000000)" fill="#BBBBBB">
            <path d="M7,3 L7,2.25 C7,0.75 6.532,0 4.971,0 C3.471,0 3,0.812 3,2.25 L3,3 L2,3 C0.44,3 0,3.75 0,5.25 L0,11.25 C0,12.779 0.44,13.042 2,13.042 L15,13.042 C16.563,13.042 17.004,12.779 17.004,11.25 L17.004,5.25 C17.004,3.75 16.563,3 15,3 L14,3 L14,2.25 C14,0.812 13.471,0 11.971,0 C10.409,0 10,0.75 10,2.25 L10,3 L7,3 L7,3 Z M7,3" id="Shape"></path>
        </g>
    </g>
</svg>