<?xml version="1.0" encoding="UTF-8" standalone="no"?>
<svg width="24px" height="24px" viewBox="0 0 24 24" version="1.1" xmlns="http://www.w3.org/2000/svg" xmlns:xlink="http://www.w3.org/1999/xlink" xmlns:sketch="http://www.bohemiancoding.com/sketch/ns">
    <title>Extension Manager</title>
    <description>Created with Sketch (http://www.bohemiancoding.com/sketch)</description>
    <defs></defs>
    <g id="Page 1" stroke="none" stroke-width="1" fill="none" fill-rule="evenodd">
        <g id="Slice 1" transform="translate(4.000000, 5.000000)" fill="#BBBBBB">
            <g id="Page 1">
                <g id="Layer_1">
                    <path d="M6,2.25 C6,0.75 5.532,0 3.971,0 C2.471,0 2,0.812 2,2.25 L2,3 L1,3 C-0.56,3 -1,3.75 -1,5.25 L-1,11.25 C-1,12.779 -0.56,13.042 1,13.042 L15,13.042 C16.563,13.042 17.004,12.779 17.004,11.25 L17.004,5.25 C17.004,3.75 16.563,3 15,3 L14,3 L14,2.25 C14,0.812 13.471,0 11.971,0 C10.409,0 10,0.75 10,2.25 L10,3 L6,3 L6,2.25 Z M6,2.25" id="Shape"></path>
                </g>
            </g>
        </g>
    </g>
</svg>