<svg version="1.1" xmlns="http://www.w3.org/2000/svg" xmlns:xlink="http://www.w3.org/1999/xlink" width="20" height="20" viewBox="0 0 20 20">
    <path opacity="0.7" d="M1,7.81c0,4.03,3.21,7.299,7.17,7.299s7.17-3.27,7.17-7.299c0-4.04-3.21-7.31-7.17-7.31S1,3.77,1,7.81zM3.27,7.81c0-2.76,2.2-5,4.9-5c2.71,0,4.9,2.24,4.9,5c0,2.76-2.19,4.99-4.9,4.99C5.47,12.8,3.27,10.57,3.27,7.81zM13.221,14.51l3.09,3.61c0.5,0.5,0.819,0.51,1.319,0l0.99-1.011c0.489-0.5,0.521-0.819,0-1.35l-3.55-3.13L13.221,14.51z"/>
</svg>
