<?xml version="1.0" encoding="utf-8"?>
<!-- Generator: Adobe Illustrator 16.2.1, SVG Export Plug-In . SVG Version: 6.00 Build 0)  -->
<!DOCTYPE svg PUBLIC "-//W3C//DTD SVG 1.1//EN" "http://www.w3.org/Graphics/SVG/1.1/DTD/svg11.dtd">
<svg version="1.1" id="Layer_1" xmlns="http://www.w3.org/2000/svg" xmlns:xlink="http://www.w3.org/1999/xlink" x="0px" y="0px"
	 width="15px" height="15px" viewBox="0 0 15 15" enable-background="new 0 0 15 15" xml:space="preserve">
<g>
	<path fill-rule="evenodd" clip-rule="evenodd" fill="#FF5388" d="M9.8,0H4.138L0,4.138V9.8l4.138,4.138H9.8L13.938,9.8V4.138L9.8,0
		z M11.2,9.811l-1.353,1.385c-0.166,0.17-0.436,0.17-0.601,0L6.968,8.94L4.69,11.196c-0.165,0.17-0.435,0.17-0.601,0L2.737,9.811
		c-0.166-0.17-0.166-0.446,0-0.616l2.248-2.227L2.737,4.742c-0.166-0.17-0.166-0.446,0-0.616L4.09,2.741
		c0.166-0.17,0.435-0.17,0.601,0l2.278,2.256l2.279-2.256c0.166-0.17,0.435-0.17,0.601,0L11.2,4.126c0.166,0.17,0.166,0.446,0,0.616
		L8.952,6.968L11.2,9.195C11.366,9.365,11.366,9.641,11.2,9.811z"/>
</g>
</svg>
