<?xml version="1.0" encoding="utf-8"?>
<!-- Generator: Adobe Illustrator 16.2.1, SVG Export Plug-In . SVG Version: 6.00 Build 0)  -->
<!DOCTYPE svg PUBLIC "-//W3C//DTD SVG 1.1//EN" "http://www.w3.org/Graphics/SVG/1.1/DTD/svg11.dtd">
<svg version="1.1" id="Layer_1" xmlns="http://www.w3.org/2000/svg" xmlns:xlink="http://www.w3.org/1999/xlink" x="0px" y="0px"
	 width="15px" height="15px" viewBox="-7 8 15 15" enable-background="new -7 8 15 15" xml:space="preserve">
<g>
	<path fill="#FFC600" d="M2.386,10.345c0,0-0.547-1.505-1.325-1.505c-0.726,0-1.382,1.458-1.382,1.458s-5.615,10.074-5.615,10.74
		s1.046,0.877,1.713,0.877c0.362,0,10.148,0.019,10.49,0.019C6.935,21.934,8,21.649,8,20.982S2.386,10.345,2.386,10.345z
		 M-0.012,13.232c0-0.31,0.664-0.933,0.664-0.933h0.759c0,0,0.68,0.614,0.68,0.922c0,0.309-0.014,3.872-0.014,3.872l-1.035,0.274
		l-1.054-0.272C-0.012,17.096-0.012,13.54-0.012,13.232z M1.042,20.561c-0.934,0-1.488-0.073-1.488-1.043
		c0-0.99,0.554-1.086,1.488-1.086c0.915,0,1.355,0.153,1.355,1.104C2.397,20.469,1.996,20.561,1.042,20.561z"/>
</g>
</svg>
