<svg xmlns="http://www.w3.org/2000/svg" xmlns:xlink="http://www.w3.org/1999/xlink" width="13" height="14">
    <defs>
        <path id="Settings" d="M2.05 8.58C2.17 9.09 2.38 9.55 2.65 9.97L1.9 10.73C1.56 11.06 1.56 11.27 1.86 11.56L2.59 12.3C2.89 12.6 3.1 12.59 3.43 12.26L4.21 11.47C4.59 11.68 4.99 11.85 5.42 11.95L5.42 12.92C5.42 13.4 5.56 13.54 5.98 13.54L7.02 13.54C7.44 13.54 7.58 13.39 7.58 12.92L7.58 11.95C8.01 11.85 8.41 11.68 8.79 11.47L9.59 12.28C9.93 12.61 10.13 12.62 10.43 12.32L11.16 11.58C11.46 11.29 11.46 11.09 11.12 10.75L10.35 9.97C10.62 9.55 10.83 9.09 10.95 8.58L11.97 8.58C12.39 8.58 12.54 8.44 12.54 7.96L12.54 7.04C12.54 6.58 12.41 6.42 11.97 6.42L10.95 6.42C10.85 5.99 10.68 5.59 10.47 5.21L11.2 4.48C11.53 4.16 11.56 3.96 11.24 3.65L10.51 2.91C10.21 2.62 10 2.62 9.67 2.95L8.97 3.65C8.55 3.38 8.09 3.17 7.58 3.05L7.58 2.08C7.58 1.63 7.46 1.47 7.02 1.47L5.98 1.47C5.56 1.47 5.42 1.62 5.42 2.08L5.42 3.05C4.92 3.17 4.45 3.38 4.03 3.65L3.33 2.95C3 2.62 2.79 2.62 2.49 2.91L1.75 3.65C1.44 3.96 1.47 4.16 1.79 4.48L2.53 5.21C2.32 5.59 2.15 5.99 2.05 6.42L1.03 6.42C.61 6.42 .47 6.57 .47 7.04L.47 7.96C.47 8.44 .61 8.58 1.03 8.58L2.05 8.58L2.05 8.58M4.73 7.5C4.73 6.52 5.52 5.73 6.5 5.73C7.48 5.73 8.27 6.52 8.27 7.5C8.27 8.48 7.48 9.27 6.5 9.27C5.52 9.27 4.73 8.48 4.73 7.5L4.73 7.5"/>
    </defs>
    <use xlink:href="#Settings" opacity="0.69"/>
    <use xlink:href="#Settings" y="-1" fill="#798286"/>
</svg>
