<svg version="1.1" xmlns="http://www.w3.org/2000/svg" xmlns:xlink="http://www.w3.org/1999/xlink" width="15" height="15" viewBox="-7 8 15 15">
	<path fill="#FFC600" d="M2.386,10.345c0,0-0.547-1.505-1.325-1.505c-0.726,0-1.382,1.458-1.382,1.458s-5.615,10.074-5.615,10.74s1.046,0.877,1.713,0.877c0.362,0,10.148,0.019,10.49,0.019C6.935,21.934,8,21.649,8,20.982S2.386,10.345,2.386,10.345zM-0.012,13.232c0-0.31,0.664-0.933,0.664-0.933h0.759c0,0,0.68,0.614,0.68,0.922c0,0.309-0.014,3.872-0.014,3.872l-1.035,0.274l-1.054-0.272C-0.012,17.096-0.012,13.54-0.012,13.232zM1.042,20.561c-0.934,0-1.488-0.073-1.488-1.043c0-0.99,0.554-1.086,1.488-1.086c0.915,0,1.355,0.153,1.355,1.104C2.397,20.469,1.996,20.561,1.042,20.561z"/>
</svg>
