<svg version="1.1" xmlns="http://www.w3.org/2000/svg" xmlns:xlink="http://www.w3.org/1999/xlink" width="24" height="24" viewBox="-12.5 9.5 24 24">
	<path id="gift" fill="#91cc41" d="M0.439,19.256c0.11-0.39,0.271-0.76,0.471-1.14c0.39-0.75,0.96-1.181,1.561-1.55c0.399-0.26,0.799-0.57,1.199-0.57c0.32,0,0.77,0.27,1.03,0.5c0.26,0.24,0.31,0.359,0.31,0.65c0,0.17-0.05,0.3-0.18,0.5c-0.12,0.199-0.35,0.39-0.71,0.619C3.439,18.676,2.26,19.076,0.439,19.256zM-5.12,18.246c-0.36-0.23-0.58-0.45-0.71-0.641c-0.13-0.199-0.18-0.379-0.18-0.549c0-0.281,0.05-0.32,0.31-0.561c0.26-0.23,0.71-0.5,1.02-0.5c0.4,0,0.81,0.311,1.21,0.57c0.6,0.369,1.17,0.88,1.56,1.64c0.2,0.37,0.36,0.7,0.471,1.09C-3.26,19.116-4.44,18.656-5.12,18.246zM5.5,19.496H4.311c0.709-0.35,1.34-0.77,1.67-1.27c0.26-0.391,0.52-0.82,0.52-1.23c0-0.71-0.48-1.33-0.971-1.77C5.04,14.788,4.59,14.5,3.88,14.5c-0.72,0-1.59,0.239-2.17,0.597c-0.569,0.37-1.06,0.859-1.47,1.419c-0.23,0.32-0.56,0.961-0.74,1.311c-0.18-0.35-0.51-0.99-0.74-1.311c-0.41-0.56-0.9-1.049-1.47-1.419C-3.29,14.739-4.16,14.5-4.88,14.5c-0.71,0-1.16,0.288-1.65,0.727c-0.49,0.439-0.97,1.06-0.97,1.77c0,0.41,0.26,0.84,0.52,1.23c0.33,0.5,0.96,0.92,1.67,1.27H-6.5c-0.59,0-1,0.33-1,0.92v2.08h1v6h12v-6h1v-2.08C6.5,19.826,6.09,19.496,5.5,19.496zM-2.5,20.496h4v3h2.609l-4.609,4.52l-4.52-4.52h2.52V20.496z"/>
</svg>
