<?xml version="1.0" encoding="utf-8"?>
<!-- Generator: Adobe Illustrator 16.2.1, SVG Export Plug-In . SVG Version: 6.00 Build 0)  -->
<!DOCTYPE svg PUBLIC "-//W3C//DTD SVG 1.1//EN" "http://www.w3.org/Graphics/SVG/1.1/DTD/svg11.dtd">
<svg version="1.1" id="Layer_1" xmlns="http://www.w3.org/2000/svg" xmlns:xlink="http://www.w3.org/1999/xlink" x="0px" y="0px"
	 width="14px" height="28px" viewBox="0 0 14 28" enable-background="new 0 0 14 28" xml:space="preserve">
<g>
	<path id="present" fill="#CCCCCC" d="M1,10h5v4H1V10z M8,10h5v4H8V10z M13,5h-1.188c0.711-0.349,1.342-0.773,1.668-1.267
		c0.259-0.39,0.521-0.82,0.52-1.233c-0.002-0.707-0.48-1.327-0.969-1.769C12.54,0.289,12.089,0.004,11.375,0
		c-0.719,0-1.59,0.237-2.161,0.602C8.641,0.97,8.15,1.464,7.743,2.021C7.512,2.34,7.176,2.982,7,3.333
		C6.824,2.982,6.489,2.34,6.257,2.021C5.849,1.464,5.359,0.97,4.786,0.602C4.215,0.237,3.344,0,2.625,0
		C1.911,0.004,1.46,0.289,0.969,0.731C0.481,1.173,0.002,1.793,0,2.5c-0.001,0.413,0.261,0.843,0.519,1.233
		C0.845,4.227,1.475,4.651,2.188,5H1C0.408,5,0,5.33,0,5.925V8h6V6h2v2h6V5.925C14,5.33,13.592,5,13,5z M2.385,3.746
		C2.02,3.525,1.796,3.304,1.666,3.106c-0.129-0.2-0.172-0.374-0.174-0.544C1.49,2.278,1.539,2.236,1.8,2
		c0.257-0.234,0.706-0.5,1.02-0.5h0.008c0.403,0,0.806,0.311,1.206,0.566C4.633,2.445,5.198,2.95,5.592,3.705
		c0.202,0.38,0.359,0.703,0.465,1.097C4.242,4.621,3.064,4.156,2.385,3.746z M7.943,4.761c0.104-0.394,0.263-0.758,0.465-1.139
		c0.394-0.755,0.959-1.177,1.558-1.556C10.366,1.81,10.77,1.5,11.172,1.5h0.008c0.314,0,0.764,0.266,1.021,0.5
		c0.261,0.236,0.31,0.361,0.308,0.645c-0.002,0.171-0.045,0.303-0.174,0.502c-0.13,0.198-0.354,0.398-0.719,0.62
		C10.936,4.177,9.758,4.58,7.943,4.761z"/>
</g>
<g>
	<path id="present_1_" fill="#B4B4B4" d="M1,24h5v4H1V24z M8,24h5v4H8V24z M13,19h-1.188c0.711-0.35,1.342-0.773,1.668-1.268
		c0.259-0.39,0.521-0.819,0.52-1.232c-0.002-0.707-0.48-1.327-0.969-1.77c-0.491-0.441-0.942-0.727-1.656-0.73
		c-0.719,0-1.59,0.237-2.161,0.602c-0.573,0.368-1.063,0.862-1.471,1.42C7.512,16.34,7.176,16.982,7,17.333
		c-0.176-0.351-0.511-0.993-0.743-1.312c-0.408-0.558-0.898-1.052-1.471-1.42C4.215,14.237,3.344,14,2.625,14
		c-0.714,0.004-1.165,0.289-1.656,0.73C0.481,15.173,0.002,15.793,0,16.5c-0.001,0.413,0.261,0.843,0.519,1.232
		C0.845,18.227,1.475,18.65,2.188,19H1c-0.592,0-1,0.33-1,0.925V22h6v-2h2v2h6v-2.075C14,19.33,13.592,19,13,19z M2.385,17.746
		c-0.365-0.221-0.589-0.441-0.719-0.641c-0.129-0.199-0.172-0.373-0.174-0.543C1.49,16.277,1.539,16.236,1.8,16
		c0.257-0.234,0.706-0.5,1.02-0.5h0.008c0.403,0,0.806,0.311,1.206,0.566c0.599,0.379,1.164,0.884,1.558,1.639
		c0.202,0.38,0.359,0.703,0.465,1.097C4.242,18.621,3.064,18.156,2.385,17.746z M7.943,18.761c0.104-0.394,0.263-0.758,0.465-1.139
		c0.394-0.755,0.959-1.177,1.558-1.556c0.4-0.256,0.804-0.566,1.206-0.566h0.008c0.314,0,0.764,0.266,1.021,0.5
		c0.261,0.236,0.31,0.361,0.308,0.645c-0.002,0.172-0.045,0.304-0.174,0.502c-0.13,0.198-0.354,0.398-0.719,0.621
		C10.936,18.177,9.758,18.58,7.943,18.761z"/>
</g>
</svg>
