<?xml version="1.0" encoding="utf-8"?>
<!-- Generator: Adobe Illustrator 16.0.0, SVG Export Plug-In . SVG Version: 6.00 Build 0)  -->
<!DOCTYPE svg PUBLIC "-//W3C//DTD SVG 1.1//EN" "http://www.w3.org/Graphics/SVG/1.1/DTD/svg11.dtd">
<svg version="1.1" id="Layer_1" xmlns="http://www.w3.org/2000/svg" xmlns:xlink="http://www.w3.org/1999/xlink" x="0px" y="0px"
	 width="14px" height="28px" viewBox="0 0 14 28" enable-background="new 0 0 14 28" xml:space="preserve">
<g opacity="0.6">
	<rect x="1" y="10" fill="#0082C3" width="5" height="4"/>
	<rect x="8" y="10" fill="#0082C3" width="5" height="4"/>
	<g>
		<path fill="#0082C3" d="M13,5h-1.188c0.712-0.349,1.343-0.773,1.668-1.267C13.739,3.343,14.001,2.913,14,2.5
			c-0.002-0.707-0.481-1.327-0.969-1.769C12.54,0.289,12.089,0.004,11.375,0c-0.719,0-1.59,0.237-2.161,0.602
			C8.641,0.97,8.151,1.464,7.743,2.021C7.511,2.34,7.176,2.982,7,3.333C6.824,2.982,6.489,2.34,6.257,2.021
			C5.849,1.464,5.359,0.97,4.786,0.602C4.215,0.237,3.344,0,2.625,0C1.911,0.004,1.46,0.289,0.969,0.731
			C0.481,1.173,0.002,1.793,0,2.5c-0.001,0.413,0.261,0.843,0.519,1.233C0.845,4.227,1.475,4.651,2.188,5H1C0.408,5,0,5.33,0,5.925
			V8h6V6h2v2h6V5.925C14,5.33,13.592,5,13,5z M2.385,3.746c-0.365-0.221-0.589-0.442-0.719-0.64c-0.129-0.2-0.172-0.374-0.174-0.544
			C1.49,2.278,1.539,2.236,1.8,2C2.057,1.766,2.506,1.5,2.82,1.5h0.008c0.403,0,0.806,0.311,1.206,0.566
			c0.599,0.379,1.164,0.884,1.558,1.639c0.202,0.38,0.359,0.703,0.465,1.097C4.242,4.621,3.064,4.156,2.385,3.746z M7.943,4.761
			c0.105-0.394,0.263-0.758,0.465-1.139c0.394-0.755,0.959-1.177,1.558-1.556c0.4-0.256,0.803-0.566,1.206-0.566h0.008
			c0.314,0,0.763,0.266,1.021,0.5c0.261,0.236,0.31,0.361,0.308,0.645c-0.002,0.171-0.045,0.303-0.174,0.502
			c-0.13,0.198-0.354,0.398-0.719,0.62C10.936,4.177,9.758,4.58,7.943,4.761z"/>
	</g>
</g>
<g>
	<rect x="1" y="24" fill="#0082C3" width="5" height="4"/>
	<rect x="8" y="24" fill="#0082C3" width="5" height="4"/>
	<g>
		<path fill="#0082C3" d="M13,19h-1.188c0.712-0.349,1.343-0.773,1.668-1.267c0.258-0.391,0.521-0.82,0.519-1.233
			c-0.002-0.707-0.481-1.327-0.969-1.769c-0.491-0.442-0.942-0.728-1.656-0.731c-0.719,0-1.59,0.237-2.161,0.602
			c-0.574,0.369-1.063,0.862-1.471,1.419C7.511,16.34,7.176,16.982,7,17.333c-0.176-0.352-0.511-0.994-0.743-1.313
			c-0.408-0.557-0.897-1.05-1.471-1.419C4.215,14.237,3.344,14,2.625,14c-0.714,0.004-1.165,0.289-1.656,0.731
			C0.481,15.173,0.002,15.793,0,16.5c-0.001,0.413,0.261,0.843,0.519,1.233C0.845,18.227,1.475,18.651,2.188,19H1
			c-0.592,0-1,0.33-1,0.925V22h6v-2h2v2h6v-2.075C14,19.33,13.592,19,13,19z M2.385,17.746c-0.365-0.221-0.589-0.442-0.719-0.64
			c-0.129-0.2-0.172-0.374-0.174-0.544C1.49,16.278,1.539,16.236,1.8,16c0.257-0.234,0.706-0.5,1.021-0.5h0.008
			c0.403,0,0.806,0.311,1.206,0.566c0.599,0.379,1.164,0.884,1.558,1.639c0.202,0.38,0.359,0.703,0.465,1.097
			C4.242,18.621,3.064,18.156,2.385,17.746z M7.943,18.761c0.105-0.394,0.263-0.758,0.465-1.139
			c0.394-0.755,0.959-1.177,1.558-1.556c0.4-0.256,0.803-0.566,1.206-0.566h0.008c0.314,0,0.763,0.266,1.021,0.5
			c0.261,0.236,0.31,0.361,0.308,0.645c-0.002,0.171-0.045,0.303-0.174,0.502c-0.13,0.198-0.354,0.398-0.719,0.62
			C10.936,18.177,9.758,18.58,7.943,18.761z"/>
	</g>
</g>
</svg>
