<?xml version="1.0" encoding="utf-8"?>
<!-- Generator: Adobe Illustrator 16.0.0, SVG Export Plug-In . SVG Version: 6.00 Build 0)  -->
<!DOCTYPE svg PUBLIC "-//W3C//DTD SVG 1.1//EN" "http://www.w3.org/Graphics/SVG/1.1/DTD/svg11.dtd">
<svg version="1.1" id="Layer_1" xmlns="http://www.w3.org/2000/svg" xmlns:xlink="http://www.w3.org/1999/xlink" x="0px" y="0px"
	 width="18px" height="36px" viewBox="0 0 18 36" enable-background="new 0 0 18 36" xml:space="preserve">
<g opacity="0.3">
	<rect x="1" y="11" fill="#0082C3" width="7" height="7"/>
	<rect x="10" y="11" fill="#0082C3" width="7" height="7"/>
	<path fill="#0082C3" d="M17,6.004L14.5,6c0.814-0.419,1.536-0.928,1.907-1.519C16.702,4.012,17.001,3.495,17,3
		c-0.002-0.847-0.549-1.592-1.107-2.123C15.333,0.348,14.817,0.003,14,0c-0.821,0-1.816,0.285-2.469,0.724
		c-0.656,0.44-1.216,1.033-1.681,1.701C9.584,2.808,9.202,3.578,9,4C8.798,3.578,8.416,2.808,8.15,2.424
		c-0.465-0.667-1.025-1.26-1.681-1.701C5.816,0.285,4.821,0,4,0C3.183,0.003,2.667,0.348,2.107,0.877C1.549,1.408,1.002,2.153,1,3
		C0.999,3.495,1.298,4.012,1.593,4.481C1.964,5.072,2.686,5.581,3.5,6L1,6.004c-0.592,0-1,0.326-1,0.921V9h8V7h2v2h8V6.925
		C18,6.33,17.592,6.004,17,6.004z M3.726,4.496C3.308,4.231,3.053,3.964,2.905,3.727c-0.147-0.239-0.198-0.448-0.2-0.652
		C2.703,2.733,2.873,2.553,3.171,2.27C3.465,1.988,3.864,2,4.223,2h0.009c0.46,0,0.92-0.026,1.377,0.28
		c0.685,0.455,1.33,1.161,1.781,2.066c0.23,0.457,0.41,0.895,0.531,1.367C5.847,5.497,4.502,4.989,3.726,4.496z M10.078,5.713
		c0.121-0.472,0.301-0.91,0.531-1.367c0.451-0.905,1.096-1.612,1.781-2.066C12.848,1.974,13.307,2,13.768,2h0.009
		c0.359,0,0.758-0.012,1.052,0.27c0.298,0.283,0.468,0.464,0.466,0.806c-0.001,0.204-0.052,0.413-0.2,0.652
		c-0.148,0.237-0.403,0.504-0.821,0.769C13.498,4.989,12.153,5.497,10.078,5.713z"/>
</g>
<g opacity="0.3">
	<rect x="1" y="11" fill="#0082C3" width="7" height="7"/>
	<rect x="10" y="11" fill="#0082C3" width="7" height="7"/>
	<path fill="#0082C3" d="M17,6.004L14.5,6c0.814-0.419,1.536-0.928,1.907-1.519C16.702,4.012,17.001,3.495,17,3
		c-0.002-0.847-0.549-1.592-1.107-2.123C15.333,0.348,14.817,0.003,14,0c-0.821,0-1.816,0.285-2.469,0.724
		c-0.656,0.44-1.216,1.033-1.681,1.701C9.584,2.808,9.202,3.578,9,4C8.798,3.578,8.416,2.808,8.15,2.424
		c-0.465-0.667-1.025-1.26-1.681-1.701C5.816,0.285,4.821,0,4,0C3.183,0.003,2.667,0.348,2.107,0.877C1.549,1.408,1.002,2.153,1,3
		C0.999,3.495,1.298,4.012,1.593,4.481C1.964,5.072,2.686,5.581,3.5,6L1,6.004c-0.592,0-1,0.326-1,0.921V9h8V7h2v2h8V6.925
		C18,6.33,17.592,6.004,17,6.004z M3.726,4.496C3.308,4.231,3.053,3.964,2.905,3.727c-0.147-0.239-0.198-0.448-0.2-0.652
		C2.703,2.733,2.873,2.553,3.171,2.27C3.465,1.988,3.864,2,4.223,2h0.009c0.46,0,0.92-0.026,1.377,0.28
		c0.685,0.455,1.33,1.161,1.781,2.066c0.23,0.457,0.41,0.895,0.531,1.367C5.847,5.497,4.502,4.989,3.726,4.496z M10.078,5.713
		c0.121-0.472,0.301-0.91,0.531-1.367c0.451-0.905,1.096-1.612,1.781-2.066C12.848,1.974,13.307,2,13.768,2h0.009
		c0.359,0,0.758-0.012,1.052,0.27c0.298,0.283,0.468,0.464,0.466,0.806c-0.001,0.204-0.052,0.413-0.2,0.652
		c-0.148,0.237-0.403,0.504-0.821,0.769C13.498,4.989,12.153,5.497,10.078,5.713z"/>
</g>
<g>
	<rect x="1" y="29" fill="#0082C3" width="7" height="7"/>
	<rect x="10" y="29" fill="#0082C3" width="7" height="7"/>
	<path fill="#0082C3" d="M17,24.004L14.5,24c0.814-0.419,1.536-0.928,1.907-1.519C16.702,22.012,17.001,21.495,17,21
		c-0.002-0.847-0.549-1.592-1.107-2.123C15.333,18.348,14.817,18.003,14,18c-0.821,0-1.816,0.285-2.469,0.724
		c-0.656,0.44-1.216,1.033-1.681,1.701C9.584,20.808,9.202,21.578,9,22c-0.202-0.422-0.584-1.192-0.85-1.576
		c-0.465-0.667-1.025-1.26-1.681-1.701C5.816,18.285,4.821,18,4,18c-0.817,0.003-1.333,0.348-1.893,0.877
		C1.549,19.408,1.002,20.153,1,21c-0.001,0.495,0.298,1.012,0.593,1.481C1.964,23.072,2.686,23.581,3.5,24L1,24.004
		c-0.592,0-1,0.326-1,0.921V27h8v-2h2v2h8v-2.075C18,24.33,17.592,24.004,17,24.004z M3.726,22.496
		c-0.418-0.264-0.673-0.531-0.821-0.769c-0.147-0.239-0.198-0.448-0.2-0.652c-0.002-0.342,0.168-0.522,0.466-0.806
		C3.465,19.988,3.864,20,4.223,20h0.009c0.46,0,0.92-0.026,1.377,0.28c0.685,0.455,1.33,1.161,1.781,2.066
		c0.23,0.457,0.41,0.895,0.531,1.367C5.847,23.497,4.502,22.989,3.726,22.496z M10.078,23.713c0.121-0.472,0.301-0.91,0.531-1.367
		c0.451-0.905,1.096-1.612,1.781-2.066c0.458-0.306,0.917-0.28,1.377-0.28h0.009c0.359,0,0.758-0.012,1.052,0.27
		c0.298,0.283,0.468,0.464,0.466,0.806c-0.001,0.204-0.052,0.413-0.2,0.652c-0.148,0.237-0.403,0.504-0.821,0.769
		C13.498,22.989,12.153,23.497,10.078,23.713z"/>
</g>
</svg>
