<svg version="1.1" xmlns="http://www.w3.org/2000/svg" xmlns:xlink="http://www.w3.org/1999/xlink" width="14px" height="28px">
	<defs>
		<path id="gift" d="M7.939,4.76C8.05,4.37,8.21,4,8.41,3.62C8.8,2.87,9.37,2.44,9.971,2.07C10.37,1.81,10.77,1.5,11.17,1.5c0.32,0,0.77,0.27,1.03,0.5c0.26,0.24,0.31,0.36,0.31,0.65c0,0.17-0.05,0.3-0.18,0.5c-0.12,0.2-0.35,0.39-0.71,0.62C10.939,4.18,9.76,4.58,7.939,4.76z M2.38,3.75C2.02,3.52,1.8,3.3,1.67,3.11c-0.13-0.2-0.18-0.38-0.18-0.55C1.49,2.28,1.54,2.24,1.8,2c0.26-0.23,0.71-0.5,1.02-0.5c0.4,0,0.81,0.31,1.21,0.57c0.6,0.37,1.17,0.88,1.56,1.64c0.2,0.37,0.36,0.7,0.471,1.09C4.24,4.62,3.06,4.16,2.38,3.75z M13,5h-1.189c0.709-0.35,1.34-0.77,1.67-1.27C13.74,3.34,14,2.91,14,2.5c0-0.71-0.48-1.33-0.971-1.77C12.54,0.29,12.09,0,11.38,0c-0.72,0-1.59,0.24-2.17,0.6C8.641,0.97,8.15,1.46,7.74,2.02C7.51,2.34,7.18,2.98,7,3.33C6.82,2.98,6.49,2.34,6.26,2.02C5.85,1.46,5.36,0.97,4.79,0.6C4.21,0.24,3.34,0,2.62,0C1.91,0,1.46,0.29,0.97,0.73C0.48,1.17,0,1.79,0,2.5c0,0.41,0.26,0.84,0.52,1.23C0.85,4.23,1.48,4.65,2.19,5H1C0.41,5,0,5.33,0,5.92V8h1v6h12V8h1V5.92C14,5.33,13.59,5,13,5z M5,6h4v3h2.609L7,13.52L2.48,9H5V6z" />
	</defs>
	<use xlink:href="#gift" fill="#CCCCCC" x="0" y="0"/>
	<use xlink:href="#gift" fill="#B4B4B4" x="0" y="14px"/>
</svg> 