<svg version="1.1" xmlns="http://www.w3.org/2000/svg" xmlns:xlink="http://www.w3.org/1999/xlink" width="14px" height="28px">
	<defs>
		<path id="present" fill="#0082C3" d="M1,10h5v4h-5zM8,10h5v4h-5zM13,5h-1.188c0.712-0.349,1.343-0.773,1.668-1.267C13.739,3.343,14.001,2.913,14,2.5c-0.002-0.707-0.481-1.327-0.969-1.769C12.54,0.289,12.089,0.004,11.375,0c-0.719,0-1.59,0.237-2.161,0.602C8.641,0.97,8.151,1.464,7.743,2.021C7.511,2.34,7.176,2.982,7,3.333C6.824,2.982,6.489,2.34,6.257,2.021C5.849,1.464,5.359,0.97,4.786,0.602C4.215,0.237,3.344,0,2.625,0C1.911,0.004,1.46,0.289,0.969,0.731C0.481,1.173,0.002,1.793,0,2.5c-0.001,0.413,0.261,0.843,0.519,1.233C0.845,4.227,1.475,4.651,2.188,5H1C0.408,5,0,5.33,0,5.925V8h6V6h2v2h6V5.925C14,5.33,13.592,5,13,5zM2.385,3.746c-0.365-0.221-0.589-0.442-0.719-0.64c-0.129-0.2-0.172-0.374-0.174-0.544C1.49,2.278,1.539,2.236,1.8,2C2.057,1.766,2.506,1.5,2.82,1.5h0.008c0.403,0,0.806,0.311,1.206,0.566c0.599,0.379,1.164,0.884,1.558,1.639c0.202,0.38,0.359,0.703,0.465,1.097C4.242,4.621,3.064,4.156,2.385,3.746zM7.943,4.761c0.105-0.394,0.263-0.758,0.465-1.139c0.394-0.755,0.959-1.177,1.558-1.556c0.4-0.256,0.803-0.566,1.206-0.566h0.008c0.314,0,0.763,0.266,1.021,0.5c0.261,0.236,0.31,0.361,0.308,0.645c-0.002,0.171-0.045,0.303-0.174,0.502c-0.13,0.198-0.354,0.398-0.719,0.62C10.936,4.177,9.758,4.58,7.943,4.761z"/>
	</defs>
	
	<use xlink:href="#present" opacity=".6"/>
	<use xlink:href="#present" y="14"/>
	
</svg>
