<svg xmlns="http://www.w3.org/2000/svg" width="24" height="24" viewBox="-12.5 9.5 24 24">
    <path fill="#91cc41" d="M.44 19.26c.11-.39 .27-.76 .47-1.14c.39-.75 .96-1.18 1.56-1.55c.4-.26 .8-.57 1.2-.57c.32 0 .77 .27 1.03 .5c.26 .24 .31 .36 .31 .65c0 .17-.05 .3-.18 .5c-.12 .2-.35 .39-.71 .62C3.44 18.68 2.26 19.08 .44 19.26zM-5.12 18.25c-.36-.23-.58-.45-.71-.64c-.13-.2-.18-.38-.18-.55c0-.28 .05-.32 .31-.56c.26-.23 .71-.5 1.02-.5c.4 0 .81 .31 1.21 .57c.6 .37 1.17 .88 1.56 1.64c.2 .37 .36 .7 .47 1.09C-3.26 19.12-4.44 18.66-5.12 18.25zM5.5 19.5H4.31c.71-.35 1.34-.77 1.67-1.27c.26-.39 .52-.82 .52-1.23c0-.71-.48-1.33-.97-1.77C5.04 14.79 4.59 14.5 3.88 14.5c-.72 0-1.59 .24-2.17 .6c-.57 .37-1.06 .86-1.47 1.42c-.23 .32-.56 .96-.74 1.31c-.18-.35-.51-.99-.74-1.31c-.41-.56-.9-1.05-1.47-1.42C-3.29 14.74-4.16 14.5-4.88 14.5c-.71 0-1.16 .29-1.65 .73c-.49 .44-.97 1.06-.97 1.77c0 .41 .26 .84 .52 1.23c.33 .5 .96 .92 1.67 1.27H-6.5c-.59 0-1 .33-1 .92v2.08h1v6h12v-6h1v-2.08C6.5 19.83 6.09 19.5 5.5 19.5zM-2.5 20.5h4v3h2.61l-4.61 4.52l-4.52-4.52h2.52V20.5z"/>
</svg>
