<svg xmlns="http://www.w3.org/2000/svg" width="120" height="120">
    <path fill="#91cc41" d="M10 69h46v51h-46zM64 69h46v51h-46zM114 33H90c4.44-2.28 7.6-4.83 9.63-8.03c1.61-2.55 2.4-5.35 2.39-8.04C102 12.34 100.04 7.87 97 5c-3.06-2.88-7.31-4.98-11.77-5c-4.48-0-8.64 2.21-12.2 4.58c-3.58 2.39-6.63 5.6-9.17 9.23C62.42 15.89 61.1 17.71 60 20c-1.1-2.29-2.42-4.11-3.86-6.19c-2.54-3.62-5.59-6.84-9.17-9.23C43.41 2.21 39.25-0 34.77 0C30.31 .02 26.06 2.13 23 5c-3.04 2.87-5 7.34-5.02 11.93c-.01 2.69 .78 5.49 2.39 8.04C22.4 28.17 25.56 30.72 30 33H6c-3.23 0-6 2.77-6 6v22h56V33h8v28h56V39C120 35.77 117.23 33 114 33zM32.01 24.64c-2.28-1.43-3.67-2.88-4.48-4.17c-.81-1.29-1.08-2.43-1.09-3.54c-.01-1.85 .92-3.83 2.54-5.37c1.6-1.52 3.78-2.45 5.74-2.45h.05c2.51 0 5.02 .85 7.52 2.51c3.73 2.47 7.25 6.8 9.71 11.71c1.26 2.48 2.24 5.11 2.9 7.66C43.57 29.82 36.24 27.31 32.01 24.64zM65.11 30.99c.66-2.56 1.64-5.18 2.9-7.66c2.46-4.91 5.98-9.24 9.71-11.71c2.5-1.66 5-2.51 7.52-2.51h.05c1.96 0 4.14 .93 5.74 2.45c1.63 1.54 2.55 3.52 2.54 5.37c-.01 1.11-.28 2.24-1.09 3.54c-.81 1.29-2.2 2.74-4.48 4.17C83.76 27.31 76.43 29.82 65.11 30.99z"/>
</svg>
