<svg xmlns="http://www.w3.org/2000/svg" viewBox="-6524 166 18 18">
  <defs>
    <style>
      .cls-1 {
        fill: #ff13dc;
        opacity: 0;
      }

      .cls-2 {
        fill: #fff;
      }
    </style>
  </defs>
  <g id="Smock_Info_18_N_1x" data-name="Smock_Info_18_N@1x" transform="translate(-6524 166)">
    <rect id="ToDelete" class="cls-1" width="18" height="18"/>
    <path id="Path_7" data-name="Path 7" class="cls-2" d="M9,1a8,8,0,1,0,8,8A8,8,0,0,0,9,1ZM8.85,3.15a1.359,1.359,0,0,1,1.432,1.412A1.332,1.332,0,0,1,8.85,5.994,1.353,1.353,0,0,1,7.418,4.561,1.359,1.359,0,0,1,8.85,3.15ZM11,13.5a.5.5,0,0,1-.5.5h-3a.5.5,0,0,1-.5-.5v-1a.5.5,0,0,1,.5-.5H8V9H7.5A.5.5,0,0,1,7,8.5v-1A.5.5,0,0,1,7.5,7h2a.5.5,0,0,1,.5.5V12h.5a.5.5,0,0,1,.5.5Z"/>
  </g>
</svg>
