<?xml version="1.0" encoding="utf-8"?>
<!-- Generator: Adobe Illustrator 16.0.0, SVG Export Plug-In . SVG Version: 6.00 Build 0)  -->
<!DOCTYPE svg PUBLIC "-//W3C//DTD SVG 1.1//EN" "http://www.w3.org/Graphics/SVG/1.1/DTD/svg11.dtd">
<svg version="1.1" id="Layer_1" xmlns="http://www.w3.org/2000/svg" xmlns:xlink="http://www.w3.org/1999/xlink" x="0px" y="0px"
	 width="30px" height="320px" viewBox="0 0 30 320" enable-background="new 0 0 30 320" xml:space="preserve">
<g>
	<rect y="160" fill="none" width="30" height="80"/>
	<path opacity="0.1" enable-background="new    " d="M14.987,192.5c-0.045,0-0.091-0.006-0.135-0.02l-8.576-2.398
		c-0.2-0.057-0.345-0.23-0.363-0.438l-1.911-21.6c-0.012-0.141,0.035-0.029,0.129-0.131C4.226,167.809,4.36,168,4.5,168h21
		c0.141,0,0.273-0.191,0.369-0.086c0.095,0.104,0.143,0.117,0.129,0.256l-1.913,21.535c-0.019,0.207-0.163,0.35-0.362,0.404
		l-8.601,2.389C15.078,192.51,15.033,192.5,14.987,192.5z"/>
	<path opacity="0.1" enable-background="new    " d="M14.987,193c-0.091,0-0.181-0.012-0.27-0.037l-8.576-2.398
		c-0.4-0.111-0.69-0.461-0.727-0.875l-1.91-21.602c-0.025-0.279,0.069-0.555,0.258-0.762S4.219,167,4.5,167h21
		c0.279,0,0.548,0.119,0.736,0.326c0.189,0.207,0.283,0.482,0.26,0.764l-1.913,21.598c-0.037,0.414-0.326,0.764-0.728,0.875
		l-8.6,2.402C15.168,192.988,15.078,193,14.987,193z"/>
	<polygon opacity="0.1" enable-background="new    " points="6.411,189.602 4.5,168 25.5,168 23.587,189.598 14.987,192 	"/>
	<g>
		<polygon fill="#E44D26" points="6.411,188.602 4.5,167 25.5,167 23.587,188.598 14.987,191 		"/>
		<polygon fill="#F16529" points="15.001,189.164 21.949,187.223 23.585,168.768 15.001,168.768 		"/>
		<polygon fill="#EBEBEB" points="15.001,176.777 11.521,176.777 11.281,174.064 15.001,174.064 15.001,171.416 14.991,171.416 
			8.408,171.416 8.472,172.127 9.117,179.428 15.001,179.428 		"/>
		<polygon fill="#EBEBEB" points="15.001,183.658 14.989,183.662 12.061,182.865 11.874,180.752 10.451,180.752 9.235,180.752 
			9.604,184.912 14.988,186.418 15.001,186.414 		"/>
		<polygon fill="#FFFFFF" points="14.991,176.777 14.991,179.428 18.229,179.428 17.924,182.861 14.991,183.66 14.991,186.416 
			20.381,184.912 20.42,184.465 21.038,177.49 21.104,176.777 20.395,176.777 		"/>
		<polygon fill="#FFFFFF" points="14.991,171.416 14.991,173.061 14.991,174.059 14.991,174.064 21.333,174.064 21.333,174.064 
			21.342,174.064 21.395,173.471 21.514,172.127 21.577,171.416 		"/>
	</g>
	<g>
		<polygon fill="#FFFFFF" points="6.411,229 4,208 26,208 24,229 15,232 		"/>
		<g>
			<polygon fill="#CCCCCC" points="6.872,227.631 4.561,207.5 25.45,207.5 23.533,227.629 15.004,230.473 			"/>
			<path fill="#B3B3B3" d="M24.9,208l-1.834,19.258l-8.06,2.686l-7.674-2.682L5.122,208H24.9 M26,207H4l2.411,21L15,231l9-3L26,207
				L26,207z"/>
		</g>
		<polygon fill="#B3B3B3" points="15.001,216.777 11.521,216.777 11.281,214.064 15.001,214.064 15.001,211.416 14.991,211.416 
			8.408,211.416 8.472,212.127 9.117,219.428 15.001,219.428 		"/>
		<polygon fill="#B3B3B3" points="15.001,223.658 14.989,223.662 12.061,222.865 11.874,220.752 10.451,220.752 9.235,220.752 
			9.604,224.912 14.988,226.418 15.001,226.414 		"/>
		<polygon fill="#B3B3B3" points="14.991,216.777 14.991,219.428 18.229,219.428 17.924,222.861 14.991,223.66 14.991,226.416 
			20.381,224.912 20.42,224.465 21.038,217.49 21.104,216.777 20.395,216.777 		"/>
		<polygon fill="#B3B3B3" points="14.991,211.416 14.991,213.061 14.991,214.059 14.991,214.064 21.333,214.064 21.333,214.064 
			21.342,214.064 21.395,213.471 21.514,212.127 21.577,211.416 		"/>
	</g>
</g>
<g>
	<rect fill="none" width="30" height="80"/>
	<g>
		<path fill="#FFFFFF" d="M21.723,55.374c-0.084,0.929-0.354,1.813-0.783,2.629c-0.025,0.045-2.562,3.597-2.562,6.44l-0.087,0.842
			c-0.138,0.561-0.423,0.846-0.853,0.846h-4.875c-0.427,0-0.714-0.285-0.852-0.846l-0.086-0.842c0-2.844-2.538-6.395-2.543-6.44
			c-0.449-0.816-0.721-1.701-0.805-2.629l-0.028-0.621c0-1.803,0.701-3.499,1.977-4.774C11.501,48.703,13.195,48,15,48
			c0.648,0,1.29,0.092,1.906,0.272c1.078,0.317,2.07,0.908,2.869,1.707c1.273,1.275,1.977,2.97,1.977,4.774L21.723,55.374z"/>
		<rect x="12.255" y="68.299" fill="#FFFFFF" width="5.49" height="1.72"/>
		<rect x="13.448" y="71.028" fill="#FFFFFF" width="3.104" height="0.972"/>
	</g>
	<g>
		<g>
			<g>
				<g>
					<path fill="#CCCCCC" d="M12.562,64.632c-0.082,0-0.252,0-0.366-0.465l-0.074-0.773c0.002-2.179-1.383-4.765-2.545-6.541
						l-0.058-0.09c-0.417-0.757-0.667-1.576-0.745-2.433l-0.027-0.599c0-1.647,0.65-3.217,1.831-4.397
						C11.76,48.151,13.33,47.5,15,47.5c0.602,0,1.193,0.085,1.766,0.252c0.998,0.293,1.916,0.84,2.656,1.58
						c1.18,1.181,1.83,2.751,1.83,4.42l-0.027,0.598c-0.076,0.825-0.32,1.646-0.728,2.42c-0.606,0.877-2.621,4.015-2.621,6.673
						l-0.084,0.791c-0.103,0.397-0.272,0.397-0.354,0.397L12.562,64.632L12.562,64.632z"/>
					<path fill="#B3B3B3" d="M15,48c0.553,0,1.1,0.078,1.624,0.232c0.918,0.27,1.763,0.773,2.444,1.454
						c1.086,1.086,1.684,2.531,1.685,4.02l-0.026,0.578c-0.067,0.762-0.285,1.504-0.646,2.205c-0.651,0.951-2.679,4.134-2.704,6.9
						l-0.072,0.715c-0.004,0.01-0.007,0.019-0.01,0.027h-4.589c-0.002-0.008-0.005-0.018-0.008-0.027l-0.073-0.714
						c-0.021-2.34-1.438-4.993-2.628-6.812L9.953,56.51c-0.38-0.693-0.608-1.442-0.676-2.182L9.25,53.752
						c0-1.537,0.598-2.981,1.684-4.067C12.019,48.599,13.464,48,15,48 M15,47c-1.805,0-3.499,0.703-4.775,1.979
						c-1.275,1.275-1.977,2.971-1.977,4.774l0.028,0.621c0.084,0.929,0.355,1.813,0.805,2.629c0.005,0.045,2.543,3.597,2.543,6.44
						l0.086,0.842c0.138,0.561,0.425,0.846,0.852,0.846h4.875c0.43,0,0.715-0.285,0.853-0.846l0.087-0.842
						c0-2.844,2.537-6.395,2.562-6.44c0.43-0.816,0.699-1.701,0.783-2.629l0.029-0.621c0-1.804-0.702-3.499-1.977-4.774
						c-0.799-0.799-1.791-1.389-2.869-1.707C16.29,47.092,15.648,47,15,47L15,47z"/>
				</g>
				<g>
					<rect x="12.755" y="67.799" fill="#CCCCCC" width="4.49" height="0.72"/>
					<polygon fill="#B3B3B3" points="17.745,67.299 12.255,67.299 12.255,69.019 17.745,69.019 					"/>
				</g>
				<g>
					<rect x="13.448" y="70.028" fill="#CCCCCC" width="3.104" height="0.972"/>
					<polygon fill="#B3B3B3" points="16.552,70.028 13.448,70.028 13.448,71 16.552,71 					"/>
				</g>
			</g>
		</g>
	</g>
	<path opacity="0.08" enable-background="new    " d="M20.482,9.271c-0.916-0.917-2.056-1.594-3.295-1.959
		C16.479,7.104,15.743,6.999,15,6.999c-2.071,0-4.018,0.807-5.482,2.271c-1.463,1.463-2.27,3.409-2.269,5.525l0.031,0.661
		c0.096,1.059,0.407,2.072,0.925,3.013c0.035,0.062,0.074,0.123,0.118,0.189c1.484,2.259,2.301,4.302,2.301,5.753
		c0,0.035,0.002,0.07,0.005,0.105l0.086,0.809c0.005,0.045,0.013,0.089,0.023,0.133C11.079,26.85,12.126,27,12.561,27h-0.562
		c-0.552,0-1,0.447-1,1v2c0,0.553,0.448,1,1,1v1c0,0.553,0.448,1,1,1h4c0.553,0,1-0.447,1-1v-1c0.553,0,1-0.447,1-1v-2
		c0-0.553-0.447-1-1-1h-0.563c0.437,0,1.485-0.15,1.824-1.544c0.01-0.041,0.018-0.083,0.022-0.125l0.087-0.776
		c0.004-0.037,0.006-0.074,0.006-0.111c0-2.283,1.973-5.269,2.367-5.844c0.021-0.033,0.062-0.096,0.082-0.131
		c0.498-0.95,0.799-1.96,0.896-3.047l0.029-0.668C22.753,12.683,21.947,10.736,20.482,9.271z"/>
	<path opacity="0.08" enable-background="new    " d="M18.001,27.5h-6c-0.276,0-0.5,0.224-0.5,0.5v2c0,0.276,0.224,0.5,0.5,0.5h1
		c-0.276,0-0.5,0.224-0.5,0.5v1c0,0.276,0.224,0.5,0.5,0.5h4c0.276,0,0.5-0.224,0.5-0.5v-1c0-0.276-0.224-0.5-0.5-0.5h1
		c0.276,0,0.5-0.224,0.5-0.5v-2C18.501,27.724,18.277,27.5,18.001,27.5z"/>
	<path opacity="0.08" enable-background="new    " d="M20.13,9.625c-0.858-0.858-1.924-1.492-3.082-1.833
		c-0.663-0.194-1.353-0.293-2.047-0.293c-1.938,0-3.759,0.754-5.129,2.125c-1.369,1.369-2.123,3.189-2.123,5.148l0.03,0.639
		c0.089,0.989,0.38,1.937,0.865,2.817l0,0c0.023,0.043,0.055,0.091,0.098,0.156c1.537,2.339,2.383,4.48,2.386,6.081l0.097,0.875
		c0.235,0.96,0.857,1.161,1.337,1.161h4.875c0.48,0,1.104-0.201,1.35-1.225l0.09-0.832c0-2.431,2.045-5.53,2.506-6.208
		c0.469-0.891,0.75-1.839,0.84-2.838l0.03-0.645C22.253,12.816,21.499,10.995,20.13,9.625z"/>
	<rect x="12.001" y="28" opacity="0.08" enable-background="new    " width="6" height="2"/>
	<rect x="13.001" y="31" opacity="0.08" enable-background="new    " width="4" height="1"/>
	<path opacity="0.08" enable-background="new    " d="M19.775,9.979c-0.799-0.799-1.791-1.389-2.868-1.707
		c-0.616-0.181-1.259-0.273-1.906-0.273c-1.805,0-3.499,0.702-4.775,1.978c-1.275,1.275-1.977,2.969-1.977,4.772l0.028,0.617
		c0.084,0.929,0.355,1.805,0.805,2.621c0.005,0.045,2.543,3.581,2.543,6.424l0.086,0.809c0.138,0.562,0.425,0.78,0.852,0.78h4.875
		c0.431,0,0.717-0.219,0.854-0.78l0.087-0.776c0-2.844,2.537-6.395,2.563-6.44c0.429-0.816,0.699-1.701,0.783-2.629l0.028-0.621
		C21.753,12.949,21.051,11.254,19.775,9.979z"/>
	<g>
		<g>
			<g>
				<g>
					
						<radialGradient id="SVGID_1_" cx="-383.8096" cy="843.3594" r="7.6548" gradientTransform="matrix(-4.371139e-08 1 0.7644 3.341214e-08 -629.4751 398.7271)" gradientUnits="userSpaceOnUse">
						<stop  offset="0" style="stop-color:#F8FB85"/>
						<stop  offset="0.1755" style="stop-color:#F8F781"/>
						<stop  offset="0.3678" style="stop-color:#F8E975"/>
						<stop  offset="0.568" style="stop-color:#F8D360"/>
						<stop  offset="0.7738" style="stop-color:#F7B544"/>
						<stop  offset="0.982" style="stop-color:#F78E1F"/>
						<stop  offset="1" style="stop-color:#F78A1C"/>
					</radialGradient>
					<path fill="url(#SVGID_1_)" d="M12.562,24.882c-0.192,0-0.464-0.068-0.609-0.656l-0.08-0.808
						c0.001-1.667-0.889-3.959-2.505-6.43l-0.066-0.103c-0.435-0.791-0.695-1.643-0.776-2.535l-0.028-0.61
						c0-1.726,0.676-3.358,1.904-4.586c1.229-1.229,2.862-1.906,4.599-1.906c0.625,0,1.242,0.088,1.836,0.262
						c1.038,0.306,1.993,0.874,2.763,1.644c1.229,1.229,1.903,2.861,1.903,4.597l-0.028,0.609c-0.078,0.869-0.334,1.722-0.756,2.525
						c-0.611,0.888-2.592,3.971-2.592,6.557l-0.086,0.816c-0.137,0.554-0.41,0.622-0.604,0.622h-4.875V24.882z"/>
					<path fill="#F8FB85" d="M15.001,7.5c0.601,0,1.194,0.085,1.765,0.252c0.998,0.294,1.918,0.84,2.657,1.581
						c1.181,1.181,1.83,2.751,1.831,4.397l-0.027,0.6c-0.076,0.846-0.322,1.668-0.719,2.421c-0.615,0.896-2.617,4.016-2.631,6.667
						l-0.081,0.781c-0.112,0.433-0.278,0.433-0.358,0.433h-4.875c-0.08,0-0.244,0-0.358-0.434l-0.08-0.78
						c-0.011-2.225-1.39-4.797-2.547-6.566l-0.056-0.086L9.52,16.762c-0.417-0.757-0.667-1.576-0.743-2.411l-0.028-0.598
						c0-1.67,0.65-3.24,1.83-4.42C11.761,8.151,13.331,7.5,15.001,7.5 M15.001,7c-1.805,0-3.499,0.703-4.775,1.979
						c-1.275,1.275-1.977,2.971-1.977,4.774l0.028,0.621c0.084,0.929,0.355,1.813,0.805,2.629c0.005,0.045,2.543,3.597,2.543,6.44
						l0.086,0.842c0.138,0.561,0.425,0.846,0.852,0.846h4.875c0.431,0,0.717-0.285,0.854-0.846l0.087-0.842
						c0-2.844,2.537-6.395,2.563-6.44c0.429-0.816,0.699-1.701,0.783-2.629l0.028-0.621c0-1.804-0.702-3.499-1.978-4.774
						c-0.799-0.799-1.791-1.389-2.868-1.707C16.291,7.092,15.648,7,15.001,7L15.001,7z"/>
				</g>
				<rect x="12.256" y="27.299" fill="#666666" width="5.49" height="1.72"/>
				<rect x="13.449" y="30.028" fill="#666666" width="3.104" height="0.972"/>
			</g>
		</g>
	</g>
</g>
<g>
	<rect y="240.001" fill="none" width="30" height="80"/>
	<g>
		<polygon fill="#FFFFFF" points="25,294.001 25,291.001 17,291.001 17,294.001 13,294.001 13,291.001 5,291.001 5,294.001 
			3,294.001 3,309.001 27,309.001 27,294.001 		"/>
	</g>
	<g>
		<polygon fill="#CCCCCC" points="3,308.001 3,294.001 5,294.001 5,291.001 12,291.001 12,294.001 17,294.001 17,291.001 
			24,291.001 24,294.001 26,294.001 26,308.001 		"/>
		<path fill="#B3B3B3" d="M24,291.001v2v1h1h1v13H4v-13h1h1v-1v-2h6v2v1h1h4h1v-1v-2H24 M25,290.001h-8v3h-4v-3H5v3H3v15h24v-15h-2
			V290.001L25,290.001z"/>
	</g>
	<g>
		<path opacity="0.1" enable-background="new    " d="M3,271.001c-0.552,0-1-0.447-1-1v-16c0-0.553,0.448-1,1-1h1v-2
			c0-0.553,0.448-1,1-1h8c0.552,0,1,0.447,1,1v2h2v-2c0-0.553,0.447-1,1-1h8c0.553,0,1,0.447,1,1v2h1c0.553,0,1,0.447,1,1v16
			c0,0.553-0.447,1-1,1H3z"/>
		<path opacity="0.1" enable-background="new    " d="M3,270.501c-0.276,0-0.5-0.225-0.5-0.5v-16c0-0.275,0.224-0.5,0.5-0.5h1.5
			v-2.5c0-0.275,0.224-0.5,0.5-0.5h8c0.276,0,0.5,0.225,0.5,0.5v2.5h3v-2.5c0-0.275,0.225-0.5,0.5-0.5h8c0.275,0,0.5,0.225,0.5,0.5
			v2.5H27c0.275,0,0.5,0.225,0.5,0.5v16c0,0.275-0.225,0.5-0.5,0.5H3z"/>
		<polygon opacity="0.1" enable-background="new    " points="25,254.001 25,251.001 17,251.001 17,254.001 13,254.001 13,251.001 
			5,251.001 5,254.001 3,254.001 3,270.001 27,270.001 27,254.001 		"/>
		<polygon fill="#C1272D" points="25,253.001 25,250.001 17,250.001 17,253.001 13,253.001 13,250.001 5,250.001 5,253.001 
			3,253.001 3,269.001 27,269.001 27,253.001 		"/>
		
			<linearGradient id="SVGID_2_" gradientUnits="userSpaceOnUse" x1="-543.3232" y1="43.499" x2="-535.3232" y2="43.499" gradientTransform="matrix(1 0 0 -1 560.3232 295)">
			<stop  offset="0" style="stop-color:#000000;stop-opacity:0.1"/>
			<stop  offset="0.5" style="stop-color:#000000;stop-opacity:0"/>
			<stop  offset="1" style="stop-color:#000000;stop-opacity:0.2"/>
		</linearGradient>
		<rect x="17" y="250.001" fill="url(#SVGID_2_)" width="8" height="3"/>
		<rect x="17" y="252.001" opacity="0.1" enable-background="new    " width="8" height="1"/>
		
			<linearGradient id="SVGID_3_" gradientUnits="userSpaceOnUse" x1="-782.3223" y1="43.499" x2="-774.3223" y2="43.499" gradientTransform="matrix(-1 0 0 -1 -769.3223 295)">
			<stop  offset="0" style="stop-color:#000000;stop-opacity:0.1"/>
			<stop  offset="0.5" style="stop-color:#000000;stop-opacity:0"/>
			<stop  offset="1" style="stop-color:#000000;stop-opacity:0.2"/>
		</linearGradient>
		<rect x="5" y="250.001" fill="url(#SVGID_3_)" width="8" height="3"/>
		<rect x="5" y="252.001" opacity="0.1" enable-background="new    " width="8" height="1"/>
	</g>
</g>
<g>
	<rect y="80" fill="none" width="30" height="80"/>
	<path opacity="0.1" enable-background="new    " d="M15,111.146c-7.168,0-13-4.647-13-10.359c0-2.019,0.728-3.954,2.112-5.627
		c-0.005-0.021-0.01-0.042-0.015-0.063c-1.182-5,0.208-5.696,0.664-5.924c0.346-0.173,0.74-0.26,1.173-0.26
		c1.673,0,3.748,1.375,4.652,2.038c1.412-0.406,2.894-0.612,4.414-0.612c1.505,0,2.976,0.203,4.38,0.604
		c0.999-0.748,3.018-2.086,4.661-2.086c0.427,0,0.815,0.086,1.155,0.256c1.535,0.767,1.25,3.526,0.665,5.898
		C27.263,96.708,28,98.679,28,100.742C28,106.479,22.168,111.146,15,111.146z"/>
	<path opacity="0.1" enable-background="new    " d="M15,110.646c-6.893,0-12.5-4.423-12.5-9.859c0-1.977,0.745-3.872,2.158-5.498
		c-0.023-0.09-0.047-0.192-0.074-0.307c-0.724-3.063-0.588-4.867,0.402-5.363c0.275-0.137,0.594-0.207,0.949-0.207
		c1.667,0,3.839,1.543,4.554,2.088c1.438-0.44,2.954-0.663,4.512-0.663c1.544,0,3.051,0.22,4.481,0.655
		c0.776-0.598,2.935-2.137,4.56-2.137c0.348,0,0.662,0.068,0.933,0.204c1.353,0.676,0.831,3.674,0.34,5.578
		c1.432,1.65,2.187,3.583,2.187,5.604C27.5,106.203,21.893,110.646,15,110.646z"/>
	<path opacity="0.1" enable-background="new    " d="M24.762,95.269c0.124-0.459,1.222-4.646-0.012-5.263
		c-1.558-0.778-4.722,1.684-5.167,2.042c-1.413-0.458-2.96-0.711-4.583-0.711c-1.635,0-3.192,0.256-4.612,0.719
		c-0.407-0.327-3.608-2.775-5.179-1.99c-1.305,0.653,0,5.354,0,5.354H5.21C3.82,96.937,3,98.765,3,100.787
		c0,5.185,5.373,9.359,12,9.359c6.627,0,12-4.219,12-9.404C27,98.706,26.169,96.808,24.762,95.269z"/>
	<path fill="#CCCCCC" d="M23.846,143.6c0,2.084-3.749,4.466-5.834,4.466h-6.064c-2.085,0-6.295-2.382-6.295-4.466v-1.895
		c0-2.084,1.937-3.494,4.021-3.494h10.613c2.084,0,3.56,1.409,3.56,3.494V143.6z"/>
	<path fill="#B3B3B3" d="M24.762,134.27c0.124-0.459,1.222-4.646-0.012-5.263c-1.558-0.778-4.722,1.684-5.167,2.042
		c-1.413-0.458-2.96-0.711-4.583-0.711c-1.635,0-3.192,0.256-4.612,0.719c-0.407-0.327-3.608-2.775-5.179-1.99
		c-1.305,0.653,0,5.354,0,5.354H5.21C3.82,135.938,3,137.766,3,139.788c0,5.185,5.373,9.359,12,9.359c6.627,0,12-4.219,12-9.404
		C27,137.707,26.169,135.809,24.762,134.27z M23.846,143.6c0,2.084-3.749,4.466-5.834,4.466h-6.064
		c-2.085,0-6.295-2.382-6.295-4.466v-1.895c0-2.084,1.937-3.494,4.021-3.494h10.613c2.084,0,3.56,1.409,3.56,3.494V143.6z"/>
	<path fill="#FCFAF9" d="M10.053,139.81c-1.046,0-1.896,1.188-1.896,2.653c0,1.466,0.849,2.653,1.896,2.653
		c1.047,0,1.895-1.187,1.895-2.653C11.948,140.998,11.1,139.81,10.053,139.81z M10.053,144.358c-0.627,0-1.138-0.763-1.138-1.706
		c0-0.941,0.51-1.705,1.138-1.705s1.137,0.764,1.137,1.705C11.189,143.595,10.68,144.358,10.053,144.358z"/>
	<path fill="#FCFAF9" d="M19.905,139.81c-1.045,0-1.894,1.188-1.894,2.653c0,1.466,0.849,2.653,1.894,2.653
		c1.048,0,1.897-1.187,1.897-2.653C21.803,140.998,20.953,139.81,19.905,139.81z M19.905,144.358c-0.626,0-1.136-0.763-1.136-1.706
		c0-0.941,0.51-1.705,1.136-1.705c0.629,0,1.139,0.764,1.139,1.705C21.044,143.595,20.534,144.358,19.905,144.358z"/>
	<ellipse fill="#B3B3B3" cx="14.979" cy="144.548" rx="0.758" ry="0.569"/>
	<rect x="13.991" y="146.55" fill="#B3B3B3" width="2.274" height="0.758"/>
	<ellipse fill="#B3B3B3" cx="10.053" cy="142.653" rx="1.138" ry="1.705"/>
	<ellipse fill="#B3B3B3" cx="19.906" cy="142.653" rx="1.137" ry="1.705"/>
	<g>
		<path fill="#F0C3A8" d="M23.846,103.599c0,2.084-3.749,4.466-5.834,4.466h-6.064c-2.085,0-6.295-2.382-6.295-4.466v-1.895
			c0-2.084,1.937-3.494,4.021-3.494h10.613c2.084,0,3.56,1.409,3.56,3.494V103.599z"/>
		<path fill="#1A1A1A" d="M24.762,94.269c0.124-0.459,1.222-4.646-0.012-5.263c-1.558-0.778-4.722,1.684-5.167,2.042
			c-1.413-0.458-2.96-0.711-4.583-0.711c-1.635,0-3.192,0.256-4.612,0.719c-0.407-0.327-3.608-2.775-5.179-1.99
			c-1.305,0.653,0,5.354,0,5.354H5.21C3.82,95.937,3,97.765,3,99.787c0,5.185,5.373,9.359,12,9.359c6.627,0,12-4.219,12-9.404
			C27,97.706,26.169,95.808,24.762,94.269z M23.846,103.599c0,2.084-3.749,4.466-5.834,4.466h-6.064
			c-2.085,0-6.295-2.382-6.295-4.466v-1.895c0-2.084,1.937-3.494,4.021-3.494h10.613c2.084,0,3.56,1.409,3.56,3.494V103.599z"/>
		<path fill="#FCFAF9" d="M10.053,99.809c-1.046,0-1.896,1.188-1.896,2.653c0,1.466,0.849,2.653,1.896,2.653
			c1.047,0,1.895-1.187,1.895-2.653C11.948,100.997,11.1,99.809,10.053,99.809z M10.053,104.357c-0.627,0-1.138-0.763-1.138-1.706
			c0-0.941,0.51-1.705,1.138-1.705s1.137,0.764,1.137,1.705C11.189,103.594,10.68,104.357,10.053,104.357z"/>
		<path fill="#FCFAF9" d="M19.905,99.809c-1.045,0-1.894,1.188-1.894,2.653c0,1.466,0.849,2.653,1.894,2.653
			c1.048,0,1.897-1.187,1.897-2.653C21.803,100.997,20.953,99.809,19.905,99.809z M19.905,104.357c-0.626,0-1.136-0.763-1.136-1.706
			c0-0.941,0.51-1.705,1.136-1.705c0.629,0,1.139,0.764,1.139,1.705C21.044,103.594,20.534,104.357,19.905,104.357z"/>
		<ellipse fill="#A65F55" cx="14.979" cy="104.547" rx="0.758" ry="0.569"/>
		<rect x="13.991" y="106.549" fill="#A65F55" width="2.274" height="0.758"/>
		<ellipse fill="#A65F55" cx="10.053" cy="102.652" rx="1.138" ry="1.705"/>
		<ellipse fill="#A65F55" cx="19.906" cy="102.652" rx="1.137" ry="1.705"/>
	</g>
</g>
</svg>
