<?xml version="1.0" encoding="utf-8"?>
<!-- Generator: Adobe Illustrator 15.1.0, SVG Export Plug-In . SVG Version: 6.00 Build 0)  -->
<!DOCTYPE svg PUBLIC "-//W3C//DTD SVG 1.1//EN" "http://www.w3.org/Graphics/SVG/1.1/DTD/svg11.dtd">
<svg version="1.1" id="Layer_1" xmlns="http://www.w3.org/2000/svg" xmlns:xlink="http://www.w3.org/1999/xlink" x="0px" y="0px"
	 width="371px" height="293px" viewBox="-111.5 598.5 371 293" enable-background="new -111.5 598.5 371 293" xml:space="preserve">
<g display="none">
	<g display="inline">
		
			<linearGradient id="SVGID_1_" gradientUnits="userSpaceOnUse" x1="86.5005" y1="355.5" x2="86.5005" y2="323.5" gradientTransform="matrix(1 0 0 -1 116 439)">
			<stop  offset="0" style="stop-color:#29ABE2"/>
			<stop  offset="0.4757" style="stop-color:#28A9E1"/>
			<stop  offset="0.6639" style="stop-color:#23A2DC"/>
			<stop  offset="0.8012" style="stop-color:#1A96D4"/>
			<stop  offset="0.913" style="stop-color:#0E85C9"/>
			<stop  offset="1" style="stop-color:#0071BC"/>
		</linearGradient>
		<path fill="url(#SVGID_1_)" d="M218.5,109.5c0,3.3-2.7,6-6,6h-20c-3.3,0-6-2.7-6-6v-20c0-3.3,2.7-6,6-6h20c3.3,0,6,2.7,6,6V109.5z
			"/>
	</g>
	<g display="inline">
		<path fill="#FFFFFF" d="M214.5,107.5c0,2.2-1.8,4-4,4h-16c-2.2,0-4-1.8-4-4v-16c0-2.2,1.8-4,4-4h16c2.2,0,4,1.8,4,4V107.5z"/>
	</g>
	<g display="inline">
		<path fill="#4D4D4D" d="M211.5,90.5v18h-8v-4h4v-10h-4v-4H211.5z"/>
	</g>
	<g display="inline">
		<path fill="#4D4D4D" d="M201.5,90.5v4h-4v10h4v4h-8v-18H201.5z"/>
	</g>
</g>
<path fill="#666666" d="M182.5,598.5h-138c-2.761,0-5,2.239-5,5v100c0,2.761,2.239,5,5,5h138c2.762,0,5-2.239,5-5v-100
	C187.5,600.739,185.262,598.5,182.5,598.5z M44.5,608.5l3-7h24l3,7H44.5z M76.319,606.5l-2.143-5H96l2.143,5H76.319z"/>
<g>
	<g>
		<path fill="#666666" d="M58.5,730.5c0-5.521-4.478-10-10-10h-150c-5.523,0-10,4.479-10,10v104c0,5.521,4.477,10,10,10h150
			c5.522,0,10-4.479,10-10V730.5z M54.5,781.5c0,2.209-1.791,4-4,4s-4-1.791-4-4s1.791-4,4-4S54.5,779.291,54.5,781.5z"/>
	</g>
</g>
<g>
	<g>
		<g>
			<g>
				<g>
					<path fill="#666666" d="M242.252,850.5H72.748l-13.616,26h196.735L242.252,850.5z M135.527,870.5l5.657-11h35.188l5.103,11
						H135.527z M239.104,844.32c0-0.168,0.164-0.375,0.147-0.538c0.017-0.167,0.248-0.375,0.248-0.539V733.536
						c0-2.781-2.653-5.036-5.438-5.036H80.938c-2.785,0-5.438,2.255-5.438,5.036v109.707c0,0.164,0.232,0.321,0.248,0.489
						c-0.015,0.162,0.05,0.42,0.05,0.588l0.055,0.18h163.293L239.104,844.32z M258.975,882.5H56.026l-0.526,1.234
						c0,2.782,2.259,7.766,5.042,7.766h193.914c2.786,0,5.044-4.982,5.044-7.766L258.975,882.5z"/>
				</g>
			</g>
		</g>
	</g>
</g>
<g>
	<rect x="84.5" y="608.5" fill="#FEFEFE" width="98" height="7"/>
	<rect x="44.5" y="608.5" fill="#464B4C" width="40" height="95"/>
	<rect x="84.5" y="615.5" fill="#F3F3F3" width="98" height="88"/>
	<circle fill="#CECECE" cx="87.5" cy="618.5" r="1"/>
	<circle fill="#CECECE" cx="87.5" cy="621.5" r="1"/>
	<circle fill="#CECECE" cx="87.5" cy="624.5" r="1"/>
	<circle fill="#CECECE" cx="87.5" cy="627.5" r="1"/>
	<circle fill="#CECECE" cx="87.5" cy="630.5" r="1"/>
	<circle fill="#CECECE" cx="87.5" cy="633.5" r="1"/>
	<circle fill="#CECECE" cx="87.5" cy="636.5" r="1"/>
	<circle fill="#CECECE" cx="87.5" cy="639.5" r="1"/>
	<circle fill="#CECECE" cx="87.5" cy="642.5" r="1"/>
	<circle fill="#CECECE" cx="87.5" cy="645.5" r="1"/>
	<circle fill="#CECECE" cx="87.5" cy="648.5" r="1"/>
	<circle fill="#CECECE" cx="87.5" cy="651.5" r="1"/>
	<circle fill="#CECECE" cx="87.5" cy="654.5" r="1"/>
	<circle fill="#CECECE" cx="87.5" cy="657.5" r="1"/>
	<circle fill="#CECECE" cx="87.5" cy="660.5" r="1"/>
	<circle fill="#CECECE" cx="87.5" cy="663.5" r="1"/>
	<circle fill="#CECECE" cx="87.5" cy="666.5" r="1"/>
	<circle fill="#CECECE" cx="87.5" cy="669.5" r="1"/>
	<circle fill="#CECECE" cx="87.5" cy="672.5" r="1"/>
	<circle fill="#CECECE" cx="87.5" cy="675.5" r="1"/>
	<circle fill="#CECECE" cx="87.5" cy="678.5" r="1"/>
	<circle fill="#CECECE" cx="87.5" cy="681.5" r="1"/>
	<circle fill="#CECECE" cx="87.5" cy="684.5" r="1"/>
	<circle fill="#CECECE" cx="87.5" cy="687.5" r="1"/>
	<circle fill="#CECECE" cx="87.5" cy="690.5" r="1"/>
	<circle fill="#CECECE" cx="87.5" cy="693.5" r="1"/>
	<circle fill="#CECECE" cx="87.5" cy="696.5" r="1"/>
	<circle fill="#CECECE" cx="87.5" cy="699.5" r="1"/>
	<circle fill="#CECECE" cx="87.5" cy="702.5" r="1"/>
	<rect x="125.5" y="611" fill="#CECECE" width="16" height="2"/>
	<rect x="178.5" y="611" fill="#CECECE" width="2" height="2"/>
	<rect x="174.5" y="611" fill="#CECECE" width="2" height="2"/>
	<rect x="170.5" y="611" fill="#CECECE" width="2" height="2"/>
	<rect x="44.5" y="619.5" fill="#363A3A" width="40" height="5"/>
	<rect x="49.5" y="621.5" fill="#7A7A7A" width="16" height="1"/>
	<rect x="49.5" y="626.5" fill="#7A7A7A" width="13" height="1"/>
	<rect x="49.5" y="634.5" fill="#5B5B5B" width="13" height="1"/>
	<rect x="52.5" y="639.5" fill="#7A7A7A" width="5" height="1"/>
	<rect x="55.5" y="644.5" fill="#707070" width="9" height="1"/>
	<rect x="55.5" y="649.5" fill="#707070" width="12" height="1"/>
	<rect x="55.5" y="654.5" fill="#707070" width="8" height="1"/>
	<rect x="52.5" y="659.5" fill="#7A7A7A" width="10" height="1"/>
	<rect x="55.5" y="664.5" fill="#707070" width="13" height="1"/>
	<rect x="55.5" y="669.5" fill="#707070" width="9" height="1"/>
	<rect x="55.5" y="674.5" fill="#707070" width="11" height="1"/>
	<rect x="49.5" y="616.5" fill="#7A7A7A" width="11" height="1"/>
	<rect x="96.5" y="632.5" fill="#4C7FC0" width="4" height="1"/>
	<rect x="126.5" y="632.5" fill="#4C7FC0" width="1" height="1"/>
	<rect x="105.5" y="632.5" fill="#F8C286" width="8" height="1"/>
	<rect x="101.5" y="632.5" fill="#B0BC74" width="4" height="1"/>
	<rect x="118.5" y="632.5" fill="#F8C286" width="8" height="1"/>
	<rect x="114.5" y="632.5" fill="#B0BC74" width="4" height="1"/>
	<rect x="96.5" y="641.5" fill="#4C7FC0" width="3" height="1"/>
	<rect x="99.5" y="644.5" fill="#4C7FC0" width="3" height="1"/>
	<rect x="99.5" y="662.5" fill="#4C7FC0" width="3" height="1"/>
	<rect x="99.5" y="665.5" fill="#4C7FC0" width="5" height="1"/>
	<rect x="99.5" y="683.5" fill="#4C7FC0" width="5" height="1"/>
	<rect x="112.5" y="641.5" fill="#4C7FC0" width="1" height="1"/>
	<rect x="104.5" y="641.5" fill="#F8C286" width="8" height="1"/>
	<rect x="100.5" y="641.5" fill="#B0BC74" width="4" height="1"/>
	<rect x="102.5" y="647.5" fill="#4C7FC0" width="3" height="1"/>
	<rect x="118.5" y="647.5" fill="#4C7FC0" width="1" height="1"/>
	<rect x="110.5" y="647.5" fill="#F8C286" width="8" height="1"/>
	<rect x="106.5" y="647.5" fill="#B0BC74" width="4" height="1"/>
	<rect x="117.5" y="665.5" fill="#4C7FC0" width="1" height="1"/>
	<rect x="109.5" y="665.5" fill="#F8C286" width="8" height="1"/>
	<rect x="105.5" y="665.5" fill="#B0BC74" width="4" height="1"/>
	<rect x="102.5" y="650.5" fill="#4C7FC0" width="3" height="1"/>
	<rect x="116.5" y="650.5" fill="#4C7FC0" width="1" height="1"/>
	<rect x="110.5" y="650.5" fill="#F8C286" width="6" height="1"/>
	<rect x="106.5" y="650.5" fill="#B0BC74" width="4" height="1"/>
	<rect x="102.5" y="668.5" fill="#4C7FC0" width="2" height="1"/>
	<rect x="104.5" y="671.5" fill="#B7B7B7" width="32" height="1"/>
	<rect x="104.5" y="674.5" fill="#B7B7B7" width="28" height="1"/>
	<rect x="104.5" y="677.5" fill="#B7B7B7" width="30" height="1"/>
	<rect x="102.5" y="680.5" fill="#4C7FC0" width="2" height="1"/>
	<rect x="99.5" y="686.5" fill="#4C7FC0" width="5" height="1"/>
	<rect x="117.5" y="686.5" fill="#4C7FC0" width="1" height="1"/>
	<rect x="109.5" y="686.5" fill="#F8C286" width="8" height="1"/>
	<rect x="105.5" y="686.5" fill="#B0BC74" width="4" height="1"/>
	<rect x="102.5" y="689.5" fill="#4C7FC0" width="2" height="1"/>
	<rect x="104.5" y="692.5" fill="#B7B7B7" width="32" height="1"/>
	<rect x="104.5" y="695.5" fill="#B7B7B7" width="28" height="1"/>
	<rect x="104.5" y="698.5" fill="#B7B7B7" width="30" height="1"/>
	<rect x="102.5" y="701.5" fill="#4C7FC0" width="2" height="1"/>
	<rect x="102.5" y="653.5" fill="#4C7FC0" width="3" height="1"/>
	<rect x="113.5" y="653.5" fill="#4C7FC0" width="1" height="1"/>
	<rect x="110.5" y="653.5" fill="#F8C286" width="3" height="1"/>
	<rect x="106.5" y="653.5" fill="#B0BC74" width="4" height="1"/>
	<rect x="102.5" y="656.5" fill="#4C7FC0" width="3" height="1"/>
	<rect x="121.5" y="656.5" fill="#4C7FC0" width="1" height="1"/>
	<rect x="110.5" y="656.5" fill="#F8C286" width="11" height="1"/>
	<rect x="106.5" y="656.5" fill="#B0BC74" width="4" height="1"/>
	<rect x="102.5" y="659.5" fill="#4C7FC0" width="3" height="1"/>
	<rect x="118.5" y="659.5" fill="#4C7FC0" width="1" height="1"/>
	<rect x="110.5" y="659.5" fill="#F8C286" width="8" height="1"/>
	<rect x="106.5" y="659.5" fill="#B0BC74" width="4" height="1"/>
	<rect x="96.5" y="629.5" fill="#4C7FC0" width="4" height="1"/>
	<rect x="92.5" y="623.5" fill="#4C7FC0" width="4" height="1"/>
	<rect x="92.5" y="635.5" fill="#4C7FC0" width="4" height="1"/>
	<rect x="92.5" y="638.5" fill="#4C7FC0" width="4" height="1"/>
	<rect x="92.5" y="617.5" fill="#B7B7B7" width="8" height="1"/>
	<rect x="113.5" y="629.5" fill="#4C7FC0" width="1" height="1"/>
	<rect x="105.5" y="629.5" fill="#F8C286" width="8" height="1"/>
	<rect x="101.5" y="629.5" fill="#B0BC74" width="4" height="1"/>
	<rect x="96.5" y="626.5" fill="#B7B7B7" width="18" height="1"/>
</g>
<g>
	<rect x="-55.5" y="734.5" fill="#FEFEFE" width="98" height="7"/>
	<rect x="-95.5" y="734.5" fill="#464B4C" width="40" height="95"/>
	<rect x="-55.5" y="741.5" fill="#F3F3F3" width="98" height="88"/>
	<circle fill="#CECECE" cx="-52.5" cy="744.5" r="1"/>
	<circle fill="#CECECE" cx="-52.5" cy="747.5" r="1"/>
	<circle fill="#CECECE" cx="-52.5" cy="750.5" r="1"/>
	<circle fill="#CECECE" cx="-52.5" cy="753.5" r="1"/>
	<circle fill="#CECECE" cx="-52.5" cy="756.5" r="1"/>
	<circle fill="#CECECE" cx="-52.5" cy="759.5" r="1"/>
	<circle fill="#CECECE" cx="-52.5" cy="762.5" r="1"/>
	<circle fill="#CECECE" cx="-52.5" cy="765.5" r="1"/>
	<circle fill="#CECECE" cx="-52.5" cy="768.5" r="1"/>
	<circle fill="#CECECE" cx="-52.5" cy="771.5" r="1"/>
	<circle fill="#CECECE" cx="-52.5" cy="774.5" r="1"/>
	<circle fill="#CECECE" cx="-52.5" cy="777.5" r="1"/>
	<circle fill="#CECECE" cx="-52.5" cy="780.5" r="1"/>
	<circle fill="#CECECE" cx="-52.5" cy="783.5" r="1"/>
	<circle fill="#CECECE" cx="-52.5" cy="786.5" r="1"/>
	<circle fill="#CECECE" cx="-52.5" cy="789.5" r="1"/>
	<circle fill="#CECECE" cx="-52.5" cy="792.5" r="1"/>
	<circle fill="#CECECE" cx="-52.5" cy="795.5" r="1"/>
	<circle fill="#CECECE" cx="-52.5" cy="798.5" r="1"/>
	<circle fill="#CECECE" cx="-52.5" cy="801.5" r="1"/>
	<circle fill="#CECECE" cx="-52.5" cy="804.5" r="1"/>
	<circle fill="#CECECE" cx="-52.5" cy="807.5" r="1"/>
	<circle fill="#CECECE" cx="-52.5" cy="810.5" r="1"/>
	<circle fill="#CECECE" cx="-52.5" cy="813.5" r="1"/>
	<circle fill="#CECECE" cx="-52.5" cy="816.5" r="1"/>
	<circle fill="#CECECE" cx="-52.5" cy="819.5" r="1"/>
	<circle fill="#CECECE" cx="-52.5" cy="822.5" r="1"/>
	<circle fill="#CECECE" cx="-52.5" cy="825.5" r="1"/>
	<circle fill="#CECECE" cx="-52.5" cy="828.5" r="1"/>
	<rect x="-14.5" y="737" fill="#CECECE" width="16" height="2"/>
	<rect x="38.5" y="737" fill="#CECECE" width="2" height="2"/>
	<rect x="34.5" y="737" fill="#CECECE" width="2" height="2"/>
	<rect x="30.5" y="737" fill="#CECECE" width="2" height="2"/>
	<rect x="-95.5" y="745.5" fill="#363A3A" width="40" height="5"/>
	<rect x="-90.5" y="747.5" fill="#7A7A7A" width="16" height="1"/>
	<rect x="-90.5" y="752.5" fill="#7A7A7A" width="13" height="1"/>
	<rect x="-90.5" y="760.5" fill="#5B5B5B" width="13" height="1"/>
	<rect x="-87.5" y="765.5" fill="#7A7A7A" width="5" height="1"/>
	<rect x="-84.5" y="770.5" fill="#707070" width="9" height="1"/>
	<rect x="-84.5" y="775.5" fill="#707070" width="12" height="1"/>
	<rect x="-84.5" y="780.5" fill="#707070" width="8" height="1"/>
	<rect x="-87.5" y="785.5" fill="#7A7A7A" width="10" height="1"/>
	<rect x="-84.5" y="790.5" fill="#707070" width="13" height="1"/>
	<rect x="-84.5" y="795.5" fill="#707070" width="9" height="1"/>
	<rect x="-84.5" y="800.5" fill="#707070" width="11" height="1"/>
	<rect x="-90.5" y="742.5" fill="#7A7A7A" width="11" height="1"/>
	<rect x="-43.5" y="758.5" fill="#4C7FC0" width="4" height="1"/>
	<rect x="-13.5" y="758.5" fill="#4C7FC0" width="1" height="1"/>
	<rect x="-34.5" y="758.5" fill="#F8C286" width="8" height="1"/>
	<rect x="-38.5" y="758.5" fill="#B0BC74" width="4" height="1"/>
	<rect x="-21.5" y="758.5" fill="#F8C286" width="8" height="1"/>
	<rect x="-25.5" y="758.5" fill="#B0BC74" width="4" height="1"/>
	<rect x="-43.5" y="767.5" fill="#4C7FC0" width="3" height="1"/>
	<rect x="-40.5" y="770.5" fill="#4C7FC0" width="3" height="1"/>
	<rect x="-40.5" y="788.5" fill="#4C7FC0" width="3" height="1"/>
	<rect x="-40.5" y="791.5" fill="#4C7FC0" width="5" height="1"/>
	<rect x="-40.5" y="809.5" fill="#4C7FC0" width="5" height="1"/>
	<rect x="-27.5" y="767.5" fill="#4C7FC0" width="1" height="1"/>
	<rect x="-35.5" y="767.5" fill="#F8C286" width="8" height="1"/>
	<rect x="-39.5" y="767.5" fill="#B0BC74" width="4" height="1"/>
	<rect x="-37.5" y="773.5" fill="#4C7FC0" width="3" height="1"/>
	<rect x="-21.5" y="773.5" fill="#4C7FC0" width="1" height="1"/>
	<rect x="-29.5" y="773.5" fill="#F8C286" width="8" height="1"/>
	<rect x="-33.5" y="773.5" fill="#B0BC74" width="4" height="1"/>
	<rect x="-22.5" y="791.5" fill="#4C7FC0" width="1" height="1"/>
	<rect x="-30.5" y="791.5" fill="#F8C286" width="8" height="1"/>
	<rect x="-34.5" y="791.5" fill="#B0BC74" width="4" height="1"/>
	<rect x="-37.5" y="776.5" fill="#4C7FC0" width="3" height="1"/>
	<rect x="-23.5" y="776.5" fill="#4C7FC0" width="1" height="1"/>
	<rect x="-29.5" y="776.5" fill="#F8C286" width="6" height="1"/>
	<rect x="-33.5" y="776.5" fill="#B0BC74" width="4" height="1"/>
	<rect x="-37.5" y="794.5" fill="#4C7FC0" width="2" height="1"/>
	<rect x="-35.5" y="797.5" fill="#B7B7B7" width="32" height="1"/>
	<rect x="-35.5" y="800.5" fill="#B7B7B7" width="28" height="1"/>
	<rect x="-35.5" y="803.5" fill="#B7B7B7" width="30" height="1"/>
	<rect x="-37.5" y="806.5" fill="#4C7FC0" width="2" height="1"/>
	<rect x="-40.5" y="812.5" fill="#4C7FC0" width="5" height="1"/>
	<rect x="-22.5" y="812.5" fill="#4C7FC0" width="1" height="1"/>
	<rect x="-30.5" y="812.5" fill="#F8C286" width="8" height="1"/>
	<rect x="-34.5" y="812.5" fill="#B0BC74" width="4" height="1"/>
	<rect x="-37.5" y="815.5" fill="#4C7FC0" width="2" height="1"/>
	<rect x="-35.5" y="818.5" fill="#B7B7B7" width="32" height="1"/>
	<rect x="-35.5" y="821.5" fill="#B7B7B7" width="28" height="1"/>
	<rect x="-35.5" y="824.5" fill="#B7B7B7" width="30" height="1"/>
	<rect x="-37.5" y="827.5" fill="#4C7FC0" width="2" height="1"/>
	<rect x="-37.5" y="779.5" fill="#4C7FC0" width="3" height="1"/>
	<rect x="-26.5" y="779.5" fill="#4C7FC0" width="1" height="1"/>
	<rect x="-29.5" y="779.5" fill="#F8C286" width="3" height="1"/>
	<rect x="-33.5" y="779.5" fill="#B0BC74" width="4" height="1"/>
	<rect x="-37.5" y="782.5" fill="#4C7FC0" width="3" height="1"/>
	<rect x="-18.5" y="782.5" fill="#4C7FC0" width="1" height="1"/>
	<rect x="-29.5" y="782.5" fill="#F8C286" width="11" height="1"/>
	<rect x="-33.5" y="782.5" fill="#B0BC74" width="4" height="1"/>
	<rect x="-37.5" y="785.5" fill="#4C7FC0" width="3" height="1"/>
	<rect x="-21.5" y="785.5" fill="#4C7FC0" width="1" height="1"/>
	<rect x="-29.5" y="785.5" fill="#F8C286" width="8" height="1"/>
	<rect x="-33.5" y="785.5" fill="#B0BC74" width="4" height="1"/>
	<rect x="-43.5" y="755.5" fill="#4C7FC0" width="4" height="1"/>
	<rect x="-47.5" y="749.5" fill="#4C7FC0" width="4" height="1"/>
	<rect x="-47.5" y="761.5" fill="#4C7FC0" width="4" height="1"/>
	<rect x="-47.5" y="764.5" fill="#4C7FC0" width="4" height="1"/>
	<rect x="-47.5" y="743.5" fill="#B7B7B7" width="8" height="1"/>
	<rect x="-26.5" y="755.5" fill="#4C7FC0" width="1" height="1"/>
	<rect x="-34.5" y="755.5" fill="#F8C286" width="8" height="1"/>
	<rect x="-38.5" y="755.5" fill="#B0BC74" width="4" height="1"/>
	<rect x="-43.5" y="752.5" fill="#B7B7B7" width="18" height="1"/>
</g>
<g>
	<rect x="128.5" y="740.5" fill="#FEFEFE" width="98" height="7"/>
	<rect x="88.5" y="740.5" fill="#464B4C" width="40" height="95"/>
	<rect x="128.5" y="747.5" fill="#F3F3F3" width="98" height="88"/>
	<circle fill="#CECECE" cx="131.5" cy="750.5" r="1"/>
	<circle fill="#CECECE" cx="131.5" cy="753.5" r="1"/>
	<circle fill="#CECECE" cx="131.5" cy="756.5" r="1"/>
	<circle fill="#CECECE" cx="131.5" cy="759.5" r="1"/>
	<circle fill="#CECECE" cx="131.5" cy="762.5" r="1"/>
	<circle fill="#CECECE" cx="131.5" cy="765.5" r="1"/>
	<circle fill="#CECECE" cx="131.5" cy="768.5" r="1"/>
	<circle fill="#CECECE" cx="131.5" cy="771.5" r="1"/>
	<circle fill="#CECECE" cx="131.5" cy="774.5" r="1"/>
	<circle fill="#CECECE" cx="131.5" cy="777.5" r="1"/>
	<circle fill="#CECECE" cx="131.5" cy="780.5" r="1"/>
	<circle fill="#CECECE" cx="131.5" cy="783.5" r="1"/>
	<circle fill="#CECECE" cx="131.5" cy="786.5" r="1"/>
	<circle fill="#CECECE" cx="131.5" cy="789.5" r="1"/>
	<circle fill="#CECECE" cx="131.5" cy="792.5" r="1"/>
	<circle fill="#CECECE" cx="131.5" cy="795.5" r="1"/>
	<circle fill="#CECECE" cx="131.5" cy="798.5" r="1"/>
	<circle fill="#CECECE" cx="131.5" cy="801.5" r="1"/>
	<circle fill="#CECECE" cx="131.5" cy="804.5" r="1"/>
	<circle fill="#CECECE" cx="131.5" cy="807.5" r="1"/>
	<circle fill="#CECECE" cx="131.5" cy="810.5" r="1"/>
	<circle fill="#CECECE" cx="131.5" cy="813.5" r="1"/>
	<circle fill="#CECECE" cx="131.5" cy="816.5" r="1"/>
	<circle fill="#CECECE" cx="131.5" cy="819.5" r="1"/>
	<circle fill="#CECECE" cx="131.5" cy="822.5" r="1"/>
	<circle fill="#CECECE" cx="131.5" cy="825.5" r="1"/>
	<circle fill="#CECECE" cx="131.5" cy="828.5" r="1"/>
	<circle fill="#CECECE" cx="131.5" cy="831.5" r="1"/>
	<circle fill="#CECECE" cx="131.5" cy="834.5" r="1"/>
	<rect x="169.5" y="743" fill="#CECECE" width="16" height="2"/>
	<rect x="222.5" y="743" fill="#CECECE" width="2" height="2"/>
	<rect x="218.5" y="743" fill="#CECECE" width="2" height="2"/>
	<rect x="214.5" y="743" fill="#CECECE" width="2" height="2"/>
	<rect x="88.5" y="751.5" fill="#363A3A" width="40" height="5"/>
	<rect x="93.5" y="753.5" fill="#7A7A7A" width="16" height="1"/>
	<rect x="93.5" y="758.5" fill="#7A7A7A" width="13" height="1"/>
	<rect x="93.5" y="766.5" fill="#5B5B5B" width="13" height="1"/>
	<rect x="96.5" y="771.5" fill="#7A7A7A" width="5" height="1"/>
	<rect x="99.5" y="776.5" fill="#707070" width="9" height="1"/>
	<rect x="99.5" y="781.5" fill="#707070" width="12" height="1"/>
	<rect x="99.5" y="786.5" fill="#707070" width="8" height="1"/>
	<rect x="96.5" y="791.5" fill="#7A7A7A" width="10" height="1"/>
	<rect x="99.5" y="796.5" fill="#707070" width="13" height="1"/>
	<rect x="99.5" y="801.5" fill="#707070" width="9" height="1"/>
	<rect x="99.5" y="806.5" fill="#707070" width="11" height="1"/>
	<rect x="93.5" y="748.5" fill="#7A7A7A" width="11" height="1"/>
	<rect x="140.5" y="764.5" fill="#4C7FC0" width="4" height="1"/>
	<rect x="170.5" y="764.5" fill="#4C7FC0" width="1" height="1"/>
	<rect x="149.5" y="764.5" fill="#F8C286" width="8" height="1"/>
	<rect x="145.5" y="764.5" fill="#B0BC74" width="4" height="1"/>
	<rect x="162.5" y="764.5" fill="#F8C286" width="8" height="1"/>
	<rect x="158.5" y="764.5" fill="#B0BC74" width="4" height="1"/>
	<rect x="140.5" y="773.5" fill="#4C7FC0" width="3" height="1"/>
	<rect x="143.5" y="776.5" fill="#4C7FC0" width="3" height="1"/>
	<rect x="143.5" y="794.5" fill="#4C7FC0" width="3" height="1"/>
	<rect x="143.5" y="797.5" fill="#4C7FC0" width="5" height="1"/>
	<rect x="143.5" y="815.5" fill="#4C7FC0" width="5" height="1"/>
	<rect x="156.5" y="773.5" fill="#4C7FC0" width="1" height="1"/>
	<rect x="148.5" y="773.5" fill="#F8C286" width="8" height="1"/>
	<rect x="144.5" y="773.5" fill="#B0BC74" width="4" height="1"/>
	<rect x="146.5" y="779.5" fill="#4C7FC0" width="3" height="1"/>
	<rect x="162.5" y="779.5" fill="#4C7FC0" width="1" height="1"/>
	<rect x="154.5" y="779.5" fill="#F8C286" width="8" height="1"/>
	<rect x="150.5" y="779.5" fill="#B0BC74" width="4" height="1"/>
	<rect x="161.5" y="797.5" fill="#4C7FC0" width="1" height="1"/>
	<rect x="153.5" y="797.5" fill="#F8C286" width="8" height="1"/>
	<rect x="149.5" y="797.5" fill="#B0BC74" width="4" height="1"/>
	<rect x="146.5" y="782.5" fill="#4C7FC0" width="3" height="1"/>
	<rect x="160.5" y="782.5" fill="#4C7FC0" width="1" height="1"/>
	<rect x="154.5" y="782.5" fill="#F8C286" width="6" height="1"/>
	<rect x="150.5" y="782.5" fill="#B0BC74" width="4" height="1"/>
	<rect x="146.5" y="800.5" fill="#4C7FC0" width="2" height="1"/>
	<rect x="148.5" y="803.5" fill="#B7B7B7" width="32" height="1"/>
	<rect x="148.5" y="806.5" fill="#B7B7B7" width="28" height="1"/>
	<rect x="148.5" y="809.5" fill="#B7B7B7" width="30" height="1"/>
	<rect x="146.5" y="812.5" fill="#4C7FC0" width="2" height="1"/>
	<rect x="143.5" y="818.5" fill="#4C7FC0" width="5" height="1"/>
	<rect x="161.5" y="818.5" fill="#4C7FC0" width="1" height="1"/>
	<rect x="153.5" y="818.5" fill="#F8C286" width="8" height="1"/>
	<rect x="149.5" y="818.5" fill="#B0BC74" width="4" height="1"/>
	<rect x="146.5" y="821.5" fill="#4C7FC0" width="2" height="1"/>
	<rect x="148.5" y="824.5" fill="#B7B7B7" width="32" height="1"/>
	<rect x="148.5" y="827.5" fill="#B7B7B7" width="28" height="1"/>
	<rect x="148.5" y="830.5" fill="#B7B7B7" width="30" height="1"/>
	<rect x="146.5" y="833.5" fill="#4C7FC0" width="2" height="1"/>
	<rect x="146.5" y="785.5" fill="#4C7FC0" width="3" height="1"/>
	<rect x="157.5" y="785.5" fill="#4C7FC0" width="1" height="1"/>
	<rect x="154.5" y="785.5" fill="#F8C286" width="3" height="1"/>
	<rect x="150.5" y="785.5" fill="#B0BC74" width="4" height="1"/>
	<rect x="146.5" y="788.5" fill="#4C7FC0" width="3" height="1"/>
	<rect x="165.5" y="788.5" fill="#4C7FC0" width="1" height="1"/>
	<rect x="154.5" y="788.5" fill="#F8C286" width="11" height="1"/>
	<rect x="150.5" y="788.5" fill="#B0BC74" width="4" height="1"/>
	<rect x="146.5" y="791.5" fill="#4C7FC0" width="3" height="1"/>
	<rect x="162.5" y="791.5" fill="#4C7FC0" width="1" height="1"/>
	<rect x="154.5" y="791.5" fill="#F8C286" width="8" height="1"/>
	<rect x="150.5" y="791.5" fill="#B0BC74" width="4" height="1"/>
	<rect x="140.5" y="761.5" fill="#4C7FC0" width="4" height="1"/>
	<rect x="136.5" y="755.5" fill="#4C7FC0" width="4" height="1"/>
	<rect x="136.5" y="767.5" fill="#4C7FC0" width="4" height="1"/>
	<rect x="136.5" y="770.5" fill="#4C7FC0" width="4" height="1"/>
	<rect x="136.5" y="749.5" fill="#B7B7B7" width="8" height="1"/>
	<rect x="157.5" y="761.5" fill="#4C7FC0" width="1" height="1"/>
	<rect x="149.5" y="761.5" fill="#F8C286" width="8" height="1"/>
	<rect x="145.5" y="761.5" fill="#B0BC74" width="4" height="1"/>
	<rect x="140.5" y="758.5" fill="#B7B7B7" width="18" height="1"/>
</g>
</svg>
