<?xml version="1.0" encoding="utf-8"?>
<!-- Generator: Adobe Illustrator 16.2.1, SVG Export Plug-In . SVG Version: 6.00 Build 0)  -->
<!DOCTYPE svg PUBLIC "-//W3C//DTD SVG 1.1//EN" "http://www.w3.org/Graphics/SVG/1.1/DTD/svg11.dtd">
<svg version="1.1" id="Layer_1" xmlns="http://www.w3.org/2000/svg" xmlns:xlink="http://www.w3.org/1999/xlink" x="0px" y="0px"
	 width="24px" height="14px" viewBox="0 0 24 14" enable-background="new 0 0 24 14" xml:space="preserve">
<g>
	<polygon fill="#E0E1E3" points="1.707,0.293 12,10.586 22.293,0.293 22.586,0 1.414,0 	"/>
	<polygon fill="#EBEDEC" points="12,12 23,1 24,1 24,1 22.793,1 12,11.793 1.207,1 0,1 0,1 1,1 	"/>
	<polygon fill="#EBEDEC" points="23,0 22.586,0 22.293,0.293 12,10.586 1.707,0.293 1.414,0 1,0 0,0 0,1 1.207,1 12,11.793 
		22.793,1 24,1 24,0 	"/>
	<polygon fill="#A6A6A6" points="23,1 12,12 1,1 0,1 0,2 0.586,2 11.293,12.707 12,13.414 12.707,12.707 23.414,2 24,2 24,1 	"/>
</g>
</svg>