<?xml version="1.0" encoding="utf-8"?>
<!DOCTYPE svg PUBLIC "-//W3C//DTD SVG 1.1//EN" "http://www.w3.org/Graphics/SVG/1.1/DTD/svg11.dtd">
<svg xmlns="http://www.w3.org/2000/svg" xmlns:xlink="http://www.w3.org/1999/xlink" version="1.1" baseProfile="full" width="76" height="76" viewBox="0 0 76.00 76.00" enable-background="new 0 0 76.00 76.00" xml:space="preserve">
	<path fill="#000000" fill-opacity="1" stroke-width="0.2" stroke-linejoin="round" d="M 20,23.0002L 55.9998,23.0002C 57.1044,23.0002 57.9998,23.8956 57.9998,25.0002L 57.9999,46C 57.9999,47.1046 57.1045,48 55.9999,48L 41,48L 41,53L 45,53C 46.1046,53 47,53.8954 47,55L 47,57L 29,57L 29,55C 29,53.8954 29.8955,53 31,53L 35,53L 35,48L 20,48C 18.8954,48 18,47.1046 18,46L 18,25.0002C 18,23.8956 18.8954,23.0002 20,23.0002 Z M 21,26.0002L 21,45L 54.9999,45L 54.9998,26.0002L 21,26.0002 Z "/>
</svg>
