<?xml version="1.0" encoding="utf-8"?>
<!DOCTYPE svg PUBLIC "-//W3C//DTD SVG 1.1//EN" "http://www.w3.org/Graphics/SVG/1.1/DTD/svg11.dtd">
<svg xmlns="http://www.w3.org/2000/svg" xmlns:xlink="http://www.w3.org/1999/xlink" version="1.1" baseProfile="full" width="76" height="76" viewBox="0 0 76.00 76.00" enable-background="new 0 0 76.00 76.00" xml:space="preserve">
	<path fill="#000000" fill-opacity="1" stroke-width="0.2" stroke-linejoin="round" d="M 29.2916,19L 46.7083,19C 48.8944,19 50.6666,20.7723 50.6666,22.9584L 50.6666,53.0417C 50.6666,55.2278 48.8944,57 46.7083,57L 29.2916,57C 27.1055,57 25.3333,55.2278 25.3333,53.0417L 25.3333,22.9584C 25.3333,20.7723 27.1055,19 29.2916,19 Z M 33.25,21.375C 32.8128,21.375 32.4583,21.7295 32.4583,22.1667L 32.4583,22.9584C 32.4583,23.3956 32.8128,23.75 33.25,23.75L 42.75,23.75C 43.1872,23.75 43.5416,23.3956 43.5416,22.9584L 43.5416,22.1667C 43.5416,21.7295 43.1872,21.375 42.75,21.375L 33.25,21.375 Z M 28.5,25.3333L 28.5,49.0833L 47.5,49.0833L 47.5,25.3333L 28.5,25.3333 Z M 38,50.6667C 36.6883,50.6667 35.625,51.73 35.625,53.0417C 35.625,54.3533 36.6883,55.4167 38,55.4167C 39.3117,55.4167 40.375,54.3533 40.375,53.0417C 40.375,51.73 39.3117,50.6667 38,50.6667 Z "/>
</svg>
