<?xml version="1.0" standalone="no"?>
<!DOCTYPE svg PUBLIC "-//W3C//DTD SVG 1.1//EN" "http://www.w3.org/Graphics/SVG/1.1/DTD/svg11.dtd" >
<svg xmlns="http://www.w3.org/2000/svg">
<metadata>
This is a custom SVG webfont generated by Font Squirrel.
Copyright   :  2012 Adobe Systems Incorporated All Rights Reserved
Designer    : Paul D Hunt
Foundry     : Adobe Systems Incorporated
Foundry URL : httpwwwadobecomtype
</metadata>
<defs>
<font id="SourceSansLight" horiz-adv-x="983" >
<font-face units-per-em="2048" ascent="1536" descent="-512" />
<missing-glyph horiz-adv-x="409" />
<glyph unicode=" "  horiz-adv-x="409" />
<glyph unicode="&#x09;" horiz-adv-x="409" />
<glyph unicode="&#xa0;" horiz-adv-x="409" />
<glyph unicode="!" horiz-adv-x="532" d="M180 70q0 41 25.5 67.5t60.5 26.5t60.5 -26.5t25.5 -67.5t-25.5 -68t-60.5 -27t-60.5 27t-25.5 68zM221 1229v143h90v-143l-8 -860h-74z" />
<glyph unicode="&#x22;" horiz-adv-x="737" d="M180 1229v143h90v-143l-8 -287h-74zM467 1229v143h90v-143l-8 -287h-74z" />
<glyph unicode="#" d="M74 438v78h176l41 340h-176v78h184l49 397h82l-49 -397h295l49 397h82l-49 -397h164v-78h-172l-41 -340h172v-78h-181l-53 -438h-82l53 438h-294l-54 -438h-82l54 438h-168zM332 516h295l41 340h-295z" />
<glyph unicode="$" d="M131 115l53 73q135 -127 316 -127q125 0 199.5 69t74.5 169q0 111 -61.5 185.5t-149.5 118.5t-176 89t-149.5 128t-61.5 208q0 109 74 198t209 105v205h90v-201q152 -10 287 -131l-54 -65q-123 111 -262 110q-127 0 -192.5 -65.5t-65.5 -155.5q0 -78 33 -135t86 -92 t116.5 -65.5t127 -64.5t117 -79t86 -119t32.5 -174q0 -127 -88 -216t-223 -106v-202h-90v202q-195 13 -328 138z" />
<glyph unicode="%" horiz-adv-x="1638" d="M78 954q0 203 76.5 312.5t214 109.5t214 -109.5t76.5 -312.5q0 -205 -76.5 -315.5t-214 -110.5t-214 110.5t-76.5 315.5zM168 954q0 -166 54 -255t146.5 -89t146.5 89t54 255t-54 253t-146.5 87t-146.5 -87t-54 -253zM393 -25l754 1401h94l-754 -1401h-94zM979 401 q0 203 77 312.5t214 109.5t214 -109.5t77 -312.5q0 -205 -77 -315.5t-214 -110.5t-214 110.5t-77 315.5zM1069 401.5q0 -165.5 54.5 -255t146.5 -89.5t146 89.5t54 255t-54 252.5t-146 87t-146.5 -87t-54.5 -252.5z" />
<glyph unicode="&#x26;" horiz-adv-x="1179" d="M74 362q0 127 76.5 217.5t216.5 178.5q-68 162 -68 295q0 141 79 231t210 90q98 0 160.5 -58.5t62.5 -170.5q0 -68 -26.5 -127.5t-84 -114.5t-102.5 -89t-127 -87q125 -256 356 -467q117 147 217 426h86q-106 -307 -241 -479q141 -117 266 -154l-33 -78q-133 37 -288 168 q-162 -168 -363 -168q-176 0 -286.5 111.5t-110.5 275.5zM164 375q0 -139 85 -226.5t222 -87.5q166 0 301 136q-236 219 -371 485q-115 -78 -176 -148.5t-61 -158.5zM385 1057q0 -113 53 -252q94 57 145.5 95t96.5 102.5t45 134.5q0 160 -150 159q-88 0 -139 -68.5 t-51 -170.5z" />
<glyph unicode="'" horiz-adv-x="450" d="M180 1229v143h90v-143l-8 -287h-74z" />
<glyph unicode="(" horiz-adv-x="573" d="M180 569.5q0 491.5 271 925.5l57 -41q-246 -381 -246 -884.5t246 -884.5l-57 -41q-271 434 -271 925.5z" />
<glyph unicode=")" horiz-adv-x="573" d="M66 -315q246 381 245.5 884.5t-245.5 884.5l57 41q270 -434 270 -925.5t-270 -925.5z" />
<glyph unicode="*" horiz-adv-x="811" d="M139 1241l19 62l200 -52l15 207h65l15 -205l200 50l19 -62l-189 -80l109 -172l-55 -39l-131 156l-132 -156l-55 39l109 172z" />
<glyph unicode="+" d="M70 635v82h376v409h91v-409h376v-82h-376v-410h-91v410h-376z" />
<glyph unicode="," horiz-adv-x="450" d="M94 -254q160 84 160 242l-2 6q-6 -2 -19 -2q-39 0 -62.5 22.5t-23.5 63.5t25 63.5t61 22.5q49 0 78 -40t29 -108q0 -233 -213 -335z" />
<glyph unicode="-" horiz-adv-x="614" d="M82 471v86h450v-86h-450z" />
<glyph unicode="." horiz-adv-x="450" d="M139 70q0 41 25.5 67.5t60.5 26.5t60.5 -26.5t25.5 -67.5t-25.5 -68t-60.5 -27t-60.5 27t-25.5 68z" />
<glyph unicode="/" horiz-adv-x="733" d="M12 -328l623 1782h94l-623 -1782h-94z" />
<glyph unicode="0" d="M98 659.5q0 325.5 102.5 500.5t291 175t291 -175t102.5 -500.5t-103.5 -505t-290 -179.5t-290 179.5t-103.5 505zM193 659q0 -293 79.5 -445.5t219 -152.5t219.5 153t80 445q0 291 -80 440.5t-219.5 149.5t-219 -149.5t-79.5 -440.5z" />
<glyph unicode="1" d="M172 0v82h307v1081h-233v66q152 23 250 82h73v-1229h287v-82h-684z" />
<glyph unicode="2" d="M82 1147q174 188 373 188q172 0 270 -100t98 -268q0 -82 -25.5 -161t-94 -176.5t-115.5 -155.5t-169 -193.5t-177 -198.5h647v-82h-803v57q362 371 502.5 559.5t140.5 350.5q0 123 -67.5 202.5t-206.5 79.5q-174 0 -312 -164z" />
<glyph unicode="3" d="M49 160l57 69q49 -51 88 -81.5t114 -58.5t163 -28q143 0 231.5 79t88.5 208q0 137 -115 218t-365 81v82q225 0 327.5 76t102.5 203q0 113 -73.5 177t-208.5 64q-168 0 -299 -139l-58 66q160 160 357 159q166 0 271.5 -86t105.5 -241q0 -117 -63.5 -197t-174.5 -115v-8 q127 -33 207 -120t80 -220q0 -176 -117 -274.5t-297 -98.5q-147 0 -244.5 50.5t-177.5 134.5z" />
<glyph unicode="4" d="M33 389v57l610 865h82v-840h193v-82h-193v-389h-90v389h-602zM152 471h483v516l8 184h-8l-107 -163z" />
<glyph unicode="5" d="M45 156l57 65q72 -76 153 -118t204 -42q147 0 241.5 93.5t94.5 246.5q0 158 -86 249t-242 91q-127 0 -250 -82l-65 41l49 611h606v-82h-520l-45 -467q109 66 225 65q190 0 306 -107.5t116 -313.5q0 -201 -125 -316t-305 -115q-250 1 -414 181z" />
<glyph unicode="6" d="M98 594q0 379 133.5 560t337.5 181q170 0 299 -123l-57 -69q-113 106 -242 106q-164 0 -267 -146.5t-109 -475.5q150 156 327 155q180 0 280.5 -107.5t100.5 -297.5q0 -176 -112.5 -289t-260.5 -113q-203 0 -316.5 164t-113.5 455zM195 535q10 -223 93 -348.5t240 -125.5 q123 0 201 88.5t78 227.5q0 143 -72.5 231t-222.5 88q-165 1 -317 -161z" />
<glyph unicode="7" d="M90 1229v82h807v-58q-227 -291 -310 -568t-100 -685h-102q14 393 103.5 666.5t289.5 562.5h-688z" />
<glyph unicode="8" d="M78 319q0 127 70.5 227.5t177.5 153.5v9q-96 68 -145.5 139.5t-49.5 171.5q0 137 101.5 226t259.5 89q170 0 267 -88t97 -227q0 -205 -194 -352v-9q244 -113 243 -340q0 -147 -114.5 -245.5t-298.5 -98.5q-180 0 -297 99.5t-117 244.5zM172 319q0 -111 90 -184.5 t230 -73.5q143 0 231 73t88 185q0 35 -6 66t-23.5 57.5t-31 46t-46 40t-49 32.5t-61.5 30.5t-61.5 26t-70.5 26t-69 24.5q-221 -128 -221 -349zM225 1020q0 -125 95.5 -197.5t261.5 -130.5q180 137 180 328q0 100 -72 164.5t-198 64.5q-123 0 -195 -64.5t-72 -164.5z" />
<glyph unicode="9" d="M82 934q0 176 112.5 288.5t260.5 112.5q203 0 316.5 -163.5t113.5 -454.5q0 -379 -133.5 -560.5t-337.5 -181.5q-170 0 -299 123l57 70q113 -106 242 -107q164 0 267 146.5t110 476.5q-150 -156 -328 -156q-180 0 -280.5 108t-100.5 298zM176 934q0 -143 73 -231.5 t222 -88.5q166 0 317 162q-10 223 -93 348t-240 125q-123 0 -201 -88t-78 -227z" />
<glyph unicode=":" horiz-adv-x="450" d="M139 70q0 41 25.5 67.5t60.5 26.5t60.5 -26.5t25.5 -67.5t-25.5 -68t-60.5 -27t-60.5 27t-25.5 68zM139 868q0 41 25.5 68t60.5 27t60.5 -27t25.5 -68t-25.5 -67.5t-60.5 -26.5t-60.5 26.5t-25.5 67.5z" />
<glyph unicode=";" horiz-adv-x="450" d="M94 -254q160 84 160 242l-2 6q-6 -2 -19 -2q-39 0 -62.5 22.5t-23.5 63.5t25 63.5t61 22.5q49 0 78 -40t29 -108q0 -233 -213 -335zM139 868q0 41 25.5 68t60.5 27t60.5 -27t25.5 -68t-25.5 -67.5t-60.5 -26.5t-60.5 26.5t-25.5 67.5z" />
<glyph unicode="&#x3c;" d="M70 631v98l843 332v-94l-475 -181l-258 -102v-8l258 -103l475 -180v-94z" />
<glyph unicode="=" d="M70 430v82h843v-82h-843zM70 840v82h843v-82h-843z" />
<glyph unicode="&#x3e;" d="M70 299v94l475 180l258 103v8l-258 102l-475 181v94l843 -332v-98z" />
<glyph unicode="?" horiz-adv-x="827" d="M74 1233q53 72 139 118t188 46q147 0 233.5 -89t86.5 -231q0 -90 -52.5 -183t-112.5 -161.5t-104 -167t-30 -196.5h-90q-10 94 16.5 178t72.5 147.5t93 121.5t82 126t35 135q0 94 -59.5 164t-170.5 70q-76 0 -149.5 -38t-120.5 -97zM299 70q0 41 25.5 67.5t60.5 26.5 t60.5 -26.5t25.5 -67.5t-25.5 -68t-60.5 -27t-60.5 27t-25.5 68z" />
<glyph unicode="@" horiz-adv-x="1671" d="M106 414q0 391 237 637.5t570 246.5q301 0 476.5 -186t175.5 -489q0 -236 -117 -372t-268 -136q-70 0 -130.5 36.5t-62.5 118.5h-4q-129 -143 -250 -143q-98 0 -165.5 74.5t-67.5 199.5q0 106 42 210t134 180.5t213 76.5q102 0 162 -98h4l20 82h76l-74 -387 q-35 -150 -8 -211t123 -61q102 0 194.5 117.5t92.5 312.5q0 270 -151.5 432t-428.5 162q-285 0 -493.5 -224.5t-208.5 -578.5q0 -293 167.5 -462t454.5 -169q195 0 322 96l37 -69q-156 -109 -367 -109q-313 0 -509 190.5t-196 522.5zM594 414q0 -205 151 -205q106 0 224 131 l63 352q-35 55 -69.5 74.5t-85.5 19.5q-131 0 -207 -115.5t-76 -256.5z" />
<glyph unicode="A" horiz-adv-x="1064" d="M8 0l475 1352h99l475 -1352h-94l-158 463h-549l-158 -463h-90zM283 545h495l-86 250l-155 471h-9l-159 -471z" />
<glyph unicode="B" horiz-adv-x="1171" d="M193 0v1352h364q207 0 327 -83t120 -245q0 -109 -62.5 -185.5t-177.5 -109.5v-8q152 -25 236.5 -111t84.5 -217q0 -186 -136 -289.5t-363 -103.5h-393zM287 82h274q205 0 317.5 78t112.5 233q0 283 -430 283h-274v-594zM287 758h233q205 0 297 65.5t92 200.5 q0 246 -377 246h-245v-512z" />
<glyph unicode="C" horiz-adv-x="1142" d="M106 680q0 315 164 505.5t418 190.5q211 0 352 -155l-57 -66q-129 135 -295 135q-217 0 -350 -166t-133 -444q0 -283 129 -451t354 -168q102 0 178 37t154 115l57 -57q-164 -180 -389 -181q-270 0 -426 191.5t-156 513.5z" />
<glyph unicode="D" horiz-adv-x="1228" d="M193 0v1352h315q301 0 457.5 -178.5t156.5 -493.5t-156.5 -497.5t-457.5 -182.5h-315zM287 82h233q248 0 376 162t128 436q0 272 -128 431t-376 159h-233v-1188z" />
<glyph unicode="E" horiz-adv-x="1040" d="M193 0v1352h737v-82h-643v-512h540v-82h-540v-594h663v-82h-757z" />
<glyph unicode="F" horiz-adv-x="964" d="M193 0v1352h737v-82h-643v-537h540v-82h-540v-651h-94z" />
<glyph unicode="G" horiz-adv-x="1224" d="M106 680q0 317 165 506.5t434 189.5q250 0 376 -155l-57 -66q-129 135 -319 135q-227 0 -363.5 -166t-136.5 -444q0 -283 130 -451t357 -168q203 0 303 97v424h-323v82h413v-537q-152 -152 -393 -152q-274 0 -430 190.5t-156 514.5z" />
<glyph unicode="H" horiz-adv-x="1294" d="M193 0v1352h94v-594h721v594h94v-1352h-94v676h-721v-676h-94z" />
<glyph unicode="I" horiz-adv-x="479" d="M193 0v1352h94v-1352h-94z" />
<glyph unicode="J" horiz-adv-x="933" d="M74 160l69 53q96 -152 250 -152q133 0 195.5 80t62.5 244v967h94v-975q0 -401 -352 -402q-98 0 -183 47.5t-136 137.5z" />
<glyph unicode="K" horiz-adv-x="1130" d="M193 0v1352h94v-752h4l655 752h111l-434 -504l495 -848h-110l-447 782l-274 -315v-467h-94z" />
<glyph unicode="L" horiz-adv-x="942" d="M193 0v1352h94v-1270h622v-82h-716z" />
<glyph unicode="M" horiz-adv-x="1462" d="M193 0v1352h135l295 -787l106 -295h8l107 295l291 787h135v-1352h-94v885q0 33 12 364h-8l-99 -295l-309 -798h-82l-309 798l-102 295h-9q12 -332 13 -364v-885h-90z" />
<glyph unicode="N" horiz-adv-x="1290" d="M193 0v1352h98l569 -955l152 -266h8q-2 43 -5 124t-5 146.5t-2 122.5v828h90v-1352h-99l-569 954l-151 267h-9q2 -45 5.5 -122t5.5 -141.5t2 -121.5v-836h-90z" />
<glyph unicode="O" horiz-adv-x="1318" d="M106 679.5q0 317.5 153 507t400.5 189.5t400 -189.5t152.5 -507t-152.5 -511t-400 -193.5t-400.5 193.5t-153 511zM205 680q0 -281 125 -450t329.5 -169t329.5 169t125 450q0 279 -124 444.5t-330.5 165.5t-330.5 -165.5t-124 -444.5z" />
<glyph unicode="P" horiz-adv-x="1130" d="M193 0v1352h372q479 0 479 -373q0 -197 -129 -297t-350 -100h-278v-582h-94zM287 664h254q410 0 409 315q0 160 -101 225.5t-308 65.5h-254v-606z" />
<glyph unicode="Q" horiz-adv-x="1318" d="M106 680q0 317 153 506.5t400.5 189.5t400 -189.5t152.5 -506.5q0 -299 -137 -489.5t-362 -213.5q35 -94 127 -148t229 -54q66 0 131 16l21 -86q-98 -20 -164 -20q-336 0 -449 292q-227 23 -364.5 212.5t-137.5 490.5zM205 680q0 -281 125 -450t329.5 -169t329.5 169 t125 450q0 279 -124 444.5t-330.5 165.5t-330.5 -165.5t-124 -444.5z" />
<glyph unicode="R" horiz-adv-x="1134" d="M193 0v1352h372q459 0 459 -357q0 -162 -94 -257t-250 -117l369 -621h-111l-360 614h-291v-614h-94zM287 696h254q389 0 389 299q0 150 -98.5 212.5t-290.5 62.5h-254v-574z" />
<glyph unicode="S" horiz-adv-x="1052" d="M90 176l66 66q168 -180 389 -181q154 0 245 76t91 203q0 98 -62.5 158.5t-179.5 115.5l-205 91q-53 23 -95 47t-87 64t-70.5 97.5t-25.5 126.5q0 147 109.5 241.5t279.5 94.5q111 0 214 -45t163 -114l-62 -66q-133 139 -315 139q-147 0 -221 -74.5t-74 -175.5 q0 -160 242 -254l200 -90q283 -115 283 -356q0 -152 -113.5 -258.5t-316.5 -106.5q-275 0 -455 201z" />
<glyph unicode="T" horiz-adv-x="1060" d="M53 1270v82h955v-82h-430v-1270h-95v1270h-430z" />
<glyph unicode="U" horiz-adv-x="1286" d="M188 520v832h95v-824q0 -250 99 -358.5t261 -108.5t263.5 110t101.5 357v824h90v-832q0 -293 -128 -419t-327 -126t-327 126t-128 419z" />
<glyph unicode="V" horiz-adv-x="991" d="M8 1352h94l250 -795l144 -442h8l139 442l250 795h90l-430 -1352h-111z" />
<glyph unicode="W" horiz-adv-x="1564" d="M57 1352h95l167 -795l91 -442h8l114 442l205 795h90l209 -795l115 -442h8l90 442l168 795h90l-299 -1352h-114l-238 918l-70 319h-8l-73 -319l-234 -918h-115z" />
<glyph unicode="X" horiz-adv-x="974" d="M29 0l401 700l-373 652h103l223 -398l104 -184h9l104 184l219 398h99l-373 -660l401 -692h-102l-238 414l-119 209h-8l-119 -209l-233 -414h-98z" />
<glyph unicode="Y" horiz-adv-x="933" d="M-4 1352h98l221 -424l148 -289h8l152 291l221 422h94l-426 -803v-549h-90v549z" />
<glyph unicode="Z" horiz-adv-x="1089" d="M98 0v57l770 1213h-704v82h823v-58l-770 -1212h782v-82h-901z" />
<glyph unicode="[" horiz-adv-x="573" d="M201 -311v1761h327v-61h-254v-1639h254v-61h-327z" />
<glyph unicode="\" horiz-adv-x="733" d="M4 1454h94l623 -1782h-94z" />
<glyph unicode="]" horiz-adv-x="573" d="M45 -250h254v1639h-254v61h328v-1761h-328v61z" />
<glyph unicode="^" d="M131 594l307 778h107l307 -778h-94l-160 410l-102 258h-9l-102 -258l-160 -410h-94z" />
<glyph unicode="_" horiz-adv-x="1024" d="M25 -160h974v-82h-974v82z" />
<glyph unicode="`" horiz-adv-x="1097" d="M365 1450h118l189 -283h-90z" />
<glyph unicode="a" horiz-adv-x="1024" d="M135 254q0 160 152.5 247t482.5 122q0 143 -49 221t-184 78q-170 0 -318 -115l-37 74q174 127 371 127q307 0 307 -377v-631h-78l-8 123h-4q-188 -147 -336 -148q-133 0 -216 73t-83 206zM229 254q0 -96 58.5 -144.5t163.5 -48.5q143 0 319 152v336q-297 -37 -419 -105.5 t-122 -189.5z" />
<glyph unicode="b" horiz-adv-x="1114" d="M188 0v1454h91v-405l-5 -189q176 147 344 148q190 0 290 -131.5t100 -368.5q0 -244 -128 -388.5t-311 -144.5q-143 0 -290 119h-5l-8 -94h-78zM279 184q143 -123 290 -123q152 0 248 124t96 323q0 414 -311 414q-147 0 -323 -152v-586z" />
<glyph unicode="c" horiz-adv-x="917" d="M106 492q0 238 131.5 377t319.5 139q90 0 151.5 -26t131.5 -77l-45 -74q-51 33 -74 47.5t-69 29t-95 14.5q-160 0 -258 -119t-98 -311q0 -195 96 -313t260 -118q121 0 266 103l41 -70q-47 -37 -80.5 -58.5t-95 -41t-131.5 -19.5q-201 0 -326 137.5t-125 379.5z" />
<glyph unicode="d" horiz-adv-x="1114" d="M106 492q0 227 131.5 371.5t307.5 144.5q86 0 151.5 -28t143.5 -87l-4 176v385h90v-1454h-78l-8 123h-4q-84 -74 -155 -111t-161 -37q-190 0 -302 135.5t-112 381.5zM201 492q0 -201 84 -316t243 -115q131 0 308 152v586q-143 123 -291 123q-145 0 -244.5 -123 t-99.5 -307z" />
<glyph unicode="e" horiz-adv-x="1003" d="M106 492q0 233 122 374.5t309 141.5q90 0 159.5 -32t109.5 -78t65.5 -108.5t33.5 -113.5t8 -103q0 -66 -6 -94h-706q0 -186 97 -302t263 -116q121 0 275 95l36 -74q-53 -35 -85.5 -52.5t-96 -36t-129.5 -18.5q-205 0 -330 135.5t-125 381.5zM201 557h622 q0 152 -67.5 258.5t-218.5 106.5q-143 0 -231.5 -97.5t-104.5 -267.5z" />
<glyph unicode="f" horiz-adv-x="540" d="M70 901v74l135 8v188q0 145 62.5 224.5t174.5 79.5q70 0 148 -33l-21 -78q-86 25 -123 25q-152 0 -151 -205v-201h225v-82h-225v-901h-90v901h-135z" />
<glyph unicode="g" horiz-adv-x="999" d="M106 -168q0 111 148 225v9q-86 49 -86 155q0 94 94 164v8q-115 100 -115 266q0 150 101.5 249.5t247.5 99.5q70 0 135 -25h327v-82h-213q98 -98 99 -242q0 -150 -101.5 -251t-246.5 -101q-90 0 -172 41q-70 -51 -70 -115q0 -119 188 -118h209q168 0 246 -54.5t78 -179.5 t-131 -220t-336 -95q-190 0 -296 68.5t-106 197.5zM197 -168q0 -84 82.5 -134t228.5 -50q166 0 271.5 68.5t105.5 164.5q0 80 -55.5 109.5t-174.5 29.5h-209q-63 0 -114 13q-135 -90 -135 -201zM242 659q0 -129 78.5 -199.5t175.5 -70.5q100 0 177 70.5t77 199.5 q0 127 -78 197t-176 70q-100 0 -177 -69t-77 -198z" />
<glyph unicode="h" horiz-adv-x="1081" d="M188 0v1454h91v-405l-5 -218q176 176 340 177q303 0 304 -377v-631h-91v618q0 152 -47 228t-182 76q-145 0 -319 -181v-741h-91z" />
<glyph unicode="i" horiz-adv-x="466" d="M152 1302.5q0 36.5 23.5 59t58 22.5t58 -22.5t23.5 -59t-23.5 -59t-58 -22.5t-58 22.5t-23.5 59zM188 0v983h91v-983h-91z" />
<glyph unicode="j" horiz-adv-x="466" d="M-66 -410l21 78q49 -16 102 -16q78 0 104.5 50t26.5 155v1126h91v-1114q0 -303 -218 -303q-68 -1 -127 24zM152 1302.5q0 36.5 23.5 59t58 22.5t58 -22.5t23.5 -59t-23.5 -59t-58 -22.5t-58 22.5t-23.5 59z" />
<glyph unicode="k" horiz-adv-x="950" d="M188 0v1454h91v-1063h4l481 592h113l-320 -385l373 -598h-107l-327 520l-217 -262v-258h-91z" />
<glyph unicode="l" horiz-adv-x="466" d="M188 0v1454h91v-1454h-91z" />
<glyph unicode="m" horiz-adv-x="1662" d="M188 0v983h78l8 -152h5q162 176 315 177q217 0 270 -197q176 197 336 197q162 0 226.5 -97.5t64.5 -279.5v-631h-90v618q0 156 -41 230t-172 74q-141 0 -303 -191v-731h-90v618q0 156 -41 230t-172 74q-143 0 -303 -189v-733h-91z" />
<glyph unicode="n" horiz-adv-x="1089" d="M188 0v983h78l8 -152h5q170 176 335 177q303 0 304 -377v-631h-91v618q0 152 -47 228t-182 76q-145 0 -319 -181v-741h-91z" />
<glyph unicode="o" horiz-adv-x="1097" d="M106 491.5q0 239.5 126 378t316.5 138.5t316.5 -138.5t126 -378t-126 -378t-316.5 -138.5t-316.5 138.5t-126 378zM201 491.5q0 -192.5 96 -311.5t252 -119t252 119t96 311.5t-96 311.5t-252 119t-252 -119t-96 -311.5z" />
<glyph unicode="p" horiz-adv-x="1114" d="M188 -430v1413h78l8 -123h5q170 147 339 148q190 0 290 -131.5t100 -368.5q0 -244 -128 -388.5t-311 -144.5q-145 0 -295 115l5 -176v-344h-91zM279 184q143 -123 290 -123q152 0 248 124t96 323q0 414 -311 414q-147 0 -323 -152v-586z" />
<glyph unicode="q" horiz-adv-x="1101" d="M106 492q0 227 131.5 371.5t307.5 144.5q86 0 150.5 -28t140.5 -87h4l8 90h78v-1413h-90v364l4 172q-137 -131 -320 -131q-190 0 -302 135.5t-112 381.5zM201 492q0 -201 84 -316t243 -115q162 0 308 140v598q-143 123 -291 123q-145 0 -244.5 -123t-99.5 -307z" />
<glyph unicode="r" horiz-adv-x="651" d="M188 0v983h78l8 -182h5q113 207 282 207q49 0 98 -17l-20 -94q-33 12 -90 12q-78 0 -151.5 -63.5t-118.5 -196.5v-649h-91z" />
<glyph unicode="s" horiz-adv-x="831" d="M70 111l49 73q156 -123 319 -123q106 0 168 53.5t62 135.5q0 43 -19.5 77.5t-58.5 60.5t-73 41t-87 34q-4 2 -44 16.5t-46 16.5t-42 16t-44 20.5t-36 22.5t-36 28.5t-26.5 32t-23.5 39t-11 45t-6 54.5q0 96 84 175t219 79q168 0 295 -99l-49 -73q-123 86 -246 86 q-100 0 -156.5 -51.5t-56.5 -116.5q0 -35 16.5 -63.5t30.5 -45t57 -37t57.5 -25.5t69.5 -26q162 -59 211 -94q111 -76 111 -213q0 -119 -92.5 -197t-227.5 -78q-202 1 -368 136z" />
<glyph unicode="t" horiz-adv-x="638" d="M57 901v74l156 8l12 287h78v-287h287v-82h-287v-635q0 -102 36 -153.5t128 -51.5q41 0 127 29l24 -78q-102 -37 -163 -37q-242 0 -242 304v622h-156z" />
<glyph unicode="u" horiz-adv-x="1101" d="M193 352v631h90v-618q0 -152 46 -228t179 -76q152 0 315 193v729h90v-983h-77l-9 164h-4q-156 -188 -331 -189q-162 0 -230.5 98.5t-68.5 278.5z" />
<glyph unicode="v" horiz-adv-x="892" d="M25 983h98l221 -614l102 -279h9l102 279l221 614h90l-364 -983h-111z" />
<glyph unicode="w" horiz-adv-x="1454" d="M49 983h103l180 -635l74 -270h8l73 270l189 635h110l185 -635l78 -270h8l73 270l181 635h94l-295 -983h-119l-184 610l-74 281h-8l-78 -285l-180 -606h-111z" />
<glyph unicode="x" horiz-adv-x="835" d="M29 0l336 512l-308 471h103l153 -246l101 -155h8l104 155l154 246h98l-307 -471l336 -512h-102l-168 266l-115 176h-8l-119 -176l-164 -266h-102z" />
<glyph unicode="y" horiz-adv-x="892" d="M25 983h98l237 -614l107 -279h8l94 279l209 614h90l-381 -1089q-53 -154 -120.5 -241t-186.5 -87q-78 0 -127 24l21 78q49 -16 102 -16q150 0 217 213l37 115z" />
<glyph unicode="z" horiz-adv-x="831" d="M57 0v49l582 856h-520v78h639v-49l-586 -856h602v-78h-717z" />
<glyph unicode="{" horiz-adv-x="573" d="M74 537v65q174 0 174 164q0 66 -8.5 209t-8.5 213q0 147 54.5 204.5t171.5 57.5h71v-61h-63q-90 0 -123 -48.5t-33 -160.5q0 -61 6.5 -194.5t6.5 -199.5q0 -94 -24 -144t-83 -69v-8q59 -18 83 -68.5t24 -144.5q0 -76 -6.5 -201.5t-6.5 -191.5q0 -113 33 -161t123 -48h63 v-61h-71q-117 0 -171.5 57t-54.5 205q0 78 8.5 215t8.5 207q0 164 -174 164z" />
<glyph unicode="|" horiz-adv-x="466" d="M188 -512v2048h91v-2048h-91z" />
<glyph unicode="}" horiz-adv-x="573" d="M45 -250h64q90 0 122.5 48t32.5 161q0 66 -6 191.5t-6 201.5q0 94 23.5 144.5t82.5 68.5v8q-59 18 -82.5 68.5t-23.5 144.5q0 66 6 199t6 195q0 113 -32.5 161t-122.5 48h-64v61h72q117 0 171 -57.5t54 -204.5q0 -70 -8 -213.5t-8 -208.5q0 -164 174 -164v-65 q-174 0 -174 -164q0 -70 8 -207t8 -215q0 -147 -54.5 -204.5t-170.5 -57.5h-72v61z" />
<glyph unicode="~" d="M82 664q115 123 237 122q74 0 184.5 -71.5t158.5 -71.5q100 0 186 98l53 -53q-115 -123 -237 -123q-74 0 -184.5 72t-157.5 72q-100 0 -187 -99z" />
<glyph unicode="&#xa1;" horiz-adv-x="532" d="M180 913q0 41 25.5 68t60.5 27t60.5 -27t25.5 -68t-25.5 -67.5t-60.5 -26.5t-60.5 26.5t-25.5 67.5zM221 -246l8 860h74l8 -860v-143h-90v143z" />
<glyph unicode="&#xa2;" d="M127 639q0 197 106.5 320.5t270.5 148.5v227h90v-221q131 -4 266 -102l-45 -74q-121 86 -221 90v-778q117 6 250 102l41 -69q-147 -115 -291 -119v-221h-90v225q-172 25 -274.5 147.5t-102.5 323.5zM221 639q0 -156 76 -258t207 -125v766q-129 -25 -206 -127t-77 -256z " />
<glyph unicode="&#xa3;" d="M111 598v70l135 8h51q-2 8 -16.5 58t-18.5 67.5t-13 56.5t-12.5 68.5t-3.5 60.5q0 162 92.5 255t252.5 93q186 0 303 -143l-58 -57q-100 115 -245 114q-123 0 -188.5 -72.5t-65.5 -189.5q0 -45 9 -91t29.5 -118.5t28.5 -101.5h334v-78h-315q12 -90 12 -143 q0 -215 -143 -365v-8h600v-82h-760v57q217 123 217 398q0 59 -19 143h-206z" />
<glyph unicode="&#xa4;" d="M61 305l127 127q-70 104 -69 248q0 139 69 240l-127 127l60 59l123 -125q98 88 247.5 88t247.5 -88l123 125l60 -59l-127 -127q70 -104 69 -240q0 -145 -71 -248l129 -127l-60 -59l-125 125q-98 -88 -245 -88q-150 0 -248 86l-123 -123zM213 680q0 -129 78 -220 t200.5 -91t200.5 91t78 220q0 127 -78 215t-200.5 88t-200.5 -88t-78 -215z" />
<glyph unicode="&#xa5;" d="M61 1311h95l196 -398l140 -264h8l139 264l192 398h91l-349 -688h308v-82h-344v-131h344v-82h-344v-328h-91v328h-344v82h344v131h-344v82h308z" />
<glyph unicode="&#xa6;" horiz-adv-x="466" d="M188 451h91v-963h-91v963zM188 573v963h91v-963h-91z" />
<glyph unicode="&#xa7;" d="M98 733q0 78 50.5 144.5t132.5 109.5q-59 70 -60 168q0 96 75 169t208 73q162 0 295 -111l-49 -69q-117 94 -246 94q-96 0 -146.5 -46t-50.5 -110q0 -74 59.5 -126t144.5 -88t170 -77t144.5 -115.5t59.5 -183.5q0 -154 -176 -248q53 -70 53 -170q0 -109 -88 -181 t-211 -72q-186 0 -328 106l49 74q133 -94 279 -94q94 0 153.5 48t59.5 119q0 68 -43 118t-106.5 76t-139.5 59.5t-139.5 68.5t-106.5 102.5t-43 161.5zM184 733q0 -82 51.5 -138t117 -82t155.5 -63.5t141 -74.5q150 68 150 190q0 100 -73 160.5t-204 115t-184 93.5 q-154 -88 -154 -201z" />
<glyph unicode="&#xa8;" horiz-adv-x="1097" d="M311 1302.5q0 32.5 21.5 55t52.5 22.5t52.5 -22.5t21.5 -55t-21.5 -55t-52.5 -22.5t-52.5 22.5t-21.5 55zM639 1302.5q0 32.5 21.5 55t52 22.5t52 -22.5t21.5 -55t-21.5 -55t-52 -22.5t-52 22.5t-21.5 55z" />
<glyph unicode="&#xa9;" horiz-adv-x="1417" d="M37 659.5q0 303.5 188.5 489.5t463 186t462.5 -186t188 -489.5t-188 -494t-462.5 -190.5t-463 190.5t-188.5 494zM127 659.5q0 -264.5 164 -433.5t397.5 -169t397 169t163.5 433.5t-163.5 429t-397 164.5t-397.5 -164.5t-164 -429zM336 659q0 180 109.5 282.5 t263.5 102.5q137 0 249 -90l-40 -69q-102 74 -209 73q-123 0 -201 -81.5t-78 -217.5q0 -145 77 -232t202 -87q117 0 233 90l41 -70q-133 -106 -274 -106q-156 0 -264.5 107.5t-108.5 297.5z" />
<glyph unicode="&#xaa;" horiz-adv-x="692" d="M86 705q0 106 101.5 164.5t320.5 80.5q-2 88 -34 132t-118 44q-98 0 -209 -73l-32 61q125 86 258 86q217 0 217 -254v-414h-70l-8 78h-4q-119 -94 -221 -94q-90 0 -145.5 50.5t-55.5 138.5zM172 709q0 -119 135 -119q94 0 201 94v205q-184 -23 -260 -64.5t-76 -115.5z " />
<glyph unicode="&#xab;" horiz-adv-x="819" d="M90 471v90l275 324l61 -41l-252 -328l252 -328l-61 -41zM377 471v90l274 324l62 -41l-252 -328l252 -328l-62 -41z" />
<glyph unicode="&#xac;" d="M70 635v82h843v-492h-90v410h-753z" />
<glyph unicode="&#xad;" horiz-adv-x="614" d="M82 471v86h450v-86h-450z" />
<glyph unicode="&#xae;" horiz-adv-x="819" d="M29 1061q0 180 110.5 290.5t270 110.5t270.5 -110.5t111 -290.5t-111 -291t-270.5 -111t-270 111t-110.5 291zM106 1061q0 -143 85 -237.5t218.5 -94.5t218.5 94.5t85 237.5t-85 237.5t-218.5 94.5t-218.5 -94.5t-85 -237.5zM270 856v422h140q66 0 112.5 -33t46.5 -102 q0 -37 -23.5 -68t-58.5 -43l99 -176h-78l-82 156h-82v-156h-74zM344 1073h49q102 0 103 70q0 74 -95 74h-57v-144z" />
<glyph unicode="&#xaf;" horiz-adv-x="1097" d="M315 1237v82h467v-82h-467z" />
<glyph unicode="&#xb0;" horiz-adv-x="622" d="M86 1159.5q0 110.5 68.5 178t165 67.5t165 -67.5t68.5 -178t-68.5 -178.5t-165 -68t-165 68t-68.5 178.5zM160 1159q0 -74 42 -125t117.5 -51t117.5 51t42 125t-42 125t-117.5 51t-117.5 -51t-42 -125z" />
<glyph unicode="&#xb1;" d="M70 0v82h843v-82h-843zM70 635v82h376v409h91v-409h376v-82h-376v-410h-91v410h-376z" />
<glyph unicode="&#xb2;" horiz-adv-x="737" d="M98 1581q41 61 106.5 102t139.5 41q119 0 188.5 -67.5t69.5 -190.5q0 -53 -19.5 -103t-82 -128t-90 -108.5t-131.5 -143.5h360v-82h-524v57q231 215 314 314.5t83 193.5q0 86 -44 131t-124 45q-115 0 -192 -114z" />
<glyph unicode="&#xb3;" horiz-adv-x="737" d="M86 1024l57 53q94 -119 222 -119q76 0 126 45.5t50 110.5q0 74 -71 113t-200 39v82q104 0 171 43t67 108q0 63 -43 103t-109 40q-100 0 -184 -94l-57 54q104 123 241 122q100 0 171 -59t71 -166q0 -68 -38 -117t-101 -71q72 -12 122 -66.5t50 -130.5q0 -111 -75 -174 t-191 -63q-168 0 -279 147z" />
<glyph unicode="&#xb4;" horiz-adv-x="1097" d="M426 1167l188 283h119l-217 -283h-90z" />
<glyph unicode="&#xb5;" horiz-adv-x="1101" d="M188 -410v1393h91v-618q0 -152 47 -228t182 -76q141 0 315 181v741h90v-983h-77l-9 147h-4q-166 -172 -331 -172q-145 0 -213 107v-168v-324h-91z" />
<glyph unicode="&#xb6;" horiz-adv-x="1048" d="M86 926q0 221 127 323.5t352 102.5h88v-852h-57q-238 0 -374 102.5t-136 323.5zM766 -164v1516h90v-1516h-90z" />
<glyph unicode="&#xb7;" horiz-adv-x="450" d="M139 676q0 41 25.5 67.5t60.5 26.5t60.5 -26.5t25.5 -67.5t-25.5 -67.5t-60.5 -26.5t-60.5 26.5t-25.5 67.5z" />
<glyph unicode="&#xb8;" horiz-adv-x="1081" d="M395 -362q190 33 191 104q0 43 -34 65.5t-101 40.5l81 156h91l-66 -110q115 -39 115 -142q0 -74 -74 -120t-188 -58z" />
<glyph unicode="&#xb9;" horiz-adv-x="737" d="M193 1552v66q98 20 180 82h73v-799h-90v651h-163z" />
<glyph unicode="&#xba;" horiz-adv-x="737" d="M66 860q0 158 86 249t217 91t217 -91t86 -249t-86 -251t-217 -93t-217 93t-86 251zM152 860q0 -123 59 -196.5t157.5 -73.5t158 73.5t59.5 196.5t-59.5 194.5t-158 71.5t-157.5 -71.5t-59 -194.5z" />
<glyph unicode="&#xbb;" horiz-adv-x="819" d="M106 188l252 328l-252 328l62 41l274 -324v-90l-274 -324zM393 188l252 328l-252 328l62 41l274 -324v-90l-274 -324z" />
<glyph unicode="&#xbc;" horiz-adv-x="1556" d="M152 1204v66q98 20 180 82h74v-799h-91v651h-163zM352 -25l754 1401h94l-754 -1401h-94zM913 225v58l365 516h82v-492h110v-82h-110v-225h-90v225h-357zM1032 307h238v172l8 185h-8l-107 -164z" />
<glyph unicode="&#xbd;" horiz-adv-x="1597" d="M152 1204v66q98 20 180 82h74v-799h-91v651h-163zM303 -25l754 1401h94l-754 -1401h-94zM958 680q41 61 106.5 102t139.5 41q119 0 188.5 -67.5t69.5 -190.5q0 -53 -19.5 -103t-82 -128t-90 -108.5t-131.5 -143.5h360v-82h-524v57q231 215 314 314.5t83 193.5 q0 86 -44 131t-124 45q-115 0 -192 -114z" />
<glyph unicode="&#xbe;" horiz-adv-x="1597" d="M86 676l57 53q94 -119 222 -119q76 0 126 45t50 111q0 74 -71 113t-200 39v81q104 0 171 43t67 109q0 63 -43 103t-109 40q-100 0 -184 -94l-57 53q104 123 241 123q100 0 171 -59.5t71 -165.5q0 -68 -38 -117t-101 -71q72 -12 122 -66.5t50 -130.5q0 -111 -75 -174.5 t-191 -63.5q-168 1 -279 148zM455 -25l753 1401h95l-754 -1401h-94zM954 225v58l365 516h82v-492h110v-82h-110v-225h-90v225h-357zM1073 307h238v172l8 185h-8l-107 -164z" />
<glyph unicode="&#xbf;" horiz-adv-x="827" d="M106 -94q0 90 52.5 183t113 161.5t104.5 167t30 196.5h90q10 -94 -16.5 -178t-73 -147.5t-93.5 -121.5t-81.5 -126t-34.5 -135q0 -94 59 -164t170 -70q76 0 149.5 38t120.5 97l58 -57q-53 -72 -139.5 -118t-188.5 -46q-147 0 -233.5 89.5t-86.5 230.5zM356 913 q0 41 26 68t60.5 27t60 -27t25.5 -68t-25.5 -67.5t-60 -26.5t-60.5 26.5t-26 67.5z" />
<glyph unicode="&#xc0;" horiz-adv-x="1064" d="M8 0l475 1352h99l475 -1352h-94l-158 463h-549l-158 -463h-90zM283 545h495l-86 250l-155 471h-9l-159 -471zM293 1671h129l196 -217h-94z" />
<glyph unicode="&#xc1;" horiz-adv-x="1064" d="M8 0l475 1352h99l475 -1352h-94l-158 463h-549l-158 -463h-90zM283 545h495l-86 250l-155 471h-9l-159 -471zM446 1454l197 217h129l-231 -217h-95z" />
<glyph unicode="&#xc2;" horiz-adv-x="1064" d="M8 0l475 1352h99l475 -1352h-94l-158 463h-549l-158 -463h-90zM283 545h495l-86 250l-155 471h-9l-159 -471zM287 1454l200 217h91l200 -217h-90l-151 148h-9l-151 -148h-90z" />
<glyph unicode="&#xc3;" horiz-adv-x="1064" d="M8 0l475 1352h99l475 -1352h-94l-158 463h-549l-158 -463h-90zM262 1466q4 78 45 133.5t107 55.5q59 0 131.5 -53.5t109.5 -53.5q59 0 78 107h70q-6 -78 -46 -133.5t-106 -55.5q-59 0 -132 53.5t-109 53.5q-59 0 -78 -107h-70zM283 545h495l-86 250l-155 471h-9 l-159 -471z" />
<glyph unicode="&#xc4;" horiz-adv-x="1064" d="M8 0l475 1352h99l475 -1352h-94l-158 463h-549l-158 -463h-90zM283 545h495l-86 250l-155 471h-9l-159 -471zM295 1560.5q0 32.5 21.5 55t52 22.5t52 -22.5t21.5 -55t-21.5 -55t-52 -22.5t-52 22.5t-21.5 55zM623 1560.5q0 32.5 21.5 55t52 22.5t52 -22.5t21.5 -55 t-21.5 -55t-52 -22.5t-52 22.5t-21.5 55z" />
<glyph unicode="&#xc5;" horiz-adv-x="1064" d="M8 0l475 1352h99l475 -1352h-94l-158 463h-549l-158 -463h-90zM283 545h495l-86 250l-155 471h-9l-159 -471zM356 1601.5q0 75.5 50.5 124t126 48.5t126 -48.5t50.5 -124t-50.5 -123.5t-126 -48t-126 48t-50.5 123.5zM430 1601.5q0 -51.5 28.5 -81t74 -29.5t74 29.5 t28.5 81t-28.5 81t-74 29.5t-74 -29.5t-28.5 -81z" />
<glyph unicode="&#xc6;" horiz-adv-x="1662" d="M37 0l745 1352h770v-82h-622v-512h520v-82h-520v-594h643v-82h-737v442h-463l-242 -442h-94zM418 524h418v746h-9l-262 -475z" />
<glyph unicode="&#xc7;" horiz-adv-x="1142" d="M106 680q0 315 164 505.5t418 190.5q211 0 352 -155l-57 -66q-129 135 -295 135q-217 0 -350 -166t-133 -444q0 -283 129 -451t354 -168q102 0 178 37t154 115l57 -57q-141 -158 -329 -179l-52 -83q115 -39 115 -142q0 -74 -73.5 -120t-188.5 -58l-14 64q190 33 190 104 q0 43 -34 65.5t-101 40.5l67 127q-258 12 -404.5 202t-146.5 503z" />
<glyph unicode="&#xc8;" horiz-adv-x="1040" d="M193 0v1352h737v-82h-643v-512h540v-82h-540v-594h663v-82h-757zM334 1671h129l196 -217h-94z" />
<glyph unicode="&#xc9;" horiz-adv-x="1040" d="M193 0v1352h737v-82h-643v-512h540v-82h-540v-594h663v-82h-757zM487 1454l197 217h129l-231 -217h-95z" />
<glyph unicode="&#xca;" horiz-adv-x="1040" d="M193 0v1352h737v-82h-643v-512h540v-82h-540v-594h663v-82h-757zM328 1454l200 217h90l201 -217h-90l-151 148h-9l-151 -148h-90z" />
<glyph unicode="&#xcb;" horiz-adv-x="1040" d="M193 0v1352h737v-82h-643v-512h540v-82h-540v-594h663v-82h-757zM336 1560.5q0 32.5 21.5 55t52 22.5t52 -22.5t21.5 -55t-21.5 -55t-52 -22.5t-52 22.5t-21.5 55zM664 1560.5q0 32.5 21.5 55t52 22.5t52 -22.5t21.5 -55t-21.5 -55t-52 -22.5t-52 22.5t-21.5 55z" />
<glyph unicode="&#xcc;" horiz-adv-x="479" d="M0 1671h129l197 -217h-95zM193 0v1352h94v-1352h-94z" />
<glyph unicode="&#xcd;" horiz-adv-x="479" d="M154 1454l196 217h129l-231 -217h-94zM193 0v1352h94v-1352h-94z" />
<glyph unicode="&#xce;" horiz-adv-x="479" d="M-6 1454l201 217h90l200 -217h-90l-151 148h-8l-152 -148h-90zM193 0v1352h94v-1352h-94z" />
<glyph unicode="&#xcf;" horiz-adv-x="479" d="M2 1560.5q0 32.5 21.5 55t52 22.5t52.5 -22.5t22 -55t-22 -55t-52.5 -22.5t-52 22.5t-21.5 55zM193 0v1352h94v-1352h-94zM330 1560.5q0 32.5 21.5 55t52 22.5t52 -22.5t21.5 -55t-21.5 -55t-52 -22.5t-52 22.5t-21.5 55z" />
<glyph unicode="&#xd0;" horiz-adv-x="1261" d="M70 676v69l155 9v598h316q301 0 457.5 -178.5t156.5 -493.5t-156.5 -497.5t-457.5 -182.5h-316v676h-155zM319 82h234q248 0 376 162t128 436q0 272 -128 431t-376 159h-234v-516h345v-78h-345v-594z" />
<glyph unicode="&#xd1;" horiz-adv-x="1290" d="M193 0v1352h98l569 -955l152 -266h8q-2 43 -5 124t-5 146.5t-2 122.5v828h90v-1352h-99l-569 954l-151 267h-9q2 -45 5.5 -122t5.5 -141.5t2 -121.5v-836h-90zM385 1466q4 78 45 133.5t107 55.5q59 0 131.5 -53.5t109.5 -53.5q59 0 78 107h70q-6 -78 -46 -133.5 t-106 -55.5q-59 0 -132 53.5t-110 53.5q-59 0 -77 -107h-70z" />
<glyph unicode="&#xd2;" horiz-adv-x="1318" d="M106 679.5q0 317.5 153 507t400.5 189.5t400 -189.5t152.5 -507t-152.5 -511t-400 -193.5t-400.5 193.5t-153 511zM205 680q0 -281 125 -450t329.5 -169t329.5 169t125 450q0 279 -124 444.5t-330.5 165.5t-330.5 -165.5t-124 -444.5zM420 1671h129l196 -217h-94z" />
<glyph unicode="&#xd3;" horiz-adv-x="1318" d="M106 679.5q0 317.5 153 507t400.5 189.5t400 -189.5t152.5 -507t-152.5 -511t-400 -193.5t-400.5 193.5t-153 511zM205 680q0 -281 125 -450t329.5 -169t329.5 169t125 450q0 279 -124 444.5t-330.5 165.5t-330.5 -165.5t-124 -444.5zM573 1454l197 217h129l-231 -217 h-95z" />
<glyph unicode="&#xd4;" horiz-adv-x="1318" d="M106 679.5q0 317.5 153 507t400.5 189.5t400 -189.5t152.5 -507t-152.5 -511t-400 -193.5t-400.5 193.5t-153 511zM205 680q0 -281 125 -450t329.5 -169t329.5 169t125 450q0 279 -124 444.5t-330.5 165.5t-330.5 -165.5t-124 -444.5zM414 1454l200 217h91l200 -217h-90 l-151 148h-9l-151 -148h-90z" />
<glyph unicode="&#xd5;" horiz-adv-x="1318" d="M106 679.5q0 317.5 153 507t400.5 189.5t400 -189.5t152.5 -507t-152.5 -511t-400 -193.5t-400.5 193.5t-153 511zM205 680q0 -281 125 -450t329.5 -169t329.5 169t125 450q0 279 -124 444.5t-330.5 165.5t-330.5 -165.5t-124 -444.5zM389 1466q4 78 45 133.5t107 55.5 q59 0 131.5 -53.5t109.5 -53.5q59 0 78 107h70q-6 -78 -46 -133.5t-106 -55.5q-59 0 -132 53.5t-109 53.5q-59 0 -78 -107h-70z" />
<glyph unicode="&#xd6;" horiz-adv-x="1318" d="M106 679.5q0 317.5 153 507t400.5 189.5t400 -189.5t152.5 -507t-152.5 -511t-400 -193.5t-400.5 193.5t-153 511zM205 680q0 -281 125 -450t329.5 -169t329.5 169t125 450q0 279 -124 444.5t-330.5 165.5t-330.5 -165.5t-124 -444.5zM422 1560.5q0 32.5 21.5 55t52 22.5 t52 -22.5t21.5 -55t-21.5 -55t-52 -22.5t-52 22.5t-21.5 55zM750 1560.5q0 32.5 21.5 55t52 22.5t52 -22.5t21.5 -55t-21.5 -55t-52 -22.5t-52 22.5t-21.5 55z" />
<glyph unicode="&#xd7;" d="M102 346l332 330l-332 330l60 59l330 -332l329 332l60 -59l-332 -330l332 -330l-60 -59l-329 331l-330 -331z" />
<glyph unicode="&#xd8;" horiz-adv-x="1318" d="M106 0l140 186q-139 190 -140 494q0 317 153 506.5t400 189.5q221 0 367 -151l129 172l62 -45l-140 -187q135 -190 135 -485q0 -317 -152.5 -511t-400.5 -194q-217 0 -362 152l-129 -172zM205 680q0 -248 100 -414l664 883q-119 141 -310 141q-207 0 -330.5 -165.5 t-123.5 -444.5zM352 201q123 -139 307 -140q205 0 330 169t125 450q0 248 -98 405z" />
<glyph unicode="&#xd9;" horiz-adv-x="1286" d="M188 520v832h95v-824q0 -250 99 -358.5t261 -108.5t263.5 110t101.5 357v824h90v-832q0 -293 -128 -419t-327 -126t-327 126t-128 419zM403 1671h129l197 -217h-94z" />
<glyph unicode="&#xda;" horiz-adv-x="1286" d="M188 520v832h95v-824q0 -250 99 -358.5t261 -108.5t263.5 110t101.5 357v824h90v-832q0 -293 -128 -419t-327 -126t-327 126t-128 419zM557 1454l197 217h129l-232 -217h-94z" />
<glyph unicode="&#xdb;" horiz-adv-x="1286" d="M188 520v832h95v-824q0 -250 99 -358.5t261 -108.5t263.5 110t101.5 357v824h90v-832q0 -293 -128 -419t-327 -126t-327 126t-128 419zM397 1454l201 217h90l201 -217h-90l-152 148h-8l-152 -148h-90z" />
<glyph unicode="&#xdc;" horiz-adv-x="1286" d="M188 520v832h95v-824q0 -250 99 -358.5t261 -108.5t263.5 110t101.5 357v824h90v-832q0 -293 -128 -419t-327 -126t-327 126t-128 419zM406 1560.5q0 32.5 21.5 55t52 22.5t52 -22.5t21.5 -55t-21.5 -55t-52 -22.5t-52 22.5t-21.5 55zM733 1560.5q0 32.5 21.5 55 t52.5 22.5t52.5 -22.5t21.5 -55t-21.5 -55t-52.5 -22.5t-52.5 22.5t-21.5 55z" />
<glyph unicode="&#xdd;" horiz-adv-x="933" d="M-4 1352h98l221 -424l148 -289h8l152 291l221 422h94l-426 -803v-549h-90v549zM381 1454l197 217h129l-232 -217h-94z" />
<glyph unicode="&#xde;" horiz-adv-x="1150" d="M193 0v1352h94v-246h278q479 0 479 -373q0 -197 -129 -297t-350 -100h-278v-336h-94zM287 418h254q410 0 409 315q0 160 -101 225.5t-308 65.5h-254v-606z" />
<glyph unicode="&#xdf;" horiz-adv-x="1114" d="M188 0v1069q0 178 90.5 292t253.5 114q139 0 215 -79t76 -204q0 -70 -31.5 -133.5t-68.5 -103.5t-68.5 -94t-31.5 -107q0 -66 44 -108t107.5 -69.5t127 -59.5t107.5 -96.5t44 -162.5q0 -119 -86 -201t-213 -82q-152 0 -279 107l49 74q119 -94 230 -95q98 0 153.5 56.5 t55.5 140.5q0 78 -44.5 129t-107.5 79t-126.5 56.5t-108 86t-44.5 145.5q0 66 32 126t69 99t68.5 96.5t31.5 116.5q0 90 -49 143.5t-147 53.5q-121 0 -189.5 -86t-68.5 -263v-1040h-91z" />
<glyph unicode="&#xe0;" horiz-adv-x="1024" d="M135 254q0 160 152.5 247t482.5 122q0 143 -49 221t-184 78q-170 0 -318 -115l-37 74q174 127 371 127q307 0 307 -377v-631h-78l-8 123h-4q-188 -147 -336 -148q-133 0 -216 73t-83 206zM229 254q0 -96 58.5 -144.5t163.5 -48.5q143 0 319 152v336q-297 -37 -419 -105.5 t-122 -189.5zM354 1450h119l189 -283h-91z" />
<glyph unicode="&#xe1;" horiz-adv-x="1024" d="M135 254q0 160 152.5 247t482.5 122q0 143 -49 221t-184 78q-170 0 -318 -115l-37 74q174 127 371 127q307 0 307 -377v-631h-78l-8 123h-4q-188 -147 -336 -148q-133 0 -216 73t-83 206zM229 254q0 -96 58.5 -144.5t163.5 -48.5q143 0 319 152v336q-297 -37 -419 -105.5 t-122 -189.5zM416 1167l188 283h119l-217 -283h-90z" />
<glyph unicode="&#xe2;" horiz-adv-x="1024" d="M135 254q0 160 152.5 247t482.5 122q0 143 -49 221t-184 78q-170 0 -318 -115l-37 74q174 127 371 127q307 0 307 -377v-631h-78l-8 123h-4q-188 -147 -336 -148q-133 0 -216 73t-83 206zM229 254q0 -96 58.5 -144.5t163.5 -48.5q143 0 319 152v336q-297 -37 -419 -105.5 t-122 -189.5zM297 1167l197 283h90l196 -283h-86l-151 205h-8l-152 -205h-86z" />
<glyph unicode="&#xe3;" horiz-adv-x="1024" d="M135 254q0 160 152.5 247t482.5 122q0 143 -49 221t-184 78q-170 0 -318 -115l-37 74q174 127 371 127q307 0 307 -377v-631h-78l-8 123h-4q-188 -147 -336 -148q-133 0 -216 73t-83 206zM229 254q0 -96 58.5 -144.5t163.5 -48.5q143 0 319 152v336q-297 -37 -419 -105.5 t-122 -189.5zM276 1188q6 78 42 133t102 55q59 0 132 -53t110 -53q51 0 69 106h70q-6 -80 -42 -134t-102 -54q-59 0 -131.5 53t-109.5 53q-51 0 -70 -106h-70z" />
<glyph unicode="&#xe4;" horiz-adv-x="1024" d="M135 254q0 160 152.5 247t482.5 122q0 143 -49 221t-184 78q-170 0 -318 -115l-37 74q174 127 371 127q307 0 307 -377v-631h-78l-8 123h-4q-188 -147 -336 -148q-133 0 -216 73t-83 206zM229 254q0 -96 58.5 -144.5t163.5 -48.5q143 0 319 152v336q-297 -37 -419 -105.5 t-122 -189.5zM301 1302.5q0 32.5 21.5 55t52.5 22.5t52.5 -22.5t21.5 -55t-21.5 -55t-52.5 -22.5t-52.5 22.5t-21.5 55zM629 1302.5q0 32.5 21.5 55t52 22.5t52 -22.5t21.5 -55t-21.5 -55t-52 -22.5t-52 22.5t-21.5 55z" />
<glyph unicode="&#xe5;" horiz-adv-x="1024" d="M135 254q0 160 152.5 247t482.5 122q0 143 -49 221t-184 78q-170 0 -318 -115l-37 74q174 127 371 127q307 0 307 -377v-631h-78l-8 123h-4q-188 -147 -336 -148q-133 0 -216 73t-83 206zM229 254q0 -96 58.5 -144.5t163.5 -48.5q143 0 319 152v336q-297 -37 -419 -105.5 t-122 -189.5zM362 1282q0 78 50.5 129t126 51t126 -51t50.5 -129t-50.5 -129t-126 -51t-126 51t-50.5 129zM436 1282q0 -53 29 -86t74 -33t73.5 33t28.5 86t-28.5 86t-73.5 33t-74 -33t-29 -86z" />
<glyph unicode="&#xe6;" horiz-adv-x="1626" d="M135 254q0 156 152.5 244t470.5 123q0 145 -53.5 223t-188.5 78q-158 0 -297 -115l-37 74q164 127 350 127q238 0 291 -226q115 225 348 226q104 0 181.5 -46.5t114 -118t53 -139t16.5 -131.5q0 -66 -6 -94h-674q0 -193 85 -305.5t255 -112.5q121 0 262 95l37 -74 q-160 -106 -299 -107q-248 0 -365 197q-201 -197 -397 -197q-133 0 -216 73t-83 206zM229 254q0 -96 58.5 -144.5t163.5 -48.5q178 0 344 185q-37 104 -37 246v55q-285 -37 -407 -106.5t-122 -186.5zM856 557h590q0 141 -67.5 253t-207 112t-221.5 -96.5t-94 -268.5z" />
<glyph unicode="&#xe7;" horiz-adv-x="917" d="M106 492q0 238 131.5 377t319.5 139q90 0 151.5 -26t131.5 -77l-45 -74q-51 33 -74 47.5t-69 29t-95 14.5q-160 0 -258 -119t-98 -311q0 -195 96 -313t260 -118q121 0 266 103l41 -70q-133 -104 -258 -117l-49 -83q115 -39 115 -142q0 -74 -74 -120t-188 -58l-15 64 q190 33 191 104q0 43 -34 65.5t-101 40.5l67 129q-184 12 -298 149t-114 366z" />
<glyph unicode="&#xe8;" horiz-adv-x="1003" d="M106 492q0 233 122 374.5t309 141.5q90 0 159.5 -32t109.5 -78t65.5 -108.5t33.5 -113.5t8 -103q0 -66 -6 -94h-706q0 -186 97 -302t263 -116q121 0 275 95l36 -74q-53 -35 -85.5 -52.5t-96 -36t-129.5 -18.5q-205 0 -330 135.5t-125 381.5zM201 557h622 q0 152 -67.5 258.5t-218.5 106.5q-143 0 -231.5 -97.5t-104.5 -267.5zM352 1450h119l188 -283h-90z" />
<glyph unicode="&#xe9;" horiz-adv-x="1003" d="M106 492q0 233 122 374.5t309 141.5q90 0 159.5 -32t109.5 -78t65.5 -108.5t33.5 -113.5t8 -103q0 -66 -6 -94h-706q0 -186 97 -302t263 -116q121 0 275 95l36 -74q-53 -35 -85.5 -52.5t-96 -36t-129.5 -18.5q-205 0 -330 135.5t-125 381.5zM201 557h622 q0 152 -67.5 258.5t-218.5 106.5q-143 0 -231.5 -97.5t-104.5 -267.5zM414 1167l188 283h119l-217 -283h-90z" />
<glyph unicode="&#xea;" horiz-adv-x="1003" d="M106 492q0 233 122 374.5t309 141.5q90 0 159.5 -32t109.5 -78t65.5 -108.5t33.5 -113.5t8 -103q0 -66 -6 -94h-706q0 -186 97 -302t263 -116q121 0 275 95l36 -74q-53 -35 -85.5 -52.5t-96 -36t-129.5 -18.5q-205 0 -330 135.5t-125 381.5zM201 557h622 q0 152 -67.5 258.5t-218.5 106.5q-143 0 -231.5 -97.5t-104.5 -267.5zM295 1167l197 283h90l196 -283h-86l-151 205h-9l-151 -205h-86z" />
<glyph unicode="&#xeb;" horiz-adv-x="1003" d="M106 492q0 233 122 374.5t309 141.5q90 0 159.5 -32t109.5 -78t65.5 -108.5t33.5 -113.5t8 -103q0 -66 -6 -94h-706q0 -186 97 -302t263 -116q121 0 275 95l36 -74q-53 -35 -85.5 -52.5t-96 -36t-129.5 -18.5q-205 0 -330 135.5t-125 381.5zM201 557h622 q0 152 -67.5 258.5t-218.5 106.5q-143 0 -231.5 -97.5t-104.5 -267.5zM299 1302.5q0 32.5 21.5 55t52 22.5t52 -22.5t21.5 -55t-21.5 -55t-52 -22.5t-52 22.5t-21.5 55zM627 1302.5q0 32.5 21.5 55t52 22.5t52 -22.5t21.5 -55t-21.5 -55t-52 -22.5t-52 22.5t-21.5 55z" />
<glyph unicode="&#xec;" horiz-adv-x="466" d="M49 1450h119l188 -283h-90zM188 0v983h91v-983h-91z" />
<glyph unicode="&#xed;" horiz-adv-x="466" d="M111 1167l188 283h119l-217 -283h-90zM188 0v983h91v-983h-91z" />
<glyph unicode="&#xee;" horiz-adv-x="466" d="M-8 1167l196 283h91l196 -283h-86l-151 205h-9l-151 -205h-86zM188 0v983h91v-983h-91z" />
<glyph unicode="&#xef;" horiz-adv-x="466" d="M-4 1302.5q0 32.5 21.5 55t52 22.5t52 -22.5t21.5 -55t-21.5 -55t-52 -22.5t-52 22.5t-21.5 55zM188 0v983h91v-983h-91zM324 1302.5q0 32.5 21.5 55t52 22.5t52 -22.5t21.5 -55t-21.5 -55t-52 -22.5t-52 22.5t-21.5 55z" />
<glyph unicode="&#xf0;" horiz-adv-x="1097" d="M123 451q0 203 119.5 328.5t310.5 125.5q162 0 289 -121q-55 248 -232 416l-293 -149l-30 63l264 139q-98 80 -244 164l53 58q158 -88 269 -183l297 156l35 -68l-275 -141q276 -276 277 -723q0 -244 -115 -392.5t-299 -148.5q-174 0 -300 131.5t-126 344.5zM217 451 q0 -172 95.5 -281t236.5 -109q160 0 239.5 125t79.5 330q0 86 -8 150q-139 154 -299 153q-162 0 -253 -105t-91 -263z" />
<glyph unicode="&#xf1;" horiz-adv-x="1089" d="M188 0v983h78l8 -152h5q170 176 335 177q303 0 304 -377v-631h-91v618q0 152 -47 228t-182 76q-145 0 -319 -181v-741h-91zM315 1188q6 78 42 133t102 55q59 0 132 -53t109 -53q51 0 70 106h70q-6 -80 -42 -134t-102 -54q-59 0 -131.5 53t-109.5 53q-51 0 -70 -106h-70z " />
<glyph unicode="&#xf2;" horiz-adv-x="1097" d="M106 491.5q0 239.5 126 378t316.5 138.5t316.5 -138.5t126 -378t-126 -378t-316.5 -138.5t-316.5 138.5t-126 378zM201 491.5q0 -192.5 96 -311.5t252 -119t252 119t96 311.5t-96 311.5t-252 119t-252 -119t-96 -311.5zM365 1450h118l189 -283h-90z" />
<glyph unicode="&#xf3;" horiz-adv-x="1097" d="M106 491.5q0 239.5 126 378t316.5 138.5t316.5 -138.5t126 -378t-126 -378t-316.5 -138.5t-316.5 138.5t-126 378zM201 491.5q0 -192.5 96 -311.5t252 -119t252 119t96 311.5t-96 311.5t-252 119t-252 -119t-96 -311.5zM426 1167l188 283h119l-217 -283h-90z" />
<glyph unicode="&#xf4;" horiz-adv-x="1097" d="M106 491.5q0 239.5 126 378t316.5 138.5t316.5 -138.5t126 -378t-126 -378t-316.5 -138.5t-316.5 138.5t-126 378zM201 491.5q0 -192.5 96 -311.5t252 -119t252 119t96 311.5t-96 311.5t-252 119t-252 -119t-96 -311.5zM307 1167l197 283h90l197 -283h-86l-152 205h-8 l-152 -205h-86z" />
<glyph unicode="&#xf5;" horiz-adv-x="1097" d="M106 491.5q0 239.5 126 378t316.5 138.5t316.5 -138.5t126 -378t-126 -378t-316.5 -138.5t-316.5 138.5t-126 378zM201 491.5q0 -192.5 96 -311.5t252 -119t252 119t96 311.5t-96 311.5t-252 119t-252 -119t-96 -311.5zM287 1188q6 78 42 133t101 55q59 0 132 -53 t110 -53q51 0 69 106h70q-6 -80 -42 -134t-101 -54q-59 0 -132 53t-110 53q-51 0 -70 -106h-69z" />
<glyph unicode="&#xf6;" horiz-adv-x="1097" d="M106 491.5q0 239.5 126 378t316.5 138.5t316.5 -138.5t126 -378t-126 -378t-316.5 -138.5t-316.5 138.5t-126 378zM201 491.5q0 -192.5 96 -311.5t252 -119t252 119t96 311.5t-96 311.5t-252 119t-252 -119t-96 -311.5zM311 1302.5q0 32.5 21.5 55t52.5 22.5t52.5 -22.5 t21.5 -55t-21.5 -55t-52.5 -22.5t-52.5 22.5t-21.5 55zM639 1302.5q0 32.5 21.5 55t52 22.5t52 -22.5t21.5 -55t-21.5 -55t-52 -22.5t-52 22.5t-21.5 55z" />
<glyph unicode="&#xf7;" d="M70 635v82h843v-82h-843zM414 307q0 37 21.5 59.5t56 22.5t56 -22.5t21.5 -59.5t-21.5 -59.5t-56 -22.5t-56 22.5t-21.5 59.5zM414 1044.5q0 36.5 21.5 59t56 22.5t56 -22.5t21.5 -59t-21.5 -59t-56 -22.5t-56 22.5t-21.5 59z" />
<glyph unicode="&#xf8;" horiz-adv-x="1097" d="M90 0l119 143q-102 139 -103 349q0 240 126 378t317 138q168 0 289 -111l108 131l62 -45l-119 -143q102 -139 102 -348q0 -240 -126 -378.5t-316 -138.5q-168 0 -289 111l-108 -131zM201 492q0 -172 67 -279l514 618q-94 90 -233 91q-156 0 -252 -118.5t-96 -311.5z M315 152q94 -90 234 -91q156 0 252 119t96 312q0 172 -68 278z" />
<glyph unicode="&#xf9;" horiz-adv-x="1101" d="M193 352v631h90v-618q0 -152 46 -228t179 -76q152 0 315 193v729h90v-983h-77l-9 164h-4q-156 -188 -331 -189q-162 0 -230.5 98.5t-68.5 278.5zM377 1450h119l188 -283h-90z" />
<glyph unicode="&#xfa;" horiz-adv-x="1101" d="M193 352v631h90v-618q0 -152 46 -228t179 -76q152 0 315 193v729h90v-983h-77l-9 164h-4q-156 -188 -331 -189q-162 0 -230.5 98.5t-68.5 278.5zM438 1167l189 283h118l-217 -283h-90z" />
<glyph unicode="&#xfb;" horiz-adv-x="1101" d="M193 352v631h90v-618q0 -152 46 -228t179 -76q152 0 315 193v729h90v-983h-77l-9 164h-4q-156 -188 -331 -189q-162 0 -230.5 98.5t-68.5 278.5zM319 1167l197 283h90l197 -283h-86l-152 205h-8l-151 -205h-87z" />
<glyph unicode="&#xfc;" horiz-adv-x="1101" d="M193 352v631h90v-618q0 -152 46 -228t179 -76q152 0 315 193v729h90v-983h-77l-9 164h-4q-156 -188 -331 -189q-162 0 -230.5 98.5t-68.5 278.5zM324 1302.5q0 32.5 21.5 55t52 22.5t52 -22.5t21.5 -55t-21.5 -55t-52 -22.5t-52 22.5t-21.5 55zM651 1302.5 q0 32.5 21.5 55t52.5 22.5t52.5 -22.5t21.5 -55t-21.5 -55t-52.5 -22.5t-52.5 22.5t-21.5 55z" />
<glyph unicode="&#xfd;" horiz-adv-x="892" d="M25 983h98l237 -614l107 -279h8l94 279l209 614h90l-381 -1089q-53 -154 -120.5 -241t-186.5 -87q-78 0 -127 24l21 78q49 -16 102 -16q150 0 217 213l37 115zM348 1167l189 283h118l-217 -283h-90z" />
<glyph unicode="&#xfe;" horiz-adv-x="1114" d="M188 -430v1884h91v-405v-189q170 147 339 148q190 0 290 -131.5t100 -368.5q0 -246 -123 -389.5t-316 -143.5q-147 0 -290 115v-176v-344h-91zM279 184q143 -123 290 -123q156 0 250 123t94 324q0 414 -311 414q-147 0 -323 -152v-586z" />
<glyph unicode="&#xff;" horiz-adv-x="892" d="M25 983h98l237 -614l107 -279h8l94 279l209 614h90l-381 -1089q-53 -154 -120.5 -241t-186.5 -87q-78 0 -127 24l21 78q49 -16 102 -16q150 0 217 213l37 115zM233 1302.5q0 32.5 21.5 55t52.5 22.5t52.5 -22.5t21.5 -55t-21.5 -55t-52.5 -22.5t-52.5 22.5t-21.5 55z M561 1302.5q0 32.5 21.5 55t52.5 22.5t52.5 -22.5t21.5 -55t-21.5 -55t-52.5 -22.5t-52.5 22.5t-21.5 55z" />
<glyph unicode="&#x152;" horiz-adv-x="1708" d="M106 680q0 309 175.5 490.5t480.5 181.5h835v-82h-602v-512h500v-82h-500v-594h623v-82h-856q-305 0 -480.5 185.5t-175.5 494.5zM205 680q0 -270 144.5 -434t400.5 -164h151v1188h-151q-258 0 -401.5 -161t-143.5 -429z" />
<glyph unicode="&#x153;" horiz-adv-x="1748" d="M106 491.5q0 239.5 122 378t313 138.5q131 0 232 -70t153 -201q109 270 368 271q104 0 181 -46.5t114 -118t53.5 -139t16.5 -131.5q0 -66 -6 -94h-674q0 -190 88 -304t252 -114q121 0 262 95l37 -74q-160 -106 -299 -107q-135 0 -238.5 69t-154.5 198 q-55 -131 -154.5 -199t-230.5 -68q-190 0 -312.5 138.5t-122.5 378zM201 491.5q0 -194.5 92 -312.5t247.5 -118t248 118t92.5 312.5t-92.5 312.5t-248 118t-247.5 -118t-92 -312.5zM979 557h590q0 141 -67.5 253t-207 112t-219.5 -96.5t-96 -268.5z" />
<glyph unicode="&#x178;" horiz-adv-x="933" d="M-4 1352h98l221 -424l148 -289h8l152 291l221 422h94l-426 -803v-549h-90v549zM229 1560.5q0 32.5 21.5 55t52.5 22.5t52.5 -22.5t21.5 -55t-21.5 -55t-52.5 -22.5t-52.5 22.5t-21.5 55zM557 1560.5q0 32.5 21.5 55t52.5 22.5t52.5 -22.5t21.5 -55t-21.5 -55t-52.5 -22.5 t-52.5 22.5t-21.5 55z" />
<glyph unicode="&#x2c6;" horiz-adv-x="1097" d="M307 1167l197 283h90l197 -283h-86l-152 205h-8l-152 -205h-86z" />
<glyph unicode="&#x2dc;" horiz-adv-x="1097" d="M287 1188q6 78 42 133t101 55q59 0 132 -53t110 -53q51 0 69 106h70q-6 -80 -42 -134t-101 -54q-59 0 -132 53t-110 53q-51 0 -70 -106h-69z" />
<glyph unicode="&#x2000;" horiz-adv-x="886" />
<glyph unicode="&#x2001;" horiz-adv-x="1773" />
<glyph unicode="&#x2002;" horiz-adv-x="886" />
<glyph unicode="&#x2003;" horiz-adv-x="1773" />
<glyph unicode="&#x2004;" horiz-adv-x="589" />
<glyph unicode="&#x2005;" horiz-adv-x="442" />
<glyph unicode="&#x2006;" horiz-adv-x="294" />
<glyph unicode="&#x2007;" horiz-adv-x="294" />
<glyph unicode="&#x2008;" horiz-adv-x="221" />
<glyph unicode="&#x2009;" horiz-adv-x="354" />
<glyph unicode="&#x200a;" horiz-adv-x="98" />
<glyph unicode="&#x2010;" horiz-adv-x="614" d="M82 471v86h450v-86h-450z" />
<glyph unicode="&#x2011;" horiz-adv-x="614" d="M82 471v86h450v-86h-450z" />
<glyph unicode="&#x2012;" horiz-adv-x="614" d="M82 471v86h450v-86h-450z" />
<glyph unicode="&#x2013;" d="M82 471v86h819v-86h-819z" />
<glyph unicode="&#x2014;" horiz-adv-x="1638" d="M82 471v86h1474v-86h-1474z" />
<glyph unicode="&#x2018;" horiz-adv-x="450" d="M119 1130q0 203 176 312l37 -53q-74 -55 -104.5 -107.5t-30.5 -140.5q6 2 20 2q33 0 53.5 -19.5t20.5 -54.5q0 -39 -21.5 -62.5t-56.5 -23.5q-94 0 -94 147z" />
<glyph unicode="&#x2019;" horiz-adv-x="450" d="M119 1028q74 55 104.5 107.5t30.5 140.5q-6 -2 -21 -2q-33 0 -53 19.5t-20 54.5q0 39 21.5 62.5t56.5 23.5q94 0 94 -148q0 -203 -176 -311z" />
<glyph unicode="&#x201a;" horiz-adv-x="450" d="M119 -242q74 55 104.5 107.5t30.5 140.5q-6 -2 -21 -2q-33 0 -53 19.5t-20 54.5q0 39 21.5 62.5t56.5 23.5q94 0 94 -148q0 -203 -176 -311z" />
<glyph unicode="&#x201c;" horiz-adv-x="737" d="M119 1130q0 203 176 312l37 -53q-74 -55 -104.5 -107.5t-30.5 -140.5q6 2 20 2q33 0 53.5 -19.5t20.5 -54.5q0 -39 -21.5 -62.5t-56.5 -23.5q-94 0 -94 147zM406 1130q0 203 176 312l36 -53q-74 -55 -104.5 -107.5t-30.5 -140.5q6 2 21 2q33 0 53.5 -19.5t20.5 -54.5 q0 -39 -21.5 -62.5t-56.5 -23.5q-94 0 -94 147z" />
<glyph unicode="&#x201d;" horiz-adv-x="737" d="M119 1028q74 55 104.5 107.5t30.5 140.5q-6 -2 -21 -2q-33 0 -53 19.5t-20 54.5q0 39 21.5 62.5t56.5 23.5q94 0 94 -148q0 -203 -176 -311zM406 1028q74 55 104.5 107.5t30.5 140.5q-6 -2 -21 -2q-33 0 -53.5 19.5t-20.5 54.5q0 39 21.5 62.5t56.5 23.5q94 0 94 -148 q0 -203 -176 -311z" />
<glyph unicode="&#x201e;" horiz-adv-x="737" d="M119 -242q74 55 104.5 107.5t30.5 140.5q-6 -2 -21 -2q-33 0 -53 19.5t-20 54.5q0 39 21.5 62.5t56.5 23.5q94 0 94 -148q0 -203 -176 -311zM406 -242q74 55 104.5 107.5t30.5 140.5q-6 -2 -21 -2q-33 0 -53.5 19.5t-20.5 54.5q0 39 21.5 62.5t56.5 23.5q94 0 94 -148 q0 -203 -176 -311z" />
<glyph unicode="&#x2022;" horiz-adv-x="581" d="M82 540.5q0 100.5 62.5 163t146.5 62.5t146.5 -62.5t62.5 -163t-62.5 -163t-146.5 -62.5t-146.5 62.5t-62.5 163z" />
<glyph unicode="&#x2026;" horiz-adv-x="1966" d="M221 70q0 41 25.5 67.5t60.5 26.5t60.5 -26.5t25.5 -67.5t-25.5 -68t-60.5 -27t-60.5 27t-25.5 68zM938 70q0 41 25.5 67.5t60.5 26.5t60.5 -26.5t25.5 -67.5t-25.5 -68t-60.5 -27t-60.5 27t-25.5 68zM1655 70q0 41 25.5 67.5t60.5 26.5t60.5 -26.5t25.5 -67.5t-25.5 -68 t-60.5 -27t-60.5 27t-25.5 68z" />
<glyph unicode="&#x202f;" horiz-adv-x="354" />
<glyph unicode="&#x2039;" horiz-adv-x="532" d="M90 471v90l275 324l61 -41l-252 -328l252 -328l-61 -41z" />
<glyph unicode="&#x203a;" horiz-adv-x="532" d="M106 188l252 328l-252 328l62 41l274 -324v-90l-274 -324z" />
<glyph unicode="&#x205f;" horiz-adv-x="442" />
<glyph unicode="&#x20ac;" d="M49 492v73l129 8q-2 29 -2 86q0 39 2 58h-129v74l135 8q27 250 148 393t307 143q197 0 311 -164l-57 -57q-100 135 -254 135q-147 0 -240.5 -119.5t-115.5 -330.5h565v-82h-572q-2 -18 -2 -58q0 -57 2 -86h490v-81h-481q27 -201 118 -316t232 -115q164 0 287 140l57 -58 q-141 -168 -344 -168q-182 0 -300 137.5t-149 379.5h-137z" />
<glyph unicode="&#x2122;" horiz-adv-x="1249" d="M0 1307v77h524v-77h-221v-549h-82v549h-221zM618 758v626h132l94 -254l57 -159h8l58 159l94 254h131v-626h-82v327l6 193h-10l-164 -422h-74l-163 422h-11l6 -193v-327h-82z" />
<glyph unicode="&#xe000;" horiz-adv-x="985" d="M0 985h985v-985h-985v985z" />
<glyph unicode="&#xfb01;" horiz-adv-x="1044" d="M70 901v74l135 8v188q0 145 62.5 224.5t174.5 79.5q70 0 148 -33l-21 -78q-86 25 -123 25q-152 0 -151 -205v-201h225v-82h-225v-901h-90v901h-135zM729 1302.5q0 36.5 23.5 59t58.5 22.5t58.5 -22.5t23.5 -59t-23.5 -59t-58.5 -22.5t-58.5 22.5t-23.5 59zM766 0v983h90 v-983h-90z" />
<glyph unicode="&#xfb02;" horiz-adv-x="1044" d="M70 901v74l135 8v188q0 145 62.5 224.5t174.5 79.5q70 0 148 -33l-21 -78q-86 25 -123 25q-152 0 -151 -205v-201h225v-82h-225v-901h-90v901h-135zM766 0v1454h90v-1454h-90z" />
<glyph unicode="&#xfb03;" horiz-adv-x="1548" d="M1233 1302.5q0 36.5 23.5 59t58 22.5t58 -22.5t23.5 -59t-23.5 -59t-58 -22.5t-58 22.5t-23.5 59zM1269 0v983h91v-983h-91zM611 901v74l135 8v188q0 145 62.5 224.5t174.5 79.5q70 0 148 -33l-21 -78q-86 25 -123 25q-152 0 -151 -205v-201h225v-82h-225v-901h-90v901 h-135zM70 901v74l135 8v188q0 145 62.5 224.5t174.5 79.5q70 0 148 -33l-21 -78q-86 25 -123 25q-152 0 -151 -205v-201h225v-82h-225v-901h-90v901h-135z" />
<glyph unicode="&#xfb04;" horiz-adv-x="1548" d="M1269 0v1454h91v-1454h-91zM611 901v74l135 8v188q0 145 62.5 224.5t174.5 79.5q70 0 148 -33l-21 -78q-86 25 -123 25q-152 0 -151 -205v-201h225v-82h-225v-901h-90v901h-135zM70 901v74l135 8v188q0 145 62.5 224.5t174.5 79.5q70 0 148 -33l-21 -78q-86 25 -123 25 q-152 0 -151 -205v-201h225v-82h-225v-901h-90v901h-135z" />
</font>
</defs>
</svg>
