<?xml version="1.0" standalone="no"?>
<!DOCTYPE svg PUBLIC "-//W3C//DTD SVG 1.1//EN" "http://www.w3.org/Graphics/SVG/1.1/DTD/svg11.dtd" >
<svg xmlns="http://www.w3.org/2000/svg">
<metadata>
This is a custom SVG webfont generated by Font Squirrel.
Copyright   :  2012 Adobe Systems Incorporated All Rights Reserved
Designer    : Paul D Hunt
Foundry     : Adobe Systems Incorporated
Foundry URL : httpwwwadobecomtype
</metadata>
<defs>
<font id="SourceSansBlack" horiz-adv-x="1105" >
<font-face units-per-em="2048" ascent="1536" descent="-512" />
<missing-glyph horiz-adv-x="430" />
<glyph unicode=" "  horiz-adv-x="430" />
<glyph unicode="&#x09;" horiz-adv-x="430" />
<glyph unicode="&#xa0;" horiz-adv-x="430" />
<glyph unicode="!" horiz-adv-x="737" d="M164 188.5q0 90.5 58.5 151.5t146.5 61t146 -61t58 -151.5t-58 -152t-146 -61.5t-146.5 61.5t-58.5 152zM193 1372h352l-13 -303l-49 -569h-229l-49 569z" />
<glyph unicode="&#x22;" horiz-adv-x="1187" d="M152 1372h352l-12 -303l-50 -405h-229l-49 405zM684 1372h352l-12 -303l-49 -405h-230l-49 405z" />
<glyph unicode="#" d="M70 369v221h172l24 196h-155v222h184l41 323h196l-36 -323h188l41 323h197l-37 -323h159v-222h-188l-25 -196h173v-221h-197l-45 -369h-201l45 369h-188l-45 -369h-201l45 369h-147zM442 590h189l24 196h-188z" />
<glyph unicode="$" d="M78 135l135 234q158 -111 291 -111q76 0 109.5 27.5t33.5 87.5q0 45 -54 86t-132 82t-156 90t-132 128t-54 179q0 156 83 258t232 135v213h230v-209q170 -29 294 -131l-131 -233q-135 90 -241 90q-70 0 -100.5 -23.5t-30.5 -83.5q0 -35 38.5 -69.5t98 -61t127 -66.5 t127 -84t98.5 -116t39 -160q0 -154 -81 -261t-238 -144v-217h-230v205q-213 26 -356 155z" />
<glyph unicode="%" horiz-adv-x="1781" d="M45 954q0 195 96.5 308.5t248 113.5t247.5 -113.5t96 -308.5q0 -197 -96 -311.5t-247.5 -114.5t-248 114.5t-96.5 311.5zM287 954q0 -233 102.5 -233t102.5 233q0 229 -102.5 229t-102.5 -229zM426 -25l713 1401h196l-712 -1401h-197zM1049 401q0 195 96 308.5 t247.5 113.5t248 -113.5t96.5 -308.5q0 -197 -96.5 -311.5t-248 -114.5t-247.5 114.5t-96 311.5zM1290 401q0 -233 102.5 -233t102.5 233q0 229 -102.5 229t-102.5 -229z" />
<glyph unicode="&#x26;" horiz-adv-x="1429" d="M45 360q0 233 246 385q-78 145 -78 263q0 154 108.5 261t299.5 107q166 0 262 -85t96 -230q0 -125 -75 -214t-210 -175q102 -106 236 -201q96 121 141 274h324q-109 -266 -217 -419q125 -55 215 -68l-82 -283q-164 27 -357 129q-190 -129 -434 -129q-229 0 -352 111.5 t-123 273.5zM377 381q0 -61 46 -100t124 -39q74 0 149 34q-143 117 -243 236q-76 -63 -76 -131zM510 1008q0 -55 33 -127q150 86 149 180q0 86 -80 86q-41 0 -71.5 -39t-30.5 -100z" />
<glyph unicode="'" horiz-adv-x="655" d="M152 1372h352l-12 -303l-50 -405h-229l-49 405z" />
<glyph unicode="(" horiz-adv-x="737" d="M139 569.5q0 493.5 271 937.5l221 -90q-209 -377 -209 -848t209 -848l-221 -90q-271 445 -271 938.5z" />
<glyph unicode=")" horiz-adv-x="737" d="M106 -279q209 377 209 848t-209 848l222 90q270 -444 270 -937.5t-270 -938.5z" />
<glyph unicode="*" horiz-adv-x="966" d="M61 1087l56 170l248 -49l28 250h180l29 -252l248 51l55 -170l-231 -106l125 -219l-144 -105l-172 187l-172 -187l-143 105l123 219z" />
<glyph unicode="+" d="M70 553v246h356v368h254v-368h356v-246h-356v-369h-254v369h-356z" />
<glyph unicode="," horiz-adv-x="655" d="M94 -233q121 39 184.5 105.5t63.5 143.5h-14q-84 0 -144.5 52.5t-60.5 140.5q0 84 61.5 138t151.5 54q113 0 173 -84t60 -235q0 -184 -104.5 -314t-300.5 -186z" />
<glyph unicode="-" horiz-adv-x="696" d="M90 397v246h516v-246h-516z" />
<glyph unicode="." horiz-adv-x="655" d="M123 188.5q0 90.5 58.5 151.5t146.5 61t146 -61t58 -151.5t-58 -152t-146 -61.5t-146.5 61.5t-58.5 152z" />
<glyph unicode="/" horiz-adv-x="684" d="M29 -328l360 1782h225l-360 -1782h-225z" />
<glyph unicode="0" d="M70 664q0 326 131 502.5t352 176.5t352 -177t131 -502q0 -328 -132 -508.5t-351 -180.5t-351 180.5t-132 508.5zM401 664q0 -164 21.5 -260.5t53.5 -127t77 -30.5t77 30.5t53.5 127t21.5 260.5q0 238 -40 323.5t-112 85.5t-112 -85.5t-40 -323.5z" />
<glyph unicode="1" d="M135 0v283h279v692h-246v217q199 39 340 127h258v-1036h233v-283h-864z" />
<glyph unicode="2" d="M61 1184q215 160 447 159q199 0 322.5 -116.5t123.5 -308.5q0 -43 -8 -85t-33 -92l-40 -79q-15 -31 -62 -92.5t-64.5 -83t-81 -97.5t-79.5 -94h430v-295h-942v201q272 250 408 412.5t136 283.5q0 84 -43 128t-116 44q-113 0 -254 -111z" />
<glyph unicode="3" d="M29 168l159 221q154 -131 271 -131q197 0 196 135q0 82 -66.5 119t-269.5 37v246q168 0 231.5 34.5t63.5 108.5q0 131 -163 131q-61 0 -109.5 -22.5t-128.5 -75.5l-147 221q199 152 417 151q227 0 355.5 -96t128.5 -270q0 -104 -48.5 -171t-152.5 -114v-8 q242 -80 242 -315q0 -178 -143.5 -286t-352.5 -108q-311 0 -483 193z" />
<glyph unicode="4" d="M41 279v258l442 782h451v-762h127v-278h-127v-279h-340v279h-553zM373 557h221v209l12 266h-8l-106 -250z" />
<glyph unicode="5" d="M45 160l160 221q137 -123 258 -123q92 0 142 47t50 133q0 80 -49 124t-135 44q-47 0 -78 -11t-94 -50l-152 106l33 668h770v-295h-467l-16 -180q53 20 123 20q178 0 298 -110.5t120 -307.5q0 -211 -143.5 -341t-348.5 -130q-281 1 -471 185z" />
<glyph unicode="6" d="M70 635q0 301 151.5 504.5t421.5 203.5q109 0 187.5 -23.5t168.5 -82.5l-122 -242q-104 66 -201 66q-248 0 -273 -348q49 53 118 83.5t126 30.5q182 0 287.5 -106.5t105.5 -298.5q0 -203 -130 -325t-320 -122q-244 0 -382 178.5t-138 481.5zM410 483q31 -246 172 -245 q61 0 100 44t39 140q0 160 -143 160q-100 -1 -168 -99z" />
<glyph unicode="7" d="M90 1024v295h930v-217q-111 -129 -178.5 -244t-103.5 -254t-50 -263t-24 -341h-353q20 326 91 555t245 469h-557z" />
<glyph unicode="8" d="M74 344q0 203 229 307v8q-193 143 -192 320q0 168 122.5 266t315.5 98q190 0 310 -95t120 -261q0 -178 -184 -285v-8q238 -119 237 -346q0 -160 -135 -266.5t-348 -106.5t-344 104.5t-131 264.5zM381 385q0 -76 47 -122t121 -46q160 0 160 143q0 29 -12.5 52.5t-30 40 t-54.5 37t-66.5 34t-86.5 37.5q-78 -61 -78 -176zM418 979q0 -66 50 -109t155 -84q66 78 65 164q0 68 -38 110t-101 42q-53 0 -92 -33t-39 -90z" />
<glyph unicode="9" d="M61 897q0 203 132.5 324.5t322.5 121.5q244 0 382 -178t138 -481q0 -199 -58 -354.5t-191.5 -255t-323.5 -99.5q-109 0 -187.5 24t-169.5 83l123 242q104 -66 201 -66q135 0 198.5 85t73.5 263q-49 -53 -117.5 -83.5t-125.5 -30.5q-184 0 -291 106t-107 299zM381 897 q0 -160 147 -160q100 0 168 99q-31 246 -172 245q-61 0 -102 -44t-41 -140z" />
<glyph unicode=":" horiz-adv-x="655" d="M123 188.5q0 90.5 58.5 151.5t146.5 61t146 -61t58 -151.5t-58 -152t-146 -61.5t-146.5 61.5t-58.5 152zM123 823q0 90 58.5 151.5t146.5 61.5t146 -61.5t58 -151.5t-58 -151.5t-146 -61.5t-146.5 61.5t-58.5 151.5z" />
<glyph unicode=";" horiz-adv-x="655" d="M94 -233q121 39 184.5 105.5t63.5 143.5h-14q-84 0 -144.5 52.5t-60.5 140.5q0 84 61.5 138t151.5 54q113 0 173 -84t60 -235q0 -184 -104.5 -314t-300.5 -186zM123 823q0 90 58.5 151.5t146.5 61.5t146 -61.5t58 -151.5t-58 -151.5t-146 -61.5t-146.5 61.5t-58.5 151.5z " />
<glyph unicode="&#x3c;" d="M70 561v238l966 368v-286l-331 -103l-279 -94v-8l279 -94l331 -103v-286z" />
<glyph unicode="=" d="M70 307v246h966v-246h-966zM70 799v245h966v-245h-966z" />
<glyph unicode="&#x3e;" d="M70 193v286l331 103l279 94v8l-279 94l-331 103v286l966 -368v-238z" />
<glyph unicode="?" horiz-adv-x="978" d="M98 1237q160 160 373 160q190 0 308 -88t118 -273q0 -68 -30.5 -127t-73.5 -104t-85 -89t-69 -99.5t-21 -116.5h-307q-12 74 9.5 141.5t60.5 116.5t80 91t70.5 82t29.5 73q0 111 -139 110q-86 0 -193 -86zM258 188.5q0 90.5 58.5 151.5t146.5 61t146.5 -61t58.5 -151.5 t-58.5 -152t-146.5 -61.5t-146.5 61.5t-58.5 152z" />
<glyph unicode="@" horiz-adv-x="1892" d="M98 422q0 283 129 506t345 342t477 119q338 0 541.5 -209t203.5 -541q0 -266 -149.5 -417.5t-337.5 -151.5q-92 0 -160 42t-86 113h-4q-39 -59 -111 -97t-135 -38q-125 0 -202 87t-77 229q0 201 125 356.5t297 155.5q106 0 152 -103h4l33 86h213l-99 -467 q-37 -152 86 -151q94 0 164 98t70 250q0 111 -29.5 205t-92 172.5t-174.5 125t-261 46.5q-270 0 -479 -211t-209 -539q0 -287 172 -436.5t422 -149.5q156 0 303 74l74 -188q-182 -94 -406 -95q-160 0 -300 48.5t-254 141.5t-179.5 246.5t-65.5 350.5zM795 426 q0 -119 94 -119q55 0 115 82l45 258q-25 49 -82 49q-74 0 -123 -88t-49 -182z" />
<glyph unicode="A" horiz-adv-x="1253" d="M-12 0l426 1352h426l426 -1352h-373l-76 291h-393l-76 -291h-360zM496 563h249l-32 121l-90 406h-9l-86 -406z" />
<glyph unicode="B" horiz-adv-x="1290" d="M156 0v1352h491q504 0 504 -348q0 -92 -51 -170t-150 -113v-8q262 -68 262 -320q0 -197 -147 -295t-377 -98h-532zM508 270h156q205 0 204 156q0 143 -204 143h-156v-299zM508 815h115q184 0 184 139q0 127 -184 127h-115v-266z" />
<glyph unicode="C" horiz-adv-x="1228" d="M98 680q0 319 189.5 507.5t474.5 188.5q219 0 385 -139l-143 -242q-113 78 -230 78q-145 0 -230 -106.5t-85 -286.5q0 -401 344 -401q96 0 217 94l151 -238q-160 -160 -401 -160q-297 0 -484.5 183.5t-187.5 521.5z" />
<glyph unicode="D" horiz-adv-x="1351" d="M156 0v1352h413q317 0 500.5 -166t183.5 -506t-180 -510t-483 -170h-434zM508 283h41q160 0 252 90t92 307t-91 303t-253 86h-41v-786z" />
<glyph unicode="E" horiz-adv-x="1163" d="M156 0v1352h876v-295h-524v-217h450v-295h-450v-250h545v-295h-897z" />
<glyph unicode="F" horiz-adv-x="1122" d="M156 0v1352h876v-295h-524v-258h450v-295h-450v-504h-352z" />
<glyph unicode="G" horiz-adv-x="1347" d="M98 680q0 317 195.5 506.5t480.5 189.5q268 0 434 -139l-143 -242q-113 78 -279 78q-145 0 -236 -106.5t-91 -286.5q0 -401 360 -401q55 0 103 28v193h-197v286h508v-651q-82 -68 -202 -114t-253 -46q-303 0 -491.5 182.5t-188.5 522.5z" />
<glyph unicode="H" horiz-adv-x="1441" d="M156 0v1352h352v-504h426v504h352v-1352h-352v541h-426v-541h-352z" />
<glyph unicode="I" horiz-adv-x="663" d="M156 0v1352h352v-1352h-352z" />
<glyph unicode="J" horiz-adv-x="1085" d="M33 170l184 211q92 -102 197 -102q90 0 129 46t39 167v860h352v-889q0 -219 -116 -353.5t-367 -134.5q-275 0 -418 195z" />
<glyph unicode="K" horiz-adv-x="1368" d="M156 0v1352h352v-508h8l373 508h385l-414 -549l496 -803h-385l-324 524l-139 -184v-340h-352z" />
<glyph unicode="L" horiz-adv-x="1122" d="M156 0v1352h352v-1057h524v-295h-876z" />
<glyph unicode="M" horiz-adv-x="1605" d="M156 0v1352h364l209 -566l74 -223h8l74 223l200 566h365v-1352h-328v410q0 106 45 479h-8l-110 -316l-185 -462h-131l-184 462l-107 316h-8q45 -373 45 -479v-410h-323z" />
<glyph unicode="N" horiz-adv-x="1433" d="M156 0v1352h376l320 -607l127 -299h8q-45 393 -45 508v398h336v-1352h-377l-319 606l-127 299h-9q45 -393 46 -508v-397h-336z" />
<glyph unicode="O" horiz-adv-x="1458" d="M98 680q0 324 174 510t457 186q281 0 456 -187.5t175 -508.5q0 -324 -175 -514.5t-455.5 -190.5t-456 190.5t-175.5 514.5zM459 680q0 -180 74.5 -290.5t195.5 -110.5t195.5 110.5t74.5 290.5t-74.5 286.5t-195.5 106.5t-195.5 -106.5t-74.5 -286.5z" />
<glyph unicode="P" horiz-adv-x="1282" d="M156 0v1352h516q113 0 205 -22.5t167.5 -72t117.5 -138.5t42 -210q0 -156 -76.5 -264t-193.5 -155.5t-262 -47.5h-164v-442h-352zM508 721h147q205 0 205 188q0 164 -205 164h-147v-352z" />
<glyph unicode="Q" horiz-adv-x="1458" d="M98 680q0 324 174 510t457 186q281 0 456 -187.5t175 -508.5q0 -262 -118 -439.5t-318 -238.5q80 -100 276 -100q70 0 152 28l61 -258q-92 -49 -254 -49q-219 0 -376.5 101.5t-235.5 275.5q-207 57 -328 235.5t-121 444.5zM459 680q0 -180 74.5 -290.5t195.5 -110.5 t195.5 110.5t74.5 290.5t-74.5 286.5t-195.5 106.5t-195.5 -106.5t-74.5 -286.5z" />
<glyph unicode="R" horiz-adv-x="1306" d="M156 0v1352h503q532 0 533 -430q0 -268 -219 -385l293 -537h-394l-231 467h-133v-467h-352zM508 745h127q213 0 213 177q0 84 -52.5 117.5t-160.5 33.5h-127v-328z" />
<glyph unicode="S" horiz-adv-x="1171" d="M82 164l156 246q174 -131 348 -131q152 0 151 98q0 41 -32.5 64.5t-116.5 58.5l-31 12l-166 70q-268 115 -268 376q0 174 140 296t355 122q117 0 237 -42t210 -117l-152 -250q-166 106 -295 106q-139 0 -139 -94q0 -41 36 -64.5t124 -58.5q25 -8 37 -14l162 -66 q260 -106 260 -370q0 -178 -140.5 -304.5t-379.5 -126.5q-275 1 -496 189z" />
<glyph unicode="T" horiz-adv-x="1171" d="M53 1057v295h1065v-295h-356v-1057h-352v1057h-357z" />
<glyph unicode="U" horiz-adv-x="1425" d="M152 643v709h352v-750q0 -174 52 -248.5t160.5 -74.5t163 75.5t54.5 247.5v750h340v-709q0 -340 -138.5 -504t-418.5 -164q-565 0 -565 668z" />
<glyph unicode="V" horiz-adv-x="1228" d="M-12 1352h372l156 -602l102 -422h9l102 422l152 602h360l-414 -1352h-426z" />
<glyph unicode="W" horiz-adv-x="1687" d="M20 1352h361l74 -602l45 -418h8l74 418l127 602h295l126 -602l74 -418h8l45 418l74 602h336l-221 -1352h-447l-110 549l-41 291h-8l-41 -291l-107 -549h-438z" />
<glyph unicode="X" horiz-adv-x="1236" d="M29 0l368 705l-348 647h393l103 -217l90 -201h8l82 201l86 217h377l-348 -664l368 -688h-393l-119 258l-90 201h-8l-86 -201l-106 -258h-377z" />
<glyph unicode="Y" horiz-adv-x="1114" d="M-33 1352h377l111 -283l100 -276h8l105 276l110 283h369l-414 -877v-475h-352v475z" />
<glyph unicode="Z" horiz-adv-x="1146" d="M74 0v213l557 844h-504v295h946v-213l-557 -844h561v-295h-1003z" />
<glyph unicode="[" horiz-adv-x="737" d="M172 -311v1761h459v-184h-197v-1393h197v-184h-459z" />
<glyph unicode="\" horiz-adv-x="684" d="M70 1454h225l360 -1782h-225z" />
<glyph unicode="]" horiz-adv-x="737" d="M106 -127h197v1393h-197v184h459v-1761h-459v184z" />
<glyph unicode="^" d="M94 553l320 819h278l320 -819h-287l-78 225l-90 279h-8l-90 -279l-78 -225h-287z" />
<glyph unicode="_" horiz-adv-x="1024" d="M25 -106h974v-193h-974v193z" />
<glyph unicode="`" horiz-adv-x="1146" d="M238 1491h335l181 -315h-254z" />
<glyph unicode="a" horiz-adv-x="1110" d="M86 291q0 162 132 252t425 121q-12 106 -143 106q-98 0 -258 -86l-123 229q225 135 450 136q426 0 426 -480v-569h-286l-25 98h-8q-137 -123 -283 -123q-139 0 -223 92.5t-84 223.5zM422 319q0 -74 94 -73q63 0 127 69v140q-221 -34 -221 -136z" />
<glyph unicode="b" horiz-adv-x="1187" d="M119 0v1454h352v-360l-8 -148q113 102 252 103q180 0 289.5 -141.5t109.5 -377.5q0 -254 -127 -404.5t-299 -150.5q-141 0 -258 136h-8l-29 -111h-274zM471 311q55 -49 131 -49q152 0 152 262q0 238 -144 238q-78 0 -139 -74v-377z" />
<glyph unicode="c" horiz-adv-x="946" d="M66 512q0 244 158.5 390.5t377.5 146.5q137 0 279 -78l-86 -254q-98 49 -177 49q-88 0 -140 -68.5t-52 -185.5q0 -115 56.5 -184.5t140.5 -69.5q94 0 188 57l90 -241q-156 -98 -319 -99q-225 0 -370.5 144.5t-145.5 392.5z" />
<glyph unicode="d" horiz-adv-x="1187" d="M74 512q0 242 126 389.5t292 147.5q135 0 237 -103l-12 148v360h352v-1454h-287l-24 94h-8q-119 -119 -258 -119q-190 0 -304 144.5t-114 392.5zM434 516q0 -254 152 -254q84 0 131 74v377q-55 49 -139 49q-61 0 -102.5 -59.5t-41.5 -186.5z" />
<glyph unicode="e" horiz-adv-x="1069" d="M66 512q0 240 147 388.5t344 148.5q217 0 332 -139.5t115 -356.5q0 -82 -15 -139h-583q43 -172 237 -172q98 0 209 61l115 -209q-168 -119 -373 -119q-231 0 -379.5 144.5t-148.5 392.5zM401 627h304q0 156 -140 155q-135 1 -164 -155z" />
<glyph unicode="f" horiz-adv-x="737" d="M45 750v262l135 10v14q0 193 97.5 316t308.5 123q115 0 217 -37l-62 -254q-82 16 -102 16q-106 0 -107 -151v-25h173v-274h-173v-750h-352v750h-135z" />
<glyph unicode="g" horiz-adv-x="1118" d="M61 -176q0 121 144 196v9q-94 66 -94 176t114 192v9q-139 98 -139 270q0 180 128 276.5t310 96.5q90 0 164 -25h381v-254h-147q16 -49 16 -106q0 -172 -114.5 -258.5t-299.5 -86.5q-51 0 -114 15q-25 -23 -25 -64q0 -33 33 -47t110 -14h154q403 0 403 -266 q0 -168 -161.5 -272.5t-431.5 -104.5q-188 0 -309.5 63.5t-121.5 194.5zM348 -119q0 -47 54.5 -72.5t146.5 -25.5q86 0 143.5 27.5t57.5 70.5q0 70 -138 70h-80q-104 0 -147 12q-37 -37 -37 -82zM414 676q0 -72 29.5 -110t80.5 -38t81 38t30 110q0 68 -30 103.5t-81 35.5 t-80.5 -35.5t-29.5 -103.5z" />
<glyph unicode="h" horiz-adv-x="1191" d="M119 0v1454h352v-360l-16 -168q139 123 307 123q319 0 319 -418v-631h-352v586q0 92 -21.5 128t-89.5 36q-63 0 -147 -78v-672h-352z" />
<glyph unicode="i" horiz-adv-x="589" d="M98 1327q0 78 55.5 127t141.5 49t141.5 -49t55.5 -127t-55.5 -127t-141.5 -49t-141.5 49t-55.5 127zM119 0v1024h352v-1024h-352z" />
<glyph unicode="j" horiz-adv-x="593" d="M-115 -406l62 254q41 -8 78 -8q55 0 76.5 34t21.5 118v1032h352v-1020q0 -195 -92 -316.5t-305 -121.5q-115 -1 -193 28zM102 1327q0 78 55.5 127t141.5 49t141.5 -49t55.5 -127t-55.5 -127t-141.5 -49t-141.5 49t-55.5 127z" />
<glyph unicode="k" horiz-adv-x="1163" d="M119 0v1454h344v-786h8l283 356h381l-365 -426l385 -598h-381l-205 365l-106 -119v-246h-344z" />
<glyph unicode="l" horiz-adv-x="589" d="M119 0v1454h352v-1454h-352z" />
<glyph unicode="m" horiz-adv-x="1777" d="M119 0v1024h287l24 -125h8q74 72 143.5 111t163.5 39q197 0 283 -164q76 78 148.5 121t166.5 43q164 0 244 -111t80 -307v-631h-352v586q0 90 -22.5 127t-84 37t-139.5 -78v-672h-352v586q0 90 -22.5 127t-84 37t-139.5 -78v-672h-352z" />
<glyph unicode="n" horiz-adv-x="1191" d="M119 0v1024h287l24 -123h8q156 147 324 148q319 0 319 -418v-631h-352v586q0 92 -21.5 128t-89.5 36q-63 0 -147 -78v-672h-352z" />
<glyph unicode="o" horiz-adv-x="1146" d="M66 512q0 244 150.5 390.5t357 146.5t357 -146.5t150.5 -390.5t-150.5 -390.5t-357 -146.5t-357 146.5t-150.5 390.5zM426 512q0 -254 147.5 -254t147.5 254t-147.5 254t-147.5 -254z" />
<glyph unicode="p" horiz-adv-x="1187" d="M119 -389v1413h287l24 -94h8q129 119 279 119q180 0 288.5 -141.5t108.5 -379.5q0 -252 -127 -402.5t-299 -150.5q-127 0 -229 103l12 -156v-311h-352zM471 311q55 -49 131 -49q152 0 152 262q0 238 -144 238q-78 0 -139 -74v-377z" />
<glyph unicode="q" horiz-adv-x="1187" d="M74 512q0 242 126 389.5t292 147.5q156 0 266 -127h8l29 102h274v-1413h-352v321l12 146q-102 -102 -237 -103q-190 0 -304 144.5t-114 392.5zM434 516q0 -254 152 -254q84 0 131 74v377q-55 49 -139 49q-61 0 -102.5 -59.5t-41.5 -186.5z" />
<glyph unicode="r" horiz-adv-x="856" d="M119 0v1024h287l24 -176h8q53 100 132 150.5t159 50.5t127 -21l-57 -303q-74 16 -115 16q-61 0 -119.5 -42t-93.5 -130v-569h-352z" />
<glyph unicode="s" horiz-adv-x="925" d="M45 106l119 226q176 -98 278.5 -98.5t102.5 61.5q0 14 -9.5 27.5t-33 26.5t-38.5 20.5t-57 23t-59 21.5q-258 102 -258 303q0 150 111.5 241t294.5 91q193 0 368 -123l-119 -217q-141 82 -237 82q-90 0 -90 -58q0 -10 5 -20.5t16.5 -18.5t21.5 -15t30.5 -14.5t35 -12.5 t41 -14t42.5 -15q262 -96 262 -308q0 -150 -114.5 -245t-323.5 -95q-88 0 -196.5 36t-192.5 95z" />
<glyph unicode="t" horiz-adv-x="819" d="M29 750v262l155 12l41 266h291v-266h234v-274h-234v-351q0 -150 107 -149q45 0 98 16l61 -254q-119 -37 -241 -37q-193 0 -285 119t-92 320v336h-135z" />
<glyph unicode="u" horiz-adv-x="1175" d="M102 393v631h353v-586q0 -92 21.5 -128t88.5 -36q78 0 140 91v659h352v-1024h-287l-25 135h-8q-133 -160 -311 -160q-164 0 -244 110.5t-80 307.5z" />
<glyph unicode="v" horiz-adv-x="1114" d="M25 1024h352l110 -446l74 -320h8l74 320l111 446h336l-324 -1024h-406z" />
<glyph unicode="w" horiz-adv-x="1634" d="M49 1024h348l78 -430l41 -311h8l49 311l111 430h283l114 -430l54 -311h8l41 311l78 430h323l-233 -1024h-410l-78 356l-45 281h-8l-41 -281l-74 -356h-401z" />
<glyph unicode="x" d="M29 0l307 532l-291 492h377l74 -143l82 -156h8l57 156l53 143h365l-291 -532l307 -492h-377l-82 143l-90 156h-8l-65 -156l-62 -143h-364z" />
<glyph unicode="y" horiz-adv-x="1110" d="M25 1024h352l127 -451l69 -315h9l61 315l107 451h335l-344 -1065q-84 -215 -181 -304t-273 -89q-102 0 -193 28l62 254q37 -8 77 -8q133 0 168 103l13 37z" />
<glyph unicode="z" horiz-adv-x="970" d="M82 0v188l389 562h-344v274h782v-188l-389 -562h402v-274h-840z" />
<glyph unicode="{" horiz-adv-x="737" d="M61 467v205q90 2 133.5 45t43.5 102q0 61 -10.5 159.5t-10.5 172.5q0 166 63.5 232.5t206.5 66.5h144v-184h-33q-57 0 -77.5 -24.5t-20.5 -102.5q0 -51 4 -154.5t4 -165.5q0 -119 -39 -173t-125 -73v-8q86 -18 125 -72.5t39 -173.5q0 -61 -4 -164.5t-4 -154.5 q0 -78 20.5 -102.5t77.5 -24.5h33v-184h-144q-143 0 -206.5 66.5t-63.5 232.5q0 74 10.5 172t10.5 159q0 59 -43.5 102.5t-133.5 45.5z" />
<glyph unicode="|" horiz-adv-x="569" d="M172 -512v2048h225v-2048h-225z" />
<glyph unicode="}" horiz-adv-x="737" d="M106 -127h33q57 0 78 24.5t21 102.5q0 51 -4.5 154.5t-4.5 164.5q0 119 39 173.5t125 72.5v8q-86 18 -125 72.5t-39 173.5q0 61 4.5 164.5t4.5 155.5q0 78 -20.5 102.5t-78.5 24.5h-33v184h144q143 0 206.5 -66.5t63.5 -232.5q0 -74 -10 -172t-10 -160q0 -59 43 -102 t133 -45v-205q-90 -2 -133 -45t-43 -103q0 -61 10 -159.5t10 -171.5q0 -166 -63.5 -232.5t-206.5 -66.5h-144v184z" />
<glyph unicode="~" d="M53 680q162 172 318 172q76 0 187.5 -53.5t180.5 -53.5q88 0 166 99l148 -172q-156 -172 -318 -172q-76 0 -187.5 53t-180.5 53q-88 0 -166 -98z" />
<glyph unicode="&#xa1;" horiz-adv-x="737" d="M164 835.5q0 90.5 58.5 152t146.5 61.5t146 -61.5t58 -152t-58 -151.5t-146 -61t-146.5 61t-58.5 151.5zM193 -348l12 303l49 569h229l49 -569l13 -303h-352z" />
<glyph unicode="&#xa2;" d="M123 627q0 213 128 353t322 175v188h189v-184q104 -8 237 -74l-86 -254q-94 37 -151 46v-500q82 10 168 53l90 -242q-127 -70 -258 -90v-188h-189v186q-201 25 -325.5 165.5t-124.5 365.5zM459 627q0 -160 114 -224v451q-114 -61 -114 -227z" />
<glyph unicode="&#xa3;" d="M94 0v217q94 41 155.5 118t61.5 177q0 27 -2 41h-203v201l146 12q-27 88 -27 139q0 199 129 318.5t330 119.5q215 0 360 -126l-126 -222q-6 2 -29 16.5t-29 17.5t-25.5 11.5t-31.5 11.5t-30.5 6t-39.5 3q-172 0 -172 -176q0 -53 17 -119h290v-213h-243q2 -14 2 -45 q0 -109 -74 -205v-8h500v-295h-959z" />
<glyph unicode="&#xa4;" d="M35 330l127 127q-72 98 -72 223q0 127 68 215l-123 123l174 174l141 -143q98 41 203 41q109 0 201 -41l143 143l174 -174l-123 -123q68 -88 68 -215q0 -125 -72 -223l127 -127l-174 -174l-147 145q-84 -39 -197 -39q-115 0 -199 39l-145 -145zM401 680q0 -80 42 -128 t110 -48t110 48t42 128q0 76 -42 122t-110 46t-110 -46t-42 -122z" />
<glyph unicode="&#xa5;" d="M8 1319h361l86 -242l98 -266h8l98 266l86 242h353l-295 -598h233v-164h-307v-102h307v-164h-307v-291h-352v291h-307v164h307v102h-307v164h233z" />
<glyph unicode="&#xa6;" horiz-adv-x="569" d="M172 410h225v-922h-225v922zM172 655v881h225v-881h-225z" />
<glyph unicode="&#xa7;" d="M70 655q0 72 43 140.5t118 113.5q-59 76 -59 176q0 152 103.5 242t281.5 90q193 0 369 -123l-119 -217q-141 82 -229 82q-90 0 -91 -61q0 -31 56.5 -61.5t137.5 -65.5t162 -80t137 -126t56 -183q0 -178 -164 -281q41 -68 41 -149q0 -152 -107.5 -246t-309.5 -94 q-90 0 -201 33.5t-193 93.5l119 217q154 -86 275 -86q102 0 102 65q0 35 -54.5 65.5t-132 63.5t-155.5 77t-132 124.5t-54 189.5zM365 680q0 -39 32.5 -72t69.5 -52t111.5 -52t111.5 -51q51 39 51 100q0 31 -17 57.5t-54 49t-71 38t-92 40t-91 40.5q-51 -39 -51 -98z" />
<glyph unicode="&#xa8;" horiz-adv-x="1146" d="M201 1314.5q0 67.5 45 114t114.5 46.5t114.5 -46.5t45 -114t-45 -113.5t-114.5 -46t-114.5 46t-45 113.5zM627 1314.5q0 67.5 45 114t114.5 46.5t114.5 -46.5t45 -114t-45 -113.5t-114.5 -46t-114.5 46t-45 113.5z" />
<glyph unicode="&#xa9;" horiz-adv-x="1441" d="M0 667.5q0 309.5 197.5 492.5t482.5 183t482.5 -184t197.5 -491q0 -309 -197.5 -496.5t-482.5 -187.5t-482.5 187t-197.5 496.5zM156 668q0 -244 148.5 -394.5t375.5 -150.5t375.5 150.5t148.5 394.5q0 242 -148.5 389t-375.5 147t-375.5 -147t-148.5 -389zM303 664 q0 180 119 288.5t291 108.5q113 0 237 -66l-63 -180q-88 45 -150 45q-90 0 -138 -52t-48 -144.5t50 -146.5t136 -54q74 0 156 53l70 -180q-129 -74 -246 -74q-180 0 -297 110t-117 292z" />
<glyph unicode="&#xaa;" horiz-adv-x="745" d="M53 725q0 109 89 168t284 78q-8 66 -90 65q-76 0 -180 -53l-78 156q154 90 303 90q147 0 219 -73t72 -234v-390h-197l-20 64h-4q-90 -80 -189 -80q-94 0 -151.5 61.5t-57.5 147.5zM287 745q0 -45 59 -45q39 0 80 41v90q-139 -16 -139 -86z" />
<glyph unicode="&#xab;" horiz-adv-x="1024" d="M102 393v246l275 287l127 -103l-221 -307l221 -307l-127 -103zM512 393v246l274 287l127 -103l-221 -307l221 -307l-127 -103z" />
<glyph unicode="&#xac;" d="M70 553v246h966v-615h-254v369h-712z" />
<glyph unicode="&#xad;" horiz-adv-x="696" d="M90 397v246h516v-246h-516z" />
<glyph unicode="&#xae;" horiz-adv-x="976" d="M74 1048.5q0 180.5 119.5 299t294 118.5t294 -118.5t119.5 -299t-119.5 -299t-294 -118.5t-294 118.5t-119.5 299zM197 1048.5q0 -139.5 79.5 -223.5t210.5 -84t211 84t80 223.5t-80 223.5t-211 84t-210.5 -84t-79.5 -223.5zM315 852v397h193q76 0 122 -34.5t46 -100.5 q0 -76 -70 -110l82 -152h-135l-57 115h-50v-115h-131zM446 1055h37q27 0 40.5 15t13.5 35.5t-14.5 34t-39.5 13.5h-37v-98z" />
<glyph unicode="&#xaf;" horiz-adv-x="1146" d="M279 1204v221h589v-221h-589z" />
<glyph unicode="&#xb0;" horiz-adv-x="774" d="M78 1098q0 131 89 219t222 88t222 -88t89 -219t-89 -219t-222 -88t-222 88t-89 219zM258 1097.5q0 -63.5 36 -103.5t95.5 -40t95 40t35.5 103.5t-35.5 103.5t-95 40t-95.5 -40t-36 -103.5z" />
<glyph unicode="&#xb1;" d="M70 0v246h966v-246h-966zM70 635v246h356v286h254v-286h356v-246h-356v-287h-254v287h-356z" />
<glyph unicode="&#xb2;" horiz-adv-x="778" d="M70 1597q141 127 299 127q139 0 223 -73.5t84 -200.5q0 -57 -30 -120.5t-60.5 -104.5t-89.5 -111h204v-213h-610v135q166 129 253 218t87 151q0 111 -102 111q-74 0 -156 -70z" />
<glyph unicode="&#xb3;" horiz-adv-x="778" d="M70 991l102 152q98 -74 188 -74q39 0 67 21.5t28 56.5q0 90 -168 90v143q139 0 139 86q0 66 -86 66q-61 0 -152 -66l-102 152q129 106 311 106q117 0 198 -61t81 -164q0 -111 -107 -180q135 -63 136 -193q0 -109 -91.5 -179t-220.5 -70q-176 -1 -323 114z" />
<glyph unicode="&#xb4;" horiz-adv-x="1146" d="M393 1176l180 315h336l-262 -315h-254z" />
<glyph unicode="&#xb5;" horiz-adv-x="1191" d="M119 -410v1434h352v-586q0 -88 23.5 -126t87.5 -38q68 0 139 78v672h352v-1024h-295l-20 111h-8q-27 -53 -77 -84t-108 -31q-72 0 -102 29l8 -103v-332h-352z" />
<glyph unicode="&#xb6;" horiz-adv-x="1363" d="M78 889q0 246 146.5 354.5t385.5 108.5h90v-951h-147q-207 16 -341 139.5t-134 348.5zM815 -164v1516h352v-1516h-352z" />
<glyph unicode="&#xb7;" horiz-adv-x="655" d="M123 676q0 90 58.5 151.5t146.5 61.5t146 -61.5t58 -151.5t-58 -151.5t-146 -61.5t-146.5 61.5t-58.5 151.5z" />
<glyph unicode="&#xb8;" horiz-adv-x="1171" d="M348 -324q164 14 164 86q0 51 -115 82l82 164h201l-37 -90q119 -41 119 -156q0 -104 -109.5 -159.5t-279.5 -61.5z" />
<glyph unicode="&#xb9;" horiz-adv-x="778" d="M147 1454v156q135 18 242 90h201v-799h-258v553h-185z" />
<glyph unicode="&#xba;" horiz-adv-x="770" d="M45 870q0 162 100.5 260.5t239.5 98.5t239.5 -98.5t100.5 -260.5q0 -160 -100.5 -257t-239.5 -97t-239.5 97t-100.5 257zM295 870q0 -162 90 -161.5t90 161.5q0 166 -90 166t-90 -166z" />
<glyph unicode="&#xbb;" horiz-adv-x="1024" d="M111 209l221 307l-221 307l127 103l274 -287v-246l-274 -287zM520 209l221 307l-221 307l127 103l275 -287v-246l-275 -287z" />
<glyph unicode="&#xbc;" horiz-adv-x="1679" d="M82 1106v156q135 18 242 90h200v-799h-258v553h-184zM385 -25l713 1401h196l-712 -1401h-197zM967 164v127l270 508h324v-471h118v-164h-118v-164h-226v164h-368zM1196 328h139v61l13 246h-9l-73 -156z" />
<glyph unicode="&#xbd;" horiz-adv-x="1761" d="M82 1106v156q135 18 242 90h200v-799h-258v553h-184zM356 -25l713 1401h197l-713 -1401h-197zM1049 696q141 127 299 127q139 0 223 -73.5t84 -200.5q0 -57 -30 -120.5t-60.5 -104.5t-89.5 -111h204v-213h-610v135q166 129 253 218t87 151q0 111 -102 110q-74 0 -156 -69 z" />
<glyph unicode="&#xbe;" horiz-adv-x="1691" d="M61 643l103 152q98 -74 188 -74q39 0 66.5 21.5t27.5 56.5q0 90 -167 90v143q139 0 139 86q0 66 -86 66q-61 0 -152 -66l-102 152q129 106 311 106q117 0 198 -61.5t81 -163.5q0 -111 -107 -180q135 -63 135 -193q0 -109 -91 -179.5t-220 -70.5q-177 0 -324 115zM418 -25 l712 1401h197l-713 -1401h-196zM979 164v127l270 508h324v-471h119v-164h-119v-164h-225v164h-369zM1208 328h140v61l12 246h-8l-74 -156z" />
<glyph unicode="&#xbf;" horiz-adv-x="978" d="M82 -12q0 68 30.5 127t73.5 104t85 89t69 99.5t20 116.5h308q12 -74 -9.5 -141.5t-60.5 -116.5t-80 -91t-70.5 -82t-29.5 -73q0 -111 139 -110q86 0 193 86l131 -209q-160 -160 -373 -160q-190 0 -308 88.5t-118 272.5zM311 835.5q0 90.5 58.5 152t146.5 61.5 t146.5 -61.5t58.5 -152t-58.5 -151.5t-146.5 -61t-146.5 61t-58.5 151.5z" />
<glyph unicode="&#xc0;" horiz-adv-x="1253" d="M-12 0l426 1352h426l426 -1352h-373l-76 291h-393l-76 -291h-360zM270 1708h369l160 -254h-279zM496 563h249l-32 121l-90 406h-9l-86 -406z" />
<glyph unicode="&#xc1;" horiz-adv-x="1253" d="M-12 0l426 1352h426l426 -1352h-373l-76 291h-393l-76 -291h-360zM455 1454l159 254h369l-250 -254h-278zM496 563h249l-32 121l-90 406h-9l-86 -406z" />
<glyph unicode="&#xc2;" horiz-adv-x="1253" d="M-12 0l426 1352h426l426 -1352h-373l-76 291h-393l-76 -291h-360zM258 1454l197 254h344l196 -254h-266l-98 119h-8l-99 -119h-266zM496 563h249l-32 121l-90 406h-9l-86 -406z" />
<glyph unicode="&#xc3;" horiz-adv-x="1253" d="M-12 0l426 1352h426l426 -1352h-373l-76 291h-393l-76 -291h-360zM258 1454q18 150 84 224.5t154 74.5q61 0 142 -43t103 -43q57 0 78 86h176q-18 -150 -83.5 -224.5t-153.5 -74.5q-61 0 -142 43t-104 43q-57 0 -78 -86h-176zM496 563h249l-32 121l-90 406h-9l-86 -406z " />
<glyph unicode="&#xc4;" horiz-adv-x="1253" d="M-12 0l426 1352h426l426 -1352h-373l-76 291h-393l-76 -291h-360zM254 1601.5q0 67.5 45 113.5t114.5 46t114.5 -46t45 -113.5t-45 -113.5t-114.5 -46t-114.5 46t-45 113.5zM496 563h249l-32 121l-90 406h-9l-86 -406zM680 1601.5q0 67.5 45 113.5t114.5 46t114.5 -46 t45 -113.5t-45 -113.5t-114.5 -46t-114.5 46t-45 113.5z" />
<glyph unicode="&#xc5;" horiz-adv-x="1253" d="M-12 0l426 1352h426l426 -1352h-373l-76 291h-393l-76 -291h-360zM381 1638.5q0 94.5 67.5 151.5t178 57t178 -57t67.5 -151.5t-67.5 -151.5t-178 -57t-178 57t-67.5 151.5zM496 563h249l-32 121l-90 406h-9l-86 -406zM549 1638.5q0 -36.5 22.5 -59.5t55 -23t55.5 23 t23 59.5t-23 59t-55.5 22.5t-55 -22.5t-22.5 -59z" />
<glyph unicode="&#xc6;" horiz-adv-x="1843" d="M33 0l606 1352h1073v-295h-504v-217h430v-295h-430v-250h525v-295h-877v270h-342l-113 -270h-368zM629 543h227v526h-8l-139 -336z" />
<glyph unicode="&#xc7;" horiz-adv-x="1228" d="M98 680q0 319 189.5 507.5t474.5 188.5q219 0 385 -139l-143 -242q-113 78 -230 78q-145 0 -230 -106.5t-85 -286.5q0 -401 344 -401q96 0 217 94l151 -238q-154 -154 -383 -160l-22 -53q119 -41 119 -155q0 -104 -109.5 -160t-279.5 -62l-25 136q164 14 164 86 q0 51 -115 81l74 146q-227 49 -361.5 225t-134.5 461z" />
<glyph unicode="&#xc8;" horiz-adv-x="1163" d="M156 0v1352h876v-295h-524v-217h450v-295h-450v-250h545v-295h-897zM254 1708h369l159 -254h-278z" />
<glyph unicode="&#xc9;" horiz-adv-x="1163" d="M156 0v1352h876v-295h-524v-217h450v-295h-450v-250h545v-295h-897zM438 1454l160 254h369l-250 -254h-279z" />
<glyph unicode="&#xca;" horiz-adv-x="1163" d="M156 0v1352h876v-295h-524v-217h450v-295h-450v-250h545v-295h-897zM242 1454l196 254h344l197 -254h-266l-99 119h-8l-98 -119h-266z" />
<glyph unicode="&#xcb;" horiz-adv-x="1163" d="M156 0v1352h876v-295h-524v-217h450v-295h-450v-250h545v-295h-897zM238 1601.5q0 67.5 45 113.5t114.5 46t114.5 -46t45 -113.5t-45 -113.5t-114.5 -46t-114.5 46t-45 113.5zM664 1601.5q0 67.5 45 113.5t114.5 46t114.5 -46t45 -113.5t-45 -113.5t-114.5 -46t-114.5 46 t-45 113.5z" />
<glyph unicode="&#xcc;" horiz-adv-x="663" d="M-25 1708h369l160 -254h-279zM156 0v1352h352v-1352h-352z" />
<glyph unicode="&#xcd;" horiz-adv-x="663" d="M156 0v1352h352v-1352h-352zM160 1454l159 254h369l-250 -254h-278z" />
<glyph unicode="&#xce;" horiz-adv-x="663" d="M-37 1454l197 254h344l196 -254h-266l-98 119h-8l-99 -119h-266zM156 0v1352h352v-1352h-352z" />
<glyph unicode="&#xcf;" horiz-adv-x="663" d="M-41 1601.5q0 67.5 45 113.5t114.5 46t115 -46t45.5 -113.5t-45.5 -113.5t-115 -46t-114.5 46t-45 113.5zM156 0v1352h352v-1352h-352zM385 1601.5q0 67.5 45 113.5t114.5 46t115 -46t45.5 -113.5t-45.5 -113.5t-115 -46t-114.5 46t-45 113.5z" />
<glyph unicode="&#xd0;" horiz-adv-x="1392" d="M45 610v152l152 12v578h413q317 0 500.5 -166t183.5 -506t-180 -510t-483 -170h-434v610h-152zM549 283h41q160 0 252 90t92 307t-91 303t-253 86h-41v-295h237v-164h-237v-327z" />
<glyph unicode="&#xd1;" horiz-adv-x="1433" d="M156 0v1352h376l320 -607l127 -299h8q-45 393 -45 508v398h336v-1352h-377l-319 606l-127 299h-9q45 -393 46 -508v-397h-336zM356 1454q18 150 84 224.5t154 74.5q61 0 142 -43t104 -43q57 0 78 86h176q-18 -150 -84 -224.5t-154 -74.5q-61 0 -142 43t-104 43 q-57 0 -78 -86h-176z" />
<glyph unicode="&#xd2;" horiz-adv-x="1458" d="M98 680q0 324 174 510t457 186q281 0 456 -187.5t175 -508.5q0 -324 -175 -514.5t-455.5 -190.5t-456 190.5t-175.5 514.5zM373 1708h368l160 -254h-278zM459 680q0 -180 74.5 -290.5t195.5 -110.5t195.5 110.5t74.5 290.5t-74.5 286.5t-195.5 106.5t-195.5 -106.5 t-74.5 -286.5z" />
<glyph unicode="&#xd3;" horiz-adv-x="1458" d="M98 680q0 324 174 510t457 186q281 0 456 -187.5t175 -508.5q0 -324 -175 -514.5t-455.5 -190.5t-456 190.5t-175.5 514.5zM459 680q0 -180 74.5 -290.5t195.5 -110.5t195.5 110.5t74.5 290.5t-74.5 286.5t-195.5 106.5t-195.5 -106.5t-74.5 -286.5zM557 1454l160 254 h368l-249 -254h-279z" />
<glyph unicode="&#xd4;" horiz-adv-x="1458" d="M98 680q0 324 174 510t457 186q281 0 456 -187.5t175 -508.5q0 -324 -175 -514.5t-455.5 -190.5t-456 190.5t-175.5 514.5zM360 1454l197 254h344l197 -254h-267l-98 119h-8l-98 -119h-267zM459 680q0 -180 74.5 -290.5t195.5 -110.5t195.5 110.5t74.5 290.5t-74.5 286.5 t-195.5 106.5t-195.5 -106.5t-74.5 -286.5z" />
<glyph unicode="&#xd5;" horiz-adv-x="1458" d="M98 680q0 324 174 510t457 186q281 0 456 -187.5t175 -508.5q0 -324 -175 -514.5t-455.5 -190.5t-456 190.5t-175.5 514.5zM360 1454q18 150 84 224.5t154 74.5q61 0 142 -43t104 -43q57 0 78 86h176q-18 -150 -84 -224.5t-154 -74.5q-61 0 -142 43t-104 43 q-57 0 -77 -86h-177zM459 680q0 -180 74.5 -290.5t195.5 -110.5t195.5 110.5t74.5 290.5t-74.5 286.5t-195.5 106.5t-195.5 -106.5t-74.5 -286.5z" />
<glyph unicode="&#xd6;" horiz-adv-x="1458" d="M98 680q0 324 174 510t457 186q281 0 456 -187.5t175 -508.5q0 -324 -175 -514.5t-455.5 -190.5t-456 190.5t-175.5 514.5zM356 1601.5q0 67.5 45 113.5t115 46t115 -46t45 -113.5t-45 -113.5t-115 -46t-115 46t-45 113.5zM459 680q0 -180 74.5 -290.5t195.5 -110.5 t195.5 110.5t74.5 290.5t-74.5 286.5t-195.5 106.5t-195.5 -106.5t-74.5 -286.5zM782 1601.5q0 67.5 45 113.5t115 46t115 -46t45 -113.5t-45 -113.5t-115 -46t-115 46t-45 113.5z" />
<glyph unicode="&#xd7;" d="M96 391l283 283l-283 282l174 174l283 -282l283 282l174 -174l-283 -282l283 -283l-174 -174l-283 283l-283 -283z" />
<glyph unicode="&#xd8;" horiz-adv-x="1458" d="M70 45l151 186q-123 184 -123 449q0 324 174 510t457 186q199 0 348 -96l131 162l181 -139l-150 -183q121 -178 121 -440q0 -324 -175 -514.5t-456 -190.5q-199 0 -344 97l-135 -166zM459 680q0 -82 14 -141l395 487q-59 47 -139 47q-121 0 -195.5 -106.5t-74.5 -286.5z M592 326q59 -47 137 -47q121 0 195.5 110.5t74.5 290.5q0 70 -12 131z" />
<glyph unicode="&#xd9;" horiz-adv-x="1425" d="M152 643v709h352v-750q0 -174 52 -248.5t160.5 -74.5t163 75.5t54.5 247.5v750h340v-709q0 -340 -138.5 -504t-418.5 -164q-565 0 -565 668zM356 1708h369l160 -254h-279z" />
<glyph unicode="&#xda;" horiz-adv-x="1425" d="M152 643v709h352v-750q0 -174 52 -248.5t160.5 -74.5t163 75.5t54.5 247.5v750h340v-709q0 -340 -138.5 -504t-418.5 -164q-565 0 -565 668zM541 1454l159 254h369l-250 -254h-278z" />
<glyph unicode="&#xdb;" horiz-adv-x="1425" d="M152 643v709h352v-750q0 -174 52 -248.5t160.5 -74.5t163 75.5t54.5 247.5v750h340v-709q0 -340 -138.5 -504t-418.5 -164q-565 0 -565 668zM344 1454l197 254h344l196 -254h-266l-98 119h-8l-99 -119h-266z" />
<glyph unicode="&#xdc;" horiz-adv-x="1425" d="M152 643v709h352v-750q0 -174 52 -248.5t160.5 -74.5t163 75.5t54.5 247.5v750h340v-709q0 -340 -138.5 -504t-418.5 -164q-565 0 -565 668zM340 1601.5q0 67.5 45 113.5t114.5 46t114.5 -46t45 -113.5t-45 -113.5t-114.5 -46t-114.5 46t-45 113.5zM766 1601.5 q0 67.5 45 113.5t114.5 46t114.5 -46t45 -113.5t-45 -113.5t-114.5 -46t-114.5 46t-45 113.5z" />
<glyph unicode="&#xdd;" horiz-adv-x="1114" d="M-33 1352h377l111 -283l100 -276h8l105 276l110 283h369l-414 -877v-475h-352v475zM385 1454l160 254h368l-249 -254h-279z" />
<glyph unicode="&#xde;" horiz-adv-x="1298" d="M156 0v1352h352v-201h164q113 0 205 -22.5t167.5 -71.5t117.5 -138.5t42 -209.5q0 -156 -76.5 -264.5t-193.5 -155.5t-262 -47h-164v-242h-352zM508 520h147q205 0 205 189q0 164 -205 163h-147v-352z" />
<glyph unicode="&#xdf;" horiz-adv-x="1339" d="M119 0v1004q0 211 131 341t389 130q215 0 333 -105.5t118 -251.5q0 -66 -23 -123t-51.5 -90t-51 -69.5t-22.5 -65.5t36 -58.5t86 -59t100 -69.5t86 -106.5t36 -152.5q0 -152 -102.5 -250.5t-294.5 -98.5q-154 0 -316 91l119 237q92 -70 185 -70q41 0 65.5 20.5t24.5 53.5 t-36 64.5t-86 61.5t-100.5 66t-86 94t-35.5 132t65.5 177.5t65.5 174.5q0 53 -31 88t-84 35q-86 0 -129 -62.5t-43 -170.5v-967h-348z" />
<glyph unicode="&#xe0;" horiz-adv-x="1110" d="M86 291q0 162 132 252t425 121q-12 106 -143 106q-98 0 -258 -86l-123 229q225 135 450 136q426 0 426 -480v-569h-286l-25 98h-8q-137 -123 -283 -123q-139 0 -223 92.5t-84 223.5zM248 1491h336l180 -315h-254zM422 319q0 -74 94 -73q63 0 127 69v140 q-221 -34 -221 -136z" />
<glyph unicode="&#xe1;" horiz-adv-x="1110" d="M86 291q0 162 132 252t425 121q-12 106 -143 106q-98 0 -258 -86l-123 229q225 135 450 136q426 0 426 -480v-569h-286l-25 98h-8q-137 -123 -283 -123q-139 0 -223 92.5t-84 223.5zM403 1176l181 315h336l-263 -315h-254zM422 319q0 -74 94 -73q63 0 127 69v140 q-221 -34 -221 -136z" />
<glyph unicode="&#xe2;" horiz-adv-x="1110" d="M86 291q0 162 132 252t425 121q-12 106 -143 106q-98 0 -258 -86l-123 229q225 135 450 136q426 0 426 -480v-569h-286l-25 98h-8q-137 -123 -283 -123q-139 0 -223 92.5t-84 223.5zM248 1176l196 315h279l197 -315h-234l-98 151h-8l-99 -151h-233zM422 319q0 -74 94 -73 q63 0 127 69v140q-221 -34 -221 -136z" />
<glyph unicode="&#xe3;" horiz-adv-x="1110" d="M86 291q0 162 132 252t425 121q-12 106 -143 106q-98 0 -258 -86l-123 229q225 135 450 136q426 0 426 -480v-569h-286l-25 98h-8q-137 -123 -283 -123q-139 0 -223 92.5t-84 223.5zM223 1176q18 150 80 224.5t150 74.5q61 0 142 -43t103 -43q47 0 70 86h176 q-18 -150 -79.5 -224.5t-149.5 -74.5q-61 0 -142 43t-104 43q-47 0 -70 -86h-176zM422 319q0 -74 94 -73q63 0 127 69v140q-221 -34 -221 -136z" />
<glyph unicode="&#xe4;" horiz-adv-x="1110" d="M86 291q0 162 132 252t425 121q-12 106 -143 106q-98 0 -258 -86l-123 229q225 135 450 136q426 0 426 -480v-569h-286l-25 98h-8q-137 -123 -283 -123q-139 0 -223 92.5t-84 223.5zM211 1314.5q0 67.5 45 114t114.5 46.5t114.5 -46.5t45 -114t-45 -113.5t-114.5 -46 t-114.5 46t-45 113.5zM422 319q0 -74 94 -73q63 0 127 69v140q-221 -34 -221 -136zM637 1314.5q0 67.5 45 114t114.5 46.5t114.5 -46.5t45 -114t-45 -113.5t-114.5 -46t-114.5 46t-45 113.5z" />
<glyph unicode="&#xe5;" horiz-adv-x="1110" d="M86 291q0 162 132 252t425 121q-12 106 -143 106q-98 0 -258 -86l-123 229q225 135 450 136q426 0 426 -480v-569h-286l-25 98h-8q-137 -123 -283 -123q-139 0 -223 92.5t-84 223.5zM338 1343.5q0 98.5 67.5 158t178 59.5t178 -59.5t67.5 -158t-67.5 -158t-178 -59.5 t-178 59.5t-67.5 158zM422 319q0 -74 94 -73q63 0 127 69v140q-221 -34 -221 -136zM506 1343.5q0 -38.5 22.5 -64.5t55 -26t55.5 26t23 64.5t-23 64.5t-55.5 26t-55 -26t-22.5 -64.5z" />
<glyph unicode="&#xe6;" horiz-adv-x="1605" d="M86 291q0 162 131 253t422 122q-6 55 -39 79.5t-100 24.5q-98 0 -258 -86l-123 229q225 135 430 136q178 0 282 -131q131 131 295 131q201 0 307.5 -143.5t106.5 -360.5q0 -82 -14 -139h-563q39 -156 217 -156q80 0 204 69l119 -225q-168 -119 -373 -119q-211 0 -352 148 q-109 -84 -194.5 -116t-190.5 -32q-139 0 -223 92.5t-84 223.5zM422 319q0 -74 94 -73q80 0 148 61q-18 55 -25 109l-4 39q-213 -36 -213 -136zM958 618h283q0 164 -127 164q-133 0 -156 -164z" />
<glyph unicode="&#xe7;" horiz-adv-x="946" d="M66 512q0 244 158.5 390.5t377.5 146.5q137 0 279 -78l-86 -254q-98 49 -177 49q-88 0 -140 -68.5t-52 -185.5q0 -115 56.5 -184.5t140.5 -69.5q94 0 188 57l90 -241q-123 -76 -239 -92l-27 -64q119 -41 119 -156q0 -104 -109.5 -159.5t-279.5 -61.5l-25 135 q164 14 164 86q0 51 -115 82l72 144q-178 37 -286.5 174t-108.5 350z" />
<glyph unicode="&#xe8;" horiz-adv-x="1069" d="M66 512q0 240 147 388.5t344 148.5q217 0 332 -139.5t115 -356.5q0 -82 -15 -139h-583q43 -172 237 -172q98 0 209 61l115 -209q-168 -119 -373 -119q-231 0 -379.5 144.5t-148.5 392.5zM221 1491h336l180 -315h-254zM401 627h304q0 156 -140 155q-135 1 -164 -155z" />
<glyph unicode="&#xe9;" horiz-adv-x="1069" d="M66 512q0 240 147 388.5t344 148.5q217 0 332 -139.5t115 -356.5q0 -82 -15 -139h-583q43 -172 237 -172q98 0 209 61l115 -209q-168 -119 -373 -119q-231 0 -379.5 144.5t-148.5 392.5zM377 1176l180 315h336l-262 -315h-254zM401 627h304q0 156 -140 155 q-135 1 -164 -155z" />
<glyph unicode="&#xea;" horiz-adv-x="1069" d="M66 512q0 240 147 388.5t344 148.5q217 0 332 -139.5t115 -356.5q0 -82 -15 -139h-583q43 -172 237 -172q98 0 209 61l115 -209q-168 -119 -373 -119q-231 0 -379.5 144.5t-148.5 392.5zM221 1176l197 315h278l197 -315h-234l-98 151h-8l-98 -151h-234zM401 627h304 q0 156 -140 155q-135 1 -164 -155z" />
<glyph unicode="&#xeb;" horiz-adv-x="1069" d="M66 512q0 240 147 388.5t344 148.5q217 0 332 -139.5t115 -356.5q0 -82 -15 -139h-583q43 -172 237 -172q98 0 209 61l115 -209q-168 -119 -373 -119q-231 0 -379.5 144.5t-148.5 392.5zM184 1314.5q0 67.5 45 114t115 46.5t115 -46.5t45 -114t-45 -113.5t-115 -46 t-115 46t-45 113.5zM401 627h304q0 156 -140 155q-135 1 -164 -155zM610 1314.5q0 67.5 45 114t115 46.5t115 -46.5t45 -114t-45 -113.5t-115 -46t-115 46t-45 113.5z" />
<glyph unicode="&#xec;" horiz-adv-x="589" d="M-41 1491h336l180 -315h-254zM119 0v1024h352v-1024h-352z" />
<glyph unicode="&#xed;" horiz-adv-x="589" d="M115 1176l180 315h336l-262 -315h-254zM119 0v1024h352v-1024h-352z" />
<glyph unicode="&#xee;" horiz-adv-x="589" d="M-41 1176l197 315h278l197 -315h-234l-98 151h-8l-98 -151h-234zM119 0v1024h352v-1024h-352z" />
<glyph unicode="&#xef;" horiz-adv-x="589" d="M-78 1314.5q0 67.5 45 114t115 46.5t115 -46.5t45 -114t-45 -113.5t-115 -46t-115 46t-45 113.5zM119 0v1024h352v-1024h-352zM348 1314.5q0 67.5 45 114t115 46.5t115 -46.5t45 -114t-45 -113.5t-115 -46t-115 46t-45 113.5z" />
<glyph unicode="&#xf0;" horiz-adv-x="1159" d="M78 471q0 213 125 340t289 127q119 0 192 -68q-47 135 -152 248l-294 -149l-82 159l233 117q-72 57 -199 127l222 184q150 -86 254 -172l280 142l90 -154l-233 -119q262 -291 262 -700q0 -254 -136 -416t-368 -162q-203 0 -343 137.5t-140 358.5zM397 471 q0 -102 50.5 -157.5t125.5 -55.5q74 0 119 66.5t45 207.5q0 55 -2 80q-68 68 -168 68q-170 0 -170 -209z" />
<glyph unicode="&#xf1;" horiz-adv-x="1191" d="M119 0v1024h287l24 -123h8q156 147 324 148q319 0 319 -418v-631h-352v586q0 92 -21.5 128t-89.5 36q-63 0 -147 -78v-672h-352zM283 1176q18 150 79.5 224.5t149.5 74.5q61 0 142 -43t104 -43q49 0 69 86h177q-18 -150 -80 -224.5t-150 -74.5q-61 0 -142 43t-104 43 q-49 0 -69 -86h-176z" />
<glyph unicode="&#xf2;" horiz-adv-x="1146" d="M66 512q0 244 150.5 390.5t357 146.5t357 -146.5t150.5 -390.5t-150.5 -390.5t-357 -146.5t-357 146.5t-150.5 390.5zM238 1491h335l181 -315h-254zM426 512q0 -254 147.5 -254t147.5 254t-147.5 254t-147.5 -254z" />
<glyph unicode="&#xf3;" horiz-adv-x="1146" d="M66 512q0 244 150.5 390.5t357 146.5t357 -146.5t150.5 -390.5t-150.5 -390.5t-357 -146.5t-357 146.5t-150.5 390.5zM393 1176l180 315h336l-262 -315h-254zM426 512q0 -254 147.5 -254t147.5 254t-147.5 254t-147.5 -254z" />
<glyph unicode="&#xf4;" horiz-adv-x="1146" d="M66 512q0 244 150.5 390.5t357 146.5t357 -146.5t150.5 -390.5t-150.5 -390.5t-357 -146.5t-357 146.5t-150.5 390.5zM238 1176l196 315h279l196 -315h-233l-98 151h-9l-98 -151h-233zM426 512q0 -254 147.5 -254t147.5 254t-147.5 254t-147.5 -254z" />
<glyph unicode="&#xf5;" horiz-adv-x="1146" d="M66 512q0 244 150.5 390.5t357 146.5t357 -146.5t150.5 -390.5t-150.5 -390.5t-357 -146.5t-357 146.5t-150.5 390.5zM213 1176q18 150 79.5 224.5t149.5 74.5q61 0 142.5 -43t103.5 -43q49 0 70 86h176q-18 -150 -79.5 -224.5t-149.5 -74.5q-61 0 -142.5 43t-103.5 43 q-49 0 -70 -86h-176zM426 512q0 -254 147.5 -254t147.5 254t-147.5 254t-147.5 -254z" />
<glyph unicode="&#xf6;" horiz-adv-x="1146" d="M66 512q0 244 150.5 390.5t357 146.5t357 -146.5t150.5 -390.5t-150.5 -390.5t-357 -146.5t-357 146.5t-150.5 390.5zM201 1314.5q0 67.5 45 114t114.5 46.5t114.5 -46.5t45 -114t-45 -113.5t-114.5 -46t-114.5 46t-45 113.5zM426 512q0 -254 147.5 -254t147.5 254 t-147.5 254t-147.5 -254zM627 1314.5q0 67.5 45 114t114.5 46.5t114.5 -46.5t45 -114t-45 -113.5t-114.5 -46t-114.5 46t-45 113.5z" />
<glyph unicode="&#xf7;" d="M70 553v246h966v-246h-966zM365 307q0 76 54 126t134 50t134 -50t54 -126t-54 -126t-134 -50t-134 50t-54 126zM365 1044.5q0 75.5 54 126t134 50.5t134 -50.5t54 -126t-54 -126t-134 -50.5t-134 50.5t-54 126z" />
<glyph unicode="&#xf8;" horiz-adv-x="1146" d="M66 512q0 244 150.5 390.5t356.5 146.5q147 0 267 -74l86 106l127 -98l-92 -115q121 -143 120 -356q0 -244 -150.5 -390.5t-357.5 -146.5q-145 0 -268 76l-84 -104l-127 98l90 113q-118 141 -118 354zM406 532q0 -37 4 -94l252 314q-35 27 -89 26q-78 0 -122.5 -66.5 t-44.5 -179.5zM483 274q35 -29 90 -28q78 0 123 66.5t45 179.5q0 53 -6 96z" />
<glyph unicode="&#xf9;" horiz-adv-x="1175" d="M102 393v631h353v-586q0 -92 21.5 -128t88.5 -36q78 0 140 91v659h352v-1024h-287l-25 135h-8q-133 -160 -311 -160q-164 0 -244 110.5t-80 307.5zM250 1491h336l180 -315h-254z" />
<glyph unicode="&#xfa;" horiz-adv-x="1175" d="M102 393v631h353v-586q0 -92 21.5 -128t88.5 -36q78 0 140 91v659h352v-1024h-287l-25 135h-8q-133 -160 -311 -160q-164 0 -244 110.5t-80 307.5zM406 1176l180 315h336l-263 -315h-253z" />
<glyph unicode="&#xfb;" horiz-adv-x="1175" d="M102 393v631h353v-586q0 -92 21.5 -128t88.5 -36q78 0 140 91v659h352v-1024h-287l-25 135h-8q-133 -160 -311 -160q-164 0 -244 110.5t-80 307.5zM250 1176l196 315h279l197 -315h-234l-98 151h-8l-99 -151h-233z" />
<glyph unicode="&#xfc;" horiz-adv-x="1175" d="M102 393v631h353v-586q0 -92 21.5 -128t88.5 -36q78 0 140 91v659h352v-1024h-287l-25 135h-8q-133 -160 -311 -160q-164 0 -244 110.5t-80 307.5zM213 1314.5q0 67.5 45 114t114.5 46.5t114.5 -46.5t45 -114t-45 -113.5t-114.5 -46t-114.5 46t-45 113.5zM639 1314.5 q0 67.5 45 114t114.5 46.5t114.5 -46.5t45 -114t-45 -113.5t-114.5 -46t-114.5 46t-45 113.5z" />
<glyph unicode="&#xfd;" horiz-adv-x="1110" d="M25 1024h352l127 -451l69 -315h9l61 315l107 451h335l-344 -1065q-84 -215 -181 -304t-273 -89q-102 0 -193 28l62 254q37 -8 77 -8q133 0 168 103l13 37zM385 1176l180 315h336l-262 -315h-254z" />
<glyph unicode="&#xfe;" horiz-adv-x="1187" d="M119 -389v1843h352v-362l-8 -134q100 90 233 91q190 0 304 -141.5t114 -379.5q0 -252 -127 -402.5t-299 -150.5q-129 0 -225 91l8 -144v-311h-352zM471 311q55 -49 131 -49q152 0 152 262q0 238 -144 238q-78 0 -139 -74v-377z" />
<glyph unicode="&#xff;" horiz-adv-x="1110" d="M25 1024h352l127 -451l69 -315h9l61 315l107 451h335l-344 -1065q-84 -215 -181 -304t-273 -89q-102 0 -193 28l62 254q37 -8 77 -8q133 0 168 103l13 37zM193 1314.5q0 67.5 45 114t114.5 46.5t114.5 -46.5t45 -114t-45 -113.5t-114.5 -46t-114.5 46t-45 113.5z M618 1314.5q0 67.5 45.5 114t115 46.5t114.5 -46.5t45 -114t-45 -113.5t-114.5 -46t-115 46t-45.5 113.5z" />
<glyph unicode="&#x152;" horiz-adv-x="1810" d="M98 680q0 336 192.5 504t504.5 168h884v-295h-483v-217h410v-295h-410v-250h504v-295h-926q-295 0 -485.5 172t-190.5 508zM459 680q0 -221 95 -309t261 -88h29v786h-29q-168 0 -262 -85t-94 -304z" />
<glyph unicode="&#x153;" horiz-adv-x="1662" d="M66 512q0 246 141 391.5t350 145.5q184 0 315 -152q133 152 312 152q201 0 307 -143.5t106 -360.5q0 -82 -14 -139h-563q39 -156 217 -156q80 0 205 69l119 -225q-168 -119 -373 -119q-178 0 -311 152q-133 -152 -328 -152q-207 0 -345 144.5t-138 392.5zM422 512 q0 -119 35 -186.5t100 -67.5q68 0 103.5 67.5t35.5 186.5t-35.5 186.5t-103.5 67.5q-66 0 -100.5 -67.5t-34.5 -186.5zM1020 618h278q0 164 -127 164q-128 0 -151 -164z" />
<glyph unicode="&#x178;" horiz-adv-x="1114" d="M-33 1352h377l111 -283l100 -276h8l105 276l110 283h369l-414 -877v-475h-352v475zM184 1601.5q0 67.5 45 113.5t115 46t115 -46t45 -113.5t-45 -113.5t-115 -46t-115 46t-45 113.5zM610 1601.5q0 67.5 45 113.5t115 46t115 -46t45 -113.5t-45 -113.5t-115 -46t-115 46 t-45 113.5z" />
<glyph unicode="&#x2c6;" horiz-adv-x="1146" d="M238 1176l196 315h279l196 -315h-233l-98 151h-9l-98 -151h-233z" />
<glyph unicode="&#x2dc;" horiz-adv-x="1146" d="M213 1176q18 150 79.5 224.5t149.5 74.5q61 0 142.5 -43t103.5 -43q49 0 70 86h176q-18 -150 -79.5 -224.5t-149.5 -74.5q-61 0 -142.5 43t-103.5 43q-49 0 -70 -86h-176z" />
<glyph unicode="&#x2000;" horiz-adv-x="923" />
<glyph unicode="&#x2001;" horiz-adv-x="1847" />
<glyph unicode="&#x2002;" horiz-adv-x="923" />
<glyph unicode="&#x2003;" horiz-adv-x="1847" />
<glyph unicode="&#x2004;" horiz-adv-x="614" />
<glyph unicode="&#x2005;" horiz-adv-x="460" />
<glyph unicode="&#x2006;" horiz-adv-x="307" />
<glyph unicode="&#x2007;" horiz-adv-x="307" />
<glyph unicode="&#x2008;" horiz-adv-x="229" />
<glyph unicode="&#x2009;" horiz-adv-x="368" />
<glyph unicode="&#x200a;" horiz-adv-x="102" />
<glyph unicode="&#x2010;" horiz-adv-x="696" d="M90 397v246h516v-246h-516z" />
<glyph unicode="&#x2011;" horiz-adv-x="696" d="M90 397v246h516v-246h-516z" />
<glyph unicode="&#x2012;" horiz-adv-x="696" d="M90 397v246h516v-246h-516z" />
<glyph unicode="&#x2013;" horiz-adv-x="983" d="M90 410v221h803v-221h-803z" />
<glyph unicode="&#x2014;" horiz-adv-x="1638" d="M90 410v221h1458v-221h-1458z" />
<glyph unicode="&#x2018;" horiz-adv-x="655" d="M111 922q0 315 319 467l74 -152q-197 -86 -197 -260q6 2 21 2q76 0 126 -46t50 -122q0 -86 -49 -137t-127 -51q-106 0 -161.5 78t-55.5 221z" />
<glyph unicode="&#x2019;" horiz-adv-x="655" d="M152 811q197 86 196 260q-6 -2 -20 -2q-76 0 -126 46t-50 122q0 86 49 137t127 51q106 0 161.5 -77.5t55.5 -221.5q0 -315 -320 -467z" />
<glyph unicode="&#x201a;" horiz-adv-x="655" d="M152 -213q197 86 196 260q-6 -2 -20 -2q-76 0 -126 46t-50 122q0 86 49 137t127 51q106 0 161.5 -77.5t55.5 -221.5q0 -315 -320 -467z" />
<glyph unicode="&#x201c;" horiz-adv-x="1187" d="M111 922q0 315 319 467l74 -152q-197 -86 -197 -260q6 2 21 2q76 0 126 -46t50 -122q0 -86 -49 -137t-127 -51q-106 0 -161.5 78t-55.5 221zM643 922q0 315 320 467l73 -152q-197 -86 -196 -260q6 2 20 2q76 0 126 -46t50 -122q0 -86 -49 -137t-127 -51q-106 0 -161.5 78 t-55.5 221z" />
<glyph unicode="&#x201d;" horiz-adv-x="1187" d="M152 811q197 86 196 260q-6 -2 -20 -2q-76 0 -126 46t-50 122q0 86 49 137t127 51q106 0 161.5 -77.5t55.5 -221.5q0 -315 -320 -467zM684 811q197 86 197 260q-6 -2 -21 -2q-76 0 -126 46t-50 122q0 86 49 137t127 51q106 0 161.5 -77.5t55.5 -221.5q0 -315 -319 -467z " />
<glyph unicode="&#x201e;" horiz-adv-x="1187" d="M152 -213q197 86 196 260q-6 -2 -20 -2q-76 0 -126 46t-50 122q0 86 49 137t127 51q106 0 161.5 -77.5t55.5 -221.5q0 -315 -320 -467zM684 -213q197 86 197 260q-6 -2 -21 -2q-76 0 -126 46t-50 122q0 86 49 137t127 51q106 0 161.5 -77.5t55.5 -221.5q0 -315 -319 -467 z" />
<glyph unicode="&#x2022;" horiz-adv-x="737" d="M82 537q0 127 82 213t205 86t204.5 -86t81.5 -213t-81.5 -213t-204.5 -86t-205 86t-82 213z" />
<glyph unicode="&#x2026;" horiz-adv-x="2027" d="M143 188.5q0 90.5 58.5 151.5t146.5 61t146.5 -61t58.5 -151.5t-58.5 -152t-146.5 -61.5t-146.5 61.5t-58.5 152zM819 188.5q0 90.5 58.5 151.5t146.5 61t146.5 -61t58.5 -151.5t-58.5 -152t-146.5 -61.5t-146.5 61.5t-58.5 152zM1495 188.5q0 90.5 58.5 151.5t146.5 61 t146.5 -61t58.5 -151.5t-58.5 -152t-146.5 -61.5t-146.5 61.5t-58.5 152z" />
<glyph unicode="&#x202f;" horiz-adv-x="368" />
<glyph unicode="&#x2039;" horiz-adv-x="614" d="M102 393v246l275 287l127 -103l-221 -307l221 -307l-127 -103z" />
<glyph unicode="&#x203a;" horiz-adv-x="614" d="M111 209l221 307l-221 307l127 103l274 -287v-246l-274 -287z" />
<glyph unicode="&#x205f;" horiz-adv-x="460" />
<glyph unicode="&#x20ac;" d="M41 434v160l109 8q-2 20 -3 62v32h-106v160l127 10q49 225 200.5 351t360.5 126q211 0 361 -159l-160 -209q-94 86 -180 86q-164 0 -224 -193h400v-172h-426v-32q0 -39 2 -58h342v-172h-312q59 -176 230 -176q94 0 184 86l160 -209q-150 -160 -365 -160 q-217 0 -367.5 119t-201.5 340h-131z" />
<glyph unicode="&#x2122;" horiz-adv-x="1433" d="M8 1180v204h561v-204h-168v-443h-225v443h-168zM651 737v647h258l70 -167l37 -127h8l37 127l69 167h259v-647h-218v164l25 246h-8l-94 -316h-148l-94 316h-8l24 -246v-164h-217z" />
<glyph unicode="&#xe000;" horiz-adv-x="1025" d="M0 1025h1025v-1025h-1025v1025z" />
<glyph unicode="&#xfb01;" horiz-adv-x="1363" d="M45 750v262l135 10v14q0 193 97.5 316t308.5 123q115 0 217 -37l-62 -254q-82 16 -102 16q-106 0 -107 -151v-25h173v-274h-173v-750h-352v750h-135zM872 1327q0 78 55.5 127t141.5 49t141.5 -49t55.5 -127t-55.5 -127t-141.5 -49t-141.5 49t-55.5 127zM893 0v1024h352 v-1024h-352z" />
<glyph unicode="&#xfb02;" horiz-adv-x="1363" d="M45 750v262l135 10v14q0 193 97.5 316t308.5 123q115 0 217 -37l-62 -254q-82 16 -102 16q-106 0 -107 -151v-25h173v-274h-173v-750h-352v750h-135zM893 0v1454h352v-1454h-352z" />
<glyph unicode="&#xfb03;" horiz-adv-x="2064" d="M1573 1327q0 78 55.5 127t141.5 49t141.5 -49t55.5 -127t-55.5 -127t-141.5 -49t-141.5 49t-55.5 127zM1594 0v1024h352v-1024h-352zM782 750v262l135 10v14q0 193 97.5 316t308.5 123q115 0 217 -37l-62 -254q-82 16 -102 16q-106 0 -107 -151v-25h173v-274h-173v-750 h-352v750h-135zM45 750v262l135 10v14q0 193 97.5 316t308.5 123q115 0 217 -37l-62 -254q-82 16 -102 16q-106 0 -107 -151v-25h173v-274h-173v-750h-352v750h-135z" />
<glyph unicode="&#xfb04;" horiz-adv-x="2064" d="M1594 0v1454h352v-1454h-352zM782 750v262l135 10v14q0 193 97.5 316t308.5 123q115 0 217 -37l-62 -254q-82 16 -102 16q-106 0 -107 -151v-25h173v-274h-173v-750h-352v750h-135zM45 750v262l135 10v14q0 193 97.5 316t308.5 123q115 0 217 -37l-62 -254 q-82 16 -102 16q-106 0 -107 -151v-25h173v-274h-173v-750h-352v750h-135z" />
</font>
</defs>
</svg>
