<?xml version="1.0" standalone="no"?>
<!DOCTYPE svg PUBLIC "-//W3C//DTD SVG 1.1//EN" "http://www.w3.org/Graphics/SVG/1.1/DTD/svg11.dtd" >
<svg xmlns="http://www.w3.org/2000/svg">
<metadata>
This is a custom SVG webfont generated by Font Squirrel.
Copyright   :  2012 Adobe Systems Incorporated All Rights Reserved
Designer    : Paul D Hunt
Foundry     : Adobe Systems Incorporated
Foundry URL : httpwwwadobecomtype
</metadata>
<defs>
<font id="SourceSansBlackItalic" horiz-adv-x="1064" >
<font-face units-per-em="2048" ascent="1536" descent="-512" />
<missing-glyph horiz-adv-x="409" />
<glyph unicode=" "  horiz-adv-x="409" />
<glyph unicode="&#x09;" horiz-adv-x="409" />
<glyph unicode="&#xa0;" horiz-adv-x="409" />
<glyph unicode="!" horiz-adv-x="716" d="M94 147q0 88 64.5 159t160.5 71q74 0 119 -49t45 -123q0 -90 -63.5 -160t-161.5 -70q-74 0 -119 47t-45 125zM246 487l78 598l41 287h327l-65 -287l-168 -598h-213z" />
<glyph unicode="&#x22;" horiz-adv-x="1126" d="M242 692l41 393l41 287h323l-65 -287l-127 -393h-213zM733 692l41 393l41 287h324l-66 -287l-127 -393h-213z" />
<glyph unicode="#" horiz-adv-x="1056" d="M33 373l49 209h168l65 209h-155l49 208h172l106 332h189l-107 -332h185l106 332h189l-107 -332h152l-50 -208h-167l-66 -209h164l-49 -209h-181l-118 -373h-189l119 373h-184l-119 -373h-188l118 373h-151zM438 582h185l65 209h-184z" />
<glyph unicode="$" d="M4 168l168 205q135 -135 279 -135q147 0 147 122q0 53 -42 103.5t-101.5 94.5t-119 93t-101 121t-41.5 158q0 166 106.5 278.5t284.5 130.5l39 205h213l-41 -219q135 -39 249 -154l-163 -204q-123 115 -238 114q-59 0 -93 -31.5t-34 -82.5q0 -47 42 -93.5t101.5 -89.5 t119 -93t101.5 -124.5t42 -165.5q0 -170 -107.5 -284.5t-288.5 -134.5l-43 -207h-213l43 217q-182 43 -309 176z" />
<glyph unicode="%" horiz-adv-x="1728" d="M102 860q0 225 113 372.5t289 147.5q123 0 209 -91t86 -240q0 -225 -114 -373t-288 -148q-123 0 -209 91t-86 241zM295 -25l962 1401h185l-963 -1401h-184zM332 864q0 -143 86 -143q63 0 106 88t45 235q0 143 -86 144q-63 0 -106 -88.5t-45 -235.5zM963 307 q0 225 112.5 372.5t288.5 147.5q123 0 209 -91t86 -240q0 -225 -113.5 -373t-288.5 -148q-123 0 -208.5 91t-85.5 241zM1192 311q0 -143 86 -143q63 0 106 88t46 236q0 143 -87 143q-63 0 -106 -88.5t-45 -235.5z" />
<glyph unicode="&#x26;" horiz-adv-x="1327" d="M12 315q0 154 89 255.5t245 181.5q-27 111 -27 202q0 184 123 303t295 119q139 0 227.5 -67.5t88.5 -194.5q0 -82 -31 -150.5t-90.5 -123t-115.5 -92t-140 -80.5q72 -135 194 -242q113 129 174 311h299q-109 -266 -266 -444q92 -47 197 -68l-127 -254q-156 43 -293 127 q-197 -123 -428 -123q-172 0 -293 84t-121 256zM324 365q0 -66 45 -105t118 -39q80 0 162 35q-129 119 -215 276q-110 -79 -110 -167zM598 963q0 -41 6 -84q190 98 191 215q0 29 -17.5 49t-52.5 20q-53 0 -90 -57t-37 -143z" />
<glyph unicode="'" horiz-adv-x="634" d="M242 692l41 393l41 287h323l-65 -287l-127 -393h-213z" />
<glyph unicode="(" horiz-adv-x="704" d="M106 266q0 344 119 635t365 602l188 -94q-410 -555 -409 -1163q0 -326 69 -529l-209 -86q-123 344 -123 635z" />
<glyph unicode=")" horiz-adv-x="708" d="M-57 -274q410 555 409 1163q0 326 -69 528l209 86q123 -344 122 -635q0 -344 -118.5 -634.5t-364.5 -602.5z" />
<glyph unicode="*" horiz-adv-x="925" d="M188 1139l74 151l225 -69l70 241l168 -12l-16 -250l241 29l25 -164l-234 -82l78 -225l-151 -86l-131 196l-185 -172l-123 115l160 209z" />
<glyph unicode="+" d="M98 561v230h340v372h238v-372h340v-230h-344v-373h-238v373h-336z" />
<glyph unicode="," horiz-adv-x="634" d="M-53 -225q231 63 280 229q-78 4 -126 47t-48 117q0 86 58.5 146.5t154.5 62.5q92 0 142.5 -58.5t50.5 -162.5q0 -213 -128 -363.5t-351 -193.5z" />
<glyph unicode="-" horiz-adv-x="671" d="M66 406l49 229h491l-49 -229h-491z" />
<glyph unicode="." horiz-adv-x="634" d="M49 147q0 88 64.5 159t160.5 71q74 0 119 -49t45 -123q0 -90 -63.5 -160t-161.5 -70q-74 0 -119 47t-45 125z" />
<glyph unicode="/" horiz-adv-x="663" d="M-139 -328l712 1782h213l-716 -1782h-209z" />
<glyph unicode="0" d="M74 451q0 219 52 395t138 281.5t187.5 160.5t207.5 55q170 0 275.5 -120.5t105.5 -358.5q0 -219 -52 -394t-137 -280.5t-185.5 -160t-206.5 -54.5q-170 0 -277.5 120t-107.5 356zM377 414q0 -106 25.5 -147.5t76.5 -41.5q96 0 179 198t83 478q0 193 -102 193 q-96 0 -179 -199.5t-83 -480.5z" />
<glyph unicode="1" d="M33 0l53 262h264l146 729h-238l41 205q197 33 348 123h242l-215 -1057h231l-53 -262h-819z" />
<glyph unicode="2" d="M-29 0l37 184q147 119 222 181.5t178.5 156.5t152.5 154.5t86 131.5t37 130q0 70 -35 108.5t-100 38.5q-119 0 -258 -86l-90 226q195 119 389 118q190 0 302 -98t112 -262q0 -92 -33 -179t-106.5 -180.5t-144.5 -165t-192 -184.5h394l-54 -274h-897z" />
<glyph unicode="3" d="M-37 197l184 200q55 -74 126 -116.5t137 -42.5q96 0 150 45t54 123q0 76 -63.5 113.5t-235.5 37.5l45 229q319 0 320 185q0 53 -38 83.5t-101 30.5q-61 0 -106.5 -15t-131.5 -58l-94 225q184 106 393 106q182 0 298 -88t116 -231q0 -248 -250 -352v-8q80 -43 128 -116 t48 -155q0 -195 -145.5 -306.5t-370.5 -111.5q-291 1 -463 222z" />
<glyph unicode="4" d="M-4 287l49 241l590 791h414l-154 -770h125l-53 -262h-123l-58 -287h-315l57 287h-532zM360 549h220l47 237l61 258h-8l-148 -245z" />
<glyph unicode="5" d="M-16 201l180 196q115 -160 266 -159q88 0 144.5 60t56.5 157q0 78 -41 120.5t-115 42.5q-76 0 -180 -57l-119 98l160 660h733l-53 -275h-451l-57 -204q45 20 106 20q152 0 250.5 -94t98.5 -258q0 -236 -160 -384.5t-377 -148.5q-258 1 -442 226z" />
<glyph unicode="6" d="M82 446q0 397 187.5 647t480.5 250q176 0 323 -135l-151 -213q-94 86 -168 86q-133 0 -221.5 -95t-120.5 -281q49 53 117.5 83.5t121.5 30.5q145 0 234.5 -85t89.5 -255q0 -197 -135 -350.5t-336 -153.5q-193 0 -307.5 130t-114.5 341zM393 471q0 -254 127 -254 q76 0 116 75t40 161q0 145 -115 145q-80 0 -168 -104v-23z" />
<glyph unicode="7" d="M188 0q96 352 221.5 605t307.5 439h-520l53 275h885l-41 -205q-137 -127 -237.5 -267t-164 -294t-98.5 -271.5t-70 -281.5h-336z" />
<glyph unicode="8" d="M74 319q0 125 76.5 220.5t201.5 140.5v8q-119 125 -119 270q0 172 131.5 278.5t315.5 106.5q147 0 260 -79.5t113 -231.5q0 -227 -234 -348v-8q164 -109 164 -307q0 -172 -145.5 -283t-345.5 -111q-160 0 -289 89t-129 255zM365 356q0 -63 40.5 -109t110.5 -46 q68 0 118 45t50 123q0 59 -50 108t-151 109q-51 -41 -84.5 -102.5t-33.5 -127.5zM520 971q0 -109 156 -197q98 98 98 209q0 57 -29.5 94t-89.5 37q-55 0 -95 -38.5t-40 -104.5z" />
<glyph unicode="9" d="M41 111l152 213q94 -86 167 -86q133 0 221.5 95t120.5 281q-53 -53 -127.5 -83.5t-132.5 -30.5q-131 0 -217 82t-86 233q0 211 134.5 369.5t336.5 158.5q193 0 307.5 -130t114.5 -341q0 -397 -187.5 -647t-479.5 -250q-177 1 -324 136zM438 854q0 -61 30 -97t85 -36 q80 0 168 104v23q0 254 -127 254q-76 0 -116 -78t-40 -170z" />
<glyph unicode=":" horiz-adv-x="634" d="M49 147q0 88 64.5 159t160.5 71q74 0 119 -49t45 -123q0 -90 -63.5 -160t-161.5 -70q-74 0 -119 47t-45 125zM160 803q0 88 64.5 158.5t160.5 70.5q74 0 119 -49t45 -123q0 -90 -63.5 -159.5t-161.5 -69.5q-74 0 -119 47t-45 125z" />
<glyph unicode=";" horiz-adv-x="634" d="M-53 -225q231 63 280 229q-78 4 -126 47t-48 117q0 86 58.5 146.5t154.5 62.5q92 0 142.5 -58.5t50.5 -162.5q0 -213 -128 -363.5t-351 -193.5zM160 803q0 88 64.5 158.5t160.5 70.5q74 0 119 -49t45 -123q0 -90 -63.5 -159.5t-161.5 -69.5q-74 0 -119 47t-45 125z" />
<glyph unicode="&#x3c;" d="M94 565v226l922 364v-266l-324 -111l-266 -94v-8l266 -94l324 -111v-270z" />
<glyph unicode="=" d="M98 315v230h918v-230h-918zM98 807v229h918v-229h-918z" />
<glyph unicode="&#x3e;" d="M98 201v270l328 111l266 94v8l-266 94l-328 111v266l922 -364v-226z" />
<glyph unicode="?" horiz-adv-x="937" d="M180 147q0 88 64.5 159t161.5 71q74 0 118.5 -49t44.5 -123q0 -90 -63.5 -160t-161.5 -70q-74 0 -119 47t-45 125zM238 1282q168 115 335 115q178 0 286 -85t108 -235q0 -88 -36 -156.5t-89.5 -115.5t-107.5 -91t-99 -105.5t-57 -133.5l-279 25q10 88 50 159.5t89 115.5 t96.5 83t80 81t32.5 89q0 49 -30.5 78t-84.5 29q-92 0 -196 -70z" />
<glyph unicode="@" horiz-adv-x="1814" d="M86 332q0 217 79 412.5t210 334t308 220t366 81.5q319 0 505.5 -182t186.5 -457q0 -322 -145.5 -494.5t-366.5 -172.5q-74 0 -132.5 39t-76.5 112h-8q-37 -57 -102.5 -94t-127.5 -37q-115 0 -188.5 84t-73.5 219q0 199 126 355.5t296 156.5q92 0 139 -98h4l33 82h197 l-107 -459q-18 -84 1.5 -122t80.5 -38q88 0 167 117t79 318q0 96 -26.5 178t-85 152.5t-163 111.5t-245.5 41q-166 0 -329 -106.5t-271.5 -300t-108.5 -416.5q0 -260 158 -396.5t395 -136.5q111 0 213 58l45 -177q-150 -78 -319 -77q-299 0 -506 180t-207 512zM762 414 q0 -119 90 -119q53 0 115 90l61 266q-25 53 -78 54q-76 0 -132 -95.5t-56 -195.5z" />
<glyph unicode="A" horiz-adv-x="1314" d="M-53 0l700 1352h393l123 -1352h-344l-8 307h-367l-137 -307h-360zM559 561h244l-4 152l-4 393h-9l-159 -393z" />
<glyph unicode="B" horiz-adv-x="1253" d="M53 0l266 1352h426q213 0 338 -76t125 -232q0 -113 -67.5 -208t-190.5 -136l-4 -8q197 -53 197 -250q0 -154 -84 -256t-211 -144t-291 -42h-504zM426 250h156q121 0 183 48t62 132q0 147 -180 148h-155zM537 807h114q115 0 168 49t53 131q0 111 -180 111h-98z" />
<glyph unicode="C" horiz-adv-x="1183" d="M111 516q0 379 212 619.5t529 240.5q215 0 373 -176l-181 -213q-92 106 -213 107q-90 0 -165.5 -50.5t-121.5 -129t-72 -169t-26 -176.5q0 -145 64.5 -230t202.5 -85q92 0 225 78l94 -230q-170 -127 -389 -127q-236 0 -384 149.5t-148 391.5z" />
<glyph unicode="D" horiz-adv-x="1298" d="M53 0l266 1352h312q295 0 456.5 -134.5t161.5 -398.5q0 -393 -205.5 -606t-539.5 -213h-451zM430 262h66q188 0 302.5 131t114.5 406q0 150 -78.5 220.5t-211.5 70.5h-29z" />
<glyph unicode="E" horiz-adv-x="1118" d="M53 0l266 1352h836l-53 -275h-512l-49 -246h438l-53 -274h-439l-57 -283h528l-53 -274h-852z" />
<glyph unicode="F" horiz-adv-x="1077" d="M53 0l266 1352h836l-53 -275h-512l-58 -286h439l-53 -275h-439l-102 -516h-324z" />
<glyph unicode="G" horiz-adv-x="1290" d="M111 516q0 389 219 624.5t542 235.5q236 0 394 -176l-181 -213q-92 106 -233 107q-188 0 -297 -143.5t-109 -381.5q0 -315 283 -315q70 0 115 33l49 221h-197l49 266h484l-127 -659q-182 -139 -422 -140q-260 0 -414.5 148.5t-154.5 392.5z" />
<glyph unicode="H" horiz-adv-x="1384" d="M53 0l266 1352h328l-102 -512h422l102 512h324l-267 -1352h-323l106 553h-422l-110 -553h-324z" />
<glyph unicode="I" horiz-adv-x="634" d="M53 0l266 1352h328l-270 -1352h-324z" />
<glyph unicode="J" horiz-adv-x="1032" d="M-20 188l196 201q78 -131 197 -131q72 0 115.5 52t68.5 171l172 871h328l-185 -920q-92 -457 -479 -457q-119 0 -235.5 56.5t-177.5 156.5z" />
<glyph unicode="K" horiz-adv-x="1310" d="M53 0l266 1352h328l-102 -516h8l471 516h356l-499 -574l311 -778h-340l-213 578l-184 -201l-78 -377h-324z" />
<glyph unicode="L" horiz-adv-x="1073" d="M53 0l266 1352h328l-217 -1078h508l-53 -274h-832z" />
<glyph unicode="M" horiz-adv-x="1540" d="M53 0l266 1352h340l86 -590l33 -230h8l115 230l311 590h340l-266 -1352h-307l111 532l114 394h-4l-168 -316l-274 -495h-123l-90 495l-45 316h-4l-37 -394l-107 -532h-299z" />
<glyph unicode="N" horiz-adv-x="1376" d="M53 0l266 1352h349l192 -643l66 -295h4l41 422l106 516h312l-271 -1352h-348l-192 639l-62 295h-8l-41 -422l-102 -512h-312z" />
<glyph unicode="O" horiz-adv-x="1396" d="M115 541q0 152 46 298t131 268t221 195.5t302 73.5q242 0 385 -150.5t143 -418.5q0 -152 -46 -297t-131 -266t-221 -195t-302 -74q-244 0 -386 150t-142 416zM451 561q0 -57 9 -106t31.5 -96.5t65.5 -74t102 -26.5q158 0 253.5 171t95.5 357q0 57 -9.5 107.5t-32 97.5 t-65.5 75t-102 28q-109 0 -191 -89.5t-119.5 -208t-37.5 -235.5z" />
<glyph unicode="P" horiz-adv-x="1228" d="M53 0l266 1352h488q197 0 315.5 -88t118.5 -277q0 -141 -50 -246.5t-140 -166t-200 -90t-241 -29.5h-143l-90 -455h-324zM520 713h127q129 0 200 57t71 168q0 156 -177 156h-147z" />
<glyph unicode="Q" horiz-adv-x="1396" d="M115 541q0 152 46 298t131 268t221 195.5t302 73.5q242 0 385 -150.5t143 -418.5q0 -182 -62 -353t-196.5 -301t-314.5 -165q84 -98 258 -99q68 0 143 21l13 -246q-88 -37 -176 -37q-440 0 -592 391q-143 57 -222 191.5t-79 331.5zM451 561q0 -57 9 -106t31.5 -96.5 t65.5 -74t102 -26.5q158 0 253.5 171t95.5 357q0 57 -9.5 107.5t-32 97.5t-65.5 75t-102 28q-109 0 -191 -89.5t-119.5 -208t-37.5 -235.5z" />
<glyph unicode="R" horiz-adv-x="1253" d="M53 0l266 1352h484q197 0 313.5 -85t116.5 -268q0 -352 -324 -471l197 -528h-344l-152 479h-139l-94 -479h-324zM524 737h123q129 0 195.5 57.5t66.5 155.5q0 143 -172 144h-143z" />
<glyph unicode="S" horiz-adv-x="1122" d="M12 184l193 226q156 -156 319 -156q74 0 119 32.5t45 90.5q0 18 -6 32.5t-23.5 30t-29 23.5t-46 29.5t-51.5 31.5l-118 74q-201 127 -201 344q0 180 144.5 307t351.5 127q119 0 232.5 -49t197.5 -135l-185 -221q-139 123 -258 123q-72 0 -109.5 -34t-37.5 -85 q0 -37 32.5 -64.5t108.5 -72.5q18 -8 27 -15l127 -78q100 -59 142 -131.5t42 -191.5q0 -188 -145.5 -317.5t-382.5 -129.5q-285 0 -488 209z" />
<glyph unicode="T" horiz-adv-x="1122" d="M168 1077l53 275h1016l-53 -275h-344l-217 -1077h-324l213 1077h-344z" />
<glyph unicode="U" horiz-adv-x="1363" d="M152 455q0 63 28 225l135 672h324l-143 -738q-16 -106 -17 -151q0 -104 44 -154.5t145 -50.5q92 0 152.5 76t92.5 244l152 774h315l-147 -766q-61 -311 -202.5 -461t-371.5 -150q-507 1 -507 480z" />
<glyph unicode="V" horiz-adv-x="1286" d="M213 1352h344l33 -623l-4 -422h8l176 422l274 623h361l-688 -1352h-398z" />
<glyph unicode="W" horiz-adv-x="1695" d="M164 0l61 1352h336l-53 -623l-53 -422h8l168 422l258 623h270l-4 -623l-20 -422h8l139 422l205 623h311l-508 -1352h-413l12 586l29 291h-9l-110 -291l-230 -586h-405z" />
<glyph unicode="X" horiz-adv-x="1179" d="M-98 0l528 733l-201 619h353l61 -242l53 -201h9l110 185l152 258h368l-508 -705l209 -647h-352l-70 266l-49 205h-8l-115 -188l-172 -283h-368z" />
<glyph unicode="Y" horiz-adv-x="1163" d="M213 1352h340l49 -275l41 -262h8l144 262l172 275h352l-569 -832l-107 -520h-324l103 520z" />
<glyph unicode="Z" horiz-adv-x="1085" d="M-41 0l41 197l705 880h-463l53 275h885l-41 -197l-697 -881h512l-57 -274h-938z" />
<glyph unicode="[" horiz-adv-x="704" d="M-16 -311l352 1761h434l-33 -172h-192l-283 -1417h193l-37 -172h-434z" />
<glyph unicode="\" horiz-adv-x="663" d="M254 -328v1782h209l4 -1782h-213z" />
<glyph unicode="]" horiz-adv-x="708" d="M-45 -311l37 172h188l283 1417h-189l33 172h434l-352 -1761h-434z" />
<glyph unicode="^" horiz-adv-x="1056" d="M139 557l307 815h259l307 -815h-267l-77 242l-86 278h-9l-90 -278l-77 -242h-267z" />
<glyph unicode="_" horiz-adv-x="983" d="M-106 -295l36 180h934l-37 -180h-933z" />
<glyph unicode="`" horiz-adv-x="1105" d="M430 1487h299l115 -311h-226z" />
<glyph unicode="a" horiz-adv-x="1126" d="M57 352q0 287 165 492t380 205q66 0 122 -35t83 -92h4l45 102h262l-196 -1024h-267v127h-4q-145 -152 -307 -152q-135 0 -211 98.5t-76 278.5zM397 393q0 -152 90 -151q119 0 185 135l61 328q-37 78 -106 77q-92 0 -161 -110.5t-69 -278.5z" />
<glyph unicode="b" horiz-adv-x="1142" d="M16 0l291 1454h324l-66 -328l-49 -188h4q137 111 279 111q135 0 210.5 -98.5t75.5 -278.5q0 -287 -164.5 -492t-379.5 -205q-66 0 -122.5 35t-82.5 92h-4l-45 -102h-271zM410 319q31 -78 106 -77q92 0 160.5 110.5t68.5 278.5q0 152 -90 151q-117 0 -176 -114z" />
<glyph unicode="c" horiz-adv-x="913" d="M53 381q0 274 177.5 471t437.5 197q145 0 270 -107l-147 -213q-72 57 -144 57q-109 0 -183.5 -108.5t-74.5 -255.5q0 -90 42 -137t106 -47q98 0 180 41l65 -226q-143 -78 -319 -78q-174 0 -292 111t-118 295z" />
<glyph unicode="d" horiz-adv-x="1134" d="M53 352q0 287 165 492t380 205q131 0 193 -115h4l20 192l62 328h327l-286 -1454h-267v127h-4q-145 -152 -307 -152q-135 0 -211 98.5t-76 278.5zM393 393q0 -152 90 -151q119 0 185 135l61 328q-37 78 -106 77q-92 0 -161 -110.5t-69 -278.5z" />
<glyph unicode="e" horiz-adv-x="1028" d="M53 418q0 270 179.5 450.5t398.5 180.5q176 0 258 -107.5t82 -282.5q0 -68 -20.5 -142.5t-37.5 -102.5h-553q6 -193 222 -193q66 0 192 49l66 -200q-176 -94 -353 -95q-197 0 -315.5 119t-118.5 324zM385 610h311q8 57 9 66q0 123 -115 123q-61 0 -116.5 -47.5 t-88.5 -141.5z" />
<glyph unicode="f" horiz-adv-x="704" d="M70 0l155 770h-131l49 242l133 10l11 55q35 176 138 287t284 111q125 0 233 -58l-102 -229q-47 29 -95 29q-53 0 -84.5 -35t-46.5 -117l-8 -41h164l-49 -254h-166l-158 -770h-327z" />
<glyph unicode="g" horiz-adv-x="1130" d="M-29 -311l131 217q166 -102 283 -103q166 0 221 181l49 143h-4q-143 -111 -299 -111q-135 0 -210.5 92.5t-75.5 264.5q0 279 160.5 477.5t375.5 198.5q66 0 122 -35t83 -92h4l45 102h266l-200 -1012q-45 -233 -185.5 -350t-359.5 -117q-216 1 -406 144zM406 414 q0 -131 90 -131q113 0 176 94l61 328q-37 78 -106 77q-90 0 -155.5 -104t-65.5 -264z" />
<glyph unicode="h" horiz-adv-x="1142" d="M20 0l291 1454h328l-78 -393l-45 -148h8q150 135 312 136q242 0 241 -267q0 -72 -20 -147l-123 -635h-328l119 594q16 74 16 90q0 86 -86 86q-72 0 -180 -115l-127 -655h-328z" />
<glyph unicode="i" horiz-adv-x="565" d="M16 0l205 1024h328l-205 -1024h-328zM266 1307q0 74 57.5 129t139.5 55q70 0 121 -41t51 -111q0 -80 -56.5 -132t-140.5 -52q-70 0 -121 40t-51 112z" />
<glyph unicode="j" horiz-adv-x="569" d="M-274 -365l98 234q47 -20 86 -21q47 0 69.5 32t40.5 116l205 1028h328l-205 -1044q-82 -389 -409 -390q-123 0 -213 45zM270 1307q0 74 57.5 129t139.5 55q70 0 121 -41t51 -111q0 -80 -56.5 -132t-140.5 -52q-70 0 -121 40t-51 112z" />
<glyph unicode="k" horiz-adv-x="1114" d="M16 0l291 1454h328l-164 -799h8l340 369h361l-426 -455l245 -569h-327l-140 381l-139 -135l-49 -246h-328z" />
<glyph unicode="l" horiz-adv-x="565" d="M16 0l291 1454h328l-291 -1454h-328z" />
<glyph unicode="m" horiz-adv-x="1708" d="M20 0l201 1024h266v-131h9q178 156 335 156q176 0 230 -172q188 172 344 172q125 0 179 -64.5t54 -202.5q0 -92 -16 -151l-127 -631h-324l115 590q16 66 17 98q0 82 -78 82q-74 0 -176 -115l-127 -655h-324l115 590q16 66 16 90q0 90 -82 90q-70 0 -172 -115l-127 -655 h-328z" />
<glyph unicode="n" horiz-adv-x="1146" d="M20 0l201 1024h266v-131h9q178 156 340 156q242 0 241 -267q0 -72 -20 -147l-123 -635h-328l119 594q16 74 16 90q0 86 -86 86q-72 0 -180 -115l-127 -655h-328z" />
<glyph unicode="o" horiz-adv-x="1105" d="M53 401q0 285 178.5 466.5t403.5 181.5q178 0 293.5 -115t115.5 -311q0 -287 -178 -467.5t-403 -180.5q-178 0 -294 114.5t-116 311.5zM385 406q0 -168 110.5 -168t164 115.5t53.5 260.5q0 172 -111 172q-109 0 -163 -118.5t-54 -261.5z" />
<glyph unicode="p" horiz-adv-x="1138" d="M-66 -410l283 1430h266l9 -107h4q150 135 299 136q135 0 210.5 -100.5t75.5 -280.5q0 -287 -162.5 -490t-377.5 -203q-131 0 -197 111h-4l-21 -192l-57 -304h-328zM406 319q31 -78 106 -77q92 0 160.5 110.5t68.5 278.5q0 152 -90 151q-111 0 -176 -114z" />
<glyph unicode="q" horiz-adv-x="1138" d="M57 352q0 287 165 492t380 205q66 0 122 -35t83 -92h4l45 102h262l-196 -1024l-86 -410h-328l70 304l77 233h-4q-145 -152 -307 -152q-135 0 -211 98.5t-76 278.5zM397 393q0 -152 90 -151q119 0 185 135l61 328q-37 78 -106 77q-92 0 -161 -110.5t-69 -278.5z" />
<glyph unicode="r" horiz-adv-x="798" d="M16 0l201 1024h266l-4 -160h8q135 184 295 185q76 0 111 -21l-107 -283q-29 16 -86 17q-135 0 -237 -148l-119 -614h-328z" />
<glyph unicode="s" horiz-adv-x="884" d="M-37 123l152 205q164 -115 258 -115q111 0 110 70q0 16 -6 28.5t-23.5 25.5t-31.5 21.5t-50 28t-57 31.5q-193 111 -192 287q0 147 114.5 245.5t286.5 98.5q201 0 369 -140l-148 -196q-129 94 -221 94q-94 0 -94 -74q0 -20 16.5 -38.5t33 -29t54 -30t56.5 -29.5 q201 -109 201 -287q0 -156 -119 -250t-320 -94q-215 1 -389 148z" />
<glyph unicode="t" horiz-adv-x="786" d="M86 770l45 242l152 12l90 262h270l-53 -262h229l-49 -254h-229l-78 -385q-4 -25 -4 -66q0 -90 98 -90q29 0 78 9l12 -230q-98 -33 -217 -33q-156 0 -231.5 77t-75.5 210q0 45 16 135l78 373h-131z" />
<glyph unicode="u" horiz-adv-x="1130" d="M61 246q0 20 21 143l127 635h328l-123 -594q-12 -61 -13 -94q0 -82 82 -82q41 0 76 25.5t96 89.5l131 655h328l-205 -1024h-266l4 131h-8q-186 -156 -332 -156q-246 1 -246 271z" />
<glyph unicode="v" horiz-adv-x="1060" d="M123 1024h328l20 -467l4 -315h8l131 315l201 467h320l-512 -1024h-377z" />
<glyph unicode="w" horiz-adv-x="1564" d="M147 1024h324l-8 -455l-21 -307h9l106 307l197 455h266l29 -455l-13 -307h8l99 307l168 455h303l-426 -1024h-381l-4 381l8 283h-8l-94 -283l-152 -381h-369z" />
<glyph unicode="x" horiz-adv-x="1052" d="M-98 0l442 549l-172 475h336l49 -156l45 -159h8l86 147l95 168h360l-414 -549l185 -475h-336l-54 156l-53 163h-8l-94 -151l-115 -168h-360z" />
<glyph unicode="y" horiz-adv-x="1060" d="M-74 -365l99 234q47 -20 86 -21q117 0 163 86l21 46l-164 1044h320l32 -471l4 -311h9l127 311l200 471h316l-545 -1073q-102 -182 -212 -271.5t-263 -89.5q-113 0 -193 45z" />
<glyph unicode="z" horiz-adv-x="933" d="M-20 0l36 184l488 582h-332l49 258h746l-37 -188l-488 -578h385l-49 -258h-798z" />
<glyph unicode="{" horiz-adv-x="700" d="M49 475l41 189q170 6 201 155q12 59 21.5 158.5t23.5 173.5q35 170 101.5 234.5t207.5 64.5h143l-36 -172h-33q-57 0 -82 -29.5t-41 -109.5q-10 -53 -27.5 -157.5t-27.5 -162.5q-25 -119 -75 -177t-138 -77l-2 -8q63 -14 94 -49t31 -102q0 -70 -45.5 -246t-45.5 -230 q0 -39 16.5 -54t61.5 -15h29l-33 -172h-139q-111 0 -158 46t-47 138q0 90 51.5 266t51.5 213q-1 117 -144 123z" />
<glyph unicode="|" horiz-adv-x="540" d="M176 -512v2048h201v-2048h-201z" />
<glyph unicode="}" horiz-adv-x="708" d="M-66 -311l37 172h33q57 0 82 29.5t41 109.5q10 53 27.5 157.5t27.5 161.5q25 119 75 177.5t138 76.5l2 9q-63 14 -94 49t-31 102q0 70 45 246t45 229q0 39 -16 54.5t-61 15.5h-29l33 172h139q111 0 158 -46t47 -138q0 -90 -51.5 -266.5t-51.5 -213.5q0 -117 144 -122 l-41 -189q-170 -6 -201 -156q-12 -59 -21.5 -158.5t-23.5 -172.5q-35 -170 -101.5 -234.5t-207.5 -64.5h-144z" />
<glyph unicode="~" d="M86 676q123 168 299 168q74 0 184.5 -55.5t167.5 -55.5q88 0 164 90l131 -151q-123 -168 -299 -168q-74 0 -184.5 55t-167.5 55q-88 0 -164 -90z" />
<glyph unicode="&#xa1;" horiz-adv-x="716" d="M33 -348l65 287l168 598h213l-78 -598l-41 -287h-327zM242 819q0 90 63.5 160t161.5 70q74 0 119 -47.5t45 -124.5q0 -88 -64.5 -159t-160.5 -71q-74 0 -119 49t-45 123z" />
<glyph unicode="&#xa2;" d="M143 586q0 248 161 411.5t386 198.5l39 193h176l-37 -189q102 -12 213 -90l-127 -238q-76 51 -139 64l-104 -526q82 8 178 41l37 -226q-129 -57 -267 -75l-36 -191h-177l37 191q-156 25 -248 139.5t-92 296.5zM463 635q0 -135 78 -197l96 484q-82 -33 -128 -110t-46 -177 z" />
<glyph unicode="&#xa3;" d="M-8 0l41 201q117 49 188.5 136t85.5 200h-192l41 221l141 12q-6 45 -6 86q0 215 145.5 351t358.5 136q199 0 327 -143l-159 -205q-94 86 -172 86q-197 0 -197 -274q0 -25 2 -37h289l-45 -233h-238q-18 -139 -106 -254l-4 -9h462l-49 -274h-913z" />
<glyph unicode="&#xa4;" d="M12 340l131 115q-37 74 -37 159q0 170 115 299l-90 115l176 143l103 -131q104 49 217 50q106 0 192 -50l156 131l139 -163l-139 -115q41 -90 41 -156q0 -178 -119 -303l98 -110l-172 -148l-110 131q-96 -45 -217 -45q-115 0 -193 45l-151 -131zM410 635q0 -143 118 -143 q84 0 136.5 68.5t52.5 152.5q0 147 -123 147q-82 0 -133 -70.5t-51 -154.5z" />
<glyph unicode="&#xa5;" d="M29 307l28 156h299l25 110h-299l33 152h225l-160 627h340l37 -271l33 -270h8l139 270l144 271h331l-405 -627h225l-28 -152h-299l-25 -110h299l-33 -156h-295l-61 -307h-324l62 307h-299z" />
<glyph unicode="&#xa6;" horiz-adv-x="540" d="M176 414h201v-926h-201v926zM176 647v889h201v-889h-201z" />
<glyph unicode="&#xa7;" horiz-adv-x="1056" d="M12 -20l140 200q158 -119 266 -119q98 0 98 78q0 29 -31.5 58.5t-78 55.5t-101.5 63.5t-101 79.5t-78 105.5t-32 137.5q0 98 57.5 176t151.5 125q-33 59 -33 125q0 152 105.5 252t275.5 100q201 0 365 -151l-144 -197q-2 2 -19 14.5t-22.5 15.5t-21.5 14t-24.5 15.5 t-24 13.5t-26.5 12t-26.5 8t-28.5 7t-28 2q-86 0 -86 -73q0 -37 68.5 -85t150.5 -94.5t151 -132.5t69 -188q0 -209 -211 -324q18 -43 18 -98q0 -162 -112.5 -259t-297.5 -97q-209 0 -389 160zM373 676q0 -43 35.5 -79t122.5 -88t120 -75q70 43 70 127q0 33 -27.5 65.5 t-60.5 53t-94.5 57.5t-94.5 60q-71 -43 -71 -121z" />
<glyph unicode="&#xa8;" horiz-adv-x="1105" d="M356 1290q0 66 48.5 119t119.5 53q55 0 93 -35.5t38 -95.5q0 -66 -48 -119t-120 -53q-57 0 -94 36t-37 95zM766 1290q0 66 48 119t120 53q55 0 93 -35.5t38 -95.5q0 -66 -48 -119t-120 -53q-57 0 -94 36t-37 95z" />
<glyph unicode="&#xa9;" horiz-adv-x="1380" d="M49 573q0 315 223.5 542.5t558.5 227.5q236 0 397 -167.5t161 -421.5q0 -315 -223.5 -542.5t-559.5 -227.5q-236 0 -396.5 167.5t-160.5 421.5zM197 586q0 -193 113.5 -328t312.5 -135q262 0 440 179t178 439q0 193 -112.5 328t-309.5 135q-262 0 -442 -180t-180 -438z M352 582q0 207 144.5 341t318.5 134q96 0 193 -66l-95 -172q-59 49 -114 49q-88 0 -150.5 -73.5t-62.5 -184.5q0 -74 39 -116.5t108 -42.5q31 0 57.5 7t39 13t55.5 29l57 -156q-137 -82 -262 -82q-147 0 -237.5 86.5t-90.5 233.5z" />
<glyph unicode="&#xaa;" horiz-adv-x="755" d="M106 768q0 188 110 324.5t253 136.5q43 0 81 -23.5t56 -62.5h4l29 69h182l-131 -680h-184v82h-4q-94 -98 -203 -98q-92 0 -142.5 65.5t-50.5 186.5zM342 795q0 -94 55 -95q78 0 119 84l39 211q-23 49 -68 49q-59 0 -102 -70t-43 -179z" />
<glyph unicode="&#xab;" horiz-adv-x="983" d="M82 418l41 229l311 279l98 -107l-266 -307l156 -311l-127 -82zM492 418l40 229l312 279l98 -107l-266 -307l155 -311l-126 -82z" />
<glyph unicode="&#xac;" d="M98 561v230h918v-603h-234v373h-684z" />
<glyph unicode="&#xad;" horiz-adv-x="671" d="M70 406l49 229h491l-49 -229h-491z" />
<glyph unicode="&#xae;" horiz-adv-x="937" d="M172 999q0 186 122 326.5t312 140.5q147 0 255 -105.5t110 -262.5q0 -184 -124 -325.5t-310 -141.5q-150 0 -257.5 105t-107.5 263zM287 1008q0 -117 71.5 -194t186.5 -77q135 0 223 103.5t88 249.5q0 117 -71.5 193.5t-186.5 76.5q-135 0 -223 -103.5t-88 -248.5z M369 852l82 397h180q61 0 100 -31.5t39 -87.5q0 -94 -98 -131l49 -147h-123l-33 119h-49l-24 -119h-123zM532 1057h29q35 0 54.5 17.5t19.5 43.5q0 41 -49 41h-33z" />
<glyph unicode="&#xaf;" horiz-adv-x="1105" d="M406 1208l40 205h562l-41 -205h-561z" />
<glyph unicode="&#xb0;" horiz-adv-x="741" d="M188 1073q0 137 98.5 234.5t229.5 97.5q119 0 194.5 -75t75.5 -195q0 -137 -98 -234.5t-229 -97.5q-121 0 -196 73.5t-75 196.5zM360 1073q0 -49 29 -82t82 -33q63 0 103 51.5t40 120.5q-8 119 -110 119q-63 0 -103.5 -51t-40.5 -125z" />
<glyph unicode="&#xb1;" d="M98 0v229h918v-229h-918zM98 635v229h340v299h238v-299h340v-229h-344v-299h-238v299h-336z" />
<glyph unicode="&#xb2;" horiz-adv-x="749" d="M147 901l25 127q410 240 410 414q0 78 -86 78q-63 0 -160 -62l-70 168q150 98 307 98q117 0 181.5 -63.5t64.5 -173.5q0 -98 -65.5 -189.5t-188.5 -195.5h205l-41 -201h-582z" />
<glyph unicode="&#xb3;" horiz-adv-x="749" d="M160 1012l114 143q72 -94 170 -94q53 0 83 24.5t30 61.5q0 47 -32.5 68.5t-127.5 21.5l29 141q168 0 168 103q0 59 -74 59q-68 0 -151 -45l-58 164q121 66 264 65q113 0 184.5 -56t71.5 -144q0 -154 -155 -217q111 -66 110 -172q0 -119 -91 -188.5t-228 -69.5 q-194 0 -307 135z" />
<glyph unicode="&#xb4;" horiz-adv-x="1105" d="M500 1176l237 311h324l-316 -311h-245z" />
<glyph unicode="&#xb5;" horiz-adv-x="1142" d="M-66 -410l283 1430h328l-115 -590q-23 -92 -6.5 -134t80.5 -42q74 0 160 86l135 680h323l-200 -1020h-271v115h-8q-37 -57 -94 -90t-115 -33q-68 0 -94 37l-12 -107l-70 -332h-324z" />
<glyph unicode="&#xb6;" horiz-adv-x="1302" d="M139 791q0 281 175 421t440 140h86l-189 -942h-73q-184 0 -311.5 102.5t-127.5 278.5zM647 -164l303 1516h324l-299 -1516h-328z" />
<glyph unicode="&#xb7;" horiz-adv-x="634" d="M152 639q0 88 64.5 158.5t160.5 70.5q74 0 119 -49t45 -123q0 -90 -63.5 -159.5t-162.5 -69.5q-74 0 -118.5 47t-44.5 125z" />
<glyph unicode="&#xb8;" horiz-adv-x="1122" d="M160 -328q180 14 180 95q0 53 -90 77l110 164h189l-57 -94q90 -35 90 -123q0 -80 -59.5 -135t-149.5 -81t-205 -30z" />
<glyph unicode="&#xb9;" horiz-adv-x="790" d="M340 1462l29 148q133 18 245 90h185l-156 -799h-242l115 561h-176z" />
<glyph unicode="&#xba;" horiz-adv-x="741" d="M102 801q0 186 119 307t271 121q121 0 199.5 -78t78.5 -209q0 -188 -120 -307t-271 -119q-119 0 -198 77t-79 208zM332 803q0 -109 69 -109q74 0 106 74t32 168q0 111 -70 111q-72 0 -104.5 -76t-32.5 -168z" />
<glyph unicode="&#xbb;" horiz-adv-x="983" d="M57 225l267 307l-156 312l127 82l213 -303l-41 -226l-311 -278zM467 225l266 307l-155 312l127 82l213 -303l-41 -226l-312 -278z" />
<glyph unicode="&#xbc;" horiz-adv-x="1613" d="M205 1114l28 148q133 18 246 90h185l-156 -799h-242l115 561h-176zM254 -25l963 1401h184l-963 -1401h-184zM836 168l24 123l385 508h299l-88 -455h117l-37 -176h-115l-32 -168h-213l34 168h-374zM1094 344h151l12 57l58 250h-8l-111 -172z" />
<glyph unicode="&#xbd;" horiz-adv-x="1695" d="M197 1114l28 148q133 18 246 90h184l-155 -799h-242l115 561h-176zM233 -25l963 1401h184l-962 -1401h-185zM926 0l24 127q410 240 410 414q0 78 -86 77q-63 0 -160 -61l-70 168q150 98 308 98q117 0 181 -63.5t64 -173.5q0 -98 -65.5 -189.5t-188.5 -195.5h205l-41 -201 h-581z" />
<glyph unicode="&#xbe;" horiz-adv-x="1634" d="M78 664l115 143q72 -94 169 -94q53 0 83 24.5t30 61.5q0 47 -32.5 68.5t-127.5 21.5l29 141q168 0 168 103q0 59 -74 59q-68 0 -151 -45l-58 164q121 66 265 65q113 0 184.5 -56t71.5 -144q0 -154 -156 -218q111 -66 111 -172q0 -119 -91.5 -188.5t-228.5 -69.5 q-194 1 -307 136zM295 -25l962 1401h185l-963 -1401h-184zM856 168l25 123l385 508h299l-88 -455h116l-37 -176h-114l-33 -168h-213l35 168h-375zM1114 344h152l12 57l57 250h-8l-110 -172z" />
<glyph unicode="&#xbf;" horiz-adv-x="937" d="M0 -53q0 88 36 156.5t89 115.5t107.5 91t99.5 105.5t57 133.5l279 -25q-10 -88 -50 -159.5t-89.5 -115.5t-96.5 -83t-80 -81t-33 -89q0 -49 31 -78t84 -29q92 0 197 70l98 -217q-168 -115 -336 -115q-178 0 -285.5 85t-107.5 235zM397 819q0 90 63.5 160t162.5 70 q74 0 118.5 -47.5t44.5 -124.5q0 -88 -64.5 -159t-160.5 -71q-74 0 -119 49t-45 123z" />
<glyph unicode="&#xc0;" horiz-adv-x="1314" d="M-53 0l700 1352h393l123 -1352h-344l-8 307h-367l-137 -307h-360zM545 1704h332l106 -250h-246zM559 561h244l-4 152l-4 393h-9l-159 -393z" />
<glyph unicode="&#xc1;" horiz-adv-x="1314" d="M-53 0l700 1352h393l123 -1352h-344l-8 307h-367l-137 -307h-360zM559 561h244l-4 152l-4 393h-9l-159 -393zM664 1454l204 250h353l-291 -250h-266z" />
<glyph unicode="&#xc2;" horiz-adv-x="1314" d="M-53 0l700 1352h393l123 -1352h-344l-8 307h-367l-137 -307h-360zM483 1454l238 250h319l140 -250h-238l-78 123h-4l-119 -123h-258zM559 561h244l-4 152l-4 393h-9l-159 -393z" />
<glyph unicode="&#xc3;" horiz-adv-x="1314" d="M-53 0l700 1352h393l123 -1352h-344l-8 307h-367l-137 -307h-360zM483 1454q39 137 112 212t153 75q68 0 136 -45t103 -45q45 0 82 86h168q-39 -137 -111.5 -212t-152.5 -75q-68 0 -136.5 45t-103.5 45q-45 0 -82 -86h-168zM559 561h244l-4 152l-4 393h-9l-159 -393z" />
<glyph unicode="&#xc4;" horiz-adv-x="1314" d="M-53 0l700 1352h393l123 -1352h-344l-8 307h-367l-137 -307h-360zM508 1577q0 66 48 119t120 53q55 0 93 -36t38 -95q0 -66 -48 -119t-120 -53q-57 0 -94 36t-37 95zM559 561h244l-4 152l-4 393h-9l-159 -393zM918 1577q0 66 48 119t119 53q55 0 93.5 -36t38.5 -95 q0 -66 -48.5 -119t-119.5 -53q-57 0 -94 36t-37 95z" />
<glyph unicode="&#xc5;" horiz-adv-x="1314" d="M-53 0l700 1352h393l123 -1352h-344l-8 307h-367l-137 -307h-360zM559 561h244l-4 152l-4 393h-9l-159 -393zM635 1610q0 96 72.5 164.5t173.5 68.5q92 0 156.5 -46t64.5 -134q0 -98 -72 -165.5t-174 -67.5q-96 0 -158.5 45t-62.5 135zM791 1622q0 -29 18 -49.5t51 -20.5 q35 0 60.5 30t25.5 69q0 29 -18.5 49t-50.5 20q-37 0 -61.5 -29.5t-24.5 -68.5z" />
<glyph unicode="&#xc6;" horiz-adv-x="1761" d="M-74 0l860 1352h1012l-53 -275h-492l-49 -246h418l-53 -274h-418l-57 -283h508l-54 -274h-831l57 287h-319l-168 -287h-361zM602 541h223l113 557h-8l-213 -361z" />
<glyph unicode="&#xc7;" horiz-adv-x="1183" d="M111 516q0 379 212 619.5t529 240.5q215 0 373 -176l-181 -213q-92 106 -213 107q-90 0 -165.5 -50.5t-121.5 -129t-72 -169t-26 -176.5q0 -145 64.5 -230t202.5 -85q92 0 225 78l94 -230q-147 -109 -338 -125l-39 -63q90 -35 90 -123q0 -80 -59 -135t-149.5 -81 t-204.5 -30l-8 127q180 14 180 95q0 53 -90 77l98 146q-182 39 -291.5 180t-109.5 346z" />
<glyph unicode="&#xc8;" horiz-adv-x="1118" d="M53 0l266 1352h836l-53 -275h-512l-49 -246h438l-53 -274h-439l-57 -283h528l-53 -274h-852zM463 1704h332l106 -250h-246z" />
<glyph unicode="&#xc9;" horiz-adv-x="1118" d="M53 0l266 1352h836l-53 -275h-512l-49 -246h438l-53 -274h-439l-57 -283h528l-53 -274h-852zM582 1454l204 250h353l-291 -250h-266z" />
<glyph unicode="&#xca;" horiz-adv-x="1118" d="M53 0l266 1352h836l-53 -275h-512l-49 -246h438l-53 -274h-439l-57 -283h528l-53 -274h-852zM401 1454l238 250h319l140 -250h-238l-78 123h-4l-119 -123h-258z" />
<glyph unicode="&#xcb;" horiz-adv-x="1118" d="M53 0l266 1352h836l-53 -275h-512l-49 -246h438l-53 -274h-439l-57 -283h528l-53 -274h-852zM426 1577q0 66 48 119t120 53q55 0 93 -36t38 -95q0 -66 -48 -119t-120 -53q-57 0 -94 36t-37 95zM836 1577q0 66 48 119t120 53q55 0 93 -36t38 -95q0 -66 -48.5 -119 t-119.5 -53q-57 0 -94 36t-37 95z" />
<glyph unicode="&#xcc;" horiz-adv-x="634" d="M53 0l266 1352h328l-270 -1352h-324zM193 1704h331l107 -250h-246z" />
<glyph unicode="&#xcd;" horiz-adv-x="634" d="M53 0l266 1352h328l-270 -1352h-324zM311 1454l205 250h352l-290 -250h-267z" />
<glyph unicode="&#xce;" horiz-adv-x="634" d="M53 0l266 1352h328l-270 -1352h-324zM131 1454l238 250h319l139 -250h-237l-78 123h-4l-119 -123h-258z" />
<glyph unicode="&#xcf;" horiz-adv-x="634" d="M53 0l266 1352h328l-270 -1352h-324zM156 1577q0 66 48 119t120 53q55 0 93 -36t38 -95q0 -66 -48.5 -119t-119.5 -53q-57 0 -94 36t-37 95zM565 1577q0 66 48.5 119t119.5 53q55 0 93 -36t38 -95q0 -66 -48 -119t-120 -53q-57 0 -94 36t-37 95z" />
<glyph unicode="&#xd0;" horiz-adv-x="1339" d="M70 614l28 144l148 12l114 582h312q295 0 456.5 -134.5t161.5 -398.5q0 -393 -205.5 -606t-539.5 -213h-451l119 614h-143zM471 262h66q188 0 302.5 131t114.5 406q0 150 -78.5 220.5t-211.5 70.5h-29l-66 -320h238l-33 -156h-233z" />
<glyph unicode="&#xd1;" horiz-adv-x="1376" d="M53 0l266 1352h349l192 -643l66 -295h4l41 422l106 516h312l-271 -1352h-348l-192 639l-62 295h-8l-41 -422l-102 -512h-312zM508 1454q39 137 111.5 212t152.5 75q68 0 136.5 -45t103.5 -45q45 0 82 86h168q-39 -137 -112 -212t-153 -75q-68 0 -136 45t-103 45 q-45 0 -82 -86h-168z" />
<glyph unicode="&#xd2;" horiz-adv-x="1396" d="M115 541q0 152 46 298t131 268t221 195.5t302 73.5q242 0 385 -150.5t143 -418.5q0 -152 -46 -297t-131 -266t-221 -195t-302 -74q-244 0 -386 150t-142 416zM451 561q0 -57 9 -106t31.5 -96.5t65.5 -74t102 -26.5q158 0 253.5 171t95.5 357q0 57 -9.5 107.5t-32 97.5 t-65.5 75t-102 28q-109 0 -191 -89.5t-119.5 -208t-37.5 -235.5zM586 1704h332l106 -250h-246z" />
<glyph unicode="&#xd3;" horiz-adv-x="1396" d="M115 541q0 152 46 298t131 268t221 195.5t302 73.5q242 0 385 -150.5t143 -418.5q0 -152 -46 -297t-131 -266t-221 -195t-302 -74q-244 0 -386 150t-142 416zM451 561q0 -57 9 -106t31.5 -96.5t65.5 -74t102 -26.5q158 0 253.5 171t95.5 357q0 57 -9.5 107.5t-32 97.5 t-65.5 75t-102 28q-109 0 -191 -89.5t-119.5 -208t-37.5 -235.5zM705 1454l204 250h353l-291 -250h-266z" />
<glyph unicode="&#xd4;" horiz-adv-x="1396" d="M115 541q0 152 46 298t131 268t221 195.5t302 73.5q242 0 385 -150.5t143 -418.5q0 -152 -46 -297t-131 -266t-221 -195t-302 -74q-244 0 -386 150t-142 416zM451 561q0 -57 9 -106t31.5 -96.5t65.5 -74t102 -26.5q158 0 253.5 171t95.5 357q0 57 -9.5 107.5t-32 97.5 t-65.5 75t-102 28q-109 0 -191 -89.5t-119.5 -208t-37.5 -235.5zM524 1454l238 250h319l140 -250h-238l-78 123h-4l-119 -123h-258z" />
<glyph unicode="&#xd5;" horiz-adv-x="1396" d="M115 541q0 152 46 298t131 268t221 195.5t302 73.5q242 0 385 -150.5t143 -418.5q0 -152 -46 -297t-131 -266t-221 -195t-302 -74q-244 0 -386 150t-142 416zM451 561q0 -57 9 -106t31.5 -96.5t65.5 -74t102 -26.5q158 0 253.5 171t95.5 357q0 57 -9.5 107.5t-32 97.5 t-65.5 75t-102 28q-109 0 -191 -89.5t-119.5 -208t-37.5 -235.5zM524 1454q39 137 112 212t152 75q68 0 136.5 -45t103.5 -45q45 0 82 86h168q-39 -137 -111.5 -212t-152.5 -75q-68 0 -136.5 45t-103.5 45q-45 0 -82 -86h-168z" />
<glyph unicode="&#xd6;" horiz-adv-x="1396" d="M115 541q0 152 46 298t131 268t221 195.5t302 73.5q242 0 385 -150.5t143 -418.5q0 -152 -46 -297t-131 -266t-221 -195t-302 -74q-244 0 -386 150t-142 416zM451 561q0 -57 9 -106t31.5 -96.5t65.5 -74t102 -26.5q158 0 253.5 171t95.5 357q0 57 -9.5 107.5t-32 97.5 t-65.5 75t-102 28q-109 0 -191 -89.5t-119.5 -208t-37.5 -235.5zM549 1577q0 66 48 119t120 53q55 0 93 -36t38 -95q0 -66 -48 -119t-120 -53q-57 0 -94 36t-37 95zM958 1577q0 66 48.5 119t119.5 53q55 0 93 -36t38 -95q0 -66 -48 -119t-119 -53q-57 0 -94.5 36t-37.5 95z " />
<glyph unicode="&#xd7;" d="M127 393l270 283l-270 282l160 160l270 -282l270 282l160 -160l-270 -282l270 -283l-160 -160l-270 283l-270 -283z" />
<glyph unicode="&#xd8;" horiz-adv-x="1396" d="M-25 41l201 205q-61 119 -61 295q0 152 46 298t131 268t221 195.5t302 73.5q215 0 352 -119l176 181l144 -131l-203 -207q59 -125 59 -293q0 -152 -46 -297t-131 -266t-221 -195t-302 -74q-211 0 -348 115l-176 -180zM451 526l491 502q-51 66 -143 66q-109 0 -191 -89.5 t-119.5 -208t-37.5 -235.5v-35zM518 317q53 -59 141 -59q158 0 253.5 171t95.5 357v31z" />
<glyph unicode="&#xd9;" horiz-adv-x="1363" d="M152 455q0 63 28 225l135 672h324l-143 -738q-16 -106 -17 -151q0 -104 44 -154.5t145 -50.5q92 0 152.5 76t92.5 244l152 774h315l-147 -766q-61 -311 -202.5 -461t-371.5 -150q-507 1 -507 480zM561 1704h332l106 -250h-245z" />
<glyph unicode="&#xda;" horiz-adv-x="1363" d="M152 455q0 63 28 225l135 672h324l-143 -738q-16 -106 -17 -151q0 -104 44 -154.5t145 -50.5q92 0 152.5 76t92.5 244l152 774h315l-147 -766q-61 -311 -202.5 -461t-371.5 -150q-507 1 -507 480zM680 1454l205 250h352l-291 -250h-266z" />
<glyph unicode="&#xdb;" horiz-adv-x="1363" d="M152 455q0 63 28 225l135 672h324l-143 -738q-16 -106 -17 -151q0 -104 44 -154.5t145 -50.5q92 0 152.5 76t92.5 244l152 774h315l-147 -766q-61 -311 -202.5 -461t-371.5 -150q-507 1 -507 480zM500 1454l237 250h320l139 -250h-238l-77 123h-4l-119 -123h-258z" />
<glyph unicode="&#xdc;" horiz-adv-x="1363" d="M152 455q0 63 28 225l135 672h324l-143 -738q-16 -106 -17 -151q0 -104 44 -154.5t145 -50.5q92 0 152.5 76t92.5 244l152 774h315l-147 -766q-61 -311 -202.5 -461t-371.5 -150q-507 1 -507 480zM524 1577q0 66 48.5 119t119.5 53q55 0 93 -36t38 -95q0 -66 -48 -119 t-120 -53q-57 0 -94 36t-37 95zM934 1577q0 66 48 119t120 53q55 0 93 -36t38 -95q0 -66 -48 -119t-120 -53q-57 0 -94 36t-37 95z" />
<glyph unicode="&#xdd;" horiz-adv-x="1163" d="M213 1352h340l49 -275l41 -262h8l144 262l172 275h352l-569 -832l-107 -520h-324l103 520zM573 1454l205 250h352l-290 -250h-267z" />
<glyph unicode="&#xde;" horiz-adv-x="1245" d="M53 0l266 1352h328l-41 -205h160q197 0 315.5 -88t118.5 -277q0 -272 -178 -402t-453 -130h-143l-49 -250h-324zM479 508h127q129 0 200 57.5t71 167.5q0 156 -177 156h-147z" />
<glyph unicode="&#xdf;" horiz-adv-x="1363" d="M74 0l205 1020q39 203 175 329t349 126q170 0 292 -81t122 -239q0 -80 -34 -146.5t-75 -103.5t-75 -79t-34 -76q0 -33 39 -74t86 -78t86 -103.5t39 -146.5q0 -156 -115.5 -264.5t-281.5 -108.5t-320 99l144 205q92 -61 172 -62q45 0 71.5 27.5t26.5 70.5q0 37 -42 78 t-91 75t-91 94.5t-42 129.5q0 59 35 115.5t75.5 94.5t75.5 92.5t35 111.5q0 111 -110 111q-74 0 -126.5 -73t-74.5 -186l-193 -958h-323z" />
<glyph unicode="&#xe0;" horiz-adv-x="1126" d="M57 352q0 287 165 492t380 205q66 0 122 -35t83 -92h4l45 102h262l-196 -1024h-267v127h-4q-145 -152 -307 -152q-135 0 -211 98.5t-76 278.5zM397 393q0 -152 90 -151q119 0 185 135l61 328q-37 78 -106 77q-92 0 -161 -110.5t-69 -278.5zM410 1487h299l114 -311h-225z " />
<glyph unicode="&#xe1;" horiz-adv-x="1126" d="M57 352q0 287 165 492t380 205q66 0 122 -35t83 -92h4l45 102h262l-196 -1024h-267v127h-4q-145 -152 -307 -152q-135 0 -211 98.5t-76 278.5zM397 393q0 -152 90 -151q119 0 185 135l61 328q-37 78 -106 77q-92 0 -161 -110.5t-69 -278.5zM479 1176l238 311h323 l-315 -311h-246z" />
<glyph unicode="&#xe2;" horiz-adv-x="1126" d="M57 352q0 287 165 492t380 205q66 0 122 -35t83 -92h4l45 102h262l-196 -1024h-267v127h-4q-145 -152 -307 -152q-135 0 -211 98.5t-76 278.5zM344 1176l250 311h258l127 -311h-209l-65 155h-9l-127 -155h-225zM397 393q0 -152 90 -151q119 0 185 135l61 328 q-37 78 -106 77q-92 0 -161 -110.5t-69 -278.5z" />
<glyph unicode="&#xe3;" horiz-adv-x="1126" d="M57 352q0 287 165 492t380 205q66 0 122 -35t83 -92h4l45 102h262l-196 -1024h-267v127h-4q-145 -152 -307 -152q-135 0 -211 98.5t-76 278.5zM332 1180q39 137 109.5 209.5t150.5 72.5q68 0 136.5 -43t102.5 -43q43 0 78 82h168q-39 -137 -109.5 -209.5t-150.5 -72.5 q-68 0 -136.5 43t-102.5 43q-43 0 -78 -82h-168zM397 393q0 -152 90 -151q119 0 185 135l61 328q-37 78 -106 77q-92 0 -161 -110.5t-69 -278.5z" />
<glyph unicode="&#xe4;" horiz-adv-x="1126" d="M57 352q0 287 165 492t380 205q66 0 122 -35t83 -92h4l45 102h262l-196 -1024h-267v127h-4q-145 -152 -307 -152q-135 0 -211 98.5t-76 278.5zM336 1290q0 66 48 119t120 53q55 0 93 -35.5t38 -95.5q0 -66 -48 -119t-120 -53q-57 0 -94 36t-37 95zM397 393 q0 -152 90 -151q119 0 185 135l61 328q-37 78 -106 77q-92 0 -161 -110.5t-69 -278.5zM745 1290q0 66 48.5 119t119.5 53q55 0 93 -35.5t38 -95.5q0 -66 -48 -119t-119 -53q-57 0 -94.5 36t-37.5 95z" />
<glyph unicode="&#xe5;" horiz-adv-x="1126" d="M57 352q0 287 165 492t380 205q66 0 122 -35t83 -92h4l45 102h262l-196 -1024h-267v127h-4q-145 -152 -307 -152q-135 0 -211 98.5t-76 278.5zM397 393q0 -152 90 -151q119 0 185 135l61 328q-37 78 -106 77q-92 0 -161 -110.5t-69 -278.5zM467 1315q0 102 68.5 169.5 t173.5 67.5q92 0 154.5 -48t62.5 -140q0 -102 -69 -170t-173 -68q-92 0 -154.5 48.5t-62.5 140.5zM623 1323q0 -74 65 -74q33 0 57.5 32t24.5 75q0 31 -16.5 52.5t-49 21.5t-57 -32t-24.5 -75z" />
<glyph unicode="&#xe6;" horiz-adv-x="1560" d="M37 233q0 395 610 410v25q0 127 -123 127q-92 0 -254 -74l-69 225q211 102 405 103q174 0 250 -115q137 115 287 115q176 0 258 -107.5t82 -282.5q0 -68 -20.5 -142.5t-37.5 -102.5h-532q-2 -96 52 -144.5t149 -48.5q66 0 192 49l66 -200q-176 -94 -353 -95 q-98 0 -182 44t-127 110q-186 -154 -375 -154q-121 0 -199.5 71.5t-78.5 186.5zM356 299q0 -33 26 -53.5t69 -20.5q80 0 159 99q-8 74 -4 122q-127 -2 -188.5 -43t-61.5 -104zM918 610h290q8 57 9 66q0 123 -115 123q-55 0 -105 -47.5t-79 -141.5z" />
<glyph unicode="&#xe7;" horiz-adv-x="913" d="M53 381q0 274 177.5 471t437.5 197q145 0 270 -107l-147 -213q-72 57 -144 57q-109 0 -183.5 -108.5t-74.5 -255.5q0 -90 42 -137t106 -47q98 0 180 41l65 -226q-123 -66 -272 -76l-39 -63q90 -35 90 -123q0 -80 -59.5 -135t-149.5 -81t-205 -30l-8 127q180 14 180 95 q0 53 -90 77l101 150q-125 37 -201 138.5t-76 248.5z" />
<glyph unicode="&#xe8;" horiz-adv-x="1028" d="M53 418q0 270 179.5 450.5t398.5 180.5q176 0 258 -107.5t82 -282.5q0 -68 -20.5 -142.5t-37.5 -102.5h-553q6 -193 222 -193q66 0 192 49l66 -200q-176 -94 -353 -95q-197 0 -315.5 119t-118.5 324zM385 610h311q8 57 9 66q0 123 -115 123q-61 0 -116.5 -47.5 t-88.5 -141.5zM414 1487h299l114 -311h-225z" />
<glyph unicode="&#xe9;" horiz-adv-x="1028" d="M53 418q0 270 179.5 450.5t398.5 180.5q176 0 258 -107.5t82 -282.5q0 -68 -20.5 -142.5t-37.5 -102.5h-553q6 -193 222 -193q66 0 192 49l66 -200q-176 -94 -353 -95q-197 0 -315.5 119t-118.5 324zM385 610h311q8 57 9 66q0 123 -115 123q-61 0 -116.5 -47.5 t-88.5 -141.5zM483 1176l238 311h323l-315 -311h-246z" />
<glyph unicode="&#xea;" horiz-adv-x="1028" d="M53 418q0 270 179.5 450.5t398.5 180.5q176 0 258 -107.5t82 -282.5q0 -68 -20.5 -142.5t-37.5 -102.5h-553q6 -193 222 -193q66 0 192 49l66 -200q-176 -94 -353 -95q-197 0 -315.5 119t-118.5 324zM348 1176l250 311h258l127 -311h-209l-65 155h-9l-127 -155h-225z M385 610h311q8 57 9 66q0 123 -115 123q-61 0 -116.5 -47.5t-88.5 -141.5z" />
<glyph unicode="&#xeb;" horiz-adv-x="1028" d="M53 418q0 270 179.5 450.5t398.5 180.5q176 0 258 -107.5t82 -282.5q0 -68 -20.5 -142.5t-37.5 -102.5h-553q6 -193 222 -193q66 0 192 49l66 -200q-176 -94 -353 -95q-197 0 -315.5 119t-118.5 324zM340 1290q0 66 48 119t120 53q55 0 93 -35.5t38 -95.5q0 -66 -48 -119 t-120 -53q-57 0 -94 36t-37 95zM385 610h311q8 57 9 66q0 123 -115 123q-61 0 -116.5 -47.5t-88.5 -141.5zM750 1290q0 66 48 119t120 53q55 0 93 -35.5t38 -95.5q0 -66 -48.5 -119t-119.5 -53q-57 0 -94 36t-37 95z" />
<glyph unicode="&#xec;" horiz-adv-x="565" d="M16 0l205 1024h328l-205 -1024h-328zM152 1487h299l114 -311h-225z" />
<glyph unicode="&#xed;" horiz-adv-x="565" d="M16 0l205 1024h328l-205 -1024h-328zM221 1176l238 311h323l-315 -311h-246z" />
<glyph unicode="&#xee;" horiz-adv-x="565" d="M16 0l205 1024h328l-205 -1024h-328zM86 1176l250 311h258l127 -311h-209l-66 155h-8l-127 -155h-225z" />
<glyph unicode="&#xef;" horiz-adv-x="565" d="M16 0l205 1024h328l-205 -1024h-328zM78 1290q0 66 48 119t120 53q55 0 93 -35.5t38 -95.5q0 -66 -48 -119t-120 -53q-57 0 -94 36t-37 95zM487 1290q0 66 48.5 119t119.5 53q55 0 93 -35.5t38 -95.5q0 -66 -48 -119t-120 -53q-57 0 -94 36t-37 95z" />
<glyph unicode="&#xf0;" horiz-adv-x="1110" d="M61 381q0 137 53.5 261t162 209t251.5 87q131 0 195 -96q-18 166 -98 286l-318 -124l-49 155l258 103q-82 80 -180 143l229 151q125 -88 219 -190l285 113l57 -152l-237 -94q143 -215 143 -496q0 -143 -34.5 -275t-101.5 -242.5t-179.5 -177.5t-253.5 -67 q-170 0 -286 111t-116 295zM356 406q0 -74 35 -121t101 -47q92 0 153.5 100t77.5 266q-55 88 -150 88q-102 0 -159.5 -86.5t-57.5 -199.5z" />
<glyph unicode="&#xf1;" horiz-adv-x="1146" d="M20 0l201 1024h266v-131h9q178 156 340 156q242 0 241 -267q0 -72 -20 -147l-123 -635h-328l119 594q16 74 16 90q0 86 -86 86q-72 0 -180 -115l-127 -655h-328zM422 1180q39 137 109.5 209.5t150.5 72.5q68 0 136.5 -43t103.5 -43q43 0 77 82h168 q-39 -137 -109.5 -209.5t-150.5 -72.5q-68 0 -136.5 43t-102.5 43q-43 0 -78 -82h-168z" />
<glyph unicode="&#xf2;" horiz-adv-x="1105" d="M53 401q0 285 178.5 466.5t403.5 181.5q178 0 293.5 -115t115.5 -311q0 -287 -178 -467.5t-403 -180.5q-178 0 -294 114.5t-116 311.5zM385 406q0 -168 110.5 -168t164 115.5t53.5 260.5q0 172 -111 172q-109 0 -163 -118.5t-54 -261.5zM430 1487h299l115 -311h-226z" />
<glyph unicode="&#xf3;" horiz-adv-x="1105" d="M53 401q0 285 178.5 466.5t403.5 181.5q178 0 293.5 -115t115.5 -311q0 -287 -178 -467.5t-403 -180.5q-178 0 -294 114.5t-116 311.5zM385 406q0 -168 110.5 -168t164 115.5t53.5 260.5q0 172 -111 172q-109 0 -163 -118.5t-54 -261.5zM500 1176l237 311h324l-316 -311 h-245z" />
<glyph unicode="&#xf4;" horiz-adv-x="1105" d="M53 401q0 285 178.5 466.5t403.5 181.5q178 0 293.5 -115t115.5 -311q0 -287 -178 -467.5t-403 -180.5q-178 0 -294 114.5t-116 311.5zM365 1176l249 311h258l127 -311h-208l-66 155h-8l-127 -155h-225zM385 406q0 -168 110.5 -168t164 115.5t53.5 260.5q0 172 -111 172 q-109 0 -163 -118.5t-54 -261.5z" />
<glyph unicode="&#xf5;" horiz-adv-x="1105" d="M53 401q0 285 178.5 466.5t403.5 181.5q178 0 293.5 -115t115.5 -311q0 -287 -178 -467.5t-403 -180.5q-178 0 -294 114.5t-116 311.5zM352 1180q39 137 109.5 209.5t150.5 72.5q68 0 136.5 -43t103.5 -43q43 0 78 82h168q-39 -137 -109.5 -209.5t-150.5 -72.5 q-68 0 -136.5 43t-103.5 43q-43 0 -78 -82h-168zM385 406q0 -168 110.5 -168t164 115.5t53.5 260.5q0 172 -111 172q-109 0 -163 -118.5t-54 -261.5z" />
<glyph unicode="&#xf6;" horiz-adv-x="1105" d="M53 401q0 285 178.5 466.5t403.5 181.5q178 0 293.5 -115t115.5 -311q0 -287 -178 -467.5t-403 -180.5q-178 0 -294 114.5t-116 311.5zM356 1290q0 66 48.5 119t119.5 53q55 0 93 -35.5t38 -95.5q0 -66 -48 -119t-120 -53q-57 0 -94 36t-37 95zM385 406 q0 -168 110.5 -168t164 115.5t53.5 260.5q0 172 -111 172q-109 0 -163 -118.5t-54 -261.5zM766 1290q0 66 48 119t120 53q55 0 93 -35.5t38 -95.5q0 -66 -48 -119t-120 -53q-57 0 -94 36t-37 95z" />
<glyph unicode="&#xf7;" d="M98 561v230h918v-230h-918zM381 303q0 70 51 119t125 49t125 -49t51 -119q0 -72 -50 -118t-126 -46t-126 46t-50 118zM381 1049q0 70 51 116.5t125 46.5t125 -47t51 -116q0 -74 -51 -121t-125 -47t-125 47t-51 121z" />
<glyph unicode="&#xf8;" horiz-adv-x="1105" d="M0 41l115 119q-61 104 -62 241q0 285 178.5 466.5t403.5 181.5q156 0 262 -86l107 110l102 -90l-121 -123q59 -100 59 -237q0 -287 -178 -467.5t-403 -180.5q-150 0 -256 82l-109 -110zM360 412l334 344q-33 39 -84 39q-119 0 -183.5 -119t-66.5 -264zM406 262 q29 -33 81 -33q121 0 184.5 115t65.5 260z" />
<glyph unicode="&#xf9;" horiz-adv-x="1130" d="M61 246q0 20 21 143l127 635h328l-123 -594q-12 -61 -13 -94q0 -82 82 -82q41 0 76 25.5t96 89.5l131 655h328l-205 -1024h-266l4 131h-8q-186 -156 -332 -156q-246 1 -246 271zM426 1487h299l115 -311h-226z" />
<glyph unicode="&#xfa;" horiz-adv-x="1130" d="M61 246q0 20 21 143l127 635h328l-123 -594q-12 -61 -13 -94q0 -82 82 -82q41 0 76 25.5t96 89.5l131 655h328l-205 -1024h-266l4 131h-8q-186 -156 -332 -156q-246 1 -246 271zM496 1176l237 311h324l-316 -311h-245z" />
<glyph unicode="&#xfb;" horiz-adv-x="1130" d="M61 246q0 20 21 143l127 635h328l-123 -594q-12 -61 -13 -94q0 -82 82 -82q41 0 76 25.5t96 89.5l131 655h328l-205 -1024h-266l4 131h-8q-186 -156 -332 -156q-246 1 -246 271zM360 1176l250 311h258l127 -311h-209l-65 155h-8l-127 -155h-226z" />
<glyph unicode="&#xfc;" horiz-adv-x="1130" d="M61 246q0 20 21 143l127 635h328l-123 -594q-12 -61 -13 -94q0 -82 82 -82q41 0 76 25.5t96 89.5l131 655h328l-205 -1024h-266l4 131h-8q-186 -156 -332 -156q-246 1 -246 271zM352 1290q0 66 48.5 119t119.5 53q55 0 93 -35.5t38 -95.5q0 -66 -48 -119t-120 -53 q-57 0 -94 36t-37 95zM762 1290q0 66 48 119t120 53q55 0 93 -35.5t38 -95.5q0 -66 -48 -119t-120 -53q-57 0 -94 36t-37 95z" />
<glyph unicode="&#xfd;" horiz-adv-x="1060" d="M-74 -365l99 234q47 -20 86 -21q117 0 163 86l21 46l-164 1044h320l32 -471l4 -311h9l127 311l200 471h316l-545 -1073q-102 -182 -212 -271.5t-263 -89.5q-113 0 -193 45zM446 1176l238 311h324l-316 -311h-246z" />
<glyph unicode="&#xfe;" horiz-adv-x="1138" d="M-66 -410l373 1864h324l-66 -328l-49 -188h4q137 111 279 111q135 0 210.5 -98.5t75.5 -278.5q0 -287 -164.5 -492t-379.5 -205q-131 0 -197 111h-4l-21 -192l-57 -304h-328zM410 319q31 -78 106 -77q92 0 160.5 110.5t68.5 278.5q0 152 -90 151q-117 0 -176 -114z" />
<glyph unicode="&#xff;" horiz-adv-x="1060" d="M-74 -365l99 234q47 -20 86 -21q117 0 163 86l21 46l-164 1044h320l32 -471l4 -311h9l127 311l200 471h316l-545 -1073q-102 -182 -212 -271.5t-263 -89.5q-113 0 -193 45zM303 1290q0 66 48 119t120 53q55 0 93 -35.5t38 -95.5q0 -66 -48 -119t-120 -53q-57 0 -94 36 t-37 95zM713 1290q0 66 48 119t120 53q55 0 93 -35.5t38 -95.5q0 -66 -48.5 -119t-119.5 -53q-57 0 -94 36t-37 95z" />
<glyph unicode="&#x152;" horiz-adv-x="1744" d="M115 532q0 393 205.5 606.5t539.5 213.5h922l-53 -275h-472l-49 -246h398l-54 -274h-397l-57 -283h487l-53 -274h-811q-291 4 -448.5 137t-157.5 395zM451 553q0 -150 78.5 -220.5t211.5 -70.5h29l164 828h-66q-188 0 -302.5 -131.5t-114.5 -405.5z" />
<glyph unicode="&#x153;" horiz-adv-x="1617" d="M53 401q0 287 171 467.5t394 180.5q186 0 283 -170q137 170 320 170q176 0 258 -107.5t82 -282.5q0 -68 -20.5 -142.5t-37.5 -102.5h-532v-13q0 -84 55 -132t145 -48q66 0 193 49l66 -200q-176 -94 -353 -95q-203 0 -295 170q-150 -170 -331 -170q-180 0 -289 112.5 t-109 313.5zM385 406q0 -168 111 -168q100 0 148 116.5t48 259.5q0 172 -90 172q-109 0 -163 -118.5t-54 -261.5zM995 610h291q8 57 8 66q0 123 -114 123q-55 0 -105.5 -47.5t-79.5 -141.5z" />
<glyph unicode="&#x178;" horiz-adv-x="1163" d="M213 1352h340l49 -275l41 -262h8l144 262l172 275h352l-569 -832l-107 -520h-324l103 520zM418 1577q0 66 48 119t120 53q55 0 93 -36t38 -95q0 -66 -48 -119t-120 -53q-57 0 -94 36t-37 95zM827 1577q0 66 48.5 119t119.5 53q55 0 93 -36t38 -95q0 -66 -48 -119 t-120 -53q-57 0 -94 36t-37 95z" />
<glyph unicode="&#x2c6;" horiz-adv-x="1105" d="M365 1176l249 311h258l127 -311h-208l-66 155h-8l-127 -155h-225z" />
<glyph unicode="&#x2dc;" horiz-adv-x="1105" d="M352 1180q39 137 109.5 209.5t150.5 72.5q68 0 136.5 -43t103.5 -43q43 0 78 82h168q-39 -137 -109.5 -209.5t-150.5 -72.5q-68 0 -136.5 43t-103.5 43q-43 0 -78 -82h-168z" />
<glyph unicode="&#x2000;" horiz-adv-x="921" />
<glyph unicode="&#x2001;" horiz-adv-x="1843" />
<glyph unicode="&#x2002;" horiz-adv-x="921" />
<glyph unicode="&#x2003;" horiz-adv-x="1843" />
<glyph unicode="&#x2004;" horiz-adv-x="614" />
<glyph unicode="&#x2005;" horiz-adv-x="460" />
<glyph unicode="&#x2006;" horiz-adv-x="307" />
<glyph unicode="&#x2007;" horiz-adv-x="307" />
<glyph unicode="&#x2008;" horiz-adv-x="229" />
<glyph unicode="&#x2009;" horiz-adv-x="368" />
<glyph unicode="&#x200a;" horiz-adv-x="102" />
<glyph unicode="&#x2010;" horiz-adv-x="671" d="M66 406l49 229h491l-49 -229h-491z" />
<glyph unicode="&#x2011;" horiz-adv-x="671" d="M66 406l49 229h491l-49 -229h-491z" />
<glyph unicode="&#x2012;" horiz-adv-x="671" d="M66 406l49 229h491l-49 -229h-491z" />
<glyph unicode="&#x2013;" horiz-adv-x="950" d="M70 414l41 209h770l-41 -209h-770z" />
<glyph unicode="&#x2014;" horiz-adv-x="1581" d="M70 414l41 209h1400l-41 -209h-1400z" />
<glyph unicode="&#x2018;" horiz-adv-x="634" d="M188 885q0 170 104.5 305t289.5 186l41 -139q-94 -33 -162 -100.5t-88 -141.5h12q72 0 118 -38.5t46 -104.5q0 -78 -53.5 -133t-139.5 -55q-78 0 -123 58.5t-45 162.5z" />
<glyph unicode="&#x2019;" horiz-adv-x="634" d="M217 852q94 33 161.5 100.5t88.5 141.5h-12q-72 0 -118 38.5t-46 104.5q0 78 53 133t139 55q78 0 123 -58t45 -163q0 -170 -104.5 -305t-288.5 -186z" />
<glyph unicode="&#x201a;" horiz-adv-x="634" d="M12 -193q94 33 162 100.5t88 141.5h-12q-72 0 -118 39t-46 105q0 78 53.5 133t139.5 55q78 0 122.5 -58.5t44.5 -162.5q0 -170 -104 -305.5t-289 -186.5z" />
<glyph unicode="&#x201c;" horiz-adv-x="1126" d="M188 885q0 170 104.5 305t289.5 186l41 -139q-94 -33 -162 -100.5t-88 -141.5h12q72 0 118 -38.5t46 -104.5q0 -78 -53.5 -133t-139.5 -55q-78 0 -123 58.5t-45 162.5zM680 885q0 170 104.5 305t288.5 186l41 -139q-94 -33 -161.5 -100.5t-88.5 -141.5h13 q72 0 117.5 -38.5t45.5 -104.5q0 -78 -53 -133t-139 -55q-78 0 -123 58.5t-45 162.5z" />
<glyph unicode="&#x201d;" horiz-adv-x="1126" d="M217 852q94 33 161.5 100.5t88.5 141.5h-12q-72 0 -118 38.5t-46 104.5q0 78 53 133t139 55q78 0 123 -58t45 -163q0 -170 -104.5 -305t-288.5 -186zM709 852q94 33 161.5 100.5t87.5 141.5h-12q-72 0 -118 38.5t-46 104.5q0 78 53.5 133t139.5 55q78 0 123 -58t45 -163 q0 -170 -104.5 -305t-288.5 -186z" />
<glyph unicode="&#x201e;" horiz-adv-x="921" d="M12 -193q94 33 162 100.5t88 141.5h-12q-72 0 -118 39t-46 105q0 78 53.5 133t139.5 55q78 0 122.5 -58.5t44.5 -162.5q0 -170 -104 -305.5t-289 -186.5zM504 -193q94 33 161.5 100.5t88.5 141.5h-13q-72 0 -117.5 39t-45.5 105q0 78 53 133t139 55q78 0 123 -58.5 t45 -162.5q0 -170 -104.5 -305.5t-288.5 -186.5z" />
<glyph unicode="&#x2022;" horiz-adv-x="704" d="M78 504q0 123 85 223t214 100q109 0 179.5 -72.5t70.5 -185.5q0 -123 -85 -223t-214 -100q-109 0 -179.5 72.5t-70.5 185.5z" />
<glyph unicode="&#x2026;" horiz-adv-x="2011" d="M131 147q0 88 64.5 159t160.5 71q74 0 119 -49t45 -123q0 -90 -63.5 -160t-161.5 -70q-74 0 -119 47t-45 125zM778 147q0 88 64.5 159t161.5 71q74 0 118.5 -49t44.5 -123q0 -90 -63.5 -160t-161.5 -70q-74 0 -119 47t-45 125zM1425 147q0 88 64.5 159t161.5 71 q74 0 119 -49t45 -123q0 -90 -63.5 -160t-162.5 -70q-74 0 -119 47t-45 125z" />
<glyph unicode="&#x202f;" horiz-adv-x="368" />
<glyph unicode="&#x2039;" horiz-adv-x="573" d="M82 418l41 229l311 279l98 -107l-266 -307l156 -311l-127 -82z" />
<glyph unicode="&#x203a;" horiz-adv-x="573" d="M57 225l267 307l-156 312l127 82l213 -303l-41 -226l-311 -278z" />
<glyph unicode="&#x205f;" horiz-adv-x="460" />
<glyph unicode="&#x20ac;" d="M29 446l32 152l99 8q8 70 14 103h-92l33 151l104 8q82 221 246 348t366 127q197 0 316 -159l-193 -197q-66 94 -155 94q-166 0 -254 -209h24h389l-32 -163h-426q-8 -45 -13 -99h29h311l-32 -164h-308q23 -209 185 -208q90 0 200 69l111 -192q-176 -139 -381 -140 q-201 0 -317.5 122t-126.5 349h-129z" />
<glyph unicode="&#x2122;" horiz-adv-x="1368" d="M143 1196l37 188h537l-37 -188h-160l-90 -459h-209l90 459h-168zM672 737l123 647h233l41 -176l12 -139h9l57 139l110 176h238l-123 -647h-205l37 181l90 262h-8l-201 -349h-98l-65 349h-9l-8 -262l-37 -181h-196z" />
<glyph unicode="&#xe000;" horiz-adv-x="1025" d="M0 1025h1025v-1025h-1025v1025z" />
<glyph unicode="&#xfb01;" horiz-adv-x="1269" d="M70 0l155 770h-131l49 242l133 10l11 55q35 176 138 287t284 111q125 0 233 -58l-102 -229q-47 29 -95 29q-53 0 -84.5 -35t-46.5 -117l-8 -41h164l-49 -254h-166l-158 -770h-327zM721 0l205 1024h327l-204 -1024h-328zM971 1307q0 74 57 129t139 55q70 0 121 -41 t51 -111q0 -80 -56 -132t-140 -52q-70 0 -121 40t-51 112z" />
<glyph unicode="&#xfb02;" horiz-adv-x="1269" d="M70 0l155 770h-131l49 242l133 10l11 55q35 176 138 287t284 111q125 0 233 -58l-102 -229q-47 29 -95 29q-53 0 -84.5 -35t-46.5 -117l-8 -41h164l-49 -254h-166l-158 -770h-327zM721 0l291 1454h327l-290 -1454h-328z" />
<glyph unicode="&#xfb03;" horiz-adv-x="1974" d="M1425 0l205 1024h328l-205 -1024h-328zM1675 1307q0 74 57.5 129t139.5 55q70 0 121 -41t51 -111q0 -80 -56.5 -132t-140.5 -52q-70 0 -121 40t-51 112zM775 0l155 770h-131l49 242l133 10l11 55q35 176 138 287t284 111q125 0 233 -58l-102 -229q-47 29 -95 29 q-53 0 -84.5 -35t-46.5 -117l-8 -41h164l-49 -254h-166l-158 -770h-327zM70 0l155 770h-131l49 242l133 10l11 55q35 176 138 287t284 111q125 0 233 -58l-102 -229q-47 29 -95 29q-53 0 -84.5 -35t-46.5 -117l-8 -41h164l-49 -254h-166l-158 -770h-327z" />
<glyph unicode="&#xfb04;" horiz-adv-x="1974" d="M1425 0l291 1454h328l-291 -1454h-328zM775 0l155 770h-131l49 242l133 10l11 55q35 176 138 287t284 111q125 0 233 -58l-102 -229q-47 29 -95 29q-53 0 -84.5 -35t-46.5 -117l-8 -41h164l-49 -254h-166l-158 -770h-327zM70 0l155 770h-131l49 242l133 10l11 55 q35 176 138 287t284 111q125 0 233 -58l-102 -229q-47 29 -95 29q-53 0 -84.5 -35t-46.5 -117l-8 -41h164l-49 -254h-166l-158 -770h-327z" />
</font>
</defs>
</svg>
