<?xml version="1.0" encoding="utf-8"?>
<!-- Generator: Adobe Illustrator 15.1.0, SVG Export Plug-In . SVG Version: 6.00 Build 0)  -->
<!DOCTYPE svg PUBLIC "-//W3C//DTD SVG 1.1//EN" "http://www.w3.org/Graphics/SVG/1.1/DTD/svg11.dtd">
<svg version="1.1" id="Layer_1" xmlns="http://www.w3.org/2000/svg" xmlns:xlink="http://www.w3.org/1999/xlink" x="0px" y="0px"
	 width="30px" height="320px" viewBox="0 0 30 320" enable-background="new 0 0 30 320" xml:space="preserve">
<g>
	<path fill="#FFFFFF" d="M21.723,135.374c-0.084,0.929-0.354,1.813-0.783,2.629c-0.026,0.045-2.563,3.597-2.563,6.44l-0.087,0.842
		c-0.137,0.561-0.423,0.846-0.853,0.846h-4.875c-0.427,0-0.714-0.285-0.852-0.846l-0.086-0.842c0-2.844-2.538-6.395-2.543-6.44
		c-0.449-0.816-0.721-1.701-0.805-2.629l-0.028-0.621c0-1.803,0.701-3.499,1.977-4.774C11.501,128.703,13.195,128,15,128
		c0.648,0,1.29,0.092,1.906,0.272c1.078,0.317,2.07,0.908,2.869,1.707c1.274,1.275,1.977,2.97,1.977,4.774L21.723,135.374z"/>
	<rect x="12.255" y="148.299" fill="#FFFFFF" width="5.49" height="1.72"/>
	<rect x="13.448" y="151.028" fill="#FFFFFF" width="3.104" height="0.972"/>
</g>
<g>
	<g>
		<g>
			<g>
				<path fill="#CCCCCC" d="M12.562,144.632c-0.082,0-0.252,0-0.366-0.465l-0.074-0.773c0.002-2.179-1.383-4.765-2.545-6.541
					l-0.058-0.09c-0.417-0.757-0.667-1.576-0.745-2.433l-0.027-0.599c0-1.647,0.65-3.217,1.831-4.397
					C11.76,128.151,13.33,127.5,15,127.5c0.601,0,1.194,0.085,1.766,0.252c0.997,0.293,1.916,0.84,2.656,1.58
					c1.18,1.181,1.83,2.751,1.83,4.42l-0.028,0.598c-0.075,0.825-0.32,1.646-0.727,2.42c-0.607,0.877-2.621,4.015-2.621,6.673
					l-0.084,0.791c-0.102,0.397-0.273,0.397-0.355,0.397H12.562z"/>
				<path fill="#B3B3B3" d="M15,128c0.553,0,1.1,0.078,1.624,0.232c0.918,0.27,1.763,0.773,2.444,1.454
					c1.086,1.086,1.684,2.531,1.685,4.02l-0.026,0.578c-0.068,0.762-0.286,1.504-0.646,2.205c-0.651,0.951-2.678,4.134-2.704,6.9
					l-0.073,0.715c-0.003,0.01-0.006,0.019-0.009,0.027h-4.589c-0.002-0.008-0.005-0.018-0.008-0.027l-0.073-0.714
					c-0.021-2.34-1.438-4.993-2.628-6.812l-0.044-0.068c-0.38-0.693-0.608-1.442-0.676-2.182l-0.027-0.576
					c0-1.537,0.598-2.981,1.684-4.067C12.019,128.599,13.464,128,15,128 M15,127c-1.805,0-3.499,0.703-4.775,1.979
					c-1.275,1.275-1.977,2.971-1.977,4.774l0.028,0.621c0.084,0.929,0.355,1.813,0.805,2.629c0.005,0.045,2.543,3.597,2.543,6.44
					l0.086,0.842c0.138,0.561,0.425,0.846,0.852,0.846h4.875c0.43,0,0.716-0.285,0.853-0.846l0.087-0.842
					c0-2.844,2.537-6.395,2.563-6.44c0.429-0.816,0.699-1.701,0.783-2.629l0.029-0.621c0-1.804-0.702-3.499-1.977-4.774
					c-0.799-0.799-1.791-1.389-2.869-1.707C16.29,127.092,15.648,127,15,127L15,127z"/>
			</g>
			<g>
				<rect x="12.755" y="147.799" fill="#CCCCCC" width="4.49" height="0.72"/>
				<polygon fill="#B3B3B3" points="17.745,147.299 12.255,147.299 12.255,149.019 17.745,149.019 17.745,147.299 				"/>
			</g>
			<g>
				<rect x="13.448" y="150.028" fill="#CCCCCC" width="3.104" height="0.972"/>
				<polygon fill="#B3B3B3" points="16.552,150.028 13.448,150.028 13.448,151 16.552,151 16.552,150.028 				"/>
			</g>
		</g>
	</g>
</g>
<g>
	<polygon fill="#FFFFFF" points="25,294 25,291 17,291 17,294 13,294 13,291 5,291 5,294 3,294 3,309 27,309 27,294 	"/>
</g>
<g>
	<polygon fill="#CCCCCC" points="3,308 3,294 5,294 5,291 12,291 12,294 17,294 17,291 24,291 24,294 26,294 26,308 	"/>
	<path fill="#B3B3B3" d="M24,291v2v1h1h1v13H4v-13h1h1v-1v-2h6v2v1h1h4h1v-1v-2H24 M25,290h-8v3h-4v-3H5v3H3v15h24v-15h-2V290
		L25,290z"/>
</g>
<path opacity="0.1" d="M14.987,32.5c-0.045,0-0.091-0.006-0.135-0.019l-8.576-2.399c-0.2-0.056-0.345-0.23-0.363-0.438L4.002,8.044
	C3.99,7.904,4.037,8.016,4.131,7.913C4.226,7.809,4.36,8,4.5,8h21c0.141,0,0.274-0.191,0.369-0.087s0.142,0.117,0.129,0.256
	l-1.913,21.535c-0.019,0.208-0.163,0.351-0.363,0.406l-8.6,2.387C15.078,32.509,15.033,32.5,14.987,32.5z"/>
<path opacity="0.1" d="M14.987,33c-0.091,0-0.181-0.012-0.27-0.037l-8.576-2.399c-0.4-0.112-0.69-0.46-0.727-0.875L3.504,8.088
	C3.479,7.809,3.573,7.532,3.762,7.325S4.219,7,4.5,7h21c0.28,0,0.548,0.118,0.737,0.325s0.283,0.484,0.259,0.764l-1.913,21.598
	c-0.037,0.415-0.326,0.763-0.727,0.875l-8.6,2.402C15.168,32.988,15.078,33,14.987,33z"/>
<polygon opacity="0.1" points="6.411,29.601 4.5,8 25.5,8 23.587,29.598 14.987,32 "/>
<g>
	<polygon fill="#E44D26" points="6.411,28.601 4.5,7 25.5,7 23.587,28.598 14.987,31 	"/>
	<polygon fill="#F16529" points="15.001,29.164 21.949,27.223 23.585,8.767 15.001,8.767 	"/>
	<polygon fill="#EBEBEB" points="15.001,16.777 11.521,16.777 11.281,14.064 15.001,14.064 15.001,11.415 14.991,11.415 
		8.408,11.415 8.472,12.126 9.117,19.427 15.001,19.427 	"/>
	<polygon fill="#EBEBEB" points="15.001,23.658 14.989,23.661 12.061,22.864 11.874,20.752 10.451,20.752 9.235,20.752 
		9.604,24.911 14.988,26.418 15.001,26.414 	"/>
	<polygon fill="#FFFFFF" points="14.991,16.777 14.991,19.427 18.228,19.427 17.924,22.862 14.991,23.66 14.991,26.416 
		20.381,24.911 20.42,24.464 21.038,17.489 21.103,16.777 20.394,16.777 	"/>
	<polygon fill="#FFFFFF" points="14.991,11.415 14.991,13.061 14.991,14.059 14.991,14.064 21.333,14.064 21.333,14.064 
		21.342,14.064 21.395,13.47 21.514,12.126 21.577,11.415 	"/>
</g>
<g>
	<polygon fill="#FFFFFF" points="6.411,69 4,48 26,48 24,69 15,72 	"/>
	<g>
		<polygon fill="#CCCCCC" points="6.872,67.631 4.561,47.5 25.45,47.5 23.533,67.628 15.004,70.472 		"/>
		<path fill="#B3B3B3" d="M24.9,48l-1.834,19.257l-8.059,2.686l-7.674-2.681L5.122,48H24.9 M26,47H4l2.411,21L15,71l9-3L26,47L26,47
			z"/>
	</g>
	<polygon fill="#B3B3B3" points="15.001,56.777 11.521,56.777 11.281,54.064 15.001,54.064 15.001,51.415 14.991,51.415 
		8.408,51.415 8.472,52.126 9.117,59.427 15.001,59.427 	"/>
	<polygon fill="#B3B3B3" points="15.001,63.658 14.989,63.661 12.061,62.864 11.874,60.752 10.451,60.752 9.235,60.752 
		9.604,64.911 14.988,66.418 15.001,66.414 	"/>
	<polygon fill="#B3B3B3" points="14.991,56.777 14.991,59.427 18.228,59.427 17.924,62.862 14.991,63.66 14.991,66.416 
		20.381,64.911 20.42,64.464 21.038,57.489 21.103,56.777 20.394,56.777 	"/>
	<polygon fill="#B3B3B3" points="14.991,51.415 14.991,53.061 14.991,54.059 14.991,54.064 21.333,54.064 21.333,54.064 
		21.342,54.064 21.395,53.47 21.514,52.126 21.577,51.415 	"/>
</g>
<path opacity="0.08" d="M20.483,89.271c-0.917-0.917-2.056-1.594-3.295-1.959c-0.709-0.208-1.445-0.313-2.188-0.313
	c-2.071,0-4.018,0.807-5.482,2.271c-1.463,1.463-2.27,3.409-2.269,5.525l0.031,0.661c0.096,1.059,0.407,2.072,0.925,3.013
	c0.035,0.062,0.074,0.123,0.118,0.189c1.484,2.259,2.301,4.302,2.301,5.753c0,0.035,0.002,0.07,0.005,0.105l0.086,0.809
	c0.005,0.045,0.013,0.089,0.023,0.133c0.341,1.392,1.388,1.542,1.823,1.542h-0.562c-0.552,0-1,0.447-1,1v2c0,0.553,0.448,1,1,1v1
	c0,0.553,0.448,1,1,1h4c0.553,0,1-0.447,1-1v-1c0.553,0,1-0.447,1-1v-2c0-0.553-0.447-1-1-1h-0.563c0.436,0,1.485-0.15,1.824-1.544
	c0.01-0.041,0.018-0.083,0.022-0.125l0.087-0.776c0.004-0.037,0.006-0.074,0.006-0.111c0-2.283,1.972-5.269,2.367-5.844
	c0.022-0.033,0.063-0.096,0.082-0.131c0.498-0.95,0.799-1.96,0.896-3.047l0.03-0.668C22.753,92.683,21.947,90.736,20.483,89.271z"/>
<path opacity="0.08" d="M18.001,107.5h-6c-0.276,0-0.5,0.224-0.5,0.5v2c0,0.276,0.224,0.5,0.5,0.5h1c-0.276,0-0.5,0.224-0.5,0.5v1
	c0,0.276,0.224,0.5,0.5,0.5h4c0.276,0,0.5-0.224,0.5-0.5v-1c0-0.276-0.224-0.5-0.5-0.5h1c0.276,0,0.5-0.224,0.5-0.5v-2
	C18.501,107.724,18.277,107.5,18.001,107.5z"/>
<path opacity="0.08" d="M20.13,89.625c-0.858-0.858-1.924-1.492-3.082-1.833c-0.663-0.194-1.352-0.293-2.047-0.293
	c-1.938,0-3.759,0.754-5.129,2.125c-1.369,1.369-2.123,3.189-2.123,5.148l0.03,0.639c0.089,0.989,0.38,1.937,0.865,2.817v0
	c0.023,0.043,0.055,0.091,0.098,0.156c1.537,2.339,2.383,4.48,2.386,6.081l0.097,0.875c0.235,0.96,0.857,1.161,1.337,1.161h4.875
	c0.481,0,1.104-0.201,1.35-1.225l0.09-0.832c0-2.431,2.045-5.53,2.506-6.208c0.468-0.891,0.75-1.839,0.84-2.838l0.03-0.645
	C22.253,92.816,21.499,90.995,20.13,89.625z"/>
<rect x="12.001" y="108" opacity="0.08" width="6" height="2"/>
<rect x="13.001" y="111" opacity="0.08" width="4" height="1"/>
<path opacity="0.08" d="M19.776,89.979c-0.799-0.799-1.791-1.389-2.869-1.707c-0.616-0.181-1.258-0.273-1.906-0.273
	c-1.805,0-3.499,0.702-4.775,1.978c-1.275,1.275-1.977,2.969-1.977,4.772l0.028,0.617c0.084,0.929,0.355,1.805,0.805,2.621
	c0.005,0.045,2.543,3.581,2.543,6.424l0.086,0.809c0.138,0.562,0.425,0.78,0.852,0.78h4.875c0.43,0,0.716-0.219,0.853-0.78
	l0.087-0.776c0-2.844,2.537-6.395,2.563-6.44c0.429-0.816,0.699-1.701,0.783-2.629l0.029-0.621
	C21.753,92.949,21.051,91.254,19.776,89.979z"/>
<g>
	<g>
		<g>
			<g>
				
					<radialGradient id="SVGID_1_" cx="15.1904" cy="94.917" r="7.6548" gradientTransform="matrix(-4.371139e-08 1 -0.7644 -3.341214e-08 87.7431 79.7266)" gradientUnits="userSpaceOnUse">
					<stop  offset="0" style="stop-color:#F8FB85"/>
					<stop  offset="0.1755" style="stop-color:#F8F781"/>
					<stop  offset="0.3678" style="stop-color:#F8E975"/>
					<stop  offset="0.568" style="stop-color:#F8D360"/>
					<stop  offset="0.7738" style="stop-color:#F7B544"/>
					<stop  offset="0.982" style="stop-color:#F78E1F"/>
					<stop  offset="1" style="stop-color:#F78A1C"/>
				</radialGradient>
				<path fill="url(#SVGID_1_)" d="M12.562,104.882c-0.192,0-0.464-0.068-0.609-0.656l-0.08-0.808
					c0.001-1.667-0.889-3.959-2.505-6.43l-0.066-0.103c-0.435-0.791-0.695-1.643-0.776-2.535l-0.028-0.61
					c0-1.726,0.676-3.358,1.904-4.586c1.229-1.229,2.862-1.906,4.599-1.906c0.625,0,1.242,0.088,1.836,0.262
					c1.038,0.306,1.993,0.874,2.763,1.644c1.228,1.229,1.903,2.861,1.903,4.597l-0.029,0.609c-0.078,0.869-0.333,1.722-0.755,2.525
					c-0.611,0.888-2.592,3.971-2.592,6.557l-0.086,0.816c-0.137,0.554-0.41,0.622-0.604,0.622H12.562z"/>
				<path fill="#F8FB85" d="M15.001,87.5c0.601,0,1.194,0.085,1.765,0.252c0.998,0.294,1.917,0.84,2.657,1.581
					c1.18,1.181,1.83,2.751,1.831,4.397l-0.028,0.6c-0.076,0.846-0.321,1.668-0.718,2.421c-0.615,0.896-2.617,4.016-2.631,6.667
					l-0.081,0.781c-0.112,0.433-0.278,0.433-0.358,0.433h-4.875c-0.08,0-0.244,0-0.358-0.434l-0.08-0.78
					c-0.011-2.225-1.39-4.797-2.547-6.566l-0.056-0.086L9.52,96.762c-0.417-0.757-0.667-1.576-0.743-2.411l-0.028-0.598
					c0-1.67,0.65-3.24,1.83-4.42C11.761,88.151,13.331,87.5,15.001,87.5 M15.001,87c-1.805,0-3.499,0.703-4.775,1.979
					c-1.275,1.275-1.977,2.971-1.977,4.774l0.028,0.621c0.084,0.929,0.355,1.813,0.805,2.629c0.005,0.045,2.543,3.597,2.543,6.44
					l0.086,0.842c0.138,0.561,0.425,0.846,0.852,0.846h4.875c0.43,0,0.716-0.285,0.853-0.846l0.087-0.842
					c0-2.844,2.537-6.395,2.563-6.44c0.429-0.816,0.699-1.701,0.783-2.629l0.029-0.621c0-1.804-0.702-3.499-1.977-4.774
					c-0.799-0.799-1.791-1.389-2.869-1.707C16.291,87.092,15.649,87,15.001,87L15.001,87z"/>
			</g>
			<rect x="12.256" y="107.299" fill="#666666" width="5.49" height="1.72"/>
			<rect x="13.449" y="110.028" fill="#666666" width="3.104" height="0.972"/>
		</g>
	</g>
</g>
<g>
	<g>
		<path fill="#FFFFFF" d="M23,215c0-1.656-1.343-3-3-3H10c-1.657,0-3,1.344-3,3v10c0,1.656,1.343,3,3,3h10c1.657,0,3-1.344,3-3V215z
			"/>
	</g>
	<g>
		<path fill="#CCCCCC" d="M22,224.5c0,1.381-1.119,2.5-2.5,2.5h-10c-1.381,0-2.5-1.119-2.5-2.5v-10c0-1.381,1.119-2.5,2.5-2.5h10
			c1.381,0,2.5,1.119,2.5,2.5V224.5z"/>
		<path fill="#B3B3B3" d="M20,212c1.103,0,2,0.897,2,2v10c0,1.103-0.897,2-2,2H10c-1.103,0-2-0.897-2-2v-10c0-1.103,0.897-2,2-2H20
			 M20,211H10c-1.657,0-3,1.344-3,3v10c0,1.656,1.343,3,3,3h10c1.657,0,3-1.344,3-3v-10C23,212.344,21.657,211,20,211L20,211z"/>
	</g>
	<polygon fill="#B3B3B3" points="16,216 18,216 18,222 16,222 16,224 20,224 20,214 16,214 	"/>
	<polygon fill="#B3B3B3" points="10,224 14,224 14,222 12,222 12,216 14,216 14,214 10,214 	"/>
</g>
<path opacity="0.1" fill="#4D4D4D" d="M10,189c-2.206,0-4-1.794-4-4v-10c0-2.206,1.794-4,4-4h10c2.206,0,4,1.794,4,4v10
	c0,2.206-1.794,4-4,4H10z"/>
<path opacity="0.1" fill="#4D4D4D" d="M10,188.5c-1.93,0-3.5-1.57-3.5-3.5v-10c0-1.93,1.57-3.5,3.5-3.5h10c1.93,0,3.5,1.57,3.5,3.5
	v10c0,1.93-1.57,3.5-3.5,3.5H10z"/>
<path opacity="0.1" fill="#4D4D4D" d="M20,172H10c-1.65,0-3,1.35-3,3v10c0,1.65,1.35,3,3,3h10c1.65,0,3-1.35,3-3v-10
	C23,173.35,21.65,172,20,172z"/>
<g>
	<g>
		<linearGradient id="SVGID_2_" gradientUnits="userSpaceOnUse" x1="14.9995" y1="171" x2="14.9995" y2="187">
			<stop  offset="0" style="stop-color:#29ABE2"/>
			<stop  offset="0.4757" style="stop-color:#28A9E1"/>
			<stop  offset="0.6639" style="stop-color:#23A2DC"/>
			<stop  offset="0.8012" style="stop-color:#1A96D4"/>
			<stop  offset="0.913" style="stop-color:#0E85C9"/>
			<stop  offset="1" style="stop-color:#0071BC"/>
		</linearGradient>
		<path fill="url(#SVGID_2_)" d="M23,184c0,1.65-1.35,3-3,3H10c-1.65,0-3-1.35-3-3v-10c0-1.65,1.35-3,3-3h10c1.65,0,3,1.35,3,3V184z
			"/>
	</g>
	<g>
		<path fill="#FFFFFF" d="M21,183c0,1.1-0.9,2-2,2h-8c-1.1,0-2-0.9-2-2v-8c0-1.1,0.9-2,2-2h8c1.1,0,2,0.9,2,2V183z"/>
	</g>
	<g>
		<path fill="#4D4D4D" d="M20,174v10h-4v-2h2v-6h-2v-2H20z"/>
	</g>
	<g>
		<path fill="#4D4D4D" d="M14,174v2h-2v6h2v2h-4v-10H14z"/>
	</g>
</g>
<g>
	<path opacity="0.1" d="M3,271c-0.552,0-1-0.447-1-1v-16c0-0.553,0.448-1,1-1h1v-2c0-0.553,0.448-1,1-1h8c0.552,0,1,0.447,1,1v2h2
		v-2c0-0.553,0.447-1,1-1h8c0.553,0,1,0.447,1,1v2h1c0.553,0,1,0.447,1,1v16c0,0.553-0.447,1-1,1H3z"/>
	<path opacity="0.1" d="M3,270.5c-0.276,0-0.5-0.224-0.5-0.5v-16c0-0.276,0.224-0.5,0.5-0.5h1.5V251c0-0.276,0.224-0.5,0.5-0.5h8
		c0.276,0,0.5,0.224,0.5,0.5v2.5h3V251c0-0.276,0.224-0.5,0.5-0.5h8c0.276,0,0.5,0.224,0.5,0.5v2.5H27c0.276,0,0.5,0.224,0.5,0.5v16
		c0,0.276-0.224,0.5-0.5,0.5H3z"/>
	<polygon opacity="0.1" points="25,254 25,251 17,251 17,254 13,254 13,251 5,251 5,254 3,254 3,270 27,270 27,254 	"/>
	<polygon fill="#C1272D" points="25,253 25,250 17,250 17,253 13,253 13,250 5,250 5,253 3,253 3,269 27,269 27,253 	"/>
	
		<linearGradient id="SVGID_3_" gradientUnits="userSpaceOnUse" x1="-459.3232" y1="251.5" x2="-451.3232" y2="251.5" gradientTransform="matrix(1 0 0 1 476.3232 0)">
		<stop  offset="0" style="stop-color:#000000;stop-opacity:0.1"/>
		<stop  offset="0.5" style="stop-color:#000000;stop-opacity:0"/>
		<stop  offset="1" style="stop-color:#000000;stop-opacity:0.2"/>
	</linearGradient>
	<rect x="17" y="250" fill="url(#SVGID_3_)" width="8" height="3"/>
	<rect x="17" y="252" opacity="0.1" width="8" height="1"/>
	
		<linearGradient id="SVGID_4_" gradientUnits="userSpaceOnUse" x1="62.6777" y1="251.5" x2="70.6777" y2="251.5" gradientTransform="matrix(-1 0 0 1 75.6777 0)">
		<stop  offset="0" style="stop-color:#000000;stop-opacity:0.1"/>
		<stop  offset="0.5" style="stop-color:#000000;stop-opacity:0"/>
		<stop  offset="1" style="stop-color:#000000;stop-opacity:0.2"/>
	</linearGradient>
	<rect x="5" y="250" fill="url(#SVGID_4_)" width="8" height="3"/>
	<rect x="5" y="252" opacity="0.1" width="8" height="1"/>
</g>
</svg>
