<?xml version="1.0" encoding="utf-8"?>
<!-- Generator: Adobe Illustrator 15.1.0, SVG Export Plug-In . SVG Version: 6.00 Build 0)  -->
<!DOCTYPE svg PUBLIC "-//W3C//DTD SVG 1.1//EN" "http://www.w3.org/Graphics/SVG/1.1/DTD/svg11.dtd">
<svg version="1.1" id="Layer_1" xmlns="http://www.w3.org/2000/svg" xmlns:xlink="http://www.w3.org/1999/xlink" x="0px" y="0px"
	 width="48px" height="240px" viewBox="0 0 48 240" enable-background="new 0 0 48 240" xml:space="preserve">
<g>
	<polygon fill="#4D4D4D" points="23.976,127.797 5,109.913 5,133 43,133 43,109.865 	"/>
	<polygon fill="#4D4D4D" points="41.673,107 6.273,107 23.973,123.797 	"/>
</g>
<g>
	<g>
		<g>
			<path fill="#4D4D4D" d="M35.076,156.617h-7.311v-9.256h-7.791v9.256h-7.312l11.207,13.578L35.076,156.617z M26.564,186.826
				c-0.137-0.364-0.214-0.759-0.258-1.108h-4.875c-0.043,0.35-0.121,0.744-0.257,1.109c-0.285,0.739-0.742,1.313-1.643,1.317v0.437
				h8.675v-0.437C27.307,188.141,26.85,187.566,26.564,186.826 M33.471,170.914H14.27c-0.32,0-0.58,0.259-0.58,0.579v12.617
				c0,0.32,0.259,0.58,0.58,0.58h19.201c0.32,0,0.579-0.26,0.579-0.58v-12.617C34.05,171.173,33.791,170.914,33.471,170.914
				 M31.232,181.873H16.507v-8.143h14.726V181.873z"/>
		</g>
	</g>
</g>
<path fill="#4D4D4D" d="M24,4C12.954,4,4,12.954,4,24s8.954,20,20,20s20-8.954,20-20S35.046,4,24,4z M19.945,38.229
	c-1.569,0-2.657-0.74-2.657-2.396c0-2.09,1.48-5.662,1.788-6.403l3.048-7.667c0.305-0.784-0.087-1.175-0.436-1.175
	c-1.611,0-3.704,3.79-4.485,3.79c-0.306,0-0.567-0.306-0.567-0.567c0-0.784,1.917-2.613,2.484-3.179
	c1.741-1.656,4.007-2.919,6.533-2.919c1.873,0,3.877,1.133,2.31,5.359l-3.138,8.494c-0.26,0.653-0.739,1.743-0.739,2.44
	c0,0.304,0.173,0.61,0.522,0.61c1.306,0,3.704-3.704,4.313-3.704c0.218,0,0.521,0.261,0.521,0.653
	C29.44,32.826,24.345,38.229,19.945,38.229z M27.438,16.143c-1.787,0-2.963-1.177-2.963-2.963c0-1.917,1.654-3.484,3.572-3.484
	c1.743,0,3.007,1.175,3.007,2.962C31.054,14.662,29.398,16.143,27.438,16.143z"/>
<g>
	<g>
		<g>
			<path fill="#4D4D4D" d="M22.613,223.688c2.561,0.002,5.128-1.001,7.062-2.937l0.307-0.307l-4.386-4.387l-0.307,0.306
				c-0.755,0.754-1.709,1.117-2.675,1.12c-1.011-0.004-1.977-0.368-2.73-1.12l-7.191-7.19c-0.752-0.755-1.116-1.716-1.12-2.709
				c0.003-0.983,0.367-1.942,1.119-2.697l0.307-0.306c0.754-0.753,1.714-1.116,2.703-1.12c0.989,0.004,1.948,0.367,2.703,1.12
				l2.957,2.957c1.211,1.212,3.175,1.212,4.386,0c1.211-1.211,1.211-3.175,0-4.387l-2.957-2.957
				c-1.949-1.952-4.534-2.94-7.089-2.937c-2.556-0.004-5.14,0.984-7.089,2.937l-0.306,0.306c-1.949,1.947-2.94,4.527-2.936,7.084
				c-0.004,2.555,0.981,5.143,2.937,7.096l7.191,7.19c1.961,1.963,4.555,2.938,7.101,2.938H22.613z"/>
			<path fill="#4D4D4D" d="M32.602,235.912c2.561,0.002,5.128-1.001,7.062-2.937l0.307-0.306c1.957-1.955,2.94-4.545,2.937-7.1
				c0.003-2.557-0.989-5.136-2.937-7.08l-7.191-7.191c-1.949-1.951-4.534-2.94-7.09-2.937c-2.003-0.003-4.024,0.604-5.744,1.807
				c-0.285,0.145-0.551,0.336-0.789,0.574l-0.556,0.556l-0.306,0.306l0,0l0,0l4.386,4.388h0l0.306-0.307
				c0.755-0.752,1.714-1.116,2.703-1.119c0.989,0.003,1.948,0.367,2.703,1.119l7.191,7.191c0.752,0.755,1.116,1.712,1.119,2.693
				c-0.004,0.996-0.367,1.958-1.119,2.713l-0.307,0.305c-0.755,0.754-1.709,1.117-2.675,1.12c-1.012-0.004-1.978-0.368-2.73-1.12
				l-3.099-3.098c-1.211-1.211-3.176-1.211-4.386,0c-1.211,1.211-1.211,3.175,0,4.387l3.099,3.099
				c1.96,1.963,4.555,2.937,7.101,2.937H32.602z"/>
		</g>
	</g>
</g>
<g>
	<path fill="#4D4D4D" d="M25.156,67.746c-0.067,0.18-0.111,0.364-0.13,0.552c-0.021,0.207-0.015,0.415,0.023,0.622
		c0.023,0.123,0.052,0.246,0.097,0.367c0.206,0.557,0.616,0.999,1.155,1.247c0.293,0.136,0.605,0.204,0.926,0.204
		c0.398,0,0.779-0.113,1.111-0.307c0.181-0.104,0.346-0.233,0.492-0.385c0.128-0.136,0.241-0.291,0.335-0.459
		c0.026-0.048,0.057-0.095,0.08-0.146c0,0,4.432-9.64,4.44-9.659c0.009-0.021,0.135-0.39,0.16-0.537
		c0.175-0.972-0.312-1.977-1.25-2.409c-0.293-0.135-0.605-0.202-0.926-0.202c-0.676,0-1.304,0.312-1.721,0.821
		c-0.117,0.143-0.22,0.299-0.299,0.472c0.001-0.001,0.001-0.002,0.001-0.003l-0.001,0.004c0,0.001-0.001,0.001-0.002,0.002
		l-4.438,9.657C25.188,67.64,25.175,67.693,25.156,67.746z"/>
	<path fill="#4D4D4D" d="M27.154,57.132c0.094,0.095,0.154,0.218,0.2,0.353c0.104,0.319,0.087,0.729,0,1.145
		c-0.045,0.211-0.105,0.421-0.177,0.619c-0.027,0.077-0.056,0.154-0.086,0.226c-0.045,0.11-0.104,0.238-0.174,0.374
		c-0.602,1.189-2.149,3.189-5.784,3.313c-0.002,0-0.005,0.001-0.007,0.001l-1.515,3.154c0.947,0.224,2.631,0.752,4.091,1.892
		l4.938-10.743c0.08-0.176,0.127-0.356,0.16-0.538c0.172-0.973-0.312-1.978-1.25-2.409c-0.294-0.134-0.605-0.203-0.927-0.203
		c-0.674,0-1.302,0.312-1.718,0.821c-0.119,0.144-0.221,0.3-0.302,0.474c0.001-0.002,0.001-0.003,0.002-0.004l-0.002,0.004
		l-0.001,0.002l-0.624,1.358h3.012L27.154,57.132z"/>
	<path fill="#4D4D4D" d="M21.308,56.97h0.541h0.907l0.835-1.819c0.081-0.175,0.128-0.356,0.16-0.538
		c0.173-0.972-0.313-1.978-1.25-2.408C22.206,52.069,21.895,52,21.574,52c-0.674,0-1.303,0.312-1.719,0.821
		c-0.117,0.144-0.221,0.301-0.301,0.475c0,0.001-0.002,0.001-0.002,0.002l-1.685,3.672h1.846H21.308z"/>
	<polygon fill="#4D4D4D" points="23.596,55.145 23.596,55.142 23.596,55.145 23.593,55.149 	"/>
	<polygon fill="#4D4D4D" points="33.184,63.535 33.184,63.535 33.184,63.536 	"/>
	<polygon fill="#4D4D4D" points="28.943,70.101 28.944,70.099 28.943,70.1 	"/>
	<polygon fill="#4D4D4D" points="28.945,70.097 28.944,70.098 28.944,70.098 	"/>
	<path fill="#4D4D4D" d="M37.035,65.311c0-0.25-0.139-0.766-0.145-0.771c-0.313-0.847-1.122-1.452-2.076-1.452
		c-0.2,0-0.393,0.035-0.576,0.086c-0.321,0.086-0.612,0.242-0.857,0.452c-0.291,0.247-0.514,0.562-0.646,0.926
		c-0.002,0.005-0.003,0.011-0.005,0.016l-2.776,5.996h0.001c-0.082,0.179-0.123,0.364-0.133,0.55c-0.004,0.067,0,0.133,0.006,0.197
		c0.042,0.522,0.355,1.008,0.863,1.241c0.242,0.112,0.503,0.145,0.757,0.119c0.331-0.034,0.65-0.173,0.896-0.398
		c0.118-0.108,0.215-0.24,0.292-0.385l1.442-3.115l1.008,0.466l0.101-0.218l-1.497,3.258l-0.003,0.005
		c-0.024,0.054-0.054,0.104-0.084,0.154c-0.062,0.111-0.131,0.219-0.207,0.319c-0.156,0.208-0.344,0.387-0.552,0.537
		c-0.402,0.293-0.886,0.474-1.396,0.499c-0.046,0.003-0.088,0.008-0.132,0.008l0,0c-0.378,0-0.744-0.08-1.089-0.239
		c-0.518-0.238-0.914-0.626-1.176-1.087c-0.125-0.223-0.215-0.464-0.27-0.713c-0.022-0.094-0.039-0.187-0.05-0.281
		c-0.173,0.088-0.35,0.164-0.535,0.221c-0.311,0.096-0.637,0.147-0.97,0.147c0,0,0,0-0.001,0c-0.386,0-0.644-0.068-1.004-0.198
		c0.205,0.67,0.333,1.411,0.333,2.252v4.21h-1.111v-4.21c0-1.009-0.315-1.862-0.64-2.592c-1.518-3.418-5.852-4.009-6.072-4.036
		l-0.766-0.097l2.458-5.121h0.35c0.093,0,0.173-0.011,0.261-0.014c0.215-0.006,0.43-0.013,0.627-0.033
		c2.119-0.22,3.281-1.208,3.896-2.054c0.053-0.073,0.099-0.147,0.146-0.22c0.109-0.17,0.199-0.336,0.276-0.499
		c0.087-0.186,0.156-0.362,0.207-0.526c0.078-0.25,0.12-0.469,0.132-0.63h-9.191c-1.1,0-2.062,0.583-2.6,1.456
		c-0.126,0.204-0.229,0.422-0.305,0.654l-2.887,6.191l-0.148,0.318c-0.142,0.353-0.223,0.738-0.223,1.142
		c0,0.554,0.149,1.07,0.405,1.519l0.312,0.447l7.096,9.396v12.794h13.332V92h1.11l0.001-9.443l3.529-7.184
		c0.049-0.089,0.097-0.178,0.134-0.274c0.093-0.237,0.147-0.493,0.15-0.763C37.036,74.322,37.035,65.311,37.035,65.311z"/>
</g>
</svg>
