<?xml version="1.0" encoding="utf-8"?>
<!-- Generator: Adobe Illustrator 16.0.0, SVG Export Plug-In . SVG Version: 6.00 Build 0)  -->
<!DOCTYPE svg PUBLIC "-//W3C//DTD SVG 1.1//EN" "http://www.w3.org/Graphics/SVG/1.1/DTD/svg11.dtd">
<svg version="1.1" id="Layer_1" xmlns="http://www.w3.org/2000/svg" xmlns:xlink="http://www.w3.org/1999/xlink" x="0px" y="0px"
	 width="301px" height="205px" viewBox="0 0 301 205" enable-background="new 0 0 301 205" xml:space="preserve">
<g>
	<path fill="#62E3FF" d="M214.791,181.482c0,12.495-28.731,22.625-64.791,22.625s-65.292-10.13-65.292-22.625
		c0-12.496,29.232-22.625,65.292-22.625S214.791,168.986,214.791,181.482z"/>
	<g>
		<path fill="#43AFFF" d="M161.916,203.73c0-4.344,0-8.738,0-11.927c0-7.667,5.375-10,5.375-12.833c0-4.875-9.81,0.463-12.832,3.5
			c-4.605,4.625-4.084,6.437-3.973,14.188c0.029,2.006,0.037,4.651,0.034,7.448C154.415,204.096,158.223,203.968,161.916,203.73z"/>
		<path fill="#43AFFF" d="M131.977,203.236c-0.025-6.585-0.061-15.467-0.061-18.953c0-6.688-9.5-10.5-14.062-10.5
			c-2.312,0-5.188,0.119-5.188,1.341c0,3.097,8.688,4.909,8.688,11.347c0,3.546-0.05,10.636-0.087,15.334
			C124.68,202.385,128.26,202.867,131.977,203.236z"/>
		<path fill="#43AFFF" d="M176.5,186.22c0.084-6.084,9-9.001,8.666-10.959c-0.332-1.958-7.463-1.639-10.793-0.479
			c-9.443,3.292-8.498,11.146-8.498,11.146l-0.254,17.524c3.826-0.327,7.516-0.771,11.033-1.322
			C176.609,191.454,176.457,189.399,176.5,186.22z"/>
		<path fill="#43AFFF" d="M145.641,186.159c-3.787-8.376-15.225-11.251-15.225-7.438c0,2.562,2.312,1.75,3.875,7.5
			c0.63,2.32,0.972,9.946,1.157,17.324c3.911,0.309,7.957,0.494,12.1,0.547C147.454,196.802,147.001,189.187,145.641,186.159z"/>
	</g>
	<path fill="#62E3FF" d="M75.458,123.648c-4.026,0-0.018-6.323,0-9.166C75.527,117.403,79.485,123.648,75.458,123.648z"/>
	<g id="XMLID_1_">
		<g>
			<path fill="#FFC09F" d="M174.627,52.858c20.135,0,25.25,14.25,25.25,25.25c0,14.995-7.545,25.865-26.32,28.675
				c-2.305,0.345-4.78,0.57-7.43,0.665c-11.335,0.41-22.665,0.355-32-0.005c-1.355-0.05-2.685-0.135-3.99-0.25
				c-19.595-1.715-33.51-10.575-33.51-30.42c0-7.515,5.08-23.915,25.58-23.915c2.03,0,15.285,1.25,28.085,1.25
				C161.657,54.108,173.152,52.858,174.627,52.858z"/>
			<path d="M176.502,161.483c0.08,6.085,9,9,8.665,10.96c-0.335,1.955-7.465,1.64-10.795,0.475
				c-9.44-3.29-8.495-11.145-8.495-11.145l-0.315-21.56c0,0,0.645-11.605-3.645-11.605c0,2.335,0,26.945,0,35.29
				c0,7.67,5.375,10,5.375,12.835c0,4.875-9.81-0.46-12.835-3.5c-4.605-4.625-4.08-14.435-3.97-22.19
				c0.105-7.49-0.07-23.875-0.07-23.875l-3.125,0.065c0,0,1.28,35.79-1.65,42.31c-3.79,8.375-15.225,11.255-15.225,7.44
				c0-2.565,2.815-1.75,4.375-7.5c1.33-4.89,0.875-41.375,0.875-41.375s-3.665,2.165-3.665,9c0,3.125-0.085,20.995-0.085,26.31
				c0,6.69-9.5,10.5-14.065,10.5c-2.31,0-5.185-0.115-5.185-1.34c0-3.095,8.685-4.91,8.685-11.345c0-5.58-0.12-19.935-0.12-19.935
				s-4.38,0.75-10.63,0.75c-15.75,0-20.73-10.05-23.1-15.675c-3.085-7.325-7.085-10.765-11.335-13.515
				c-2.61-1.69-3.21-3.68-0.19-4.25c13.94-2.625,17.505,15.81,26.815,18.75c6.645,2.095,15.19,1.19,19.44-1.56
				c0.56-5.63,4.62-10.5,8-13.065c-0.215-0.02-0.43-0.04-0.64-0.065l0.545-5.475c1.305,0.115,2.635,0.2,3.99,0.25
				c9.335,0.36,20.665,0.415,32,0.005c2.65-0.095,5.125-0.32,7.43-0.665l0.71,4.95c-2.33,0.35-4.77,0.655-7.31,0.915
				c7.545,4.75,9.71,10.71,9.71,26.835S176.452,157.773,176.502,161.483z"/>
			<path d="M82.622,83.333c-9.52-0.08-38.855,1.27-48.9,3.755c-0.06,0.015-0.12,0.02-0.18,0.02c-0.335,0-0.645-0.23-0.73-0.57
				c-0.095-0.4,0.15-0.81,0.55-0.91c9.955-2.46,38.58-3.825,48.72-3.8c-2.28-6.71-3.29-14.395-3.29-22.98
				c0-15.24,4.75-20.99,11.125-29.115c-4.875-17.375,1.75-29.25,1.75-29.25s10.25-2.125,29.625,11.75c10.5-4.5,38.5-4.875,51.75-1
				c8.125-5.375,23-13,29-10.865c1.625,2.615,5.125,10.24,2.125,26.99c2.035,3.675,12.625,11.5,12.665,33.625
				c-0.17,8.16-1.02,15.05-2.595,20.875c25.265-0.21,40.125,1.875,50.36,3.76c0.405,0.08,0.675,0.47,0.6,0.875
				c-0.065,0.36-0.385,0.615-0.735,0.615c-0.045,0-0.095-0.005-0.14-0.01c-10.225-1.89-25.105-3.97-50.515-3.735
				c-0.445,1.475-0.945,2.88-1.49,4.22c8.65,0.29,32.405,1.215,51.775,7.14c0.4,0.12,0.62,0.54,0.5,0.94
				c-0.1,0.32-0.395,0.53-0.715,0.53c-0.075,0-0.15-0.01-0.22-0.035c-19.64-6.005-43.91-6.83-51.98-7.095
				c-6.26,13.745-18.375,19.815-37.41,22.67l-0.71-4.95c18.775-2.81,26.32-13.68,26.32-28.675c0-11-5.115-25.25-25.25-25.25
				c-1.475,0-12.97,1.25-24.335,1.25c-12.8,0-26.055-1.25-28.085-1.25c-20.5,0-25.58,16.4-25.58,23.915
				c0,19.845,13.915,28.705,33.51,30.42l-0.545,5.475c-23.295-2.36-37.145-10.555-44.36-23.655
				c-24.77,0.595-38.83,4.11-49.135,6.685c-0.75,0.19-1.48,0.37-2.19,0.55c-0.06,0.015-0.12,0.02-0.18,0.02
				c-0.34,0-0.645-0.23-0.73-0.57c-0.1-0.4,0.15-0.81,0.55-0.91c0.71-0.175,1.44-0.355,2.185-0.545
				c10.275-2.565,24.245-6.06,48.72-6.71C83.777,86.178,83.167,84.778,82.622,83.333z"/>
		</g>
		<g>
		</g>
	</g>
	<path fill="#FFFFFF" d="M131.125,77.981c0-8.813-4.794-15.958-10.708-15.958s-10.708,7.145-10.708,15.958
		s4.794,14.958,10.708,14.958S131.125,86.794,131.125,77.981z"/>
	<path fill="#FFFFFF" d="M189,77.981c0-8.813-4.795-15.958-10.709-15.958s-10.707,7.145-10.707,15.958s4.793,14.958,10.707,14.958
		S189,86.794,189,77.981z"/>
	<g>
		<path fill="#B1423A" d="M148.583,102.523c-3.828,0-6.625-3.288-6.625-5c0-0.414,0.335-0.75,0.75-0.75
			c0.414,0,0.75,0.336,0.75,0.75c0,0.847,2.126,3.5,5.125,3.5c2.599,0,4.542-1.848,4.542-3.5c0-0.414,0.336-0.75,0.75-0.75
			s0.75,0.336,0.75,0.75C154.625,99.888,152.144,102.523,148.583,102.523z"/>
	</g>
	<circle fill="#B1423A" cx="148.5" cy="91.315" r="2.584"/>
	<ellipse fill="#B1423A" cx="120.417" cy="77.981" rx="7.042" ry="10.333"/>
	<ellipse fill="#B1423A" cx="178.292" cy="77.981" rx="7.042" ry="10.333"/>
	<ellipse fill="#B0F5DF" cx="80.542" cy="110.502" rx="1.688" ry="1.125"/>
	<ellipse fill="#B0F5DF" cx="85.792" cy="113.357" rx="1.688" ry="1.125"/>
	<ellipse fill="#B0F5DF" cx="89" cy="117.169" rx="1.688" ry="1.125"/>
	<ellipse fill="#B0F5DF" cx="91.812" cy="121.482" rx="1.688" ry="1.125"/>
	<ellipse fill="#B0F5DF" cx="95.021" cy="125.544" rx="1.688" ry="1.125"/>
	<ellipse fill="#B0F5DF" cx="99.354" cy="129.002" rx="1.688" ry="1.125"/>
	<ellipse fill="#B0F5DF" cx="105.417" cy="131.252" rx="1.688" ry="1.125"/>
	<ellipse fill="#B0F5DF" cx="111.5" cy="131.252" rx="1.688" ry="1.125"/>
	<ellipse fill="#B0F5DF" cx="117.604" cy="130.294" rx="1.688" ry="1.125"/>
	<g>
		<g>
			<path fill="#FFFFFF" d="M0,11h43v17H25v130h18v17H0V11z"/>
		</g>
		<g>
			<g>
				<path fill="#CCCCCC" d="M0,10h43v17H25v130h18v17H0V10z"/>
			</g>
		</g>
	</g>
	<g>
		<g>
			<path fill="#FFFFFF" d="M277,158V28h-19V11h43v164h-43v-17H277z"/>
		</g>
		<g>
			<g>
				<path fill="#CCCCCC" d="M277,157V27h-19V10h43v164h-43v-17H277z"/>
			</g>
		</g>
	</g>
</g>
</svg>
