<?xml version="1.0" encoding="utf-8"?>
<!-- Generator: Adobe Illustrator 15.1.0, SVG Export Plug-In . SVG Version: 6.00 Build 0)  -->
<!DOCTYPE svg PUBLIC "-//W3C//DTD SVG 1.1//EN" "http://www.w3.org/Graphics/SVG/1.1/DTD/svg11.dtd">
<svg version="1.1" id="Layer_1" xmlns="http://www.w3.org/2000/svg" xmlns:xlink="http://www.w3.org/1999/xlink" x="0px" y="0px"
	 width="278px" height="202px" viewBox="220.5 643.5 278 202" enable-background="new 220.5 643.5 278 202" xml:space="preserve">
<g>
	<path opacity="0.15" d="M221.5,846c-0.552,0-1-0.447-1-1v-47c0-0.553,0.448-1,1-1h10v-11c0-0.553,0.448-1,1-1h32
		c0.552,0,1,0.447,1,1v11h10v-11c0-0.553,0.448-1,1-1h32c0.552,0,1,0.447,1,1v11h10v-11c0-0.553,0.448-1,1-1h32c0.552,0,1,0.447,1,1
		v11h10v-11c0-0.553,0.447-1,1-1h32c0.553,0,1,0.447,1,1v11h10v-11c0-0.553,0.447-1,1-1h32c0.553,0,1,0.447,1,1v11h10v-11
		c0-0.553,0.447-1,1-1h32c0.553,0,1,0.447,1,1v11h12c0.553,0,1,0.447,1,1v47c0,0.553-0.447,1-1,1H221.5z"/>
	<path opacity="0.15" d="M221.5,845.5c-0.276,0-0.5-0.224-0.5-0.5v-47c0-0.276,0.224-0.5,0.5-0.5H232V786c0-0.276,0.224-0.5,0.5-0.5
		h32c0.276,0,0.5,0.224,0.5,0.5v11.5h11V786c0-0.276,0.224-0.5,0.5-0.5h32c0.276,0,0.5,0.224,0.5,0.5v11.5h11V786
		c0-0.276,0.224-0.5,0.5-0.5h32c0.276,0,0.5,0.224,0.5,0.5v11.5h11V786c0-0.276,0.224-0.5,0.5-0.5h32c0.276,0,0.5,0.224,0.5,0.5
		v11.5h11V786c0-0.276,0.224-0.5,0.5-0.5h32c0.276,0,0.5,0.224,0.5,0.5v11.5h11V786c0-0.276,0.224-0.5,0.5-0.5h32
		c0.276,0,0.5,0.224,0.5,0.5v11.5h12.5c0.276,0,0.5,0.224,0.5,0.5v47c0,0.276-0.224,0.5-0.5,0.5H221.5z"/>
	<polygon fill="#FFFFFF" points="484.5,797.5 484.5,785.5 452.5,785.5 452.5,797.5 440.5,797.5 440.5,785.5 408.5,785.5 
		408.5,797.5 396.5,797.5 396.5,785.5 364.5,785.5 364.5,797.5 352.5,797.5 352.5,785.5 320.5,785.5 320.5,797.5 308.5,797.5 
		308.5,785.5 276.5,785.5 276.5,797.5 264.5,797.5 264.5,785.5 232.5,785.5 232.5,797.5 221.5,797.5 221.5,844.5 497.5,844.5 
		497.5,797.5 	"/>
	<g>
		<defs>
			<polygon id="SVGID_1_" points="484.5,797.5 484.5,785.5 452.5,785.5 452.5,797.5 440.5,797.5 440.5,785.5 408.5,785.5 
				408.5,797.5 396.5,797.5 396.5,785.5 364.5,785.5 364.5,797.5 352.5,797.5 352.5,785.5 320.5,785.5 320.5,797.5 308.5,797.5 
				308.5,785.5 276.5,785.5 276.5,797.5 264.5,797.5 264.5,785.5 232.5,785.5 232.5,797.5 221.5,797.5 221.5,844.5 497.5,844.5 
				497.5,797.5 			"/>
		</defs>
		<clipPath id="SVGID_2_">
			<use xlink:href="#SVGID_1_"  overflow="visible"/>
		</clipPath>
		<g clip-path="url(#SVGID_2_)">
			<rect x="301.5" y="656.5" fill="#FEFEFE" width="196" height="14"/>
			<rect x="221.5" y="656.5" fill="#464B4C" width="80" height="188"/>
			<rect x="301.5" y="670.5" fill="#F3F3F3" width="196" height="174"/>
			<circle fill="#CECECE" cx="307.5" cy="674.5" r="2"/>
			<circle fill="#CECECE" cx="307.5" cy="680.5" r="2"/>
			<circle fill="#CECECE" cx="307.5" cy="686.5" r="2"/>
			<circle fill="#CECECE" cx="307.5" cy="692.5" r="2"/>
			<circle fill="#CECECE" cx="307.5" cy="698.5" r="2"/>
			<circle fill="#CECECE" cx="307.5" cy="704.5" r="2"/>
			<circle fill="#CECECE" cx="307.5" cy="710.5" r="2"/>
			<circle fill="#CECECE" cx="307.5" cy="716.5" r="2"/>
			<circle fill="#CECECE" cx="307.5" cy="722.5" r="2"/>
			<circle fill="#CECECE" cx="307.5" cy="728.5" r="2"/>
			<circle fill="#CECECE" cx="307.5" cy="734.5" r="2"/>
			<circle fill="#CECECE" cx="307.5" cy="740.5" r="2"/>
			<circle fill="#CECECE" cx="307.5" cy="746.5" r="2"/>
			<circle fill="#CECECE" cx="307.5" cy="752.5" r="2"/>
			<circle fill="#CECECE" cx="307.5" cy="758.5" r="2"/>
			<circle fill="#CECECE" cx="307.5" cy="764.5" r="2"/>
			<circle fill="#CECECE" cx="307.5" cy="770.5" r="2"/>
			<circle fill="#CECECE" cx="307.5" cy="776.5" r="2"/>
			<circle fill="#CECECE" cx="307.5" cy="782.5" r="2"/>
			<circle fill="#CECECE" cx="307.5" cy="788.5" r="2"/>
			<circle fill="#CECECE" cx="307.5" cy="794.5" r="2"/>
			<circle fill="#CECECE" cx="307.5" cy="800.5" r="2"/>
			<circle fill="#CECECE" cx="307.5" cy="806.5" r="2"/>
			<circle fill="#CECECE" cx="307.5" cy="812.5" r="2"/>
			<circle fill="#CECECE" cx="307.5" cy="818.5" r="2"/>
			<circle fill="#CECECE" cx="307.5" cy="824.5" r="2"/>
			<circle fill="#CECECE" cx="307.5" cy="830.5" r="2"/>
			<circle fill="#CECECE" cx="307.5" cy="836.5" r="2"/>
			<circle fill="#CECECE" cx="307.5" cy="842.5" r="2"/>
			<rect x="383.5" y="661.5" fill="#CECECE" width="32" height="4"/>
			<rect x="489.5" y="661.5" fill="#CECECE" width="4" height="4"/>
			<rect x="481.5" y="661.5" fill="#CECECE" width="4" height="4"/>
			<rect x="473.5" y="661.5" fill="#CECECE" width="4" height="4"/>
			<rect x="221.5" y="678.5" fill="#363A3A" width="80" height="10"/>
			<rect x="231.5" y="682.5" fill="#7A7A7A" width="32" height="2"/>
			<rect x="231.5" y="692.5" fill="#7A7A7A" width="26" height="2"/>
			<rect x="231.5" y="708.5" fill="#5B5B5B" width="26" height="2"/>
			<rect x="237.5" y="718.5" fill="#7A7A7A" width="10" height="2"/>
			<rect x="243.5" y="728.5" fill="#707070" width="18" height="2"/>
			<rect x="243.5" y="738.5" fill="#707070" width="24" height="2"/>
			<rect x="243.5" y="748.5" fill="#707070" width="16" height="2"/>
			<rect x="237.5" y="758.5" fill="#7A7A7A" width="20" height="2"/>
			<rect x="243.5" y="768.5" fill="#707070" width="26" height="2"/>
			<rect x="243.5" y="778.5" fill="#707070" width="18" height="2"/>
			<rect x="243.5" y="788.5" fill="#707070" width="22" height="2"/>
			<rect x="231.5" y="672.5" fill="#7A7A7A" width="22" height="2"/>
			<rect x="325.5" y="704.5" fill="#4C7FC0" width="8" height="2"/>
			<rect x="385.5" y="704.5" fill="#4C7FC0" width="2" height="2"/>
			<rect x="343.5" y="704.5" fill="#F8C286" width="16" height="2"/>
			<rect x="335.5" y="704.5" fill="#B0BC74" width="8" height="2"/>
			<rect x="369.5" y="704.5" fill="#F8C286" width="16" height="2"/>
			<rect x="361.5" y="704.5" fill="#B0BC74" width="8" height="2"/>
			<rect x="325.5" y="722.5" fill="#4C7FC0" width="6" height="2"/>
			<rect x="331.5" y="728.5" fill="#4C7FC0" width="6" height="2"/>
			<rect x="331.5" y="764.5" fill="#4C7FC0" width="6" height="2"/>
			<rect x="331.5" y="770.5" fill="#4C7FC0" width="10" height="2"/>
			<rect x="331.5" y="806.5" fill="#4C7FC0" width="10" height="2"/>
			<rect x="357.5" y="722.5" fill="#4C7FC0" width="2" height="2"/>
			<rect x="341.5" y="722.5" fill="#F8C286" width="16" height="2"/>
			<rect x="333.5" y="722.5" fill="#B0BC74" width="8" height="2"/>
			<rect x="337.5" y="734.5" fill="#4C7FC0" width="6" height="2"/>
			<rect x="369.5" y="734.5" fill="#4C7FC0" width="2" height="2"/>
			<rect x="353.5" y="734.5" fill="#F8C286" width="16" height="2"/>
			<rect x="345.5" y="734.5" fill="#B0BC74" width="8" height="2"/>
			<rect x="367.5" y="770.5" fill="#4C7FC0" width="2" height="2"/>
			<rect x="351.5" y="770.5" fill="#F8C286" width="16" height="2"/>
			<rect x="343.5" y="770.5" fill="#B0BC74" width="8" height="2"/>
			<rect x="337.5" y="740.5" fill="#4C7FC0" width="6" height="2"/>
			<rect x="365.5" y="740.5" fill="#4C7FC0" width="2" height="2"/>
			<rect x="353.5" y="740.5" fill="#F8C286" width="12" height="2"/>
			<rect x="345.5" y="740.5" fill="#B0BC74" width="8" height="2"/>
			<rect x="337.5" y="776.5" fill="#4C7FC0" width="4" height="2"/>
			<rect x="341.5" y="782.5" fill="#B7B7B7" width="64" height="2"/>
			<rect x="341.5" y="788.5" fill="#B7B7B7" width="56" height="2"/>
			<rect x="341.5" y="794.5" fill="#B7B7B7" width="60" height="2"/>
			<rect x="337.5" y="800.5" fill="#4C7FC0" width="4" height="2"/>
			<rect x="331.5" y="812.5" fill="#4C7FC0" width="10" height="2"/>
			<rect x="367.5" y="812.5" fill="#4C7FC0" width="2" height="2"/>
			<rect x="351.5" y="812.5" fill="#F8C286" width="16" height="2"/>
			<rect x="343.5" y="812.5" fill="#B0BC74" width="8" height="2"/>
			<rect x="337.5" y="818.5" fill="#4C7FC0" width="4" height="2"/>
			<rect x="341.5" y="824.5" fill="#B7B7B7" width="64" height="2"/>
			<rect x="341.5" y="830.5" fill="#B7B7B7" width="56" height="2"/>
			<rect x="341.5" y="836.5" fill="#B7B7B7" width="60" height="2"/>
			<rect x="337.5" y="842.5" fill="#4C7FC0" width="4" height="2"/>
			<rect x="337.5" y="746.5" fill="#4C7FC0" width="6" height="2"/>
			<rect x="359.5" y="746.5" fill="#4C7FC0" width="2" height="2"/>
			<rect x="353.5" y="746.5" fill="#F8C286" width="6" height="2"/>
			<rect x="345.5" y="746.5" fill="#B0BC74" width="8" height="2"/>
			<rect x="337.5" y="752.5" fill="#4C7FC0" width="6" height="2"/>
			<rect x="375.5" y="752.5" fill="#4C7FC0" width="2" height="2"/>
			<rect x="353.5" y="752.5" fill="#F8C286" width="22" height="2"/>
			<rect x="345.5" y="752.5" fill="#B0BC74" width="8" height="2"/>
			<rect x="337.5" y="758.5" fill="#4C7FC0" width="6" height="2"/>
			<rect x="369.5" y="758.5" fill="#4C7FC0" width="2" height="2"/>
			<rect x="353.5" y="758.5" fill="#F8C286" width="16" height="2"/>
			<rect x="345.5" y="758.5" fill="#B0BC74" width="8" height="2"/>
			<rect x="325.5" y="698.5" fill="#4C7FC0" width="8" height="2"/>
			<rect x="317.5" y="686.5" fill="#4C7FC0" width="8" height="2"/>
			<rect x="317.5" y="710.5" fill="#4C7FC0" width="8" height="2"/>
			<rect x="317.5" y="716.5" fill="#4C7FC0" width="8" height="2"/>
			<rect x="317.5" y="674.5" fill="#B7B7B7" width="16" height="2"/>
			<rect x="359.5" y="698.5" fill="#4C7FC0" width="2" height="2"/>
			<rect x="343.5" y="698.5" fill="#F8C286" width="16" height="2"/>
			<rect x="335.5" y="698.5" fill="#B0BC74" width="8" height="2"/>
			<rect x="325.5" y="692.5" fill="#B7B7B7" width="36" height="2"/>
		</g>
	</g>
</g>
<path opacity="0.15" d="M221.5,799c-0.552,0-1-0.447-1-1v-47c0-0.553,0.448-1,1-1h10v-11c0-0.553,0.448-1,1-1h32
	c0.552,0,1,0.447,1,1v11h10v-11c0-0.553,0.448-1,1-1h32c0.552,0,1,0.447,1,1v11h10v-11c0-0.553,0.448-1,1-1h32c0.552,0,1,0.447,1,1
	v11h10v-11c0-0.553,0.447-1,1-1h32c0.553,0,1,0.447,1,1v11h10v-11c0-0.553,0.447-1,1-1h32c0.553,0,1,0.447,1,1v11h10v-11
	c0-0.553,0.447-1,1-1h32c0.553,0,1,0.447,1,1v11h12c0.553,0,1,0.447,1,1v47c0,0.553-0.447,1-1,1H221.5z"/>
<path opacity="0.15" d="M221.5,798.5c-0.276,0-0.5-0.224-0.5-0.5v-47c0-0.276,0.224-0.5,0.5-0.5H232V739c0-0.276,0.224-0.5,0.5-0.5
	h32c0.276,0,0.5,0.224,0.5,0.5v11.5h11V739c0-0.276,0.224-0.5,0.5-0.5h32c0.276,0,0.5,0.224,0.5,0.5v11.5h11V739
	c0-0.276,0.224-0.5,0.5-0.5h32c0.276,0,0.5,0.224,0.5,0.5v11.5h11V739c0-0.276,0.224-0.5,0.5-0.5h32c0.276,0,0.5,0.224,0.5,0.5v11.5
	h11V739c0-0.276,0.224-0.5,0.5-0.5h32c0.276,0,0.5,0.224,0.5,0.5v11.5h11V739c0-0.276,0.224-0.5,0.5-0.5h32
	c0.276,0,0.5,0.224,0.5,0.5v11.5h12.5c0.276,0,0.5,0.224,0.5,0.5v47c0,0.276-0.224,0.5-0.5,0.5H221.5z"/>
<polygon fill="#FFFFFF" points="484.5,750.5 484.5,738.5 452.5,738.5 452.5,750.5 440.5,750.5 440.5,738.5 408.5,738.5 408.5,750.5 
	396.5,750.5 396.5,738.5 364.5,738.5 364.5,750.5 352.5,750.5 352.5,738.5 320.5,738.5 320.5,750.5 308.5,750.5 308.5,738.5 
	276.5,738.5 276.5,750.5 264.5,750.5 264.5,738.5 232.5,738.5 232.5,750.5 221.5,750.5 221.5,797.5 497.5,797.5 497.5,750.5 "/>
<g>
	<defs>
		<polygon id="SVGID_3_" points="484.5,750.5 484.5,738.5 452.5,738.5 452.5,750.5 440.5,750.5 440.5,738.5 408.5,738.5 
			408.5,750.5 396.5,750.5 396.5,738.5 364.5,738.5 364.5,750.5 352.5,750.5 352.5,738.5 320.5,738.5 320.5,750.5 308.5,750.5 
			308.5,738.5 276.5,738.5 276.5,750.5 264.5,750.5 264.5,738.5 232.5,738.5 232.5,750.5 221.5,750.5 221.5,797.5 497.5,797.5 
			497.5,750.5 		"/>
	</defs>
	<clipPath id="SVGID_4_">
		<use xlink:href="#SVGID_3_"  overflow="visible"/>
	</clipPath>
	<g clip-path="url(#SVGID_4_)">
		<rect x="301.5" y="656.5" fill="#FEFEFE" width="196" height="14"/>
		<rect x="221.5" y="656.5" fill="#464B4C" width="80" height="188"/>
		<rect x="301.5" y="670.5" fill="#F3F3F3" width="196" height="174"/>
		<circle fill="#CECECE" cx="307.5" cy="674.5" r="2"/>
		<circle fill="#CECECE" cx="307.5" cy="680.5" r="2"/>
		<circle fill="#CECECE" cx="307.5" cy="686.5" r="2"/>
		<circle fill="#CECECE" cx="307.5" cy="692.5" r="2"/>
		<circle fill="#CECECE" cx="307.5" cy="698.5" r="2"/>
		<circle fill="#CECECE" cx="307.5" cy="704.5" r="2"/>
		<circle fill="#CECECE" cx="307.5" cy="710.5" r="2"/>
		<circle fill="#CECECE" cx="307.5" cy="716.5" r="2"/>
		<circle fill="#CECECE" cx="307.5" cy="722.5" r="2"/>
		<circle fill="#CECECE" cx="307.5" cy="728.5" r="2"/>
		<circle fill="#CECECE" cx="307.5" cy="734.5" r="2"/>
		<circle fill="#CECECE" cx="307.5" cy="740.5" r="2"/>
		<circle fill="#CECECE" cx="307.5" cy="746.5" r="2"/>
		<circle fill="#CECECE" cx="307.5" cy="752.5" r="2"/>
		<circle fill="#CECECE" cx="307.5" cy="758.5" r="2"/>
		<circle fill="#CECECE" cx="307.5" cy="764.5" r="2"/>
		<circle fill="#CECECE" cx="307.5" cy="770.5" r="2"/>
		<circle fill="#CECECE" cx="307.5" cy="776.5" r="2"/>
		<circle fill="#CECECE" cx="307.5" cy="782.5" r="2"/>
		<circle fill="#CECECE" cx="307.5" cy="788.5" r="2"/>
		<circle fill="#CECECE" cx="307.5" cy="794.5" r="2"/>
		<circle fill="#CECECE" cx="307.5" cy="800.5" r="2"/>
		<circle fill="#CECECE" cx="307.5" cy="806.5" r="2"/>
		<circle fill="#CECECE" cx="307.5" cy="812.5" r="2"/>
		<circle fill="#CECECE" cx="307.5" cy="818.5" r="2"/>
		<circle fill="#CECECE" cx="307.5" cy="824.5" r="2"/>
		<circle fill="#CECECE" cx="307.5" cy="830.5" r="2"/>
		<circle fill="#CECECE" cx="307.5" cy="836.5" r="2"/>
		<circle fill="#CECECE" cx="307.5" cy="842.5" r="2"/>
		<rect x="383.5" y="661.5" fill="#CECECE" width="32" height="4"/>
		<rect x="489.5" y="661.5" fill="#CECECE" width="4" height="4"/>
		<rect x="481.5" y="661.5" fill="#CECECE" width="4" height="4"/>
		<rect x="473.5" y="661.5" fill="#CECECE" width="4" height="4"/>
		<rect x="221.5" y="678.5" fill="#363A3A" width="80" height="10"/>
		<rect x="231.5" y="682.5" fill="#7A7A7A" width="32" height="2"/>
		<rect x="231.5" y="692.5" fill="#7A7A7A" width="26" height="2"/>
		<rect x="231.5" y="708.5" fill="#5B5B5B" width="26" height="2"/>
		<rect x="237.5" y="718.5" fill="#7A7A7A" width="10" height="2"/>
		<rect x="243.5" y="728.5" fill="#707070" width="18" height="2"/>
		<rect x="243.5" y="738.5" fill="#707070" width="24" height="2"/>
		<rect x="243.5" y="748.5" fill="#707070" width="16" height="2"/>
		<rect x="237.5" y="758.5" fill="#7A7A7A" width="20" height="2"/>
		<rect x="243.5" y="768.5" fill="#707070" width="26" height="2"/>
		<rect x="243.5" y="778.5" fill="#707070" width="18" height="2"/>
		<rect x="243.5" y="788.5" fill="#707070" width="22" height="2"/>
		<rect x="231.5" y="672.5" fill="#7A7A7A" width="22" height="2"/>
		<rect x="325.5" y="704.5" fill="#4C7FC0" width="8" height="2"/>
		<rect x="385.5" y="704.5" fill="#4C7FC0" width="2" height="2"/>
		<rect x="343.5" y="704.5" fill="#F8C286" width="16" height="2"/>
		<rect x="335.5" y="704.5" fill="#B0BC74" width="8" height="2"/>
		<rect x="369.5" y="704.5" fill="#F8C286" width="16" height="2"/>
		<rect x="361.5" y="704.5" fill="#B0BC74" width="8" height="2"/>
		<rect x="325.5" y="722.5" fill="#4C7FC0" width="6" height="2"/>
		<rect x="331.5" y="728.5" fill="#4C7FC0" width="6" height="2"/>
		<rect x="331.5" y="764.5" fill="#4C7FC0" width="6" height="2"/>
		<rect x="331.5" y="770.5" fill="#4C7FC0" width="10" height="2"/>
		<rect x="331.5" y="806.5" fill="#4C7FC0" width="10" height="2"/>
		<rect x="357.5" y="722.5" fill="#4C7FC0" width="2" height="2"/>
		<rect x="341.5" y="722.5" fill="#F8C286" width="16" height="2"/>
		<rect x="333.5" y="722.5" fill="#B0BC74" width="8" height="2"/>
		<rect x="337.5" y="734.5" fill="#4C7FC0" width="6" height="2"/>
		<rect x="369.5" y="734.5" fill="#4C7FC0" width="2" height="2"/>
		<rect x="353.5" y="734.5" fill="#F8C286" width="16" height="2"/>
		<rect x="345.5" y="734.5" fill="#B0BC74" width="8" height="2"/>
		<rect x="367.5" y="770.5" fill="#4C7FC0" width="2" height="2"/>
		<rect x="351.5" y="770.5" fill="#F8C286" width="16" height="2"/>
		<rect x="343.5" y="770.5" fill="#B0BC74" width="8" height="2"/>
		<rect x="337.5" y="740.5" fill="#4C7FC0" width="6" height="2"/>
		<rect x="365.5" y="740.5" fill="#4C7FC0" width="2" height="2"/>
		<rect x="353.5" y="740.5" fill="#F8C286" width="12" height="2"/>
		<rect x="345.5" y="740.5" fill="#B0BC74" width="8" height="2"/>
		<rect x="337.5" y="776.5" fill="#4C7FC0" width="4" height="2"/>
		<rect x="341.5" y="782.5" fill="#B7B7B7" width="64" height="2"/>
		<rect x="341.5" y="788.5" fill="#B7B7B7" width="56" height="2"/>
		<rect x="341.5" y="794.5" fill="#B7B7B7" width="60" height="2"/>
		<rect x="337.5" y="800.5" fill="#4C7FC0" width="4" height="2"/>
		<rect x="331.5" y="812.5" fill="#4C7FC0" width="10" height="2"/>
		<rect x="367.5" y="812.5" fill="#4C7FC0" width="2" height="2"/>
		<rect x="351.5" y="812.5" fill="#F8C286" width="16" height="2"/>
		<rect x="343.5" y="812.5" fill="#B0BC74" width="8" height="2"/>
		<rect x="337.5" y="818.5" fill="#4C7FC0" width="4" height="2"/>
		<rect x="341.5" y="824.5" fill="#B7B7B7" width="64" height="2"/>
		<rect x="341.5" y="830.5" fill="#B7B7B7" width="56" height="2"/>
		<rect x="341.5" y="836.5" fill="#B7B7B7" width="60" height="2"/>
		<rect x="337.5" y="842.5" fill="#4C7FC0" width="4" height="2"/>
		<rect x="337.5" y="746.5" fill="#4C7FC0" width="6" height="2"/>
		<rect x="359.5" y="746.5" fill="#4C7FC0" width="2" height="2"/>
		<rect x="353.5" y="746.5" fill="#F8C286" width="6" height="2"/>
		<rect x="345.5" y="746.5" fill="#B0BC74" width="8" height="2"/>
		<rect x="337.5" y="752.5" fill="#4C7FC0" width="6" height="2"/>
		<rect x="375.5" y="752.5" fill="#4C7FC0" width="2" height="2"/>
		<rect x="353.5" y="752.5" fill="#F8C286" width="22" height="2"/>
		<rect x="345.5" y="752.5" fill="#B0BC74" width="8" height="2"/>
		<rect x="337.5" y="758.5" fill="#4C7FC0" width="6" height="2"/>
		<rect x="369.5" y="758.5" fill="#4C7FC0" width="2" height="2"/>
		<rect x="353.5" y="758.5" fill="#F8C286" width="16" height="2"/>
		<rect x="345.5" y="758.5" fill="#B0BC74" width="8" height="2"/>
		<rect x="325.5" y="698.5" fill="#4C7FC0" width="8" height="2"/>
		<rect x="317.5" y="686.5" fill="#4C7FC0" width="8" height="2"/>
		<rect x="317.5" y="710.5" fill="#4C7FC0" width="8" height="2"/>
		<rect x="317.5" y="716.5" fill="#4C7FC0" width="8" height="2"/>
		<rect x="317.5" y="674.5" fill="#B7B7B7" width="16" height="2"/>
		<rect x="359.5" y="698.5" fill="#4C7FC0" width="2" height="2"/>
		<rect x="343.5" y="698.5" fill="#F8C286" width="16" height="2"/>
		<rect x="335.5" y="698.5" fill="#B0BC74" width="8" height="2"/>
		<rect x="325.5" y="692.5" fill="#B7B7B7" width="36" height="2"/>
	</g>
</g>
<g>
	<path opacity="0.15" d="M313.5,703c0.553,0,1,0.447,1,1v47c0,0.553-0.447,1-1,1h-92c-0.552,0-1-0.447-1-1v-47c0-0.553,0.448-1,1-1
		h10v-11c0-0.553,0.448-1,1-1h32c0.552,0,1,0.447,1,1v11h10v-11c0-0.553,0.448-1,1-1h32c0.552,0,1,0.447,1,1v11H313.5z"/>
	<path opacity="0.15" d="M313.5,703.5c0.276,0,0.5,0.224,0.5,0.5v47c0,0.276-0.224,0.5-0.5,0.5h-92c-0.276,0-0.5-0.224-0.5-0.5v-47
		c0-0.276,0.224-0.5,0.5-0.5H232V692c0-0.276,0.224-0.5,0.5-0.5h32c0.276,0,0.5,0.224,0.5,0.5v11.5h11V692
		c0-0.276,0.224-0.5,0.5-0.5h32c0.276,0,0.5,0.224,0.5,0.5v11.5H313.5z"/>
	<polygon fill="#FFFFFF" points="308.5,703.5 308.5,691.5 276.5,691.5 276.5,703.5 264.5,703.5 264.5,691.5 232.5,691.5 
		232.5,703.5 221.5,703.5 221.5,750.5 313.5,750.5 313.5,703.5 	"/>
	<g>
		<defs>
			<polygon id="SVGID_5_" points="308.5,703.5 308.5,691.5 276.5,691.5 276.5,703.5 264.5,703.5 264.5,691.5 232.5,691.5 
				232.5,703.5 221.5,703.5 221.5,750.5 313.5,750.5 313.5,703.5 			"/>
		</defs>
		<clipPath id="SVGID_6_">
			<use xlink:href="#SVGID_5_"  overflow="visible"/>
		</clipPath>
		<g clip-path="url(#SVGID_6_)">
			<rect x="301.5" y="656.5" fill="#FEFEFE" width="196" height="14"/>
			<rect x="221.5" y="656.5" fill="#464B4C" width="80" height="188"/>
			<rect x="301.5" y="670.5" fill="#F3F3F3" width="196" height="174"/>
			<circle fill="#CECECE" cx="307.5" cy="674.5" r="2"/>
			<circle fill="#CECECE" cx="307.5" cy="680.5" r="2"/>
			<circle fill="#CECECE" cx="307.5" cy="686.5" r="2"/>
			<circle fill="#CECECE" cx="307.5" cy="692.5" r="2"/>
			<circle fill="#CECECE" cx="307.5" cy="698.5" r="2"/>
			<circle fill="#CECECE" cx="307.5" cy="704.5" r="2"/>
			<circle fill="#CECECE" cx="307.5" cy="710.5" r="2"/>
			<circle fill="#CECECE" cx="307.5" cy="716.5" r="2"/>
			<circle fill="#CECECE" cx="307.5" cy="722.5" r="2"/>
			<circle fill="#CECECE" cx="307.5" cy="728.5" r="2"/>
			<circle fill="#CECECE" cx="307.5" cy="734.5" r="2"/>
			<circle fill="#CECECE" cx="307.5" cy="740.5" r="2"/>
			<circle fill="#CECECE" cx="307.5" cy="746.5" r="2"/>
			<circle fill="#CECECE" cx="307.5" cy="752.5" r="2"/>
			<circle fill="#CECECE" cx="307.5" cy="758.5" r="2"/>
			<circle fill="#CECECE" cx="307.5" cy="764.5" r="2"/>
			<circle fill="#CECECE" cx="307.5" cy="770.5" r="2"/>
			<circle fill="#CECECE" cx="307.5" cy="776.5" r="2"/>
			<circle fill="#CECECE" cx="307.5" cy="782.5" r="2"/>
			<circle fill="#CECECE" cx="307.5" cy="788.5" r="2"/>
			<circle fill="#CECECE" cx="307.5" cy="794.5" r="2"/>
			<circle fill="#CECECE" cx="307.5" cy="800.5" r="2"/>
			<circle fill="#CECECE" cx="307.5" cy="806.5" r="2"/>
			<circle fill="#CECECE" cx="307.5" cy="812.5" r="2"/>
			<circle fill="#CECECE" cx="307.5" cy="818.5" r="2"/>
			<circle fill="#CECECE" cx="307.5" cy="824.5" r="2"/>
			<circle fill="#CECECE" cx="307.5" cy="830.5" r="2"/>
			<circle fill="#CECECE" cx="307.5" cy="836.5" r="2"/>
			<circle fill="#CECECE" cx="307.5" cy="842.5" r="2"/>
			<rect x="383.5" y="661.5" fill="#CECECE" width="32" height="4"/>
			<rect x="489.5" y="661.5" fill="#CECECE" width="4" height="4"/>
			<rect x="481.5" y="661.5" fill="#CECECE" width="4" height="4"/>
			<rect x="473.5" y="661.5" fill="#CECECE" width="4" height="4"/>
			<rect x="221.5" y="678.5" fill="#363A3A" width="80" height="10"/>
			<rect x="231.5" y="682.5" fill="#7A7A7A" width="32" height="2"/>
			<rect x="231.5" y="692.5" fill="#7A7A7A" width="26" height="2"/>
			<rect x="231.5" y="708.5" fill="#5B5B5B" width="26" height="2"/>
			<rect x="237.5" y="718.5" fill="#7A7A7A" width="10" height="2"/>
			<rect x="243.5" y="728.5" fill="#707070" width="18" height="2"/>
			<rect x="243.5" y="738.5" fill="#707070" width="24" height="2"/>
			<rect x="243.5" y="748.5" fill="#707070" width="16" height="2"/>
			<rect x="237.5" y="758.5" fill="#7A7A7A" width="20" height="2"/>
			<rect x="243.5" y="768.5" fill="#707070" width="26" height="2"/>
			<rect x="243.5" y="778.5" fill="#707070" width="18" height="2"/>
			<rect x="243.5" y="788.5" fill="#707070" width="22" height="2"/>
			<rect x="231.5" y="672.5" fill="#7A7A7A" width="22" height="2"/>
			<rect x="325.5" y="704.5" fill="#4C7FC0" width="8" height="2"/>
			<rect x="385.5" y="704.5" fill="#4C7FC0" width="2" height="2"/>
			<rect x="343.5" y="704.5" fill="#F8C286" width="16" height="2"/>
			<rect x="335.5" y="704.5" fill="#B0BC74" width="8" height="2"/>
			<rect x="369.5" y="704.5" fill="#F8C286" width="16" height="2"/>
			<rect x="361.5" y="704.5" fill="#B0BC74" width="8" height="2"/>
			<rect x="325.5" y="722.5" fill="#4C7FC0" width="6" height="2"/>
			<rect x="331.5" y="728.5" fill="#4C7FC0" width="6" height="2"/>
			<rect x="331.5" y="764.5" fill="#4C7FC0" width="6" height="2"/>
			<rect x="331.5" y="770.5" fill="#4C7FC0" width="10" height="2"/>
			<rect x="331.5" y="806.5" fill="#4C7FC0" width="10" height="2"/>
			<rect x="357.5" y="722.5" fill="#4C7FC0" width="2" height="2"/>
			<rect x="341.5" y="722.5" fill="#F8C286" width="16" height="2"/>
			<rect x="333.5" y="722.5" fill="#B0BC74" width="8" height="2"/>
			<rect x="337.5" y="734.5" fill="#4C7FC0" width="6" height="2"/>
			<rect x="369.5" y="734.5" fill="#4C7FC0" width="2" height="2"/>
			<rect x="353.5" y="734.5" fill="#F8C286" width="16" height="2"/>
			<rect x="345.5" y="734.5" fill="#B0BC74" width="8" height="2"/>
			<rect x="367.5" y="770.5" fill="#4C7FC0" width="2" height="2"/>
			<rect x="351.5" y="770.5" fill="#F8C286" width="16" height="2"/>
			<rect x="343.5" y="770.5" fill="#B0BC74" width="8" height="2"/>
			<rect x="337.5" y="740.5" fill="#4C7FC0" width="6" height="2"/>
			<rect x="365.5" y="740.5" fill="#4C7FC0" width="2" height="2"/>
			<rect x="353.5" y="740.5" fill="#F8C286" width="12" height="2"/>
			<rect x="345.5" y="740.5" fill="#B0BC74" width="8" height="2"/>
			<rect x="337.5" y="776.5" fill="#4C7FC0" width="4" height="2"/>
			<rect x="341.5" y="782.5" fill="#B7B7B7" width="64" height="2"/>
			<rect x="341.5" y="788.5" fill="#B7B7B7" width="56" height="2"/>
			<rect x="341.5" y="794.5" fill="#B7B7B7" width="60" height="2"/>
			<rect x="337.5" y="800.5" fill="#4C7FC0" width="4" height="2"/>
			<rect x="331.5" y="812.5" fill="#4C7FC0" width="10" height="2"/>
			<rect x="367.5" y="812.5" fill="#4C7FC0" width="2" height="2"/>
			<rect x="351.5" y="812.5" fill="#F8C286" width="16" height="2"/>
			<rect x="343.5" y="812.5" fill="#B0BC74" width="8" height="2"/>
			<rect x="337.5" y="818.5" fill="#4C7FC0" width="4" height="2"/>
			<rect x="341.5" y="824.5" fill="#B7B7B7" width="64" height="2"/>
			<rect x="341.5" y="830.5" fill="#B7B7B7" width="56" height="2"/>
			<rect x="341.5" y="836.5" fill="#B7B7B7" width="60" height="2"/>
			<rect x="337.5" y="842.5" fill="#4C7FC0" width="4" height="2"/>
			<rect x="337.5" y="746.5" fill="#4C7FC0" width="6" height="2"/>
			<rect x="359.5" y="746.5" fill="#4C7FC0" width="2" height="2"/>
			<rect x="353.5" y="746.5" fill="#F8C286" width="6" height="2"/>
			<rect x="345.5" y="746.5" fill="#B0BC74" width="8" height="2"/>
			<rect x="337.5" y="752.5" fill="#4C7FC0" width="6" height="2"/>
			<rect x="375.5" y="752.5" fill="#4C7FC0" width="2" height="2"/>
			<rect x="353.5" y="752.5" fill="#F8C286" width="22" height="2"/>
			<rect x="345.5" y="752.5" fill="#B0BC74" width="8" height="2"/>
			<rect x="337.5" y="758.5" fill="#4C7FC0" width="6" height="2"/>
			<rect x="369.5" y="758.5" fill="#4C7FC0" width="2" height="2"/>
			<rect x="353.5" y="758.5" fill="#F8C286" width="16" height="2"/>
			<rect x="345.5" y="758.5" fill="#B0BC74" width="8" height="2"/>
			<rect x="325.5" y="698.5" fill="#4C7FC0" width="8" height="2"/>
			<rect x="317.5" y="686.5" fill="#4C7FC0" width="8" height="2"/>
			<rect x="317.5" y="710.5" fill="#4C7FC0" width="8" height="2"/>
			<rect x="317.5" y="716.5" fill="#4C7FC0" width="8" height="2"/>
			<rect x="317.5" y="674.5" fill="#B7B7B7" width="16" height="2"/>
			<rect x="359.5" y="698.5" fill="#4C7FC0" width="2" height="2"/>
			<rect x="343.5" y="698.5" fill="#F8C286" width="16" height="2"/>
			<rect x="335.5" y="698.5" fill="#B0BC74" width="8" height="2"/>
			<rect x="325.5" y="692.5" fill="#B7B7B7" width="36" height="2"/>
		</g>
	</g>
</g>
<g>
	<path opacity="0.15" d="M497.5,703c0.553,0,1,0.447,1,1v47c0,0.553-0.447,1-1,1h-92c-0.553,0-1-0.447-1-1v-47c0-0.553,0.447-1,1-1
		h10v-11c0-0.553,0.447-1,1-1h32c0.553,0,1,0.447,1,1v11h10v-11c0-0.553,0.447-1,1-1h32c0.553,0,1,0.447,1,1v11H497.5z"/>
	<path opacity="0.15" d="M497.5,703.5c0.276,0,0.5,0.224,0.5,0.5v47c0,0.276-0.224,0.5-0.5,0.5h-92c-0.276,0-0.5-0.224-0.5-0.5v-47
		c0-0.276,0.224-0.5,0.5-0.5H416V692c0-0.276,0.224-0.5,0.5-0.5h32c0.276,0,0.5,0.224,0.5,0.5v11.5h11V692
		c0-0.276,0.224-0.5,0.5-0.5h32c0.276,0,0.5,0.224,0.5,0.5v11.5H497.5z"/>
	<polygon fill="#FFFFFF" points="492.5,703.5 492.5,691.5 460.5,691.5 460.5,703.5 448.5,703.5 448.5,691.5 416.5,691.5 
		416.5,703.5 405.5,703.5 405.5,750.5 497.5,750.5 497.5,703.5 	"/>
	<g>
		<defs>
			<polygon id="SVGID_7_" points="492.5,703.5 492.5,691.5 460.5,691.5 460.5,703.5 448.5,703.5 448.5,691.5 416.5,691.5 
				416.5,703.5 405.5,703.5 405.5,750.5 497.5,750.5 497.5,703.5 			"/>
		</defs>
		<clipPath id="SVGID_8_">
			<use xlink:href="#SVGID_7_"  overflow="visible"/>
		</clipPath>
		<g clip-path="url(#SVGID_8_)">
			<rect x="301.5" y="656.5" fill="#FEFEFE" width="196" height="14"/>
			<rect x="221.5" y="656.5" fill="#464B4C" width="80" height="188"/>
			<rect x="301.5" y="670.5" fill="#F3F3F3" width="196" height="174"/>
			<circle fill="#CECECE" cx="307.5" cy="674.5" r="2"/>
			<circle fill="#CECECE" cx="307.5" cy="680.5" r="2"/>
			<circle fill="#CECECE" cx="307.5" cy="686.5" r="2"/>
			<circle fill="#CECECE" cx="307.5" cy="692.5" r="2"/>
			<circle fill="#CECECE" cx="307.5" cy="698.5" r="2"/>
			<circle fill="#CECECE" cx="307.5" cy="704.5" r="2"/>
			<circle fill="#CECECE" cx="307.5" cy="710.5" r="2"/>
			<circle fill="#CECECE" cx="307.5" cy="716.5" r="2"/>
			<circle fill="#CECECE" cx="307.5" cy="722.5" r="2"/>
			<circle fill="#CECECE" cx="307.5" cy="728.5" r="2"/>
			<circle fill="#CECECE" cx="307.5" cy="734.5" r="2"/>
			<circle fill="#CECECE" cx="307.5" cy="740.5" r="2"/>
			<circle fill="#CECECE" cx="307.5" cy="746.5" r="2"/>
			<circle fill="#CECECE" cx="307.5" cy="752.5" r="2"/>
			<circle fill="#CECECE" cx="307.5" cy="758.5" r="2"/>
			<circle fill="#CECECE" cx="307.5" cy="764.5" r="2"/>
			<circle fill="#CECECE" cx="307.5" cy="770.5" r="2"/>
			<circle fill="#CECECE" cx="307.5" cy="776.5" r="2"/>
			<circle fill="#CECECE" cx="307.5" cy="782.5" r="2"/>
			<circle fill="#CECECE" cx="307.5" cy="788.5" r="2"/>
			<circle fill="#CECECE" cx="307.5" cy="794.5" r="2"/>
			<circle fill="#CECECE" cx="307.5" cy="800.5" r="2"/>
			<circle fill="#CECECE" cx="307.5" cy="806.5" r="2"/>
			<circle fill="#CECECE" cx="307.5" cy="812.5" r="2"/>
			<circle fill="#CECECE" cx="307.5" cy="818.5" r="2"/>
			<circle fill="#CECECE" cx="307.5" cy="824.5" r="2"/>
			<circle fill="#CECECE" cx="307.5" cy="830.5" r="2"/>
			<circle fill="#CECECE" cx="307.5" cy="836.5" r="2"/>
			<circle fill="#CECECE" cx="307.5" cy="842.5" r="2"/>
			<rect x="383.5" y="661.5" fill="#CECECE" width="32" height="4"/>
			<rect x="489.5" y="661.5" fill="#CECECE" width="4" height="4"/>
			<rect x="481.5" y="661.5" fill="#CECECE" width="4" height="4"/>
			<rect x="473.5" y="661.5" fill="#CECECE" width="4" height="4"/>
			<rect x="221.5" y="678.5" fill="#363A3A" width="80" height="10"/>
			<rect x="231.5" y="682.5" fill="#7A7A7A" width="32" height="2"/>
			<rect x="231.5" y="692.5" fill="#7A7A7A" width="26" height="2"/>
			<rect x="231.5" y="708.5" fill="#5B5B5B" width="26" height="2"/>
			<rect x="237.5" y="718.5" fill="#7A7A7A" width="10" height="2"/>
			<rect x="243.5" y="728.5" fill="#707070" width="18" height="2"/>
			<rect x="243.5" y="738.5" fill="#707070" width="24" height="2"/>
			<rect x="243.5" y="748.5" fill="#707070" width="16" height="2"/>
			<rect x="237.5" y="758.5" fill="#7A7A7A" width="20" height="2"/>
			<rect x="243.5" y="768.5" fill="#707070" width="26" height="2"/>
			<rect x="243.5" y="778.5" fill="#707070" width="18" height="2"/>
			<rect x="243.5" y="788.5" fill="#707070" width="22" height="2"/>
			<rect x="231.5" y="672.5" fill="#7A7A7A" width="22" height="2"/>
			<rect x="325.5" y="704.5" fill="#4C7FC0" width="8" height="2"/>
			<rect x="385.5" y="704.5" fill="#4C7FC0" width="2" height="2"/>
			<rect x="343.5" y="704.5" fill="#F8C286" width="16" height="2"/>
			<rect x="335.5" y="704.5" fill="#B0BC74" width="8" height="2"/>
			<rect x="369.5" y="704.5" fill="#F8C286" width="16" height="2"/>
			<rect x="361.5" y="704.5" fill="#B0BC74" width="8" height="2"/>
			<rect x="325.5" y="722.5" fill="#4C7FC0" width="6" height="2"/>
			<rect x="331.5" y="728.5" fill="#4C7FC0" width="6" height="2"/>
			<rect x="331.5" y="764.5" fill="#4C7FC0" width="6" height="2"/>
			<rect x="331.5" y="770.5" fill="#4C7FC0" width="10" height="2"/>
			<rect x="331.5" y="806.5" fill="#4C7FC0" width="10" height="2"/>
			<rect x="357.5" y="722.5" fill="#4C7FC0" width="2" height="2"/>
			<rect x="341.5" y="722.5" fill="#F8C286" width="16" height="2"/>
			<rect x="333.5" y="722.5" fill="#B0BC74" width="8" height="2"/>
			<rect x="337.5" y="734.5" fill="#4C7FC0" width="6" height="2"/>
			<rect x="369.5" y="734.5" fill="#4C7FC0" width="2" height="2"/>
			<rect x="353.5" y="734.5" fill="#F8C286" width="16" height="2"/>
			<rect x="345.5" y="734.5" fill="#B0BC74" width="8" height="2"/>
			<rect x="367.5" y="770.5" fill="#4C7FC0" width="2" height="2"/>
			<rect x="351.5" y="770.5" fill="#F8C286" width="16" height="2"/>
			<rect x="343.5" y="770.5" fill="#B0BC74" width="8" height="2"/>
			<rect x="337.5" y="740.5" fill="#4C7FC0" width="6" height="2"/>
			<rect x="365.5" y="740.5" fill="#4C7FC0" width="2" height="2"/>
			<rect x="353.5" y="740.5" fill="#F8C286" width="12" height="2"/>
			<rect x="345.5" y="740.5" fill="#B0BC74" width="8" height="2"/>
			<rect x="337.5" y="776.5" fill="#4C7FC0" width="4" height="2"/>
			<rect x="341.5" y="782.5" fill="#B7B7B7" width="64" height="2"/>
			<rect x="341.5" y="788.5" fill="#B7B7B7" width="56" height="2"/>
			<rect x="341.5" y="794.5" fill="#B7B7B7" width="60" height="2"/>
			<rect x="337.5" y="800.5" fill="#4C7FC0" width="4" height="2"/>
			<rect x="331.5" y="812.5" fill="#4C7FC0" width="10" height="2"/>
			<rect x="367.5" y="812.5" fill="#4C7FC0" width="2" height="2"/>
			<rect x="351.5" y="812.5" fill="#F8C286" width="16" height="2"/>
			<rect x="343.5" y="812.5" fill="#B0BC74" width="8" height="2"/>
			<rect x="337.5" y="818.5" fill="#4C7FC0" width="4" height="2"/>
			<rect x="341.5" y="824.5" fill="#B7B7B7" width="64" height="2"/>
			<rect x="341.5" y="830.5" fill="#B7B7B7" width="56" height="2"/>
			<rect x="341.5" y="836.5" fill="#B7B7B7" width="60" height="2"/>
			<rect x="337.5" y="842.5" fill="#4C7FC0" width="4" height="2"/>
			<rect x="337.5" y="746.5" fill="#4C7FC0" width="6" height="2"/>
			<rect x="359.5" y="746.5" fill="#4C7FC0" width="2" height="2"/>
			<rect x="353.5" y="746.5" fill="#F8C286" width="6" height="2"/>
			<rect x="345.5" y="746.5" fill="#B0BC74" width="8" height="2"/>
			<rect x="337.5" y="752.5" fill="#4C7FC0" width="6" height="2"/>
			<rect x="375.5" y="752.5" fill="#4C7FC0" width="2" height="2"/>
			<rect x="353.5" y="752.5" fill="#F8C286" width="22" height="2"/>
			<rect x="345.5" y="752.5" fill="#B0BC74" width="8" height="2"/>
			<rect x="337.5" y="758.5" fill="#4C7FC0" width="6" height="2"/>
			<rect x="369.5" y="758.5" fill="#4C7FC0" width="2" height="2"/>
			<rect x="353.5" y="758.5" fill="#F8C286" width="16" height="2"/>
			<rect x="345.5" y="758.5" fill="#B0BC74" width="8" height="2"/>
			<rect x="325.5" y="698.5" fill="#4C7FC0" width="8" height="2"/>
			<rect x="317.5" y="686.5" fill="#4C7FC0" width="8" height="2"/>
			<rect x="317.5" y="710.5" fill="#4C7FC0" width="8" height="2"/>
			<rect x="317.5" y="716.5" fill="#4C7FC0" width="8" height="2"/>
			<rect x="317.5" y="674.5" fill="#B7B7B7" width="16" height="2"/>
			<rect x="359.5" y="698.5" fill="#4C7FC0" width="2" height="2"/>
			<rect x="343.5" y="698.5" fill="#F8C286" width="16" height="2"/>
			<rect x="335.5" y="698.5" fill="#B0BC74" width="8" height="2"/>
			<rect x="325.5" y="692.5" fill="#B7B7B7" width="36" height="2"/>
		</g>
	</g>
</g>
<g>
	<path opacity="0.15" d="M221.5,705c-0.552,0-1-0.447-1-1v-47c0-0.553,0.448-1,1-1h10v-11c0-0.553,0.448-1,1-1h32
		c0.552,0,1,0.447,1,1v11h10v-11c0-0.553,0.448-1,1-1h32c0.552,0,1,0.447,1,1v11h10v-11c0-0.553,0.448-1,1-1h32c0.552,0,1,0.447,1,1
		v11h10v-11c0-0.553,0.447-1,1-1h32c0.553,0,1,0.447,1,1v11h10v-11c0-0.553,0.447-1,1-1h32c0.553,0,1,0.447,1,1v11h10v-11
		c0-0.553,0.447-1,1-1h32c0.553,0,1,0.447,1,1v11h12c0.553,0,1,0.447,1,1v47c0,0.553-0.447,1-1,1H221.5z"/>
	<path opacity="0.15" d="M221.5,704.5c-0.276,0-0.5-0.224-0.5-0.5v-47c0-0.276,0.224-0.5,0.5-0.5H232V645c0-0.276,0.224-0.5,0.5-0.5
		h32c0.276,0,0.5,0.224,0.5,0.5v11.5h11V645c0-0.276,0.224-0.5,0.5-0.5h32c0.276,0,0.5,0.224,0.5,0.5v11.5h11V645
		c0-0.276,0.224-0.5,0.5-0.5h32c0.276,0,0.5,0.224,0.5,0.5v11.5h11V645c0-0.276,0.224-0.5,0.5-0.5h32c0.276,0,0.5,0.224,0.5,0.5
		v11.5h11V645c0-0.276,0.224-0.5,0.5-0.5h32c0.276,0,0.5,0.224,0.5,0.5v11.5h11V645c0-0.276,0.224-0.5,0.5-0.5h32
		c0.276,0,0.5,0.224,0.5,0.5v11.5h12.5c0.276,0,0.5,0.224,0.5,0.5v47c0,0.276-0.224,0.5-0.5,0.5H221.5z"/>
	<polygon fill="#FFFFFF" points="484.5,656.5 484.5,644.5 452.5,644.5 452.5,656.5 440.5,656.5 440.5,644.5 408.5,644.5 
		408.5,656.5 396.5,656.5 396.5,644.5 364.5,644.5 364.5,656.5 352.5,656.5 352.5,644.5 320.5,644.5 320.5,656.5 308.5,656.5 
		308.5,644.5 276.5,644.5 276.5,656.5 264.5,656.5 264.5,644.5 232.5,644.5 232.5,656.5 221.5,656.5 221.5,703.5 497.5,703.5 
		497.5,656.5 	"/>
	<g>
		<defs>
			<polygon id="SVGID_9_" points="484.5,656.5 484.5,644.5 452.5,644.5 452.5,656.5 440.5,656.5 440.5,644.5 408.5,644.5 
				408.5,656.5 396.5,656.5 396.5,644.5 364.5,644.5 364.5,656.5 352.5,656.5 352.5,644.5 320.5,644.5 320.5,656.5 308.5,656.5 
				308.5,644.5 276.5,644.5 276.5,656.5 264.5,656.5 264.5,644.5 232.5,644.5 232.5,656.5 221.5,656.5 221.5,703.5 497.5,703.5 
				497.5,656.5 			"/>
		</defs>
		<clipPath id="SVGID_10_">
			<use xlink:href="#SVGID_9_"  overflow="visible"/>
		</clipPath>
		<g clip-path="url(#SVGID_10_)">
			<rect x="301.5" y="656.5" fill="#FEFEFE" width="196" height="14"/>
			<rect x="221.5" y="656.5" fill="#464B4C" width="80" height="188"/>
			<rect x="301.5" y="670.5" fill="#F3F3F3" width="196" height="174"/>
			<circle fill="#CECECE" cx="307.5" cy="674.5" r="2"/>
			<circle fill="#CECECE" cx="307.5" cy="680.5" r="2"/>
			<circle fill="#CECECE" cx="307.5" cy="686.5" r="2"/>
			<circle fill="#CECECE" cx="307.5" cy="692.5" r="2"/>
			<circle fill="#CECECE" cx="307.5" cy="698.5" r="2"/>
			<circle fill="#CECECE" cx="307.5" cy="704.5" r="2"/>
			<circle fill="#CECECE" cx="307.5" cy="710.5" r="2"/>
			<circle fill="#CECECE" cx="307.5" cy="716.5" r="2"/>
			<circle fill="#CECECE" cx="307.5" cy="722.5" r="2"/>
			<circle fill="#CECECE" cx="307.5" cy="728.5" r="2"/>
			<circle fill="#CECECE" cx="307.5" cy="734.5" r="2"/>
			<circle fill="#CECECE" cx="307.5" cy="740.5" r="2"/>
			<circle fill="#CECECE" cx="307.5" cy="746.5" r="2"/>
			<circle fill="#CECECE" cx="307.5" cy="752.5" r="2"/>
			<circle fill="#CECECE" cx="307.5" cy="758.5" r="2"/>
			<circle fill="#CECECE" cx="307.5" cy="764.5" r="2"/>
			<circle fill="#CECECE" cx="307.5" cy="770.5" r="2"/>
			<circle fill="#CECECE" cx="307.5" cy="776.5" r="2"/>
			<circle fill="#CECECE" cx="307.5" cy="782.5" r="2"/>
			<circle fill="#CECECE" cx="307.5" cy="788.5" r="2"/>
			<circle fill="#CECECE" cx="307.5" cy="794.5" r="2"/>
			<circle fill="#CECECE" cx="307.5" cy="800.5" r="2"/>
			<circle fill="#CECECE" cx="307.5" cy="806.5" r="2"/>
			<circle fill="#CECECE" cx="307.5" cy="812.5" r="2"/>
			<circle fill="#CECECE" cx="307.5" cy="818.5" r="2"/>
			<circle fill="#CECECE" cx="307.5" cy="824.5" r="2"/>
			<circle fill="#CECECE" cx="307.5" cy="830.5" r="2"/>
			<circle fill="#CECECE" cx="307.5" cy="836.5" r="2"/>
			<circle fill="#CECECE" cx="307.5" cy="842.5" r="2"/>
			<rect x="383.5" y="661.5" fill="#CECECE" width="32" height="4"/>
			<rect x="489.5" y="661.5" fill="#CECECE" width="4" height="4"/>
			<rect x="481.5" y="661.5" fill="#CECECE" width="4" height="4"/>
			<rect x="473.5" y="661.5" fill="#CECECE" width="4" height="4"/>
			<rect x="221.5" y="678.5" fill="#363A3A" width="80" height="10"/>
			<rect x="231.5" y="682.5" fill="#7A7A7A" width="32" height="2"/>
			<rect x="231.5" y="692.5" fill="#7A7A7A" width="26" height="2"/>
			<rect x="231.5" y="708.5" fill="#5B5B5B" width="26" height="2"/>
			<rect x="237.5" y="718.5" fill="#7A7A7A" width="10" height="2"/>
			<rect x="243.5" y="728.5" fill="#707070" width="18" height="2"/>
			<rect x="243.5" y="738.5" fill="#707070" width="24" height="2"/>
			<rect x="243.5" y="748.5" fill="#707070" width="16" height="2"/>
			<rect x="237.5" y="758.5" fill="#7A7A7A" width="20" height="2"/>
			<rect x="243.5" y="768.5" fill="#707070" width="26" height="2"/>
			<rect x="243.5" y="778.5" fill="#707070" width="18" height="2"/>
			<rect x="243.5" y="788.5" fill="#707070" width="22" height="2"/>
			<rect x="231.5" y="672.5" fill="#7A7A7A" width="22" height="2"/>
			<rect x="325.5" y="704.5" fill="#4C7FC0" width="8" height="2"/>
			<rect x="385.5" y="704.5" fill="#4C7FC0" width="2" height="2"/>
			<rect x="343.5" y="704.5" fill="#F8C286" width="16" height="2"/>
			<rect x="335.5" y="704.5" fill="#B0BC74" width="8" height="2"/>
			<rect x="369.5" y="704.5" fill="#F8C286" width="16" height="2"/>
			<rect x="361.5" y="704.5" fill="#B0BC74" width="8" height="2"/>
			<rect x="325.5" y="722.5" fill="#4C7FC0" width="6" height="2"/>
			<rect x="331.5" y="728.5" fill="#4C7FC0" width="6" height="2"/>
			<rect x="331.5" y="764.5" fill="#4C7FC0" width="6" height="2"/>
			<rect x="331.5" y="770.5" fill="#4C7FC0" width="10" height="2"/>
			<rect x="331.5" y="806.5" fill="#4C7FC0" width="10" height="2"/>
			<rect x="357.5" y="722.5" fill="#4C7FC0" width="2" height="2"/>
			<rect x="341.5" y="722.5" fill="#F8C286" width="16" height="2"/>
			<rect x="333.5" y="722.5" fill="#B0BC74" width="8" height="2"/>
			<rect x="337.5" y="734.5" fill="#4C7FC0" width="6" height="2"/>
			<rect x="369.5" y="734.5" fill="#4C7FC0" width="2" height="2"/>
			<rect x="353.5" y="734.5" fill="#F8C286" width="16" height="2"/>
			<rect x="345.5" y="734.5" fill="#B0BC74" width="8" height="2"/>
			<rect x="367.5" y="770.5" fill="#4C7FC0" width="2" height="2"/>
			<rect x="351.5" y="770.5" fill="#F8C286" width="16" height="2"/>
			<rect x="343.5" y="770.5" fill="#B0BC74" width="8" height="2"/>
			<rect x="337.5" y="740.5" fill="#4C7FC0" width="6" height="2"/>
			<rect x="365.5" y="740.5" fill="#4C7FC0" width="2" height="2"/>
			<rect x="353.5" y="740.5" fill="#F8C286" width="12" height="2"/>
			<rect x="345.5" y="740.5" fill="#B0BC74" width="8" height="2"/>
			<rect x="337.5" y="776.5" fill="#4C7FC0" width="4" height="2"/>
			<rect x="341.5" y="782.5" fill="#B7B7B7" width="64" height="2"/>
			<rect x="341.5" y="788.5" fill="#B7B7B7" width="56" height="2"/>
			<rect x="341.5" y="794.5" fill="#B7B7B7" width="60" height="2"/>
			<rect x="337.5" y="800.5" fill="#4C7FC0" width="4" height="2"/>
			<rect x="331.5" y="812.5" fill="#4C7FC0" width="10" height="2"/>
			<rect x="367.5" y="812.5" fill="#4C7FC0" width="2" height="2"/>
			<rect x="351.5" y="812.5" fill="#F8C286" width="16" height="2"/>
			<rect x="343.5" y="812.5" fill="#B0BC74" width="8" height="2"/>
			<rect x="337.5" y="818.5" fill="#4C7FC0" width="4" height="2"/>
			<rect x="341.5" y="824.5" fill="#B7B7B7" width="64" height="2"/>
			<rect x="341.5" y="830.5" fill="#B7B7B7" width="56" height="2"/>
			<rect x="341.5" y="836.5" fill="#B7B7B7" width="60" height="2"/>
			<rect x="337.5" y="842.5" fill="#4C7FC0" width="4" height="2"/>
			<rect x="337.5" y="746.5" fill="#4C7FC0" width="6" height="2"/>
			<rect x="359.5" y="746.5" fill="#4C7FC0" width="2" height="2"/>
			<rect x="353.5" y="746.5" fill="#F8C286" width="6" height="2"/>
			<rect x="345.5" y="746.5" fill="#B0BC74" width="8" height="2"/>
			<rect x="337.5" y="752.5" fill="#4C7FC0" width="6" height="2"/>
			<rect x="375.5" y="752.5" fill="#4C7FC0" width="2" height="2"/>
			<rect x="353.5" y="752.5" fill="#F8C286" width="22" height="2"/>
			<rect x="345.5" y="752.5" fill="#B0BC74" width="8" height="2"/>
			<rect x="337.5" y="758.5" fill="#4C7FC0" width="6" height="2"/>
			<rect x="369.5" y="758.5" fill="#4C7FC0" width="2" height="2"/>
			<rect x="353.5" y="758.5" fill="#F8C286" width="16" height="2"/>
			<rect x="345.5" y="758.5" fill="#B0BC74" width="8" height="2"/>
			<rect x="325.5" y="698.5" fill="#4C7FC0" width="8" height="2"/>
			<rect x="317.5" y="686.5" fill="#4C7FC0" width="8" height="2"/>
			<rect x="317.5" y="710.5" fill="#4C7FC0" width="8" height="2"/>
			<rect x="317.5" y="716.5" fill="#4C7FC0" width="8" height="2"/>
			<rect x="317.5" y="674.5" fill="#B7B7B7" width="16" height="2"/>
			<rect x="359.5" y="698.5" fill="#4C7FC0" width="2" height="2"/>
			<rect x="343.5" y="698.5" fill="#F8C286" width="16" height="2"/>
			<rect x="335.5" y="698.5" fill="#B0BC74" width="8" height="2"/>
			<rect x="325.5" y="692.5" fill="#B7B7B7" width="36" height="2"/>
		</g>
	</g>
	<rect x="232.5" y="644.5" fill="#464B4C" width="32" height="12"/>
	<rect x="276.5" y="644.5" fill="#464B4C" width="25" height="12"/>
	<g>
		
			<linearGradient id="SVGID_11_" gradientUnits="userSpaceOnUse" x1="59.5" y1="-211.5" x2="91.5" y2="-211.5" gradientTransform="matrix(-1 0 0 -1 324 439)">
			<stop  offset="0" style="stop-color:#000000;stop-opacity:0.1"/>
			<stop  offset="0.5" style="stop-color:#000000;stop-opacity:0"/>
			<stop  offset="1" style="stop-color:#000000;stop-opacity:0.2"/>
		</linearGradient>
		<rect x="232.5" y="644.5" fill="url(#SVGID_11_)" width="32" height="12"/>
		<rect x="232.5" y="655.5" opacity="0.1" enable-background="new    " width="32" height="1"/>
	</g>
	<g>
		
			<linearGradient id="SVGID_12_" gradientUnits="userSpaceOnUse" x1="15.5" y1="-211.5" x2="47.5" y2="-211.5" gradientTransform="matrix(-1 0 0 -1 324 439)">
			<stop  offset="0" style="stop-color:#000000;stop-opacity:0.1"/>
			<stop  offset="0.5" style="stop-color:#000000;stop-opacity:0"/>
			<stop  offset="1" style="stop-color:#000000;stop-opacity:0.2"/>
		</linearGradient>
		<rect x="276.5" y="644.5" fill="url(#SVGID_12_)" width="32" height="12"/>
		<rect x="276.5" y="655.5" opacity="0.1" enable-background="new    " width="32" height="1"/>
	</g>
	<g>
		
			<linearGradient id="SVGID_13_" gradientUnits="userSpaceOnUse" x1="-28.5" y1="-211.5" x2="3.5" y2="-211.5" gradientTransform="matrix(-1 0 0 -1 324 439)">
			<stop  offset="0" style="stop-color:#000000;stop-opacity:0.1"/>
			<stop  offset="0.5" style="stop-color:#000000;stop-opacity:0"/>
			<stop  offset="1" style="stop-color:#000000;stop-opacity:0.2"/>
		</linearGradient>
		<rect x="320.5" y="644.5" fill="url(#SVGID_13_)" width="32" height="12"/>
		<rect x="320.5" y="655.5" opacity="0.1" enable-background="new    " width="32" height="1"/>
	</g>
	<g>
		
			<linearGradient id="SVGID_14_" gradientUnits="userSpaceOnUse" x1="-72.5" y1="-211.5" x2="-40.5" y2="-211.5" gradientTransform="matrix(-1 0 0 -1 324 439)">
			<stop  offset="0" style="stop-color:#000000;stop-opacity:0.1"/>
			<stop  offset="0.5" style="stop-color:#000000;stop-opacity:0"/>
			<stop  offset="1" style="stop-color:#000000;stop-opacity:0.2"/>
		</linearGradient>
		<rect x="364.5" y="644.5" fill="url(#SVGID_14_)" width="32" height="12"/>
		<rect x="364.5" y="655.5" opacity="0.1" enable-background="new    " width="32" height="1"/>
	</g>
	<g>
		
			<linearGradient id="SVGID_15_" gradientUnits="userSpaceOnUse" x1="-116.5" y1="-211.5" x2="-84.5" y2="-211.5" gradientTransform="matrix(-1 0 0 -1 324 439)">
			<stop  offset="0" style="stop-color:#000000;stop-opacity:0.1"/>
			<stop  offset="0.5" style="stop-color:#000000;stop-opacity:0"/>
			<stop  offset="1" style="stop-color:#000000;stop-opacity:0.2"/>
		</linearGradient>
		<rect x="408.5" y="644.5" fill="url(#SVGID_15_)" width="32" height="12"/>
		<rect x="408.5" y="655.5" opacity="0.1" enable-background="new    " width="32" height="1"/>
	</g>
	<g>
		
			<linearGradient id="SVGID_16_" gradientUnits="userSpaceOnUse" x1="-160.5" y1="-211.5" x2="-128.5" y2="-211.5" gradientTransform="matrix(-1 0 0 -1 324 439)">
			<stop  offset="0" style="stop-color:#000000;stop-opacity:0.1"/>
			<stop  offset="0.5" style="stop-color:#000000;stop-opacity:0"/>
			<stop  offset="1" style="stop-color:#000000;stop-opacity:0.2"/>
		</linearGradient>
		<rect x="452.5" y="644.5" fill="url(#SVGID_16_)" width="32" height="12"/>
		<rect x="452.5" y="655.5" opacity="0.1" enable-background="new    " width="32" height="1"/>
	</g>
</g>
<g>
	
		<linearGradient id="SVGID_17_" gradientUnits="userSpaceOnUse" x1="-28.5" y1="-305.5" x2="3.5" y2="-305.5" gradientTransform="matrix(-1 0 0 -1 324 439)">
		<stop  offset="0" style="stop-color:#000000;stop-opacity:0.1"/>
		<stop  offset="0.5" style="stop-color:#000000;stop-opacity:0"/>
		<stop  offset="1" style="stop-color:#000000;stop-opacity:0.2"/>
	</linearGradient>
	<rect x="320.5" y="738.5" fill="url(#SVGID_17_)" width="32" height="12"/>
	<rect x="320.5" y="749.5" opacity="0.1" enable-background="new    " width="32" height="1"/>
</g>
<g>
	
		<linearGradient id="SVGID_18_" gradientUnits="userSpaceOnUse" x1="-72.5" y1="-305.5" x2="-40.5" y2="-305.5" gradientTransform="matrix(-1 0 0 -1 324 439)">
		<stop  offset="0" style="stop-color:#000000;stop-opacity:0.1"/>
		<stop  offset="0.5" style="stop-color:#000000;stop-opacity:0"/>
		<stop  offset="1" style="stop-color:#000000;stop-opacity:0.2"/>
	</linearGradient>
	<rect x="364.5" y="738.5" fill="url(#SVGID_18_)" width="32" height="12"/>
	<rect x="364.5" y="749.5" opacity="0.1" enable-background="new    " width="32" height="1"/>
</g>
</svg>
