<?xml version="1.0" encoding="utf-8"?>
<!-- Generator: Adobe Illustrator 15.1.0, SVG Export Plug-In . SVG Version: 6.00 Build 0)  -->
<!DOCTYPE svg PUBLIC "-//W3C//DTD SVG 1.1//EN" "http://www.w3.org/Graphics/SVG/1.1/DTD/svg11.dtd">
<svg version="1.1" id="Layer_1" xmlns="http://www.w3.org/2000/svg" xmlns:xlink="http://www.w3.org/1999/xlink" x="0px" y="0px"
	 width="280px" height="288px" viewBox="-32.5 600.5 280 288" enable-background="new -32.5 600.5 280 288" xml:space="preserve">
<g>
	<path opacity="0.08" d="M-30.5,841.5c-0.829,0-1.5-0.672-1.5-1.5V650c0-0.828,0.671-1.5,1.5-1.5h276c0.829,0,1.5,0.672,1.5,1.5v190
		c0,0.828-0.671,1.5-1.5,1.5H-30.5z"/>
	<path opacity="0.08" d="M-30.5,841c-0.552,0-1-0.447-1-1V650c0-0.553,0.448-1,1-1h276c0.552,0,1,0.447,1,1v190c0,0.553-0.448,1-1,1
		H-30.5z"/>
	<path opacity="0.08" d="M-30.5,840.5c-0.276,0-0.5-0.224-0.5-0.5V650c0-0.276,0.224-0.5,0.5-0.5h276c0.276,0,0.5,0.224,0.5,0.5v190
		c0,0.276-0.224,0.5-0.5,0.5H-30.5z"/>
	<rect x="-30.5" y="650" opacity="0.08" width="276" height="190"/>
</g>
<g>
	<rect x="49.5" y="649.5" fill="#FEFEFE" width="196" height="14"/>
	<rect x="-30.5" y="649.5" fill="#464B4C" width="80" height="190"/>
	<rect x="49.5" y="663.5" fill="#F3F3F3" width="196" height="176"/>
	<circle fill="#CECECE" cx="55.5" cy="669.5" r="2"/>
	<circle fill="#CECECE" cx="55.5" cy="675.5" r="2"/>
	<circle fill="#CECECE" cx="55.5" cy="681.5" r="2"/>
	<circle fill="#CECECE" cx="55.5" cy="687.5" r="2"/>
	<circle fill="#CECECE" cx="55.5" cy="693.5" r="2"/>
	<circle fill="#CECECE" cx="55.5" cy="699.5" r="2"/>
	<circle fill="#CECECE" cx="55.5" cy="705.5" r="2"/>
	<circle fill="#CECECE" cx="55.5" cy="711.5" r="2"/>
	<circle fill="#CECECE" cx="55.5" cy="717.5" r="2"/>
	<circle fill="#CECECE" cx="55.5" cy="723.5" r="2"/>
	<circle fill="#CECECE" cx="55.5" cy="729.5" r="2"/>
	<circle fill="#CECECE" cx="55.5" cy="735.5" r="2"/>
	<circle fill="#CECECE" cx="55.5" cy="741.5" r="2"/>
	<circle fill="#CECECE" cx="55.5" cy="747.5" r="2"/>
	<circle fill="#CECECE" cx="55.5" cy="753.5" r="2"/>
	<circle fill="#CECECE" cx="55.5" cy="759.5" r="2"/>
	<circle fill="#CECECE" cx="55.5" cy="765.5" r="2"/>
	<circle fill="#CECECE" cx="55.5" cy="771.5" r="2"/>
	<circle fill="#CECECE" cx="55.5" cy="777.5" r="2"/>
	<circle fill="#CECECE" cx="55.5" cy="783.5" r="2"/>
	<circle fill="#CECECE" cx="55.5" cy="789.5" r="2"/>
	<circle fill="#CECECE" cx="55.5" cy="795.5" r="2"/>
	<circle fill="#CECECE" cx="55.5" cy="801.5" r="2"/>
	<circle fill="#CECECE" cx="55.5" cy="807.5" r="2"/>
	<circle fill="#CECECE" cx="55.5" cy="813.5" r="2"/>
	<circle fill="#CECECE" cx="55.5" cy="819.5" r="2"/>
	<circle fill="#CECECE" cx="55.5" cy="825.5" r="2"/>
	<circle fill="#CECECE" cx="55.5" cy="831.5" r="2"/>
	<circle fill="#CECECE" cx="55.5" cy="837.5" r="2"/>
	<rect x="131.5" y="654.5" fill="#CECECE" width="32" height="4"/>
	<rect x="237.5" y="654.5" fill="#CECECE" width="4" height="4"/>
	<rect x="229.5" y="654.5" fill="#CECECE" width="4" height="4"/>
	<rect x="221.5" y="654.5" fill="#CECECE" width="4" height="4"/>
	<rect x="-30.5" y="671.5" fill="#363A3A" width="80" height="10"/>
	<rect x="-20.5" y="675.5" fill="#7A7A7A" width="32" height="2"/>
	<rect x="-20.5" y="685.5" fill="#7A7A7A" width="26" height="2"/>
	<rect x="-20.5" y="701.5" fill="#5B5B5B" width="26" height="2"/>
	<rect x="-14.5" y="711.5" fill="#7A7A7A" width="10" height="2"/>
	<rect x="-8.5" y="721.5" fill="#707070" width="18" height="2"/>
	<rect x="-8.5" y="731.5" fill="#707070" width="24" height="2"/>
	<rect x="-8.5" y="741.5" fill="#707070" width="16" height="2"/>
	<rect x="-14.5" y="751.5" fill="#7A7A7A" width="20" height="2"/>
	<rect x="-8.5" y="761.5" fill="#707070" width="26" height="2"/>
	<rect x="-8.5" y="771.5" fill="#707070" width="18" height="2"/>
	<rect x="-8.5" y="781.5" fill="#707070" width="22" height="2"/>
	<rect x="-20.5" y="665.5" fill="#7A7A7A" width="22" height="2"/>
	<rect x="73.5" y="697.5" fill="#4C7FC0" width="8" height="2"/>
	<rect x="133.5" y="697.5" fill="#4C7FC0" width="2" height="2"/>
	<rect x="91.5" y="697.5" fill="#F8C286" width="16" height="2"/>
	<rect x="83.5" y="697.5" fill="#B0BC74" width="8" height="2"/>
	<rect x="117.5" y="697.5" fill="#F8C286" width="16" height="2"/>
	<rect x="109.5" y="697.5" fill="#B0BC74" width="8" height="2"/>
	<rect x="73.5" y="715.5" fill="#4C7FC0" width="6" height="2"/>
	<rect x="79.5" y="721.5" fill="#4C7FC0" width="6" height="2"/>
	<rect x="79.5" y="757.5" fill="#4C7FC0" width="6" height="2"/>
	<rect x="79.5" y="763.5" fill="#4C7FC0" width="10" height="2"/>
	<rect x="79.5" y="799.5" fill="#4C7FC0" width="10" height="2"/>
	<rect x="105.5" y="715.5" fill="#4C7FC0" width="2" height="2"/>
	<rect x="89.5" y="715.5" fill="#F8C286" width="16" height="2"/>
	<rect x="81.5" y="715.5" fill="#B0BC74" width="8" height="2"/>
	<rect x="85.5" y="727.5" fill="#4C7FC0" width="6" height="2"/>
	<rect x="117.5" y="727.5" fill="#4C7FC0" width="2" height="2"/>
	<rect x="101.5" y="727.5" fill="#F8C286" width="16" height="2"/>
	<rect x="93.5" y="727.5" fill="#B0BC74" width="8" height="2"/>
	<rect x="115.5" y="763.5" fill="#4C7FC0" width="2" height="2"/>
	<rect x="99.5" y="763.5" fill="#F8C286" width="16" height="2"/>
	<rect x="91.5" y="763.5" fill="#B0BC74" width="8" height="2"/>
	<rect x="85.5" y="733.5" fill="#4C7FC0" width="6" height="2"/>
	<rect x="113.5" y="733.5" fill="#4C7FC0" width="2" height="2"/>
	<rect x="101.5" y="733.5" fill="#F8C286" width="12" height="2"/>
	<rect x="93.5" y="733.5" fill="#B0BC74" width="8" height="2"/>
	<rect x="85.5" y="769.5" fill="#4C7FC0" width="4" height="2"/>
	<rect x="89.5" y="775.5" fill="#B7B7B7" width="64" height="2"/>
	<rect x="89.5" y="781.5" fill="#B7B7B7" width="56" height="2"/>
	<rect x="89.5" y="787.5" fill="#B7B7B7" width="60" height="2"/>
	<rect x="85.5" y="793.5" fill="#4C7FC0" width="4" height="2"/>
	<rect x="79.5" y="805.5" fill="#4C7FC0" width="10" height="2"/>
	<rect x="115.5" y="805.5" fill="#4C7FC0" width="2" height="2"/>
	<rect x="99.5" y="805.5" fill="#F8C286" width="16" height="2"/>
	<rect x="91.5" y="805.5" fill="#B0BC74" width="8" height="2"/>
	<rect x="85.5" y="811.5" fill="#4C7FC0" width="4" height="2"/>
	<rect x="89.5" y="817.5" fill="#B7B7B7" width="64" height="2"/>
	<rect x="89.5" y="823.5" fill="#B7B7B7" width="56" height="2"/>
	<rect x="89.5" y="829.5" fill="#B7B7B7" width="60" height="2"/>
	<rect x="85.5" y="835.5" fill="#4C7FC0" width="4" height="2"/>
	<rect x="85.5" y="739.5" fill="#4C7FC0" width="6" height="2"/>
	<rect x="107.5" y="739.5" fill="#4C7FC0" width="2" height="2"/>
	<rect x="101.5" y="739.5" fill="#F8C286" width="6" height="2"/>
	<rect x="93.5" y="739.5" fill="#B0BC74" width="8" height="2"/>
	<rect x="85.5" y="745.5" fill="#4C7FC0" width="6" height="2"/>
	<rect x="123.5" y="745.5" fill="#4C7FC0" width="2" height="2"/>
	<rect x="101.5" y="745.5" fill="#F8C286" width="22" height="2"/>
	<rect x="93.5" y="745.5" fill="#B0BC74" width="8" height="2"/>
	<rect x="85.5" y="751.5" fill="#4C7FC0" width="6" height="2"/>
	<rect x="117.5" y="751.5" fill="#4C7FC0" width="2" height="2"/>
	<rect x="101.5" y="751.5" fill="#F8C286" width="16" height="2"/>
	<rect x="93.5" y="751.5" fill="#B0BC74" width="8" height="2"/>
	<rect x="73.5" y="691.5" fill="#4C7FC0" width="8" height="2"/>
	<rect x="65.5" y="679.5" fill="#4C7FC0" width="8" height="2"/>
	<rect x="65.5" y="703.5" fill="#4C7FC0" width="8" height="2"/>
	<rect x="65.5" y="709.5" fill="#4C7FC0" width="8" height="2"/>
	<rect x="65.5" y="667.5" fill="#B7B7B7" width="16" height="2"/>
	<rect x="107.5" y="691.5" fill="#4C7FC0" width="2" height="2"/>
	<rect x="91.5" y="691.5" fill="#F8C286" width="16" height="2"/>
	<rect x="83.5" y="691.5" fill="#B0BC74" width="8" height="2"/>
	<rect x="73.5" y="685.5" fill="#B7B7B7" width="36" height="2"/>
</g>
<g>
	<g>
		<g>
			<path opacity="0.08" enable-background="new    " d="M179.197,795c-0.121,0-0.243-0.021-0.357-0.066l-34.888-13.354
				c-0.455-0.174-0.718-0.648-0.624-1.127l3.528-17.805c0.094-0.471,0.504-0.807,0.981-0.807h14.836
				c0.299,0,0.583,0.133,0.772,0.363s0.267,0.535,0.209,0.828l-1.28,6.514l19.972,7.631l23.45-7.764l3.018-15.156h-59.172
				c-0.299,0-0.583-0.135-0.771-0.365c-0.19-0.23-0.268-0.535-0.208-0.828l2.927-14.838c0.092-0.469,0.503-0.807,0.981-0.807h59.607
				l1.491-7.584h-59.175c-0.3,0-0.583-0.135-0.773-0.365c-0.189-0.23-0.266-0.537-0.207-0.83l2.969-14.838
				c0.093-0.467,0.504-0.803,0.979-0.803h75.229c0.299,0,0.583,0.133,0.772,0.365c0.19,0.229,0.266,0.535,0.208,0.83l-6.856,34.484
				l-1.083,5.375l-5.333,26.785c-0.07,0.354-0.325,0.643-0.666,0.754l-40.221,13.354C179.41,794.984,179.304,795,179.197,795z"/>
			<path opacity="0.08" enable-background="new    " d="M179.197,794.5c-0.062,0-0.121-0.01-0.18-0.033l-34.888-13.354
				c-0.228-0.086-0.359-0.324-0.312-0.562l3.528-17.807c0.046-0.232,0.251-0.4,0.49-0.4h14.836c0.149,0,0.291,0.066,0.386,0.184
				c0.096,0.113,0.134,0.268,0.104,0.414l-1.361,6.926l20.532,7.846l23.895-7.912l3.193-16.039H149.64
				c-0.148,0-0.292-0.066-0.386-0.184c-0.095-0.115-0.133-0.27-0.104-0.414l2.927-14.836c0.046-0.234,0.252-0.404,0.491-0.404h60.02
				l1.688-8.584h-59.783c-0.15,0-0.292-0.066-0.388-0.182c-0.095-0.117-0.133-0.271-0.104-0.416l2.968-14.836
				c0.047-0.234,0.252-0.402,0.49-0.402h75.228c0.15,0,0.292,0.066,0.388,0.184c0.095,0.115,0.133,0.268,0.104,0.414l-6.856,34.486
				l-1.082,5.373l-5.334,26.787c-0.035,0.176-0.162,0.32-0.333,0.377l-40.221,13.354C179.304,794.492,179.25,794.5,179.197,794.5z"
				/>
			<path opacity="0.08" enable-background="new    " d="M157.463,714l-2.968,14.838h60.391l-1.885,9.584H152.57l-2.928,14.836
				h60.392l-3.369,16.924l-24.341,8.061l-21.093-8.061l1.442-7.34h-14.836l-3.529,17.807l34.889,13.354l40.22-13.354l5.334-26.787
				l1.082-5.373l6.856-34.486L157.463,714L157.463,714z"/>
		</g>
		<path fill="#0093BE" d="M157.463,713l-2.968,14.838h60.391l-1.885,9.584H152.57l-2.928,14.836h60.392l-3.369,16.924l-24.341,8.061
			l-21.093-8.061l1.442-7.34h-14.836l-3.529,17.807l34.889,13.354l40.22-13.354l5.334-26.787l1.082-5.373l6.856-34.486L157.463,713
			L157.463,713z"/>
	</g>
	<g>
		<g opacity="0.1">
			<polygon points="153.078,621.652 159.524,693.968 188.458,702 217.471,693.957 223.925,621.652 			"/>
			<polygon points="164.178,610.97 168.301,610.97 168.301,615.484 172.807,615.484 172.807,602 168.3,602 168.3,606.453 
				164.177,606.453 164.177,602 159.669,602 159.669,615.484 164.178,615.484 			"/>
			<polygon points="178.734,615.484 183.242,615.484 183.242,606.473 187.211,606.473 187.211,602 174.766,602 174.766,606.473 
				178.734,606.473 			"/>
			<polygon points="193.598,608.801 196.7,613.596 196.777,613.596 199.878,608.801 199.878,615.484 204.367,615.484 204.367,602 
				199.666,602 196.777,606.738 193.887,602 189.187,602 189.187,615.484 193.598,615.484 			"/>
			<polygon points="217.458,611.027 211.119,611.027 211.119,602 206.611,602 206.611,615.484 217.458,615.484 			"/>
		</g>
		<path opacity="0.08" enable-background="new    " d="M188.458,703c-0.09,0-0.18-0.012-0.268-0.037l-28.933-8.031
			c-0.401-0.111-0.691-0.461-0.729-0.875l-6.447-72.315c-0.025-0.28,0.069-0.558,0.258-0.765c0.189-0.207,0.457-0.324,0.738-0.324
			h70.847c0.281,0,0.548,0.117,0.738,0.324s0.283,0.484,0.258,0.765l-6.454,72.305c-0.037,0.415-0.328,0.765-0.729,0.875
			l-29.013,8.043C188.638,702.988,188.548,703,188.458,703z"/>
		<path opacity="0.08" enable-background="new    " d="M168.301,616.484c-0.552,0-1-0.447-1-1v-3.515h-2.123v3.517
			c0,0.552-0.448,1-1,1h-4.508c-0.552,0-1-0.448-1-1V602c0-0.552,0.448-1,1-1h4.507c0.552,0,1,0.448,1,1v3.453h2.123V602
			c0-0.552,0.448-1,1-1h4.508c0.552,0,1,0.448,1,1v13.484c0,0.553-0.448,1-1,1H168.301z"/>
		<path opacity="0.08" enable-background="new    " d="M178.734,616.484c-0.552,0-1-0.447-1-1v-8.014h-2.968c-0.552,0-1-0.447-1-1
			V602c0-0.552,0.448-1,1-1h12.445c0.552,0,1,0.448,1,1v4.473c0,0.551-0.448,1-1,1h-2.97v8.014c0,0.552-0.448,1-1,1L178.734,616.484
			L178.734,616.484z"/>
		<path opacity="0.08" enable-background="new    " d="M199.878,616.484c-0.552,0-1-0.447-1-1v-3.297l-1.262,1.951
			c-0.185,0.285-0.5,0.457-0.84,0.457c-0.34,0-0.732-0.172-0.917-0.457l-1.263-1.951v3.297c0,0.553-0.448,1-1,1h-4.41
			c-0.552,0-1-0.447-1-1V602c0-0.552,0.448-1,1-1h4.699c0.349,0,0.672,0.182,0.854,0.479l2.037,3.34l2.035-3.338
			c0.182-0.299,0.505-0.479,0.854-0.479h4.701c0.552,0,1,0.448,1,1v13.485c0,0.552-0.448,1-1,1L199.878,616.484L199.878,616.484z"/>
		<path opacity="0.08" enable-background="new    " d="M206.611,616.484c-0.552,0-1-0.447-1-1V602c0-0.552,0.448-1,1-1h4.508
			c0.552,0,1,0.448,1,1v8.027h5.339c0.552,0,1,0.447,1,1v4.457c0,0.553-0.448,1-1,1H206.611z"/>
		<path opacity="0.08" enable-background="new    " d="M188.458,702.5c-0.045,0-0.09-0.006-0.134-0.018l-28.933-8.032
			c-0.201-0.056-0.346-0.23-0.364-0.438l-6.447-72.314c-0.012-0.141,0.034-0.278,0.129-0.383c0.095-0.104,0.229-0.162,0.369-0.162
			h70.847c0.141,0,0.274,0.059,0.369,0.162c0.095,0.104,0.143,0.242,0.129,0.383l-6.454,72.305
			c-0.019,0.208-0.164,0.382-0.363,0.438l-29.013,8.043C188.548,702.494,188.502,702.5,188.458,702.5z"/>
		<path opacity="0.08" enable-background="new    " d="M168.301,615.984c-0.276,0-0.5-0.224-0.5-0.5v-4.015h-3.123v4.017
			c0,0.275-0.224,0.5-0.5,0.5h-4.508c-0.276,0-0.5-0.225-0.5-0.5V602c0-0.275,0.224-0.5,0.5-0.5h4.507c0.276,0,0.5,0.225,0.5,0.5
			v3.953h3.123V602c0-0.275,0.224-0.5,0.5-0.5h4.508c0.276,0,0.5,0.225,0.5,0.5v13.484c0,0.276-0.224,0.5-0.5,0.5H168.301z"/>
		<path opacity="0.08" enable-background="new    " d="M178.734,615.984c-0.276,0-0.5-0.224-0.5-0.5v-8.514h-3.468
			c-0.276,0-0.5-0.224-0.5-0.5V602c0-0.275,0.224-0.5,0.5-0.5h12.445c0.276,0,0.5,0.225,0.5,0.5v4.473c0,0.275-0.224,0.5-0.5,0.5
			h-3.47v8.514c0,0.275-0.224,0.5-0.5,0.5L178.734,615.984L178.734,615.984z"/>
		<path opacity="0.08" enable-background="new    " d="M199.878,615.984c-0.275,0-0.5-0.224-0.5-0.5v-4.99l-2.182,3.373
			c-0.092,0.143-0.25,0.229-0.42,0.229c-0.17,0-0.405-0.086-0.497-0.229l-2.183-3.373v4.99c0,0.276-0.224,0.5-0.5,0.5h-4.41
			c-0.276,0-0.5-0.224-0.5-0.5V602c0-0.275,0.224-0.5,0.5-0.5h4.699c0.174,0,0.336,0.091,0.427,0.24l2.464,4.037l2.462-4.037
			c0.091-0.149,0.252-0.24,0.427-0.24h4.701c0.275,0,0.5,0.225,0.5,0.5v13.484c0,0.276-0.225,0.5-0.5,0.5H199.878z"/>
		<path opacity="0.08" enable-background="new    " d="M206.611,615.984c-0.276,0-0.5-0.224-0.5-0.5V602c0-0.275,0.224-0.5,0.5-0.5
			h4.508c0.276,0,0.5,0.225,0.5,0.5v8.527h5.839c0.276,0,0.5,0.224,0.5,0.5v4.457c0,0.276-0.224,0.5-0.5,0.5H206.611z"/>
		<g opacity="0.08">
			<polygon points="153.078,621.652 159.524,693.968 188.458,702 217.471,693.957 223.925,621.652 			"/>
			<polygon points="164.178,610.97 168.301,610.97 168.301,615.484 172.807,615.484 172.807,602 168.3,602 168.3,606.453 
				164.177,606.453 164.177,602 159.669,602 159.669,615.484 164.178,615.484 			"/>
			<polygon points="178.734,615.484 183.242,615.484 183.242,606.473 187.211,606.473 187.211,602 174.766,602 174.766,606.473 
				178.734,606.473 			"/>
			<polygon points="193.598,608.801 196.7,613.596 196.777,613.596 199.878,608.801 199.878,615.484 204.367,615.484 204.367,602 
				199.666,602 196.777,606.738 193.887,602 189.187,602 189.187,615.484 193.598,615.484 			"/>
			<polygon points="217.458,611.027 211.119,611.027 211.119,602 206.611,602 206.611,615.484 217.458,615.484 			"/>
		</g>
		<g>
			<polygon fill="#E44D26" points="159.524,692.968 153.078,620.652 223.925,620.652 217.471,692.957 188.458,701 			"/>
			<polygon fill="#F16529" points="188.501,694.854 211.945,688.354 217.46,626.564 188.501,626.564 			"/>
			<polygon fill="#FFFFFF" points="188.501,635.436 188.471,635.436 166.262,635.436 166.474,637.814 168.654,662.255 
				188.471,662.255 188.501,662.255 199.392,662.255 198.363,673.758 188.471,676.428 188.471,676.43 188.462,676.432 
				178.584,673.764 177.953,666.689 173.153,666.689 169.05,666.689 170.292,680.616 188.46,685.659 188.501,685.648 
				188.501,685.646 206.652,680.616 206.787,679.117 208.871,655.768 209.086,653.386 206.697,653.386 188.501,653.386 
				188.471,653.386 176.766,653.386 175.955,644.305 188.471,644.305 188.501,644.305 209.865,644.305 209.894,644.305 
				210.072,642.311 210.476,637.814 210.688,635.436 			"/>
			<polygon fill="#EBEBEB" points="188.501,653.386 176.766,653.386 175.955,644.305 188.501,644.305 188.501,635.436 
				188.471,635.436 166.262,635.436 166.474,637.814 168.654,662.255 188.501,662.255 			"/>
			<polygon fill="#EBEBEB" points="188.501,676.421 188.462,676.432 178.584,673.764 177.953,666.689 173.153,666.689 
				169.05,666.689 170.292,680.616 188.46,685.659 188.501,685.648 			"/>
			<path d="M159.669,601h4.507v4.453h4.123V601h4.508v13.484h-4.507v-4.515h-4.123v4.517h-4.508V601L159.669,601z"/>
			<path d="M178.734,605.473h-3.968V601h12.445v4.473h-3.97v9.014h-4.508L178.734,605.473L178.734,605.473z"/>
			<path d="M189.187,601h4.699l2.891,4.738l2.889-4.738h4.701v13.484h-4.488V607.8l-3.102,4.795H196.7l-3.103-4.795v6.685h-4.41V601
				z"/>
			<path d="M206.611,601h4.508v9.027h6.339v4.457h-10.847V601L206.611,601z"/>
			<polygon fill="#FFFFFF" points="188.471,653.386 188.471,662.255 199.392,662.255 198.363,673.758 188.471,676.428 
				188.471,685.655 206.652,680.616 206.787,679.117 208.871,655.768 209.086,653.386 206.697,653.386 			"/>
			<polygon fill="#FFFFFF" points="188.471,635.436 188.471,640.943 188.471,644.282 188.471,644.305 209.865,644.305 
				209.865,644.305 209.894,644.305 210.072,642.311 210.476,637.814 210.688,635.436 			"/>
		</g>
	</g>
	<g>
		<path opacity="0.05" enable-background="new    " d="M148.5,888c-0.829,0-1.5-0.672-1.5-1.5v-80c0-0.828,0.671-1.5,1.5-1.5h80
			c0.828,0,1.5,0.672,1.5,1.5v80c0,0.828-0.672,1.5-1.5,1.5H148.5z"/>
		<path opacity="0.05" enable-background="new    " d="M148.5,887.5c-0.552,0-1-0.447-1-1v-80c0-0.553,0.448-1,1-1h80
			c0.553,0,1,0.447,1,1v80c0,0.553-0.447,1-1,1H148.5z"/>
		<path opacity="0.05" enable-background="new    " d="M148.5,887c-0.276,0-0.5-0.225-0.5-0.5v-80c0-0.275,0.224-0.5,0.5-0.5h80
			c0.275,0,0.5,0.225,0.5,0.5v80c0,0.275-0.225,0.5-0.5,0.5H148.5z"/>
		<rect x="148.5" y="806.5" opacity="0.05" enable-background="new    " width="80" height="80"/>
		<g id="logo">
			<rect id="background" x="148.5" y="806" fill="#F7DF1E" width="80" height="80"/>
			<path id="j" d="M169.535,872.854l6.122-3.705c1.181,2.096,2.255,3.867,4.833,3.867c2.47,0,4.026-0.967,4.026-4.727v-25.561h7.52
				v25.668c0,7.787-4.565,11.33-11.226,11.33C174.798,879.727,171.307,876.611,169.535,872.854"/>
			<path id="s" d="M196.119,872.049l6.121-3.545c1.609,2.633,3.705,4.564,7.41,4.564c3.115,0,5.103-1.561,5.103-3.705
				c0-2.578-2.04-3.49-5.478-4.994l-1.879-0.807c-5.426-2.311-9.022-5.209-9.022-11.33c0-5.641,4.296-9.938,11.009-9.938
				c4.779,0,8.217,1.666,10.688,6.018l-5.854,3.76c-1.289-2.312-2.685-3.223-4.833-3.223c-2.201,0-3.598,1.395-3.598,3.223
				c0,2.254,1.396,3.168,4.617,4.562l1.88,0.807c6.391,2.738,9.989,5.531,9.989,11.812c0,6.768-5.316,10.473-12.459,10.473
				C202.831,879.729,198.32,876.398,196.119,872.049"/>
		</g>
	</g>
</g>
</svg>
