<?xml version="1.0" encoding="utf-8"?>
<!-- Generator: Adobe Illustrator 16.0.0, SVG Export Plug-In . SVG Version: 6.00 Build 0)  -->
<!DOCTYPE svg PUBLIC "-//W3C//DTD SVG 1.1//EN" "http://www.w3.org/Graphics/SVG/1.1/DTD/svg11.dtd">
<svg version="1.1" id="Layer_1" xmlns="http://www.w3.org/2000/svg" xmlns:xlink="http://www.w3.org/1999/xlink" x="0px" y="0px"
	 width="61.643px" height="62px" viewBox="0 0 61.643 62" enable-background="new 0 0 61.643 62" xml:space="preserve">
<g>
	<g>
		<path fill="#F89C20" d="M0,8.359v45.277c0.001-2.138,0.817-4.275,2.448-5.906l14.27-14.27V8.359c0-4.614-3.738-8.355-8.351-8.359
			H8.35C3.737,0.004,0,3.746,0,8.359z M11.779,8.359c0,1.889-1.531,3.419-3.42,3.419c-1.888,0-3.419-1.531-3.419-3.419
			s1.531-3.42,3.419-3.42C10.249,4.939,11.779,6.471,11.779,8.359z"/>
		<path fill="#E54E26" d="M24.912,25.268c1.632-1.632,3.771-2.448,5.91-2.448c-2.139,0-4.279,0.815-5.912,2.448l-8.191,8.192v20.181
			c0,2.308-0.936,4.398-2.449,5.911L30.822,43l-5.91-5.91C21.647,33.826,21.647,28.533,24.912,25.268z"/>
		<path fill="#D02E27" d="M0,53.636c0,0.001,0,0.002,0,0.004c0,0.035,0,0.069,0,0.103c0,0.018,0,0.035,0.001,0.053
			c0,0.017,0,0.034,0,0.05c0.001,0.024,0.002,0.049,0.003,0.072c0,0.009,0,0.019,0,0.028c0.001,0.029,0.002,0.059,0.003,0.088
			c0,0.004,0,0.007,0,0.009c0.045,0.932,0.244,1.855,0.598,2.732c0.002,0.005,0.004,0.009,0.006,0.014
			c0.007,0.018,0.015,0.035,0.021,0.052c0.007,0.017,0.014,0.034,0.021,0.05c0.002,0.005,0.004,0.01,0.007,0.016
			c0.369,0.869,0.881,1.662,1.508,2.351c0.003,0.004,0.006,0.007,0.008,0.01c0.019,0.021,0.039,0.041,0.058,0.063
			c0.007,0.007,0.015,0.015,0.021,0.022c0.016,0.017,0.032,0.033,0.047,0.05c0.013,0.013,0.026,0.026,0.039,0.041
			c0.01,0.01,0.021,0.021,0.031,0.032c0.024,0.024,0.05,0.05,0.074,0.075c0.024,0.024,0.049,0.048,0.074,0.073
			c0.01,0.01,0.022,0.021,0.033,0.032c0.014,0.013,0.027,0.026,0.04,0.039c0.016,0.016,0.033,0.031,0.05,0.047
			c0.007,0.006,0.015,0.014,0.023,0.021c0.021,0.019,0.042,0.039,0.062,0.058c0.003,0.003,0.006,0.005,0.01,0.007
			c0.688,0.626,1.482,1.139,2.351,1.508c0.006,0.002,0.012,0.005,0.018,0.008c0.016,0.006,0.032,0.013,0.048,0.02
			c0.018,0.008,0.036,0.015,0.053,0.021c0.004,0.002,0.009,0.004,0.013,0.006c0.877,0.354,1.802,0.555,2.732,0.598
			c0.003,0.001,0.005,0.001,0.008,0.001c0.03,0.001,0.06,0.003,0.09,0.004c0.009,0,0.018,0,0.026,0
			c0.025,0.002,0.049,0.002,0.074,0.003c0.016,0.001,0.03,0.001,0.047,0.001c0.018,0.001,0.037,0.001,0.055,0.001
			C8.288,61.999,8.32,62,8.352,62h0.014c0.033,0,0.064-0.001,0.097-0.001c0.018,0,0.036,0,0.054-0.001c0.016,0,0.031,0,0.047-0.001
			c0.025-0.001,0.049-0.001,0.074-0.003c0.009,0,0.017,0,0.026,0c0.03-0.001,0.06-0.003,0.09-0.004l0.008-0.001
			c0.93-0.043,1.854-0.243,2.731-0.597c0.004-0.003,0.009-0.005,0.014-0.007c0.017-0.006,0.034-0.014,0.051-0.021
			c0.017-0.006,0.034-0.014,0.051-0.021c0.005-0.002,0.01-0.004,0.016-0.006c0.869-0.369,1.663-0.882,2.352-1.509
			c0.002-0.002,0.005-0.003,0.007-0.006c0.021-0.02,0.043-0.039,0.065-0.06c0.006-0.006,0.014-0.012,0.021-0.019
			c0.017-0.017,0.035-0.033,0.052-0.049c0.012-0.011,0.024-0.024,0.036-0.035c0.013-0.012,0.025-0.023,0.038-0.035
			c0.025-0.024,0.05-0.049,0.073-0.073c1.513-1.514,2.449-3.603,2.449-5.911V33.46L2.449,47.73C0.817,49.361,0.001,51.498,0,53.636z
			 M8.359,57.066c-1.889,0-3.42-1.531-3.42-3.42c0-1.889,1.531-3.42,3.42-3.42c1.89,0,3.42,1.531,3.42,3.42
			C11.779,55.535,10.249,57.066,8.359,57.066z"/>
		<path fill="#694D9F" d="M44.924,53.641V33.46l-8.19-8.192c-1.633-1.633-3.773-2.448-5.912-2.448c2.139,0,4.277,0.816,5.91,2.448
			c0.612,0.612,1.109,1.296,1.492,2.023c1.657,3.156,1.16,7.146-1.492,9.799L30.822,43l16.547,16.545
			c-0.801-0.802-1.435-1.77-1.857-2.844C45.137,55.753,44.924,54.723,44.924,53.641z"/>
		<path fill="#7F1333" d="M38.224,27.292c-0.383-0.728-0.88-1.411-1.492-2.023c-1.633-1.632-3.771-2.448-5.91-2.448
			c-2.139,0-4.278,0.816-5.91,2.448c-3.264,3.265-3.264,8.558,0,11.822l5.91,5.91l5.91-5.91
			C39.384,34.438,39.881,30.447,38.224,27.292z M28.403,33.597c-1.335-1.335-1.335-3.5,0-4.836c0.668-0.667,1.543-1.003,2.419-1.002
			c0.875-0.001,1.75,0.334,2.419,1.002c1.336,1.336,1.336,3.5,0,4.836c-0.668,0.668-1.543,1.001-2.419,1.001
			C29.946,34.599,29.072,34.266,28.403,33.597z"/>
		<path fill="#263C81" d="M45.511,56.702c0.423,1.074,1.057,2.042,1.857,2.844c0.002,0.002,0.003,0.004,0.004,0.006
			c0.025,0.024,0.05,0.048,0.074,0.073c0.013,0.012,0.024,0.024,0.038,0.035c0.011,0.011,0.023,0.024,0.036,0.035
			c0.018,0.017,0.034,0.033,0.052,0.049c0.007,0.006,0.014,0.012,0.021,0.019c0.021,0.02,0.042,0.041,0.064,0.06
			c0.003,0.003,0.005,0.004,0.008,0.006c0.688,0.626,1.482,1.14,2.353,1.508c0.005,0.002,0.01,0.005,0.017,0.007
			c0.016,0.007,0.032,0.014,0.05,0.021c0.017,0.007,0.034,0.014,0.053,0.021c0.003,0.001,0.008,0.003,0.012,0.006
			c0.877,0.354,1.803,0.554,2.732,0.597l0.009,0.001c0.029,0.001,0.06,0.003,0.09,0.004c0.008,0,0.018,0,0.025,0.001
			c0.024,0,0.049,0.001,0.073,0.002c0.017,0,0.032,0.001,0.048,0.001c0.019,0,0.037,0.001,0.054,0.001c0.032,0,0.064,0,0.097,0
			h0.016c0.031,0,0.062,0,0.095,0c0.018,0,0.037-0.001,0.055-0.001c0.017,0,0.032-0.001,0.048-0.001
			c0.023-0.001,0.049-0.002,0.073-0.002c0.009-0.001,0.018-0.001,0.026-0.001c0.029-0.001,0.061-0.003,0.09-0.004
			c0.002,0,0.005,0,0.007-0.001c0.932-0.043,1.855-0.243,2.733-0.598c0.005-0.002,0.009-0.004,0.013-0.005
			c0.019-0.007,0.036-0.015,0.054-0.022c0.016-0.006,0.033-0.013,0.049-0.02c0.006-0.003,0.012-0.006,0.016-0.008
			c0.869-0.369,1.664-0.881,2.353-1.507c0.003-0.003,0.007-0.005,0.009-0.009c0.021-0.019,0.042-0.038,0.063-0.057
			c0.008-0.007,0.016-0.015,0.022-0.021c0.017-0.016,0.033-0.032,0.051-0.047c0.014-0.012,0.026-0.025,0.039-0.039
			c0.011-0.011,0.022-0.021,0.033-0.032c0.025-0.024,0.05-0.049,0.074-0.073c0.025-0.024,0.05-0.05,0.073-0.075
			c0.011-0.011,0.021-0.022,0.032-0.032c0.013-0.014,0.026-0.027,0.039-0.042c0.015-0.016,0.031-0.032,0.047-0.049
			c0.007-0.008,0.015-0.015,0.021-0.022c0.019-0.021,0.038-0.042,0.057-0.063c0.003-0.003,0.007-0.006,0.009-0.01
			c0.626-0.688,1.138-1.482,1.508-2.351c0.002-0.006,0.005-0.011,0.007-0.016c0.007-0.017,0.014-0.034,0.021-0.05
			c0.008-0.017,0.015-0.035,0.022-0.052c0.001-0.005,0.003-0.009,0.005-0.014c0.354-0.875,0.554-1.8,0.598-2.731
			c0-0.003,0-0.006,0-0.01c0.002-0.029,0.003-0.059,0.005-0.088c0-0.009,0-0.019,0-0.028c0.001-0.023,0.002-0.047,0.003-0.072
			c0-0.017,0.001-0.034,0.001-0.05c0-0.018,0-0.035,0.001-0.053c0-0.034,0-0.068,0-0.103c0-2.14-0.816-4.279-2.448-5.911
			l-14.27-14.27v20.181C44.925,54.723,45.137,55.753,45.511,56.702z M53.285,50.226c1.889,0,3.42,1.531,3.42,3.42
			c0,1.889-1.531,3.42-3.42,3.42s-3.421-1.531-3.421-3.42C49.864,51.757,51.396,50.226,53.285,50.226z"/>
		<path fill="#2EB3C4" d="M44.925,8.359V33.46l14.271,14.27c1.631,1.632,2.447,3.771,2.447,5.911V8.359
			C61.643,3.742,57.9,0,53.285,0C48.667,0,44.925,3.742,44.925,8.359z M53.285,4.939c1.889,0,3.42,1.531,3.42,3.42
			s-1.531,3.42-3.42,3.42c-1.89,0-3.421-1.532-3.421-3.42S51.395,4.939,53.285,4.939z"/>
	</g>
</g>
</svg>
